<?xml version="1.0" encoding="UTF-8"?>
<svg width="1103px" height="499px" viewBox="0 0 1103 499" version="1.1" xmlns="http://www.w3.org/2000/svg" xmlns:xlink="http://www.w3.org/1999/xlink">
    <!-- Generator: Sketch 48.2 (47327) - http://www.bohemiancoding.com/sketch -->
    <title>illustration</title>
    <desc>Created with Sketch.</desc>
    <defs></defs>
    <g id="Page-1" stroke="none" stroke-width="1" fill="none" fill-rule="evenodd">
        <rect id="Rectangle" x="0" y="0" width="1103" height="499"></rect>
        <g id="illustration" fill="#FFFFFF">
            <path d="M738.342583,174.049456 C738.250307,174.051241 738.157815,174.052138 738.065112,174.052138 C730.297165,174.052138 724,167.755608 724,159.988445 C724,152.221281 730.297165,145.924752 738.065112,145.924752 C742.266134,145.924752 746.03698,147.766365 748.614223,150.686243 C749.970978,145.68138 754.545789,142 759.98052,142 C766.483917,142 771.755962,147.271513 771.755962,153.774255 C771.755962,154.18777 771.734643,154.596307 771.693044,154.998826 C772.623748,154.630678 773.638159,154.42838 774.699823,154.42838 C779.216071,154.42838 782.877214,158.089153 782.877214,162.604946 C782.877214,163.391706 782.766083,164.152514 782.558661,164.87253 C789.12092,165.218974 792.899977,168.286969 793.895833,174.076514 L738.342583,174.076514 L738.342583,174.049456 Z" id="Combined-Shape"></path>
            <path d="M938.642408,258.18378 L938.637251,258.21254 L880.005282,258.21254 C879.829595,250.699424 884.036857,246.682088 892.62707,246.160533 C893.429188,241.592237 897.431038,238.120006 902.247073,238.120006 C904.563391,238.120006 906.69137,238.923209 908.365602,240.265252 C908.674659,233.991805 913.87903,229 920.253902,229 C925.405982,229 929.793532,232.260467 931.450308,236.822889 C933.435166,235.34628 935.898046,234.472004 938.565931,234.472004 C945.139676,234.472004 950.46875,239.780119 950.46875,246.328012 C950.46875,252.850494 945.180958,258.142802 938.642408,258.18378 Z" id="Combined-Shape" transform="translate(915.234375, 243.606270) scale(-1, 1) translate(-915.234375, -243.606270) "></path>
            <path d="M385.342583,170.049456 C385.250307,170.051241 385.157815,170.052138 385.065112,170.052138 C377.297165,170.052138 371,163.755608 371,155.988445 C371,148.221281 377.297165,141.924752 385.065112,141.924752 C389.266134,141.924752 393.03698,143.766365 395.614223,146.686243 C396.970978,141.68138 401.545789,138 406.98052,138 C413.483917,138 418.755962,143.271513 418.755962,149.774255 C418.755962,150.18777 418.734643,150.596307 418.693044,150.998826 C419.623748,150.630678 420.638159,150.42838 421.699823,150.42838 C426.216071,150.42838 429.877214,154.089153 429.877214,158.604946 C429.877214,159.391706 429.766083,160.152514 429.558661,160.87253 C436.12092,161.218974 439.899977,164.286969 440.895833,170.076514 L385.342583,170.076514 L385.342583,170.049456 Z" id="Combined-Shape"></path>
        </g>
    </g>
</svg>
