<?xml version="1.0" encoding="UTF-8"?>
<svg width="1103px" height="499px" viewBox="0 0 1103 499" version="1.1" xmlns="http://www.w3.org/2000/svg" xmlns:xlink="http://www.w3.org/1999/xlink">
    <!-- Generator: Sketch 48.2 (47327) - http://www.bohemiancoding.com/sketch -->
    <title>illustration</title>
    <desc>Created with Sketch.</desc>
    <defs></defs>
    <g id="Page-1" stroke="none" stroke-width="1" fill="none" fill-rule="evenodd">
        <g id="illustration">
            <rect id="Rectangle" x="0" y="0" width="1103" height="499"></rect>
            <path d="M228.869447,243.06182 C228.754481,243.064051 228.639244,243.065172 228.523746,243.065172 C218.845648,243.065172 211,235.19451 211,225.485556 C211,215.776602 218.845648,207.905939 228.523746,207.905939 C233.757806,207.905939 238.455909,210.207957 241.666901,213.857803 C243.357285,207.601726 249.057049,203 255.828188,203 C263.930782,203 270.499232,209.589392 270.499232,217.717818 C270.499232,218.234713 270.47267,218.745384 270.420842,219.248532 C271.580408,218.788347 272.844263,218.535475 274.166993,218.535475 C279.793794,218.535475 284.355217,223.111441 284.355217,228.756182 C284.355217,229.739633 284.216759,230.690642 283.958332,231.590662 C292.134261,232.023717 296.842595,235.858711 298.083333,243.095643 L228.869447,243.095643 L228.869447,243.06182 Z" id="Combined-Shape" fill="#FFFFFF"></path>
            <path d="M681.201995,117.061786 L681.194239,117.105207 L593.007944,117.105207 C592.7437,105.761875 599.071696,99.6964861 611.991934,98.9090397 C613.198372,92.0118088 619.217415,86.7694212 626.461045,86.7694212 C629.944938,86.7694212 633.145556,87.9821005 635.66371,90.0083217 C636.128552,80.5366467 643.956264,73 653.544487,73 C661.29355,73 667.892711,77.9226657 670.38461,84.8110279 C673.369965,82.5816385 677.074298,81.2616527 681.08697,81.2616527 C690.97431,81.2616527 698.989583,89.2758665 698.989583,99.1619002 C698.989583,109.009569 691.0364,116.999917 681.201995,117.061786 Z" id="Combined-Shape" fill="#FFFFFF"></path>
            <path d="M679.723614,197.831214 C679.608648,197.833446 679.493411,197.834566 679.377913,197.834566 C669.699815,197.834566 661.854167,189.963904 661.854167,180.25495 C661.854167,170.545996 669.699815,162.675334 679.377913,162.675334 C684.611973,162.675334 689.310076,164.977351 692.521068,168.627198 C694.211451,162.37112 699.911216,157.769394 706.682355,157.769394 C714.784949,157.769394 721.353398,164.358786 721.353398,172.487213 C721.353398,173.004107 721.326837,173.514778 721.275008,174.017926 C722.434574,173.557742 723.69843,173.304869 725.021159,173.304869 C730.64796,173.304869 735.209384,177.880836 735.209384,183.525576 C735.209384,184.509027 735.070926,185.460036 734.812499,186.360056 C742.988428,186.793111 747.696761,190.628105 748.9375,197.865037 L679.723614,197.865037 L679.723614,197.831214 Z" id="Combined-Shape" fill-opacity="0.5" fill="#F2F4FB"></path>
            <path d="M298.201995,135.061786 L298.194239,135.105207 L210.007944,135.105207 C209.7437,123.761875 216.071696,117.696486 228.991934,116.90904 C230.198372,110.011809 236.217415,104.769421 243.461045,104.769421 C246.944938,104.769421 250.145556,105.982101 252.66371,108.008322 C253.128552,98.5366467 260.956264,91 270.544487,91 C278.29355,91 284.892711,95.9226657 287.38461,102.811028 C290.369965,100.581639 294.074298,99.2616527 298.08697,99.2616527 C307.97431,99.2616527 315.989583,107.275867 315.989583,117.1619 C315.989583,127.009569 308.0364,134.999917 298.201995,135.061786 Z" id="Combined-Shape" fill="#FFFFFF"></path>
        </g>
    </g>
</svg>
