<?xml version="1.0" encoding="UTF-8"?>
<svg width="887px" height="136px" viewBox="0 0 887 136" version="1.1" xmlns="http://www.w3.org/2000/svg" xmlns:xlink="http://www.w3.org/1999/xlink">
    <!-- Generator: Sketch 48.2 (47327) - http://www.bohemiancoding.com/sketch -->
    <title>Group 2 Copy</title>
    <desc>Created with Sketch.</desc>
    <defs>
        <linearGradient x1="38.9489809%" y1="115.303%" x2="75.556721%" y2="0%" id="linearGradient-1">
            <stop stop-color="#FD8835" offset="0%"></stop>
            <stop stop-color="#FC6120" offset="100%"></stop>
        </linearGradient>
    </defs>
    <g id="Artboard" stroke="none" stroke-width="1" fill="none" fill-rule="evenodd" transform="translate(-275.000000, -197.000000)">
        <g id="og" transform="translate(150.000000, 116.000000)">
            <g id="Group-2-Copy" transform="translate(125.000000, 81.000000)">
                <polygon id="Shape" fill="#D5EBF1" fill-rule="nonzero" points="215 0 219 0 219 136 215 136"></polygon>
                <path d="M288.679166,71.09375 L288.679166,88 L280.772916,88 L280.772916,42.5 L298.179166,42.5 C303.262525,42.5 307.298943,43.8229034 310.288541,46.46875 C313.278139,49.1145966 314.772916,52.6145616 314.772916,56.96875 C314.772916,61.4271056 313.309389,64.8958209 310.382291,67.375 C307.455193,69.8541791 303.356276,71.09375 298.085416,71.09375 L288.679166,71.09375 Z M288.679166,64.75 L298.179166,64.75 C300.99168,64.75 303.137492,64.0885483 304.616666,62.765625 C306.09584,61.4427017 306.835416,59.5312625 306.835416,57.03125 C306.835416,54.5729044 306.085424,52.6093823 304.585416,51.140625 C303.085409,49.6718677 301.022929,48.9166669 298.397916,48.875 L288.679166,48.875 L288.679166,64.75 Z M320.183333,70.78125 C320.183333,67.4687334 320.839576,64.4843883 322.152083,61.828125 C323.464589,59.1718617 325.308321,57.1302155 327.683333,55.703125 C330.058345,54.2760345 332.787484,53.5625 335.870833,53.5625 C340.433356,53.5625 344.136444,55.0312353 346.980208,57.96875 C349.823972,60.9062647 351.360415,64.8020591 351.589583,69.65625 L351.620833,71.4375 C351.620833,74.77085 350.980214,77.7499869 349.698958,80.375 C348.417701,83.0000131 346.584386,85.0312428 344.198958,86.46875 C341.813529,87.9062572 339.058348,88.625 335.933333,88.625 C331.162476,88.625 327.344806,87.0364742 324.480208,83.859375 C321.61561,80.6822758 320.183333,76.4479431 320.183333,71.15625 L320.183333,70.78125 Z M327.777083,71.4375 C327.777083,74.9166841 328.495826,77.6406152 329.933333,79.609375 C331.37084,81.5781348 333.37082,82.5625 335.933333,82.5625 C338.495846,82.5625 340.490617,81.56251 341.917708,79.5625 C343.344798,77.56249 344.058333,74.6354359 344.058333,70.78125 C344.058333,67.3645662 343.323965,64.65626 341.855208,62.65625 C340.386451,60.65624 338.391679,59.65625 335.870833,59.65625 C333.391654,59.65625 331.422923,60.6406152 329.964583,62.609375 C328.506242,64.5781348 327.777083,67.5208138 327.777083,71.4375 Z M367.1875,88 L359.59375,88 L359.59375,40 L367.1875,40 L367.1875,88 Z M395.472916,78.8125 C395.472916,77.4583266 394.91563,76.4270869 393.801041,75.71875 C392.686452,75.0104131 390.837513,74.3854194 388.254166,73.84375 C385.67082,73.3020806 383.514592,72.6145875 381.785416,71.78125 C377.993731,69.9479075 376.097916,67.2916841 376.097916,63.8125 C376.097916,60.8958187 377.327071,58.4583431 379.785416,56.5 C382.243762,54.5416569 385.368731,53.5625 389.160416,53.5625 C393.202103,53.5625 396.467696,54.56249 398.957291,56.5625 C401.446887,58.56251 402.691666,61.1562341 402.691666,64.34375 L395.097916,64.34375 C395.097916,62.8854094 394.556255,61.6718798 393.472916,60.703125 C392.389578,59.7343702 390.952092,59.25 389.160416,59.25 C387.493741,59.25 386.13438,59.6354128 385.082291,60.40625 C384.030203,61.1770872 383.504166,62.2083269 383.504166,63.5 C383.504166,64.6666725 383.993745,65.5729134 384.972916,66.21875 C385.952088,66.8645866 387.931235,67.5156217 390.910416,68.171875 C393.889598,68.8281283 396.228116,69.6093705 397.926041,70.515625 C399.623966,71.4218795 400.884371,72.5104103 401.707291,73.78125 C402.530212,75.0520897 402.941666,76.5937409 402.941666,78.40625 C402.941666,81.4479319 401.681262,83.9114489 399.160416,85.796875 C396.63957,87.6823011 393.33752,88.625 389.254166,88.625 C386.483319,88.625 384.014594,88.125005 381.847916,87.125 C379.681239,86.124995 377.993756,84.7500088 376.785416,83 C375.577077,81.2499912 374.972916,79.3645934 374.972916,77.34375 L382.347916,77.34375 C382.452083,79.1354256 383.12916,80.5156202 384.379166,81.484375 C385.629173,82.4531298 387.285406,82.9375 389.347916,82.9375 C391.347926,82.9375 392.868744,82.5572955 393.910416,81.796875 C394.952088,81.0364545 395.472916,80.0416728 395.472916,78.8125 Z M421.602083,73.5 L418.227083,76.96875 L418.227083,88 L410.633333,88 L410.633333,40 L418.227083,40 L418.227083,67.6875 L420.602083,64.71875 L429.945833,54.1875 L439.070833,54.1875 L426.508333,68.28125 L440.414583,88 L431.633333,88 L421.602083,73.5 Z M453.16875,88 L445.575,88 L445.575,54.1875 L453.16875,54.1875 L453.16875,88 Z M445.10625,45.40625 C445.10625,44.2395775 445.476038,43.2708372 446.215625,42.5 C446.955212,41.7291628 448.012493,41.34375 449.3875,41.34375 C450.762507,41.34375 451.824996,41.7291628 452.575,42.5 C453.325003,43.2708372 453.7,44.2395775 453.7,45.40625 C453.7,46.5520891 453.325003,47.5052045 452.575,48.265625 C451.824996,49.0260455 450.762507,49.40625 449.3875,49.40625 C448.012493,49.40625 446.955212,49.0260455 446.215625,48.265625 C445.476038,47.5052045 445.10625,46.5520891 445.10625,45.40625 Z M476.297916,68.34375 L471.141666,73.8125 L471.141666,88 L463.235416,88 L463.235416,42.5 L471.141666,42.5 L471.141666,63.84375 L475.516666,58.4375 L488.829166,42.5 L498.391666,42.5 L481.485416,62.65625 L499.360416,88 L489.985416,88 L476.297916,68.34375 Z M501.645833,70.78125 C501.645833,67.4687334 502.302077,64.4843883 503.614583,61.828125 C504.92709,59.1718617 506.770821,57.1302155 509.145833,55.703125 C511.520845,54.2760345 514.249984,53.5625 517.333333,53.5625 C521.895856,53.5625 525.598944,55.0312353 528.442708,57.96875 C531.286472,60.9062647 532.822915,64.8020591 533.052083,69.65625 L533.083333,71.4375 C533.083333,74.77085 532.442715,77.7499869 531.161458,80.375 C529.880202,83.0000131 528.046887,85.0312428 525.661458,86.46875 C523.27603,87.9062572 520.520849,88.625 517.395833,88.625 C512.624976,88.625 508.807306,87.0364742 505.942708,83.859375 C503.078111,80.6822758 501.645833,76.4479431 501.645833,71.15625 L501.645833,70.78125 Z M509.239583,71.4375 C509.239583,74.9166841 509.958326,77.6406152 511.395833,79.609375 C512.83334,81.5781348 514.83332,82.5625 517.395833,82.5625 C519.958346,82.5625 521.953118,81.56251 523.380208,79.5625 C524.807299,77.56249 525.520833,74.6354359 525.520833,70.78125 C525.520833,67.3645662 524.786466,64.65626 523.317708,62.65625 C521.848951,60.65624 519.854179,59.65625 517.333333,59.65625 C514.854154,59.65625 512.885424,60.6406152 511.427083,62.609375 C509.968743,64.5781348 509.239583,67.5208138 509.239583,71.4375 Z M559.525,78.8125 C559.525,77.4583266 558.967714,76.4270869 557.853125,75.71875 C556.738536,75.0104131 554.889596,74.3854194 552.30625,73.84375 C549.722904,73.3020806 547.566675,72.6145875 545.8375,71.78125 C542.045814,69.9479075 540.15,67.2916841 540.15,63.8125 C540.15,60.8958187 541.379154,58.4583431 543.8375,56.5 C546.295846,54.5416569 549.420814,53.5625 553.2125,53.5625 C557.254187,53.5625 560.519779,54.56249 563.009375,56.5625 C565.498971,58.56251 566.74375,61.1562341 566.74375,64.34375 L559.15,64.34375 C559.15,62.8854094 558.608339,61.6718798 557.525,60.703125 C556.441661,59.7343702 555.004176,59.25 553.2125,59.25 C551.545825,59.25 550.186464,59.6354128 549.134375,60.40625 C548.082286,61.1770872 547.55625,62.2083269 547.55625,63.5 C547.55625,64.6666725 548.045828,65.5729134 549.025,66.21875 C550.004171,66.8645866 551.983318,67.5156217 554.9625,68.171875 C557.941681,68.8281283 560.2802,69.6093705 561.978125,70.515625 C563.67605,71.4218795 564.936454,72.5104103 565.759375,73.78125 C566.582296,75.0520897 566.99375,76.5937409 566.99375,78.40625 C566.99375,81.4479319 565.733346,83.9114489 563.2125,85.796875 C560.691654,87.6823011 557.389604,88.625 553.30625,88.625 C550.535403,88.625 548.066677,88.125005 545.9,87.125 C543.733322,86.124995 542.045839,84.7500088 540.8375,83 C539.629161,81.2499912 539.025,79.3645934 539.025,77.34375 L546.4,77.34375 C546.504167,79.1354256 547.181244,80.5156202 548.43125,81.484375 C549.681256,82.4531298 551.33749,82.9375 553.4,82.9375 C555.40001,82.9375 556.920828,82.5572955 557.9625,81.796875 C559.004172,81.0364545 559.525,80.0416728 559.525,78.8125 Z M556.0875,40 L564.74375,40 L556.0875,49.46875 L549.99375,49.46875 L556.0875,40 Z M582.779167,81.9375 L600.779167,81.9375 L600.779167,88 L573.341667,88 L573.341667,83.03125 L590.497917,60.3125 L573.654167,60.3125 L573.654167,54.1875 L600.122917,54.1875 L600.122917,59 L582.779167,81.9375 Z M619.752083,77.125 L626.627083,54.1875 L634.720833,54.1875 L621.283333,93.125 C619.220823,98.8125284 615.720858,101.65625 610.783333,101.65625 C609.679161,101.65625 608.460423,101.468752 607.127083,101.09375 L607.127083,95.21875 L608.564583,95.3125 C610.48126,95.3125 611.923954,94.9635452 612.892708,94.265625 C613.861463,93.5677048 614.627081,92.3958416 615.189583,90.75 L616.283333,87.84375 L604.408333,54.1875 L612.595833,54.1875 L619.752083,77.125 Z M651.13125,73.5 L647.75625,76.96875 L647.75625,88 L640.1625,88 L640.1625,40 L647.75625,40 L647.75625,67.6875 L650.13125,64.71875 L659.475,54.1875 L668.6,54.1875 L656.0375,68.28125 L669.94375,88 L661.1625,88 L651.13125,73.5 Z M692.072917,70.46875 L683.260417,70.46875 L683.260417,88 L675.354167,88 L675.354167,42.5 L691.354167,42.5 C696.604193,42.5 700.656236,43.6770716 703.510417,46.03125 C706.364598,48.3854284 707.791667,51.7916444 707.791667,56.25 C707.791667,59.2916819 707.057299,61.8385314 705.588542,63.890625 C704.119784,65.9427186 702.07293,67.5208278 699.447917,68.625 L709.666667,87.59375 L709.666667,88 L701.197917,88 L692.072917,70.46875 Z M683.260417,64.125 L691.385417,64.125 C694.052097,64.125 696.135409,63.4531317 697.635417,62.109375 C699.135424,60.7656183 699.885417,58.927095 699.885417,56.59375 C699.885417,54.1562378 699.192715,52.27084 697.807292,50.9375 C696.421868,49.60416 694.354181,48.9166669 691.604167,48.875 L683.260417,48.875 L683.260417,64.125 Z M714.202084,70.78125 C714.202084,67.4687334 714.858327,64.4843883 716.170834,61.828125 C717.48334,59.1718617 719.327072,57.1302155 721.702084,55.703125 C724.077095,54.2760345 726.806235,53.5625 729.889584,53.5625 C734.452106,53.5625 738.155194,55.0312353 740.998959,57.96875 C743.842723,60.9062647 745.379166,64.8020591 745.608334,69.65625 L745.639584,71.4375 C745.639584,74.77085 744.998965,77.7499869 743.717709,80.375 C742.436452,83.0000131 740.603137,85.0312428 738.217709,86.46875 C735.83228,87.9062572 733.077099,88.625 729.952084,88.625 C725.181226,88.625 721.363556,87.0364742 718.498959,83.859375 C715.634361,80.6822758 714.202084,76.4479431 714.202084,71.15625 L714.202084,70.78125 Z M721.795834,71.4375 C721.795834,74.9166841 722.514576,77.6406152 723.952084,79.609375 C725.389591,81.5781348 727.389571,82.5625 729.952084,82.5625 C732.514596,82.5625 734.509368,81.56251 735.936459,79.5625 C737.363549,77.56249 738.077084,74.6354359 738.077084,70.78125 C738.077084,67.3645662 737.342716,64.65626 735.873959,62.65625 C734.405201,60.65624 732.410429,59.65625 729.889584,59.65625 C727.410404,59.65625 725.441674,60.6406152 723.983334,62.609375 C722.524993,64.5781348 721.795834,67.5208138 721.795834,71.4375 Z M764.1125,73.5 L760.7375,76.96875 L760.7375,88 L753.14375,88 L753.14375,40 L760.7375,40 L760.7375,67.6875 L763.1125,64.71875 L772.45625,54.1875 L781.58125,54.1875 L769.01875,68.28125 L782.925,88 L774.14375,88 L764.1125,73.5 Z M808.085417,84.6875 C805.856239,87.3125131 802.689604,88.625 798.585417,88.625 C794.918732,88.625 792.142718,87.5520941 790.257292,85.40625 C788.371866,83.2604059 787.429167,80.1562703 787.429167,76.09375 L787.429167,54.1875 L795.022917,54.1875 L795.022917,76 C795.022917,80.2916881 796.804149,82.4375 800.366667,82.4375 C804.054185,82.4375 806.543744,81.1145966 807.835417,78.46875 L807.835417,54.1875 L815.429167,54.1875 L815.429167,88 L808.272917,88 L808.085417,84.6875 Z M828.964584,80 C830.381257,80 831.474997,80.4010377 832.245834,81.203125 C833.016671,82.0052123 833.402084,83.0104106 833.402084,84.21875 C833.402084,85.4062559 833.016671,86.3906211 832.245834,87.171875 C831.474997,87.9531289 830.381257,88.34375 828.964584,88.34375 C827.61041,88.34375 826.537504,87.9583372 825.745834,87.1875 C824.954163,86.4166628 824.558334,85.4270894 824.558334,84.21875 C824.558334,83.0104106 824.943747,82.0052123 825.714584,81.203125 C826.485421,80.4010377 827.568743,80 828.964584,80 Z M872.21875,71.46875 C872.21875,76.6146091 871.041679,80.7604009 868.6875,83.90625 C866.333322,87.0520991 863.145854,88.625 859.125,88.625 C855.020813,88.625 851.791679,87.3229297 849.4375,84.71875 L849.4375,101 L843.65625,101 L843.65625,54.1875 L848.9375,54.1875 L849.21875,57.9375 C851.572929,55.0208187 854.843729,53.5625 859.03125,53.5625 C863.093771,53.5625 866.30728,55.0937347 868.671875,58.15625 C871.036471,61.2187653 872.21875,65.4791394 872.21875,70.9375 L872.21875,71.46875 Z M866.4375,70.8125 C866.4375,66.9999809 865.625009,63.9895944 864,61.78125 C862.374992,59.5729056 860.145848,58.46875 857.3125,58.46875 C853.812483,58.46875 851.187509,60.0208178 849.4375,63.125 L849.4375,79.28125 C851.166676,82.3645987 853.812483,83.90625 857.375,83.90625 C860.145848,83.90625 862.348951,82.8073027 863.984375,80.609375 C865.6198,78.4114473 866.4375,75.145855 866.4375,70.8125 Z M886.910417,88 L881.129167,88 L881.129167,40 L886.910417,40 L886.910417,88 Z" id="PolskiKośzykRoku.pl" fill="#000000"></path>
                <g id="Group" transform="translate(0.000000, 36.000000)"></g>
                <path d="M52.0878913,70.93368 C51.7672174,70.99848 51.4400652,71.03088 51.1161522,71.03088 L25.060587,70.77168 C23.4995733,70.818812 22.0377658,70.008306 21.2505075,68.6591637 C20.4632492,67.3100213 20.4765942,65.6382647 21.2852903,64.3018692 C22.0939863,62.9654736 23.5685465,62.1784202 25.1286087,62.25048 L51.1841739,62.50968 C53.4072748,62.4353175 55.3110347,64.0895041 55.5483614,66.3017443 C55.7856881,68.5139845 54.2761506,70.5345425 52.0878913,70.93368 Z M60.8335435,85.51368 C60.5128696,85.57848 60.1857174,85.61088 59.8618043,85.61088 L4.65406522,85.35168 C3.08445212,85.413084 1.60827173,84.6060406 0.812407114,83.2514048 C0.0165425008,81.896769 0.0299798644,80.2140875 0.84737693,78.8723416 C1.66477399,77.5305958 3.15365479,76.7472431 4.72208696,76.83372 L59.9298261,77.09292 C62.1596079,77.0061844 64.0755581,78.6617696 64.3137354,80.8810851 C64.5519127,83.1004005 63.0309245,85.1250366 60.8335435,85.51368 Z M66.6639783,100.09368 C66.3433043,100.15848 66.0161522,100.19088 65.6922391,100.19088 L39.6366739,99.93168 C38.0670608,99.993084 36.5908804,99.1860406 35.7950158,97.8314048 C34.9991512,96.476769 35.0125886,94.7940875 35.8299856,93.4523416 C36.6473827,92.1105958 38.1362635,91.3272431 39.7046957,91.41372 L65.7602609,91.67292 C67.9900427,91.5861844 69.9059929,93.2417696 70.1441702,95.4610851 C70.3823475,97.6804005 68.8613593,99.7050366 66.6639783,100.09368 Z" id="Shape" fill="#FEE8D6" fill-rule="nonzero"></path>
                <path d="M140.023804,90.25704 L91.2943261,101.87244 C89.5829804,102.243227 87.8369722,101.412585 87.044587,99.85068 L72.4685,70.59672 C72.2069981,70.2452983 72.0096172,69.8504307 71.8854565,69.43032 L60.3379565,46.27728 L51.4983696,48.15972 C49.4464582,48.6112316 47.4141116,47.3244079 46.9441522,45.27612 C46.7347365,44.2926272 46.9269975,43.2662066 47.4781538,42.4252547 C48.0293101,41.5843028 48.8936361,40.9985872 49.8788043,40.79844 L61.6465652,38.29392 C63.3579109,37.9231333 65.1039191,38.7537747 65.8963043,40.31568 L70.5282609,49.61124 L133.956913,36.10692 C136.008495,35.657282 138.039619,36.9433316 138.51113,38.99052 L145.21613,69.48216 C145.425546,70.4656528 145.233285,71.4920734 144.682129,72.3330253 C144.130973,73.1739772 143.266646,73.7596928 142.281478,73.95984 L88.385587,85.42944 L92.5964565,93.88584 L138.394522,82.89576 C140.444891,82.44216 142.475826,83.73168 142.948739,85.77936 C143.159297,86.7615433 142.968726,87.7871655 142.419418,88.6280822 C141.87011,89.4689989 141.00762,90.0554707 140.023804,90.25704 Z M131.819087,44.28144 L73.9941304,56.59344 L77.7158913,64.04544 L133.555261,52.15788 L131.819087,44.28144 Z M136.907761,67.41504 L135.174826,59.50944 L81.1914783,71.00496 L84.9132391,78.45696 L136.907761,67.41504 Z M103.86863,103.05504 C107.093853,102.34772 110.286572,104.371715 111.02387,107.59104 C111.352758,109.136368 111.050392,110.749082 110.184077,112.070203 C109.317762,113.391323 107.959397,114.311202 106.411348,114.62508 C103.186125,115.3324 99.9934064,113.308405 99.2561087,110.08908 C98.9253595,108.542336 99.2272296,106.927521 100.094384,105.604831 C100.961539,104.282141 102.321843,103.361606 103.87187,103.04856 L103.86863,103.05504 Z M131.981043,96.44544 C135.206266,95.7381201 138.398985,97.7621154 139.136283,100.98144 C139.465229,102.527162 139.162951,104.140279 138.296696,105.461915 C137.430442,106.783551 136.072062,107.704084 134.523761,108.01872 C131.298538,108.72604 128.105819,106.702045 127.368522,103.48272 C127.039575,101.936998 127.341854,100.323881 128.208108,99.0022452 C129.074362,97.6806093 130.432742,96.7600763 131.981043,96.44544 Z" id="Shape" fill="url(#linearGradient-1)" fill-rule="nonzero"></path>
            </g>
        </g>
    </g>
</svg>