<svg xmlns="http://www.w3.org/2000/svg" id="cart.svg" width="22" height="19" viewBox="-294 387 22 19"><style>.st0{fill:#40cb68}.st1{fill:#fdb33f}</style><path id="Cart_Icon" d="M-275.1 393.3l-1.1 5.7c-.3.7-1 1.1-1.8 1h-9c-1-.2-1.8-1-2-2l-1.6-8.9h-3.4V387h3.6c.9 0 1.7.6 1.9 1.5l.5 2.5h11c.7.1 1.3.4 1.7.9.3.4.4.9.2 1.4zm-12.9-.3l1 5h9l1-5h-11zm2 9c1.1 0 2 .9 2 2s-.9 2-2 2-2-.9-2-2 .9-2 2-2zm7 0c1.1 0 2 .9 2 2s-.9 2-2 2-2-.9-2-2 .9-2 2-2z" class="st0"/><circle cx="-275" cy="391" r="3" class="st1"/></svg>