<svg height="66" viewBox="0 0 72 66" width="72" xmlns="http://www.w3.org/2000/svg" xmlns:xlink="http://www.w3.org/1999/xlink"><defs><rect id="a" height="7.358491" rx="1.226415" width="7.344828" x="21.034483" y="36.792453"/><mask id="b" fill="#fff" height="7.358491" width="7.344828" x="0" y="0"><use xlink:href="#a"/></mask></defs><g fill="none" fill-rule="evenodd" transform="translate(0 1)"><path d="m58.938094 29.4822214h1.2619711c2.031991 0 3.6792452 1.6472542 3.6792452 3.6792453v28.159288c0 2.0319911-1.6472542 3.6792453-3.6792452 3.6792453h-48.0922651c-2.0319911 0-3.67924533-1.6472542-3.67924533-3.6792453v-8.1689325c-.47286807-.4504966-.83173297-1.0325697-1.01313804-1.7095827l-7.28816004-27.1997835c-.52591798-1.9627527.63886665-3.9802188 2.60161929-4.5061368l46.45356092-12.44719414c1.9627526-.52591799 3.9802188.63886664 4.5061368 2.60161929z" fill="#e8dff4"/><rect fill="#fff" height="35.566038" rx="3.679245" stroke="#4e0f89" stroke-linecap="round" stroke-linejoin="round" stroke-width="4" transform="matrix(.96592583 -.25881905 .25881905 .96592583 -5.289831 10.102763)" width="56.310345" x="7.568966" y="7.358491"/><path d="m6.344828 14.716981h56.310345v7.358491h-56.310345z" fill="#4e0f89" transform="matrix(.96592583 -.25881905 .25881905 .96592583 -3.585735 9.556093)"/><rect fill="#fff" height="35.566038" rx="3.679245" stroke="#4e0f89" stroke-linecap="round" stroke-linejoin="round" stroke-width="4" width="56.310345" x="13.689655" y="24.528302"/><g fill="#4e0f89"><rect height="3.679245" rx="1.839623" width="7.344828" x="21.034483" y="49.056604"/><rect height="3.679245" rx="1.839623" width="7.344828" x="32.051724" y="49.056604"/><rect height="3.679245" rx="1.839623" width="7.344828" x="43.068966" y="49.056604"/><rect height="3.679245" rx="1.839623" width="7.344828" x="54.086207" y="49.056604"/></g><use style="stroke:#4e0f89;stroke-width:4.90566;fill:#fff;stroke-linecap:round;stroke-linejoin:round;stroke-dasharray:141.037736 9.811321;mask:url(#b)" xlink:href="#a"/></g></svg>