<svg xmlns="http://www.w3.org/2000/svg" id="Layer_1" width="64.5" height="64.5" viewBox="0 0 64.5 64.5"><style>.st0,.st1,.st2{fill:none;stroke-width:2;stroke-linecap:round;stroke-linejoin:round;stroke-miterlimit:10}.st0{opacity:.2;stroke:#b4adbd}.st1{stroke:#fff}.st2{opacity:.33;stroke:#b4adbd}</style><circle cx="32.2" cy="32.2" r="31.2" class="st0"/><path d="M21.1 41.2c-3.4 0-6.1-3.1-5.4-6.7.5-2.6 2.9-4.3 5.6-4.3h.9v11h-1.1zm23.2-11c3.4 0 6.1 3.1 5.4 6.7-.5 2.6-2.9 4.3-5.6 4.3h-.9v-11h1.1z" class="st1"/><path d="M22.2 31.2V29s0-8.8 10.5-8.8S43.2 29 43.2 29v1.2" class="st1"/><path d="M43.2 41.2v2.4c0 .2-.1.3-.3.4 0 0-1.7 1.5-3.7 2.2s-4.1 1-4.1 1h-4.5c-.2 0-.4-.2-.4-.4v-2.1c0-.2.2-.4.4-.4h4.1c.2 0 .4.2.4.4v1.6" class="st2"/></svg>