<svg height="67" viewBox="0 0 62 67" width="62" xmlns="http://www.w3.org/2000/svg" xmlns:xlink="http://www.w3.org/1999/xlink"><defs><path id="a" d="m30.873786 20.621641h4.20712v4.276175h-4.20712z"/><mask id="b" fill="#fff" height="4.276175" width="4.20712" x="0" y="0"><use xlink:href="#a"/></mask><path id="c" d="m39.029126 20.621641h4.20712v4.276175h-4.20712z"/><mask id="d" fill="#fff" height="4.276175" width="4.20712" x="0" y="0"><use xlink:href="#c"/></mask><path id="e" d="m30.873786 28.859265h4.20712v4.276175h-4.20712z"/><mask id="f" fill="#fff" height="4.276175" width="4.20712" x="0" y="0"><use xlink:href="#e"/></mask><path id="g" d="m39.029126 28.859265h4.20712v4.276175h-4.20712z"/><mask id="h" fill="#fff" height="4.276175" width="4.20712" x="0" y="0"><use xlink:href="#g"/></mask><path id="i" d="m30.873786 37.68529h4.20712v4.276175h-4.20712z"/><mask id="j" fill="#fff" height="4.276175" width="4.20712" x="0" y="0"><use xlink:href="#i"/></mask><path id="k" d="m39.029126 37.68529h4.20712v4.276175h-4.20712z"/><mask id="l" fill="#fff" height="4.276175" width="4.20712" x="0" y="0"><use xlink:href="#k"/></mask></defs><g fill="none" fill-rule="evenodd" transform="translate(0 2)"><path d="m19.2371706 16.1626591h33.1761442c1.2945371 0 2.3439668 1.0494297 2.3439668 2.3439667v40.6189973c0 1.2945371-1.0494297 2.3439667-2.3439668 2.3439667h-33.1761442c-1.2945371 0-2.3439667-1.0494296-2.3439667-2.3439667v-40.6189973c0-1.294537 1.0494296-2.3439667 2.3439667-2.3439667z" fill="#e8dff4"/><rect fill="#e8dff4" height="54.132956" rx="2.343967" width="37.864078" y="10.867044"/><g fill="#fff" stroke="#4e0f89" stroke-linecap="round" stroke-linejoin="round"><path d="m24.0700491 11.452145 18.1340895-3.2203276 15.9121588 3.1865678c1.095356.2193559 1.8837026 1.1812293 1.8837026 2.2983335v41.0418714c0 1.294537-1.0494296 2.3439667-2.3439667 2.3439667l-33.1761616.0000009c-1.294537 0-2.3439667-1.0494297-2.3439667-2.3439667 0-.0000003 0-.0000006 0-.0000009l.0000166-40.9985873c.0000004-1.1364333.8152006-2.1091541 1.9341275-2.3078578z" stroke-width="3.714286"/><use mask="url(#b)" stroke-dasharray="82.646938 5.749352" stroke-width="2.874676" xlink:href="#a"/><use mask="url(#d)" stroke-dasharray="82.646938 5.749352" stroke-width="2.874676" xlink:href="#c"/><path d="m47.76699 20.621641h4.20712v4.276175h-4.20712z" stroke-dasharray="82.646938 5.749352" stroke-width="1.625"/><use mask="url(#f)" stroke-dasharray="82.646938 5.749352" stroke-width="2.874676" xlink:href="#e"/><use mask="url(#h)" stroke-dasharray="82.646938 5.749352" stroke-width="2.874676" xlink:href="#g"/><path d="m47.76699 28.859265h4.20712v4.276175h-4.20712z" stroke-dasharray="82.646938 5.749352" stroke-width="1.625"/><use mask="url(#j)" stroke-dasharray="82.646938 5.749352" stroke-width="2.874676" xlink:href="#i"/><use mask="url(#l)" stroke-dasharray="82.646938 5.749352" stroke-width="2.874676" xlink:href="#k"/><path d="m47.76699 37.68529h4.20712v4.276175h-4.20712z" stroke-dasharray="82.646938 5.749352" stroke-width="1.625"/><path d="m6.86775288 5.97633574 16.94505232-5.4605109 17.6443915 5.47253959c.9809642.30425337 1.6495994 1.21169301 1.6495994 2.23875726v50.06186771c0 1.2945371-1.0494296 2.3439668-2.3439667 2.3439668h-33.17614424c-1.29453707 0-2.34396671-1.0494297-2.34396671-2.3439668v-50.08166367c0-1.01755736.65652226-1.91888878 1.62503443-2.23098999z" stroke-width="3.714286"/><path d="m13.656958 15.05235h4.20712v4.276175h-4.20712z" stroke-dasharray="82.646938 5.749352" stroke-width="1.857143"/><path d="m22.071197 15.05235h4.20712v4.276175h-4.20712z" stroke-dasharray="82.646938 5.749352" stroke-width="1.857143"/><path d="m30.485437 15.05235h4.20712v4.276175h-4.20712z" stroke-dasharray="82.646938 5.749352" stroke-width="1.857143"/><path d="m13.656958 23.604701h4.20712v4.276175h-4.20712z" stroke-dasharray="82.646938 5.749352" stroke-width="1.857143"/><path d="m22.071197 23.604701h4.20712v4.276175h-4.20712z" stroke-dasharray="82.646938 5.749352" stroke-width="1.857143"/><path d="m30.485437 23.604701h4.20712v4.276175h-4.20712z" stroke-dasharray="82.646938 5.749352" stroke-width="1.857143"/><path d="m13.656958 32.157051h4.20712v4.276175h-4.20712z" stroke-dasharray="82.646938 5.749352" stroke-width="1.857143"/><path d="m22.071197 32.157051h4.20712v4.276175h-4.20712z" stroke-dasharray="82.646938 5.749352" stroke-width="1.857143"/><path d="m30.485437 32.157051h4.20712v4.276175h-4.20712z" stroke-dasharray="82.646938 5.749352" stroke-width="1.857143"/></g></g></svg>