<?xml version="1.0" encoding="UTF-8"?>
<svg width="294px" height="45px" viewBox="0 0 294 45" version="1.1" xmlns="http://www.w3.org/2000/svg" xmlns:xlink="http://www.w3.org/1999/xlink">
    <!-- Generator: Sketch 48.2 (47327) - http://www.bohemiancoding.com/sketch -->
    <title>Group 2 Copy</title>
    <desc>Created with Sketch.</desc>
    <defs>
        <linearGradient x1="38.9489809%" y1="115.303%" x2="75.556721%" y2="0%" id="linearGradient-1">
            <stop stop-color="#FD8835" offset="0%"></stop>
            <stop stop-color="#FC6120" offset="100%"></stop>
        </linearGradient>
    </defs>
    <g id="Artboard" stroke="none" stroke-width="1" fill="none" fill-rule="evenodd" transform="translate(-573.000000, -243.000000)">
        <g id="og" transform="translate(150.000000, 116.000000)">
            <g id="Group-2-Copy" transform="translate(423.000000, 127.000000)">
                <polygon id="Shape" fill="#D5EBF1" fill-rule="nonzero" points="71 0 72 0 72 45 71 45"></polygon>
                <path d="M95.6217752,23.0861632 L95.6217752,28.5701977 L93,28.5701977 L93,13.8109478 L98.7720505,13.8109478 C100.457733,13.8109478 101.796241,14.24007 102.787615,15.0983274 C103.77899,15.9565848 104.27467,17.0919004 104.27467,18.5043082 C104.27467,19.9505056 103.789352,21.0756844 102.818703,21.8798784 C101.848055,22.6840723 100.488821,23.0861632 98.7409622,23.0861632 L95.6217752,23.0861632 Z M95.6217752,21.0283832 L98.7720505,21.0283832 C99.7047024,21.0283832 100.416271,20.813822 100.906777,20.3846934 C101.397282,19.9555647 101.642532,19.3355337 101.642532,18.5245819 C101.642532,17.7271459 101.393828,17.0902203 100.896414,16.6137861 C100.398999,16.1373519 99.7150649,15.8923805 98.8445897,15.8788647 L95.6217752,15.8788647 L95.6217752,21.0283832 Z M106.068807,22.9847947 C106.068807,21.9102835 106.286422,20.9422243 106.72166,20.0805879 C107.156897,19.2189516 107.768293,18.5566842 108.555866,18.0937658 C109.343439,17.6308475 110.248443,17.3993918 111.270906,17.3993918 C112.783875,17.3993918 114.011848,17.8758189 114.954863,18.8286873 C115.897877,19.7815557 116.407374,21.04527 116.483368,22.6198682 L116.493731,23.1976685 C116.493731,24.2789377 116.281297,25.2453075 115.856422,26.0968069 C115.431547,26.9483063 114.823605,27.6071948 114.032578,28.0734921 C113.241551,28.5397895 112.327911,28.7729346 111.291631,28.7729346 C109.709577,28.7729346 108.443608,28.25765 107.493684,27.2270654 C106.543761,26.1964807 106.068807,24.8229516 106.068807,23.1064369 L106.068807,22.9847947 Z M108.586954,23.1976685 C108.586954,24.3262432 108.825295,25.2098295 109.301984,25.8484541 C109.778673,26.4870787 110.441882,26.8063862 111.291631,26.8063862 C112.141381,26.8063862 112.802863,26.4820103 113.276098,25.8332489 C113.749332,25.1844874 113.985946,24.2350122 113.985946,22.9847947 C113.985946,21.8764939 113.742424,20.9979759 113.255372,20.3492144 C112.768321,19.7004529 112.106838,19.376077 111.270906,19.376077 C110.448791,19.376077 109.795944,19.6953845 109.312347,20.3340091 C108.828749,20.9726337 108.586954,21.9271773 108.586954,23.1976685 Z M121.655761,28.5701977 L119.137613,28.5701977 L119.137613,13 L121.655761,13 L121.655761,28.5701977 Z M131.035429,25.5899645 C131.035429,25.1506989 130.850629,24.8161863 130.481022,24.5864166 C130.111416,24.3566469 129.498293,24.153912 128.641635,23.9782058 C127.784976,23.8024995 127.069954,23.5794911 126.496546,23.3091738 C125.239193,22.7144758 124.610526,21.8528524 124.610526,20.7242777 C124.610526,19.7781673 125.018123,18.9875011 125.83333,18.3522554 C126.648537,17.7170098 127.684801,17.3993918 128.942154,17.3993918 C130.28241,17.3993918 131.365306,17.7237677 132.190876,18.3725291 C133.016445,19.0212906 133.429224,19.8626405 133.429224,20.8966042 L130.911076,20.8966042 C130.911076,20.4235489 130.731457,20.0299053 130.372213,19.7156614 C130.01297,19.4014176 129.536288,19.244298 128.942154,19.244298 C128.389472,19.244298 127.938697,19.3693179 127.589816,19.6193614 C127.240935,19.8694049 127.066497,20.2039175 127.066497,20.6229093 C127.066497,21.0013535 127.228845,21.2953191 127.553546,21.504815 C127.878247,21.7143109 128.534548,21.9254931 129.522468,22.138368 C130.510388,22.3512428 131.28586,22.6046615 131.848905,22.8986315 C132.41195,23.1926016 132.82991,23.5456982 133.102797,23.9579321 C133.375684,24.3701659 133.512126,24.8702454 133.512126,25.4581855 C133.512126,26.4448436 133.094166,27.2439571 132.258233,27.8555499 C131.422301,28.4671428 130.327315,28.7729346 128.973242,28.7729346 C128.054408,28.7729346 127.235759,28.6107467 126.517271,28.2863659 C125.798784,27.9619852 125.239201,27.5159684 124.838506,26.9483021 C124.437811,26.3806358 124.237467,25.7690521 124.237467,25.1135327 L126.683075,25.1135327 C126.717618,25.6947149 126.942142,26.1424211 127.356654,26.456665 C127.771166,26.7709088 128.320386,26.9280284 129.004331,26.9280284 C129.66755,26.9280284 130.171865,26.804698 130.517292,26.5580335 C130.862719,26.3113689 131.035429,25.9886825 131.035429,25.5899645 Z M139.700068,23.8667005 L138.580891,24.9918905 L138.580891,28.5701977 L136.062744,28.5701977 L136.062744,13 L138.580891,13 L138.580891,21.9812468 L139.36846,21.0182463 L142.466922,17.6021287 L145.492844,17.6021287 L141.327019,22.1738469 L145.938442,28.5701977 L143.02651,28.5701977 L139.700068,23.8667005 Z M150.167825,28.5701977 L147.649677,28.5701977 L147.649677,17.6021287 L150.167825,17.6021287 L150.167825,28.5701977 Z M147.494236,14.7536746 C147.494236,14.3752304 147.616861,14.0609913 147.862114,13.8109478 C148.107367,13.5609043 148.457969,13.4358844 148.913932,13.4358844 C149.369896,13.4358844 149.722226,13.5609043 149.970933,13.8109478 C150.21964,14.0609913 150.343992,14.3752304 150.343992,14.7536746 C150.343992,15.1253609 150.21964,15.4345316 149.970933,15.6811961 C149.722226,15.9278607 149.369896,16.0511911 148.913932,16.0511911 C148.457969,16.0511911 148.107367,15.9278607 147.862114,15.6811961 C147.616861,15.4345316 147.494236,15.1253609 147.494236,14.7536746 Z M157.83764,22.1941206 L156.127787,23.9680689 L156.127787,28.5701977 L153.506011,28.5701977 L153.506011,13.8109478 L156.127787,13.8109478 L156.127787,20.7344146 L157.578571,18.98074 L161.993102,13.8109478 L165.164103,13.8109478 L159.557856,20.3492144 L165.485348,28.5701977 L162.376523,28.5701977 L157.83764,22.1941206 Z M166.24321,22.9847947 C166.24321,21.9102835 166.460826,20.9422243 166.896063,20.0805879 C167.331301,19.2189516 167.942697,18.5566842 168.73027,18.0937658 C169.517842,17.6308475 170.422847,17.3993918 171.445309,17.3993918 C172.958278,17.3993918 174.186251,17.8758189 175.129266,18.8286873 C176.072281,19.7815557 176.581778,21.04527 176.657772,22.6198682 L176.668134,23.1976685 C176.668134,24.2789377 176.4557,25.2453075 176.030825,26.0968069 C175.605951,26.9483063 174.998009,27.6071948 174.206982,28.0734921 C173.415955,28.5397895 172.502315,28.7729346 171.466035,28.7729346 C169.883981,28.7729346 168.618011,28.25765 167.668088,27.2270654 C166.718165,26.1964807 166.24321,24.8229516 166.24321,23.1064369 L166.24321,22.9847947 Z M168.761358,23.1976685 C168.761358,24.3262432 168.999699,25.2098295 169.476387,25.8484541 C169.953076,26.4870787 170.616285,26.8063862 171.466035,26.8063862 C172.315784,26.8063862 172.977267,26.4820103 173.450501,25.8332489 C173.923736,25.1844874 174.160349,24.2350122 174.160349,22.9847947 C174.160349,21.8764939 173.916827,20.9979759 173.429776,20.3492144 C172.942724,19.7004529 172.281242,19.376077 171.445309,19.376077 C170.623194,19.376077 169.970347,19.6953845 169.48675,20.3340091 C169.003153,20.9726337 168.761358,21.9271773 168.761358,23.1976685 Z M185.436401,25.5899645 C185.436401,25.1506989 185.2516,24.8161863 184.881994,24.5864166 C184.512387,24.3566469 183.899264,24.153912 183.042606,23.9782058 C182.185948,23.8024995 181.470925,23.5794911 180.897517,23.3091738 C179.640164,22.7144758 179.011497,21.8528524 179.011497,20.7242777 C179.011497,19.7781673 179.419094,18.9875011 180.234301,18.3522554 C181.049508,17.7170098 182.085773,17.3993918 183.343126,17.3993918 C184.683381,17.3993918 185.766277,17.7237677 186.591847,18.3725291 C187.417417,19.0212906 187.830195,19.8626405 187.830195,20.8966042 L185.312048,20.8966042 C185.312048,20.4235489 185.132428,20.0299053 184.773185,19.7156614 C184.413941,19.4014176 183.937259,19.244298 183.343126,19.244298 C182.790443,19.244298 182.339668,19.3693179 181.990787,19.6193614 C181.641906,19.8694049 181.467468,20.2039175 181.467468,20.6229093 C181.467468,21.0013535 181.629816,21.2953191 181.954517,21.504815 C182.279218,21.7143109 182.935519,21.9254931 183.923439,22.138368 C184.91136,22.3512428 185.686831,22.6046615 186.249876,22.8986315 C186.812922,23.1926016 187.230882,23.5456982 187.503769,23.9579321 C187.776656,24.3701659 187.913097,24.8702454 187.913097,25.4581855 C187.913097,26.4448436 187.495137,27.2439571 186.659205,27.8555499 C185.823272,28.4671428 184.728286,28.7729346 183.374214,28.7729346 C182.455379,28.7729346 181.63673,28.6107467 180.918243,28.2863659 C180.199755,27.9619852 179.640172,27.5159684 179.239477,26.9483021 C178.838783,26.3806358 178.638438,25.7690521 178.638438,25.1135327 L181.084047,25.1135327 C181.118589,25.6947149 181.343113,26.1424211 181.757625,26.456665 C182.172137,26.7709088 182.721357,26.9280284 183.405302,26.9280284 C184.068521,26.9280284 184.572837,26.804698 184.918263,26.5580335 C185.26369,26.3113689 185.436401,25.9886825 185.436401,25.5899645 Z M193.147667,26.6036493 L199.116609,26.6036493 L199.116609,28.5701977 L190.018117,28.5701977 L190.018117,26.9584389 L195.707265,19.5889508 L190.121744,19.5889508 L190.121744,17.6021287 L198.898992,17.6021287 L198.898992,19.1632032 L193.147667,26.6036493 Z M205.408179,25.0425748 L207.687983,17.6021287 L210.371935,17.6021287 L205.915953,30.2326406 C205.232009,32.0775561 204.071393,33 202.43407,33 C202.067918,33 201.663775,32.9391795 201.221629,32.8175367 L201.221629,30.9118094 L201.698315,30.94222 C202.3339,30.94222 202.812309,30.8290263 203.133556,30.6026356 C203.454802,30.3762449 203.708687,29.9961169 203.895218,29.4622402 L204.257914,28.5195134 L200.32007,17.6021287 L203.03511,17.6021287 L205.408179,25.0425748 Z M215.813759,23.8667005 L214.694583,24.9918905 L214.694583,28.5701977 L212.176435,28.5701977 L212.176435,13 L214.694583,13 L214.694583,21.9812468 L215.482151,21.0182463 L218.580613,17.6021287 L221.606535,17.6021287 L217.440711,22.1738469 L222.052133,28.5701977 L219.140201,28.5701977 L215.813759,23.8667005 Z M229.39034,22.8834263 L226.468046,22.8834263 L226.468046,28.5701977 L223.84627,28.5701977 L223.84627,13.8109478 L229.151997,13.8109478 C230.892948,13.8109478 232.236637,14.1927652 233.183106,14.9564116 C234.129575,15.7200579 234.602803,16.8249632 234.602803,18.2711607 C234.602803,19.2578188 234.35928,20.0839636 233.872229,20.7496199 C233.385177,21.4152762 232.706424,21.9271819 231.835949,22.2853523 L235.224567,28.4384187 L235.224567,28.5701977 L232.416263,28.5701977 L229.39034,22.8834263 Z M226.468046,20.8256462 L229.16236,20.8256462 C230.046652,20.8256462 230.737495,20.6077062 231.23491,20.1718196 C231.732324,19.7359329 231.981027,19.1395544 231.981027,18.382666 C231.981027,17.5919879 231.751322,16.9804043 231.291905,16.5478966 C230.832487,16.115389 230.146826,15.8923805 229.234899,15.8788647 L226.468046,15.8788647 L226.468046,20.8256462 Z M236.728548,22.9847947 C236.728548,21.9102835 236.946163,20.9422243 237.381401,20.0805879 C237.816638,19.2189516 238.428034,18.5566842 239.215607,18.0937658 C240.00318,17.6308475 240.908184,17.3993918 241.930647,17.3993918 C243.443616,17.3993918 244.671589,17.8758189 245.614604,18.8286873 C246.557618,19.7815557 247.067115,21.04527 247.143109,22.6198682 L247.153472,23.1976685 C247.153472,24.2789377 246.941038,25.2453075 246.516163,26.0968069 C246.091288,26.9483063 245.483346,27.6071948 244.692319,28.0734921 C243.901292,28.5397895 242.987652,28.7729346 241.951372,28.7729346 C240.369318,28.7729346 239.103349,28.25765 238.153425,27.2270654 C237.203502,26.1964807 236.728548,24.8229516 236.728548,23.1064369 L236.728548,22.9847947 Z M239.246695,23.1976685 C239.246695,24.3262432 239.485036,25.2098295 239.961725,25.8484541 C240.438414,26.4870787 241.101623,26.8063862 241.951372,26.8063862 C242.801122,26.8063862 243.462604,26.4820103 243.935839,25.8332489 C244.409073,25.1844874 244.645687,24.2350122 244.645687,22.9847947 C244.645687,21.8764939 244.402165,20.9979759 243.915113,20.3492144 C243.428062,19.7004529 242.766579,19.376077 241.930647,19.376077 C241.108531,19.376077 240.455685,19.6953845 239.972088,20.3340091 C239.48849,20.9726337 239.246695,21.9271773 239.246695,23.1976685 Z M253.279237,23.8667005 L252.160061,24.9918905 L252.160061,28.5701977 L249.641913,28.5701977 L249.641913,13 L252.160061,13 L252.160061,21.9812468 L252.947629,21.0182463 L256.046091,17.6021287 L259.072013,17.6021287 L254.906189,22.1738469 L259.517611,28.5701977 L256.605679,28.5701977 L253.279237,23.8667005 Z M267.861005,27.4956918 C267.121792,28.3471913 266.071711,28.7729346 264.71073,28.7729346 C263.494828,28.7729346 262.57428,28.4249063 261.949058,27.7288393 C261.323835,27.0327723 261.011229,26.0258555 261.011229,24.7080588 L261.011229,17.6021287 L263.529377,17.6021287 L263.529377,24.6776483 C263.529377,26.0697823 264.120047,26.7658388 265.301406,26.7658388 C266.524217,26.7658388 267.349774,26.3367166 267.778103,25.4784592 L267.778103,17.6021287 L270.296251,17.6021287 L270.296251,28.5701977 L267.923182,28.5701977 L267.861005,27.4956918 Z M274.784702,25.9751647 C275.254483,25.9751647 275.617175,26.105253 275.872791,26.3654334 C276.128407,26.6256137 276.256212,26.9516791 276.256212,27.3436391 C276.256212,27.7288413 276.128407,28.0481488 275.872791,28.3015712 C275.617175,28.5549937 275.254483,28.681703 274.784702,28.681703 C274.335648,28.681703 273.979864,28.5566831 273.717339,28.3066396 C273.454815,28.0565961 273.323555,27.7355992 273.323555,27.3436391 C273.323555,26.9516791 273.451361,26.6256137 273.706977,26.3654334 C273.962592,26.105253 274.321831,25.9751647 274.784702,25.9751647 Z M289.128127,23.2078054 C289.128127,24.8770146 288.737801,26.2218229 287.957136,27.2422707 C287.176472,28.2627184 286.119482,28.7729346 284.786136,28.7729346 C283.425155,28.7729346 282.354348,28.3505702 281.573684,27.5058287 L281.573684,32.7871262 L279.656575,32.7871262 L279.656575,17.6021287 L281.40788,17.6021287 L281.501145,18.8185504 C282.281809,17.8724399 283.366432,17.3993918 284.755047,17.3993918 C286.102211,17.3993918 287.167836,17.8960923 287.951955,18.8895084 C288.736073,19.8829244 289.128127,21.2649008 289.128127,23.035479 L289.128127,23.2078054 Z M287.211019,22.9949316 C287.211019,21.75823 286.94159,20.7817235 286.402724,20.0653827 C285.863859,19.3490419 285.124657,18.9908768 284.185096,18.9908768 C283.024463,18.9908768 282.154001,19.4943352 281.573684,20.5012671 L281.573684,25.7420172 C282.147092,26.7421912 283.024463,27.2422707 284.205822,27.2422707 C285.124657,27.2422707 285.855223,26.8857951 286.397543,26.1728332 C286.939863,25.4598714 287.211019,24.4005814 287.211019,22.9949316 Z M294,28.5701977 L292.082892,28.5701977 L292.082892,13 L294,13 L294,28.5701977 Z" id="PolskiKośzykRoku.pl" fill="#000000"></path>
                <g id="Group" transform="translate(0.000000, 12.000000)"></g>
                <path d="M17.0543987,23.9764386 C16.94895,23.9986391 16.8413709,24.0097394 16.734857,24.0097394 L8.16687853,23.9209371 C7.65356281,23.9370846 7.17286954,23.659404 6.91399154,23.1971858 C6.65511354,22.7349676 6.65950186,22.1622212 6.92542932,21.70437 C7.19135678,21.2465189 7.67624361,20.9768732 8.18924645,21.001561 L16.7572249,21.0903633 C17.488258,21.0648866 18.1142807,21.6316134 18.192322,22.3895303 C18.2703633,23.1474472 17.7739747,23.8396934 17.0543987,23.9764386 Z M19.9302741,28.9715688 C19.8248254,28.9937694 19.7172463,29.0048697 19.6107324,29.0048697 L1.45650255,28.9160674 C0.940359024,28.9371045 0.454939431,28.6606102 0.193231392,28.1965099 C-0.0684766471,27.7324096 -0.0640579733,27.1559203 0.204730687,26.6962362 C0.473519347,26.236552 0.963115275,25.9681742 1.47887047,25.9978013 L19.6331004,26.0866036 C20.3663304,26.0568878 20.9963616,26.6240939 21.0746826,27.3844347 C21.1530036,28.1447756 20.6528497,28.838419 19.9302741,28.9715688 Z M21.8475244,33.9666991 C21.7420757,33.9888997 21.6344966,34 21.5279827,34 L12.9600042,33.9111977 C12.4438607,33.9322348 11.9584411,33.6557405 11.6967331,33.1916402 C11.435025,32.7275399 11.4394437,32.1510506 11.7082324,31.6913665 C11.977021,31.2316823 12.466617,30.9633044 12.9823722,30.9929316 L21.5503506,31.0817339 C22.2835807,31.0520181 22.9136119,31.6192242 22.9919329,32.379565 C23.0702539,33.1399059 22.5700999,33.8335493 21.8475244,33.9666991 Z" id="Shape" fill="#FEE8D6" fill-rule="nonzero"></path>
                <path d="M47.2316205,29.9080198 L30.8956091,33.7430101 C30.3218996,33.8654306 29.73657,33.5911825 29.4709317,33.0754971 L24.5844619,23.4168841 C24.4967963,23.3008573 24.4306266,23.1704861 24.3890031,23.0317805 L20.5178332,15.3874735 L17.5544608,16.0089879 C16.8665805,16.1580609 16.185259,15.7331977 16.0277104,15.0569262 C15.9575062,14.732212 16.0219595,14.3933245 16.2067285,14.1156723 C16.3914974,13.83802 16.6812531,13.6446376 17.0115197,13.5785561 L20.9565296,12.7516531 C21.5302391,12.6292325 22.1155687,12.9034807 22.381207,13.419166 L23.9340185,16.488228 L45.1977631,12.0295838 C45.885533,11.8811294 46.5664446,12.305737 46.7245135,12.9816455 L48.9722896,23.0488962 C49.0424938,23.3736104 48.9780405,23.7124979 48.7932715,23.9901501 C48.6085026,24.2678024 48.3187469,24.4611848 47.9884803,24.5272663 L29.9204869,28.3141186 L31.3321337,31.1061199 L46.6854217,27.477588 C47.3727851,27.3278254 48.0536333,27.7535789 48.2121721,28.4296497 C48.2827592,28.7539316 48.2188725,29.0925554 48.034723,29.3701961 C47.8505736,29.6478367 47.5614335,29.8414688 47.2316205,29.9080198 Z M44.4810809,14.7285184 L25.0959124,18.7935011 L26.343591,21.2538854 L45.0631138,17.3290376 L44.4810809,14.7285184 Z M46.1870018,22.366407 L45.6060548,19.7562602 L27.5087426,23.5516704 L28.7564212,26.0120547 L46.1870018,22.366407 Z M35.1110037,34.1334624 C36.1922235,33.8999306 37.2625466,34.5681816 37.5097174,35.6310876 C37.6199736,36.1412996 37.5186088,36.6737604 37.2281864,37.1099471 C36.9377639,37.5461338 36.4823874,37.8498451 35.9634212,37.9534764 C34.8822013,38.1870082 33.8118783,37.5187572 33.5647075,36.4558512 C33.4538275,35.9451716 33.5550261,35.4120172 33.84573,34.9753122 C34.136434,34.5386071 34.5924605,34.2346796 35.1120896,34.1313229 L35.1110037,34.1334624 Z M44.535375,31.9512085 C45.6165949,31.7176767 46.6869179,32.3859277 46.9340887,33.4488337 C47.0443643,33.959176 46.9430289,34.4917695 46.6526268,34.9281265 C46.3622247,35.3644835 45.9068433,35.6684106 45.3877925,35.7722923 C44.3065727,36.005824 43.2362496,35.337573 42.9890788,34.274667 C42.8788032,33.7643247 42.9801387,33.2317312 43.2705407,32.7953743 C43.5609428,32.3590173 44.0163243,32.0550901 44.535375,31.9512085 Z" id="Shape" fill="url(#linearGradient-1)" fill-rule="nonzero"></path>
            </g>
        </g>
    </g>
</svg>