<?xml version="1.0" encoding="UTF-8"?>
<svg width="292px" height="42px" viewBox="0 0 292 42" version="1.1" xmlns="http://www.w3.org/2000/svg" xmlns:xlink="http://www.w3.org/1999/xlink">
    <!-- Generator: Sketch 48.2 (47327) - http://www.bohemiancoding.com/sketch -->
    <title>logo</title>
    <desc>Created with Sketch.</desc>
    <defs>
        <linearGradient x1="38.9489809%" y1="115.303%" x2="75.556721%" y2="0%" id="linearGradient-1">
            <stop stop-color="#FD8835" offset="0%"></stop>
            <stop stop-color="#FC6120" offset="100%"></stop>
        </linearGradient>
    </defs>
    <g id="Artboard" stroke="none" stroke-width="1" fill="none" fill-rule="evenodd" transform="translate(-382.000000, -74.000000)">
        <g id="logo" transform="translate(381.000000, 74.000000)">
            <polygon id="Shape" fill="#EDF3F7" fill-rule="nonzero" points="67.5 0 68.5 0 68.5 42 67.5 42"></polygon>
            <text id="PolskiKoszykRoku.pl" font-family="Calibre-Medium, Calibre" font-size="24" font-weight="400" letter-spacing="0.4" fill="#000000">
                <tspan x="90.4589974" y="29">PolskiKoszykRoku</tspan>
                <tspan x="270.426997" y="29" letter-spacing="1.08333504">.</tspan>
                <tspan x="276.310332" y="29" font-family="CalibreRegular, Calibre" font-weight="normal" letter-spacing="1.08333504">pl</tspan>
            </text>
            <g id="Group" transform="translate(0.000000, 11.000000)" fill-rule="nonzero">
                <path d="M17.007,10.782 C16.908,10.802 16.807,10.812 16.707,10.812 L8.663,10.732 C8.18107633,10.7465469 7.72978006,10.4963907 7.48673386,10.0799888 C7.24368766,9.66358683 7.24780761,9.14761256 7.49747216,8.7351448 C7.74713671,8.32267704 8.20237007,8.07975933 8.684,8.102 L16.728,8.182 C17.4143264,8.15904863 18.0020644,8.66960003 18.0753331,9.35239022 C18.1486017,10.0351804 17.68257,10.6588094 17.007,10.782 Z M19.707,15.282 C19.608,15.302 19.507,15.312 19.407,15.312 L2.363,15.232 C1.87842146,15.2509519 1.42268792,15.0018644 1.17698475,14.5837669 C0.931281577,14.1656695 0.935430025,13.6463233 1.1877808,13.2322042 C1.44013157,12.8180851 1.89978604,12.5763096 2.384,12.603 L19.428,12.683 C20.116389,12.6562298 20.7078904,13.1672128 20.7814217,13.8521867 C20.8549529,14.5371606 20.3853861,15.1620483 19.707,15.282 Z M21.507,19.782 C21.408,19.802 21.307,19.812 21.207,19.812 L13.163,19.732 C12.6784215,19.7509519 12.2226879,19.5018644 11.9769847,19.0837669 C11.7312816,18.6656695 11.73543,18.1463233 11.9877808,17.7322042 C12.2401316,17.3180851 12.699786,17.0763096 13.184,17.103 L21.228,17.183 C21.916389,17.1562298 22.5078904,17.6672128 22.5814217,18.3521867 C22.6549529,19.0371606 22.1853861,19.6620483 21.507,19.782 Z" id="Shape" fill="#FEE8D6"></path>
                <path d="M44.155,16.746 L29.111,20.331 C28.5826651,20.4454403 28.043629,20.1890695 27.799,19.707 L23.299,10.678 C23.2182679,10.5695365 23.1573315,10.4476638 23.119,10.318 L19.554,3.172 L16.825,3.753 C16.191524,3.89235544 15.5640881,3.49518763 15.419,2.863 C15.3543482,2.55945285 15.4137039,2.24265636 15.5838596,1.9831033 C15.7540152,1.72355024 16.0208541,1.54277384 16.325,1.481 L19.958,0.708 C20.4863349,0.593559659 21.025371,0.849930478 21.27,1.332 L22.7,4.201 L42.282,0.033 C42.9153743,-0.105777149 43.5424327,0.291151732 43.688,0.923 L45.758,10.334 C45.8226518,10.6375471 45.7632961,10.9543436 45.5931404,11.2138967 C45.4229848,11.4734498 45.1561459,11.6542262 44.852,11.716 L28.213,15.256 L29.513,17.866 L43.652,14.474 C44.285,14.334 44.912,14.732 45.058,15.364 C45.1230045,15.667143 45.0641705,15.9836931 44.8945854,16.2432352 C44.7250003,16.5027774 44.4587282,16.6837873 44.155,16.746 Z M41.622,2.556 L23.77,6.356 L24.919,8.656 L42.158,4.987 L41.622,2.556 Z M43.193,9.696 L42.658,7.256 L25.992,10.804 L27.141,13.104 L43.193,9.696 Z M32.993,20.696 C33.9887064,20.4776914 34.9743779,21.1023813 35.202,22.096 C35.303536,22.572953 35.2101882,23.0707045 34.9427352,23.4784576 C34.6752822,23.8862107 34.2559213,24.1701241 33.778,24.267 C32.7822936,24.4853086 31.7966221,23.8606187 31.569,22.867 C31.4668895,22.3896099 31.5600843,21.8912101 31.8277965,21.4829724 C32.0955088,21.0747347 32.5154683,20.7906192 32.994,20.694 L32.993,20.696 Z M41.672,18.656 C42.6677064,18.4376914 43.6533779,19.0623813 43.881,20.056 C43.9825539,20.5330748 43.8892331,21.0309503 43.6217988,21.4388626 C43.3543646,21.8467749 42.9349991,22.13089 42.457,22.228 C41.4612936,22.4463086 40.4756221,21.8216187 40.248,20.828 C40.1464461,20.3509252 40.2397669,19.8530497 40.5072012,19.4451374 C40.7746354,19.0372251 41.1940009,18.75311 41.672,18.656 Z" id="Shape" fill="url(#linearGradient-1)"></path>
            </g>
        </g>
    </g>
</svg>