<svg xmlns="http://www.w3.org/2000/svg" width="276" height="42" viewBox="0 0 276 42"><defs><linearGradient id="a" x1="32.723%" x2="89.955%" y1="115.303%" y2="0%"><stop offset="0%" stop-color="#FD8835"/><stop offset="100%" stop-color="#FC6120"/></linearGradient></defs><g fill="none" fill-rule="evenodd"><path fill="#EDF3F7" fill-rule="nonzero" d="M66.5 0h1v42h-1z"/><path fill="#161616" d="M101.04 27.8a2.852 2.852 0 0 1-2.37-1.23 6.281 6.281 0 0 1-.93-3.79 5.285 5.285 0 0 1 .96-3.38 2.9 2.9 0 0 1 2.34-1.2 2.287 2.287 0 0 1 1.88.81c.467.606.758 1.33.84 2.09l2.68-.42a5.432 5.432 0 0 0-1.75-3.63 5.312 5.312 0 0 0-3.67-1.35 5.7 5.7 0 0 0-4.27 1.88 7.236 7.236 0 0 0-1.79 5.2c0 2.52.563 4.403 1.69 5.65a5.642 5.642 0 0 0 4.39 1.87 5.165 5.165 0 0 0 3.76-1.4 6.4 6.4 0 0 0 1.78-3.84l-2.8-.62c-.253 2.24-1.167 3.36-2.74 3.36zm1.18-13.1l1.36-1.72-1.36-1.06-1.34 1.72-1.38-1.722-1.32 1.06 1.34 1.72h2.7v.002zm12.23 12.85c-.432.312-.957.47-1.49.45a2.179 2.179 0 0 1-1.67-.65 2.845 2.845 0 0 1-.67-1.87h7.12v-.78a5.875 5.875 0 0 0-1.37-4.07 4.477 4.477 0 0 0-3.49-1.53 4.539 4.539 0 0 0-3.51 1.53 6.635 6.635 0 0 0 .01 8.14A4.682 4.682 0 0 0 113 30.3a5.054 5.054 0 0 0 4.38-2.36l-1.82-1.6a5.191 5.191 0 0 1-1.11 1.208v.002zM111.31 22a2.108 2.108 0 0 1 1.57-.62c.6-.033 1.19.172 1.64.57.42.426.67.992.7 1.59h-4.6c.038-.58.283-1.126.69-1.54zm9.16 7.19a4.785 4.785 0 0 0 3.39 1.11 4.611 4.611 0 0 0 3.21-1.01 3.033 3.033 0 0 0 1.11-2.29 2.891 2.891 0 0 0-.67-1.97 5.131 5.131 0 0 0-2.53-1.27c-.9-.23-1.784-.514-2.65-.85a.768.768 0 0 1-.53-.69.825.825 0 0 1 .45-.69 2.71 2.71 0 0 1 2.7.15c.362.326.634.739.79 1.2l2.16-.66c-.6-2.08-2.087-3.12-4.46-3.12a4.227 4.227 0 0 0-2.93.96 2.967 2.967 0 0 0-1.07 2.28c-.026.73.293 1.43.86 1.89a7.524 7.524 0 0 0 2.7 1.23c.133.04.327.093.58.16.63.16 1.245.37 1.84.63.272.12.446.392.44.69a.956.956 0 0 1-.57.87 3.209 3.209 0 0 1-1.53.31 2.206 2.206 0 0 1-2.38-2.22l-2.34.6a4.514 4.514 0 0 0 1.43 2.688v.002zm12.31.81v-3.32l1.34-1.52h.04L137.4 30h2.88l-4.16-6.3 3.82-4.3h-3.26l-3.86 4.38h-.04V15.4h-2.6V30h2.6zm12.1 4.5l6.1-15.1h-2.64l-2.74 7.18h-.04l-2.74-7.18h-2.64l4.24 10.08-2.12 5.02h2.58zm1.88-16.4l2.2-2.5h-2.76l-1.62 2.5h2.18zm8.42 11.9v-4.38l1.04-1.38h.04l4.22 5.76h3.26l-5.66-7.82 5.24-6.18h-3.14l-4.96 5.88h-.04V16h-2.7v14h2.7zm11.02-5.3a3.892 3.892 0 0 1 .65-2.42 2.235 2.235 0 0 1 3.5.01 3.9 3.9 0 0 1 .65 2.41 3.94 3.94 0 0 1-.64 2.41 2.255 2.255 0 0 1-3.52.01 3.932 3.932 0 0 1-.64-2.42zm7.36 0a5.674 5.674 0 0 0-1.44-4.1 4.88 4.88 0 0 0-7.04 0 5.674 5.674 0 0 0-1.44 4.1 5.758 5.758 0 0 0 1.4 4.12 5.022 5.022 0 0 0 7.12 0 5.758 5.758 0 0 0 1.4-4.12zm2.73 4.49a4.785 4.785 0 0 0 3.39 1.11 4.611 4.611 0 0 0 3.21-1.01A3.033 3.033 0 0 0 184 27a2.891 2.891 0 0 0-.67-1.97 5.131 5.131 0 0 0-2.53-1.27c-.9-.23-1.784-.514-2.65-.85a.768.768 0 0 1-.53-.69.825.825 0 0 1 .45-.69 2.71 2.71 0 0 1 2.7.15c.362.326.634.739.79 1.2l2.16-.66c-.6-2.08-2.087-3.12-4.46-3.12a4.227 4.227 0 0 0-2.93.96 2.967 2.967 0 0 0-1.07 2.28c-.026.73.293 1.43.86 1.89a7.524 7.524 0 0 0 2.7 1.23c.133.04.327.093.58.16.63.16 1.245.37 1.84.63.272.12.446.392.44.69a.956.956 0 0 1-.57.87 3.209 3.209 0 0 1-1.53.31 2.206 2.206 0 0 1-2.38-2.22l-2.34.6a4.514 4.514 0 0 0 1.43 2.688v.002zm4.21-11.072l1.36-1.72-1.36-1.06-1.34 1.72-1.38-1.72-1.32 1.06 1.34 1.72h2.7zM188.6 30V19.4H186V30h2.6zm-.36-11.9l2.2-2.5h-2.76l-1.62 2.5h2.18zM194 30v-3.32l1.34-1.52h.04l3.24 4.84h2.88l-4.16-6.3 3.82-4.3h-3.26l-3.86 4.38H194V15.4h-2.6V30h2.6zm11.8 0v-5.2h2.08l2.82 5.2h2.92l-2.98-5.46a4.417 4.417 0 0 0 1.63-7.33 4.986 4.986 0 0 0-3.49-1.21h-5.68v14h2.7zm0-11.56h2.76c1.533 0 2.3.673 2.3 2.02 0 1.333-.767 2-2.3 2h-2.76v-4.02zm11.68 6.26a3.892 3.892 0 0 1 .65-2.42 2.235 2.235 0 0 1 3.5.01 3.9 3.9 0 0 1 .65 2.41 3.94 3.94 0 0 1-.64 2.41 2.255 2.255 0 0 1-3.52.01 3.932 3.932 0 0 1-.64-2.42zm7.36 0a5.674 5.674 0 0 0-1.44-4.1 4.88 4.88 0 0 0-7.04 0 5.674 5.674 0 0 0-1.44 4.1 5.758 5.758 0 0 0 1.4 4.12 5.022 5.022 0 0 0 7.12 0 5.758 5.758 0 0 0 1.4-4.12zm4.7 5.3v-3.32l1.34-1.52h.04l3.24 4.84h2.88l-4.16-6.3 3.82-4.3h-3.26l-3.86 4.38h-.04V15.4h-2.6V30h2.6zm9.69-.8a3.3 3.3 0 0 0 2.73 1.1 3.236 3.236 0 0 0 2.76-1.32h.04V30h2.48V19.4h-2.6v6.36a1.918 1.918 0 0 1-.58 1.55c-.43.342-.97.516-1.52.49a1.571 1.571 0 0 1-1.22-.42 2.107 2.107 0 0 1-.38-1.42V19.4h-2.6v6.84a4.571 4.571 0 0 0 .89 2.96zm13.67.8v-2.365h-2.353V30h2.353zm10.724-.8a4.734 4.734 0 0 0 1.483-2.935l-1.641-.322a3.773 3.773 0 0 1-.9 2.034 2.428 2.428 0 0 1-1.92.85 2.8 2.8 0 0 1-2.36-1.095 4.842 4.842 0 0 1-.858-3.041 4.682 4.682 0 0 1 .878-3.021 2.747 2.747 0 0 1 2.2-1.1 2.514 2.514 0 0 1 1.989.772c.476.558.796 1.233.926 1.955l1.592-.323a4.52 4.52 0 0 0-1.456-2.8 4.21 4.21 0 0 0-2.912-1.075 4.49 4.49 0 0 0-3.463 1.5 6.814 6.814 0 0 0-.046 8.206 4.474 4.474 0 0 0 3.487 1.49 4.3 4.3 0 0 0 2.999-1.095h.002zm12.204.8v-1.525h-6.621v-.039l6.6-7.809V19.4h-8.4v1.475h6.279v.039l-6.66 7.8V30H275.828z"/><g><path fill="#FEE8D6" d="M16.007 21.782c-.099.02-.2.03-.3.03l-8.044-.08a1.316 1.316 0 1 1 .021-2.63l8.044.08a1.311 1.311 0 0 1 .279 2.6zm2.7 4.5c-.099.02-.2.03-.3.03l-17.044-.08a1.316 1.316 0 1 1 .021-2.629l17.044.08a1.31 1.31 0 0 1 .279 2.599zm1.8 4.5c-.099.02-.2.03-.3.03l-8.044-.08a1.316 1.316 0 1 1 .021-2.629l8.044.08a1.31 1.31 0 0 1 .279 2.599z"/><path fill="url(#a)" d="M44.155 16.746l-15.044 3.585a1.189 1.189 0 0 1-1.312-.624l-4.5-9.029a1.148 1.148 0 0 1-.18-.36l-3.565-7.146-2.729.581a1.182 1.182 0 0 1-1.406-.89 1.163 1.163 0 0 1 .906-1.382l3.633-.773a1.189 1.189 0 0 1 1.312.624l1.43 2.869L42.282.033a1.183 1.183 0 0 1 1.406.89l2.07 9.411a1.163 1.163 0 0 1-.906 1.382l-16.639 3.54 1.3 2.61 14.139-3.392c.633-.14 1.26.258 1.406.89a1.162 1.162 0 0 1-.903 1.382zm-2.533-14.19l-17.852 3.8 1.149 2.3 17.239-3.669-.536-2.431zm1.571 7.14l-.535-2.44-16.666 3.548 1.149 2.3 16.052-3.408zm-10.2 11a1.858 1.858 0 0 1 2.209 1.4 1.827 1.827 0 0 1-1.424 2.171 1.858 1.858 0 0 1-2.209-1.4 1.827 1.827 0 0 1 1.425-2.173l-.001.002zm8.679-2.04a1.858 1.858 0 0 1 2.209 1.4 1.828 1.828 0 0 1-1.424 2.172 1.858 1.858 0 0 1-2.209-1.4 1.828 1.828 0 0 1 1.424-2.172z" transform="translate(-1 11)"/></g></g></svg>