<svg height="200" viewBox="0 0 2560 200" width="2560" xmlns="http://www.w3.org/2000/svg"><g fill="#f7f8fc" fill-rule="evenodd" transform=""><g fill-rule="nonzero"><path d="m220 100v-100h-100c0 55.2222222 44.777778 100 100 100z" transform="matrix(-1 0 0 1 340 0)"/><path d="m1880 0c0 55.2222222 44.77778 100 100 100v-100z"/><path d="m580 0c0 55.2222222 44.777778 100 100 100v-100z"/><path d="m1180 0c0 55.2222222 44.77778 100 100 100v-100z" transform="matrix(-1 0 0 -1 2460 100)"/><path d="m1680 0c0 55.2222222 44.77778 100 100 100v-100z" transform="matrix(-1 0 0 1 3460 0)"/></g><path d="m0 0h120v100h-120z" transform="matrix(1 0 0 -1 0 100)"/><path d="m1980 0h180v100h-180z" transform="matrix(1 0 0 -1 0 100)"/><path d="m1280 100c0-55.2222222 44.77778-100 100-100v100z" fill-rule="nonzero"/><path d="m2460 100c0-55.2222222 44.77778-100 100-100v100z" fill-rule="nonzero"/><path d="m1380 0h300v100h-300z"/><path d="m320 100c0 55.222222 44.777778 100 100 100v-100z" fill-rule="nonzero" transform="matrix(1 0 0 -1 0 300)"/><path d="m420 100h260v100h-260z"/><path d="m680 0h100v100h-100z" transform="matrix(1 0 0 -1 0 100)"/><path d="m1680 100c0 55.222222 44.77778 100 100 100v-100z" fill-rule="nonzero" transform="matrix(-1 0 0 -1 3460 300)"/><path d="m2160 0c0 55.2222222 44.77778 100 100 100v-100z" fill-rule="nonzero" transform="matrix(-1 0 0 -1 4420 100)"/><path d="m1780 100h400v100h-400z" transform="matrix(1 0 0 -1 0 300)"/><path d="m680 100h1000v100h-1000z" transform="matrix(1 0 0 -1 0 300)"/><path d="m780 0c0 55.2222222 44.777778 100 100 100v-100z" fill-rule="nonzero" transform="matrix(1 0 0 -1 0 100)"/><path d="m880 0h300v100h-300z" transform="matrix(1 0 0 -1 0 100)"/><path d="m2180 100h380v100h-380z" transform="matrix(1 0 0 -1 0 300)"/><path d="m220 100c0 55.222222 44.777778 100 100 100v-100z" fill-rule="nonzero" transform="matrix(-1 0 0 -1 540 300)"/><path d="m0 100h220v100h-220z" transform="matrix(1 0 0 -1 0 300)"/></g></svg>