<svg height="650" viewBox="0 0 787 650" width="787" xmlns="http://www.w3.org/2000/svg" xmlns:xlink="http://www.w3.org/1999/xlink"><linearGradient id="a" x1="3.009938%" x2="100%" y1="3.009938%" y2="100%"><stop offset="0" stop-color="#4e0f89" stop-opacity="0"/><stop offset="1" stop-color="#460e7b"/></linearGradient><g fill="url(#a)"><path d="m300 300c0 55.222222 44.777778 100 100 100v-100z" transform="matrix(-1 0 0 -1 700 700)"/><path d="m400 300c0 110.444444 89.555556 200 200 200v-200z" transform="matrix(1 0 0 -1 0 800)"/><path d="m500 0c0 55.2222222 44.777778 100 100 100v-100z" transform="matrix(1 0 0 -1 0 100)"/><path d="m600 300c0 55.222222 44.777778 100 100 100v-100z"/><path d="m600 0c0 55.2222222 44.777778 100 100 100v-100z"/><path d="m300 400c0 55.222222 44.777778 100 100 100v-100z" transform="matrix(1 0 0 -1 0 900)"/><path d="m0 100c0 110.444444 89.5555556 200 200 200v-200z" transform="matrix(1 0 0 -1 0 400)"/><path d="m700 600c0 55.222222 44.777778 100 100 100v-100z" transform="matrix(-1 0 0 -1 1500 1300)"/><path d="m200 0c0 55.2222222 44.777778 100 100 100v-100z" transform="matrix(-1 0 0 1 500 0)"/><path d="m100 0c0 55.2222222 44.777778 100 100 100v-100z" transform="matrix(-1 0 0 -1 300 100)"/><path d="m600 600c0 55.222222 44.777778 100 100 100v-100z" transform="matrix(-1 0 0 1 1300 0)"/><path d="m0 500c0 55.222222 44.7777778 100 100 100v-100z" transform="matrix(-1 0 0 1 100 0)"/></g></svg>