<svg height="65" viewBox="0 0 80 65" width="80" xmlns="http://www.w3.org/2000/svg"><g fill="none" fill-rule="evenodd" transform="translate(-1 1)"><path d="m4 38.954226c3.74995872-.4145369 6.6666667-3.5937646 6.6666667-7.454226s-2.91670798-7.0396891-6.6666667-7.454226v-7.7124407c0-2.209139 1.790861-4 4-4h52c2.209139 0 4 1.790861 4 4v30.3333334c0 2.209139-1.790861 4-4 4h-52c-2.209139 0-4-1.790861-4-4z" fill="#e8dff4" transform="matrix(.96592583 .25881905 -.25881905 .96592583 9.311322 -7.726511)"/><path d="m14 52.2875594c3.7499587-.414537 6.6666667-3.5937647 6.6666667-7.4542261 0-3.8604613-2.916708-7.0396891-6.6666667-7.454226v-7.7124406c0-2.209139 1.790861-4 4-4h52c2.209139 0 4 1.790861 4 4v30.3333333c0 2.209139-1.790861 4-4 4h-52c-2.209139 0-4-1.790861-4-4z" fill="#e8dff4"/><path d="m9 33.954226c3.7499587-.4145369 6.6666667-3.5937646 6.6666667-7.454226s-2.916708-7.0396891-6.6666667-7.454226v-7.7124407c0-2.20913897 1.790861-3.99999997 4-3.99999997h52c2.209139 0 4 1.790861 4 3.99999997v30.3333334c0 2.209139-1.790861 4-4 4h-52c-2.209139 0-4-1.790861-4-4z" fill="#fff" stroke="#4e0f89" stroke-linecap="round" stroke-linejoin="round" stroke-width="4" transform="matrix(.96592583 .25881905 -.25881905 .96592583 8.187597 -9.190977)"/><path d="m19 47.2875594c3.7499587-.414537 6.6666667-3.5937647 6.6666667-7.4542261 0-3.8604613-2.916708-7.0396891-6.6666667-7.454226v-7.7124406c0-2.209139 1.790861-4 4-4h52c2.209139 0 4 1.790861 4 4v30.3333333c0 2.209139-1.790861 4-4 4h-52c-2.209139 0-4-1.790861-4-4z" fill="#fff" stroke="#4e0f89" stroke-linecap="round" stroke-linejoin="round" stroke-width="4"/><g fill="#4e0f89"><rect height="3.333333" rx="1.666667" width="8.333333" x="49" y="45.666667"/><rect height="3.333333" rx="1.666667" width="8.333333" x="60.666667" y="45.666667"/><rect height="3.333333" rx="1.666667" width="36.666667" x="32.333333" y="39"/><rect height="3.333333" rx="1.666667" width="36.666667" x="32.333333" y="30.666667"/></g></g></svg>