<?xml version="1.0" standalone="no"?>
<!DOCTYPE svg PUBLIC "-//W3C//DTD SVG 1.1//EN" "http://www.w3.org/Graphics/SVG/1.1/DTD/svg11.dtd" >
<svg xmlns="http://www.w3.org/2000/svg" xmlns:xlink="http://www.w3.org/1999/xlink" version="1.1">
<metadata></metadata>
<defs>
<font id="webfontregular" horiz-adv-x="393" >
<font-face units-per-em="2048" ascent="1638" descent="-410" />
<missing-glyph horiz-adv-x="452" />
<glyph horiz-adv-x="0" />
<glyph unicode="&#xd;" horiz-adv-x="452" />
<glyph horiz-adv-x="0" />
<glyph horiz-adv-x="0" />
<glyph unicode=" "  horiz-adv-x="452" />
<glyph unicode="&#x09;" horiz-adv-x="452" />
<glyph unicode="&#xa0;" horiz-adv-x="452" />
<glyph unicode="!" horiz-adv-x="421" d="M133 74q0 16 6 30.5t16.5 25.5t25 17.5t30.5 6.5t30.5 -6.5t24.5 -17.5t16.5 -25.5t6.5 -30.5q0 -18 -6.5 -32.5t-16.5 -25t-24.5 -16.5t-30.5 -6t-30.5 6t-25 16.5t-16.5 25t-6 32.5zM152 1257h118l-20 -864h-78z" />
<glyph unicode="&#x22;" horiz-adv-x="454" d="M82 854v403h94v-403h-94zM279 854v403h94v-403h-94z" />
<glyph unicode="#" horiz-adv-x="1124" d="M55 391l19 82h200l74 311h-211l17 82h213l94 391h92l-94 -391h319l94 391h93l-95 -391h199l-18 -82h-199l-74 -311h209l-16 -82h-213l-92 -391h-95l93 391h-318l-94 -391h-90l92 391h-199zM365 473h319l74 311h-318z" />
<glyph unicode="$" horiz-adv-x="948" d="M55 313h107q37 -98 120 -147t199 -49q63 0 117.5 15t93.5 45t61.5 73t22.5 98q0 78 -45 130t-156 85l-217 60q-61 18 -111 41.5t-86 58.5t-56.5 82t-20.5 110q0 76 29.5 134.5t80 98.5t115.5 60q57 18 123 23v182h94v-186q43 -6 80 -17q70 -20 121 -58t86 -92t51 -120 h-100q-33 92 -107.5 146.5t-201.5 54.5q-57 0 -107.5 -14.5t-87.5 -42t-57.5 -69.5t-20.5 -95q0 -47 15.5 -79t44 -56.5t69.5 -42t95 -31.5l192 -54q143 -39 209.5 -113.5t66.5 -193.5q0 -76 -30.5 -137t-82.5 -102t-124 -64q-53 -14 -111 -20v-201h-94v203q-127 8 -223 71 q-115 74 -154 213z" />
<glyph unicode="%" horiz-adv-x="1271" d="M76 1014q0 53 20.5 101t55 84t82 56.5t102.5 20.5q53 0 100 -20.5t83 -56.5t56.5 -84t20.5 -101q0 -55 -20.5 -102.5t-56.5 -82t-83 -55t-100 -20.5q-55 0 -102.5 20.5t-82 55t-55 81.5t-20.5 103zM160 1014q0 -37 14 -69t38 -55.5t55.5 -36.5t68.5 -13t68.5 13t55 36.5 t38 55.5t14.5 69q0 74 -51 125t-125 51q-37 0 -68.5 -13.5t-55.5 -37t-38 -56t-14 -69.5zM184 0l813 1257h90l-813 -1257h-90zM676 244q0 53 20.5 101t56 83t83 55.5t100.5 20.5q55 0 102 -20.5t82 -55.5t55.5 -83t20.5 -101q0 -55 -20.5 -102.5t-55.5 -83t-82 -56 t-102 -20.5q-53 0 -100.5 20.5t-83 56t-56 82.5t-20.5 103zM760 244q0 -74 51 -125t125 -51q37 0 68.5 13t55 36.5t38 56.5t14.5 70q0 35 -14.5 67.5t-38 56t-55 37t-68.5 13.5t-68.5 -13.5t-55.5 -37t-38 -56t-14 -67.5z" />
<glyph unicode="&#x26;" horiz-adv-x="1150" d="M78 365q0 70 24.5 131t66.5 110t99 82q27 16 54 27q-4 4 -9 10q-31 37 -53 74t-34.5 78t-12.5 88q0 72 25.5 129t68.5 97t103.5 62.5t128.5 22.5q78 0 136 -24.5t99 -65.5t64.5 -96.5t29.5 -118.5h-102q-10 98 -68.5 157.5t-158.5 59.5q-96 0 -161 -57.5t-65 -163.5 q0 -78 44 -137.5t108 -124.5l385 -412q31 51 49 115q33 100 37 213h96q-4 -123 -43 -238q-29 -86 -76 -158l213 -225h-133l-139 147q-63 -68 -149 -112q-102 -53 -232 -53q-86 0 -158.5 28.5t-125 80.5t-82 122t-29.5 152zM178 365q0 -63 22.5 -116.5t61.5 -92.5t93.5 -60.5 t117.5 -21.5q111 0 195 41q72 37 125 96l-410 436h-2q-25 -8 -47 -20q-47 -25 -82 -65t-54.5 -91t-19.5 -106z" />
<glyph unicode="'" horiz-adv-x="260" d="M82 854v403h96v-403h-96z" />
<glyph unicode="(" horiz-adv-x="665" d="M61 580q0 141 39 263t110 220t172 166.5t228 101.5v-104q-90 -23 -171 -77t-142 -138t-97 -192.5t-36 -239.5t36 -240t97 -193t142 -138t171 -77v-104q-127 33 -228 101.5t-172 167t-110 220.5t-39 263z" />
<glyph unicode=")" horiz-adv-x="665" d="M55 -68q90 23 171 77t142.5 138t97.5 193t36 240t-36 239.5t-97.5 192.5t-142.5 138t-171 77v104q125 -33 227.5 -101.5t173 -166.5t109.5 -220t39 -263t-39 -263t-109.5 -220.5t-173 -167t-227.5 -101.5v104z" />
<glyph unicode="*" horiz-adv-x="643" d="M63 940l193 111l-193 110l35 58l191 -111v221h67v-221l191 111l33 -58l-193 -110l193 -111l-33 -57l-191 110v-221h-67v221l-191 -110z" />
<glyph unicode="+" horiz-adv-x="1052" d="M145 559v88h336v338h90v-338h336v-88h-336v-338h-90v338h-336z" />
<glyph unicode="," horiz-adv-x="290" d="M20 -209l111 207q-25 6 -44 24.5t-19 51.5t22.5 55.5t54.5 22.5q33 0 55.5 -23t22.5 -61q0 -25 -8 -46.5t-22 -44.5l-99 -186h-74z" />
<glyph unicode="-" horiz-adv-x="657" d="M82 483v97h493v-97h-493z" />
<glyph unicode="." horiz-adv-x="290" d="M68 74q0 33 22.5 56.5t54.5 23.5q16 0 30.5 -6.5t25 -17.5t16.5 -25.5t6 -30.5q0 -18 -6 -32.5t-16.5 -25t-24.5 -16.5t-31 -6q-16 0 -30.5 6t-24.5 16.5t-16 25t-6 32.5z" />
<glyph unicode="/" horiz-adv-x="628" d="M10 -172l508 1503h100l-507 -1503h-101z" />
<glyph unicode="0" horiz-adv-x="1095" d="M86 629q0 143 33 262t93 205t146 133t191 47q102 0 187 -47t146.5 -133t94.5 -205t33 -262t-33 -262t-94.5 -205t-146.5 -133t-187 -47q-104 0 -190.5 47t-146.5 133t-93 204.5t-33 262.5zM190 629q0 -121 25 -222.5t71 -174t111.5 -112.5t151.5 -40q82 0 148.5 40 t112.5 112.5t70.5 174t24.5 222.5t-24.5 222t-70.5 174t-112.5 113t-148.5 40q-86 0 -151.5 -40t-111.5 -113t-71 -174t-25 -222z" />
<glyph unicode="1" horiz-adv-x="673" d="M63 963v110l369 187h64v-1260h-105v1133z" />
<glyph unicode="2" horiz-adv-x="911" d="M53 0v72l443 483q49 53 92 100t72.5 91.5t47 88.5t17.5 95q0 115 -72.5 182.5t-189.5 67.5q-137 0 -210 -84t-87 -217h-107q8 88 40 160.5t83 125t122 82t159 29.5q84 0 151.5 -25.5t115.5 -70.5t72.5 -109.5t24.5 -140.5q0 -61 -21.5 -116.5t-57 -108t-80.5 -102.5 t-93 -103l-374 -404h657v-96h-805z" />
<glyph unicode="3" horiz-adv-x="931" d="M49 338h107q23 -123 102.5 -191.5t208.5 -68.5q131 0 210 71.5t79 194.5q0 59 -22.5 107.5t-62.5 81t-92.5 50t-109.5 17.5h-96v92h94q55 0 103 16.5t83 48t56.5 77t21.5 102.5q0 106 -73.5 175t-196.5 69q-113 0 -188.5 -66.5t-98.5 -181.5h-104q10 76 43.5 139.5 t86 108.5t118 70.5t143.5 25.5q86 0 155.5 -25.5t117.5 -70.5t74 -106.5t26 -135.5q0 -55 -17.5 -104.5t-49.5 -87t-73 -63.5t-88 -36q51 -10 98.5 -34.5t81 -63.5t54 -90t20.5 -115q0 -74 -26.5 -140.5t-76.5 -114.5t-124 -77.5t-166 -29.5q-86 0 -158.5 25.5t-127 71.5 t-88.5 111.5t-44 147.5z" />
<glyph unicode="4" horiz-adv-x="1026" d="M43 307v82l494 868h110l-483 -856h469v312h100v-312h238v-94h-238v-307h-100v307h-590z" />
<glyph unicode="5" horiz-adv-x="942" d="M49 340h107q29 -129 106.5 -195.5t208.5 -66.5q66 0 120 23.5t94 66.5t61.5 99.5t21.5 121.5q0 66 -21.5 123t-61.5 100t-95.5 68t-118.5 25q-82 0 -142.5 -35t-99.5 -84h-90v671h668v-98h-574v-454q35 37 98.5 65.5t145.5 28.5q86 0 159 -32t125 -87t81.5 -130 t29.5 -161t-30.5 -159.5t-83.5 -129t-126 -87t-161 -31.5q-86 0 -157.5 24.5t-125 69.5t-89.5 111.5t-50 152.5z" />
<glyph unicode="6" horiz-adv-x="1013" d="M86 612q0 158 35 282t95 208t143 129t178 45q160 0 251 -83t127 -220h-106q-31 92 -93.5 151.5t-178.5 59.5q-74 0 -138.5 -39t-112.5 -109.5t-76 -172t-28 -228.5q0 -16 1 -41t3 -47q14 59 48 109.5t80 86t103.5 56t117.5 20.5q88 0 161.5 -32.5t128 -89t85 -132.5 t30.5 -162q0 -88 -30.5 -164.5t-85 -134t-130.5 -90t-166 -32.5q-133 0 -224 64.5t-144 174.5q-41 86 -57.5 186.5t-16.5 204.5zM219 401q0 -70 23.5 -129t64.5 -103t97.5 -68.5t125.5 -24.5q66 0 122.5 24.5t97.5 67.5t65.5 102.5t24.5 130.5q0 70 -24.5 130.5t-65.5 103.5 t-97.5 67.5t-122.5 24.5q-68 0 -125 -24.5t-98 -67.5t-64.5 -103.5t-23.5 -130.5z" />
<glyph unicode="7" horiz-adv-x="878" d="M37 1159v98h797v-86l-463 -1171h-109l463 1159h-688z" />
<glyph unicode="8" horiz-adv-x="985" d="M70 344q0 59 18 111.5t53 94.5t83 72.5t106 47.5q-96 35 -152.5 110.5t-56.5 171.5q0 70 26.5 129.5t76.5 102.5t119 67.5t149 24.5q82 0 149.5 -24.5t117.5 -67.5t77.5 -102.5t27.5 -129.5q0 -96 -57 -171.5t-152 -110.5q57 -16 105.5 -47t83.5 -73t53 -94.5t18 -111.5 q0 -80 -31.5 -145.5t-88 -113.5t-134 -75.5t-169.5 -27.5q-90 0 -168 27.5t-134.5 75.5t-88 113.5t-31.5 145.5zM172 348q0 -57 23.5 -107.5t65.5 -88t101.5 -59t129.5 -21.5q72 0 130 21.5t101 59t66.5 88t23.5 107.5t-23.5 108.5t-66.5 88.5t-101.5 58.5t-129.5 21.5 q-70 0 -129.5 -21.5t-101.5 -58.5t-65.5 -88t-23.5 -109zM221 950q0 -49 20.5 -92t55.5 -74.5t85.5 -50t109.5 -18.5q61 0 110 18.5t85 50t55.5 74.5t19.5 92t-19.5 92t-55.5 75t-85 50.5t-110 18.5q-59 0 -109.5 -18.5t-85.5 -50.5t-55.5 -75t-20.5 -92z" />
<glyph unicode="9" horiz-adv-x="1013" d="M74 854q0 88 30.5 165t85 134t130 90t165.5 33q133 0 224.5 -64.5t144.5 -175.5q41 -86 57.5 -186t16.5 -205q0 -160 -35 -282.5t-95.5 -206.5t-143.5 -129t-177 -45q-160 0 -251 82.5t-128 220.5h107q31 -92 93 -151.5t179 -59.5q74 0 138.5 39t112.5 109.5t75.5 172 t27.5 228.5q0 16 -1 40.5t-3 47.5q-14 -59 -48 -109.5t-80 -86.5t-103 -56.5t-117 -20.5q-88 0 -161.5 33t-128 89t-85 132t-30.5 162zM174 856q0 -70 23.5 -130t65.5 -103t98.5 -68t121.5 -25q68 0 125.5 25t98.5 68t64.5 103t23.5 130t-23.5 129t-64.5 103.5t-97.5 69 t-126.5 24.5q-66 0 -122 -24.5t-98 -67.5t-65.5 -103.5t-23.5 -130.5z" />
<glyph unicode=":" horiz-adv-x="290" d="M68 74q0 33 22.5 56.5t54.5 23.5q16 0 30.5 -6.5t25 -17.5t16.5 -25.5t6 -30.5q0 -18 -6 -32.5t-16.5 -25t-24.5 -16.5t-31 -6q-16 0 -30.5 6t-24.5 16.5t-16 25t-6 32.5zM68 745q0 33 22.5 56.5t54.5 23.5q16 0 30.5 -6t25 -17t16.5 -24.5t6 -32.5q0 -16 -6 -30.5 t-16.5 -25.5t-24.5 -17t-31 -6q-16 0 -30.5 6t-24.5 17t-16 25.5t-6 30.5z" />
<glyph unicode=";" horiz-adv-x="290" d="M20 -209l111 207q-25 6 -44 24.5t-19 51.5t22.5 55.5t54.5 22.5q33 0 55.5 -23t22.5 -61q0 -25 -8 -46.5t-22 -44.5l-99 -186h-74zM68 745q0 33 22.5 56.5t54.5 23.5q16 0 30.5 -6t25 -17t16.5 -24.5t6 -32.5q0 -16 -6 -30.5t-16.5 -25.5t-24.5 -17t-31 -6q-14 0 -29.5 6 t-25.5 17t-16 25.5t-6 30.5z" />
<glyph unicode="&#x3c;" horiz-adv-x="815" d="M119 551v98l563 307v-102l-475 -254l475 -256v-100z" />
<glyph unicode="=" horiz-adv-x="1071" d="M154 430v86h764v-86h-764zM154 692v88h764v-88h-764z" />
<glyph unicode="&#x3e;" horiz-adv-x="817" d="M133 244v100l475 256l-475 254v102l565 -307v-98z" />
<glyph unicode="?" horiz-adv-x="864" d="M41 883q8 88 40 159.5t84 123t121.5 81t157.5 29.5q84 0 152 -24.5t116 -69.5t72.5 -108.5t24.5 -139.5q0 -55 -19.5 -104.5t-49 -94.5t-67.5 -86t-75 -80q-49 -55 -67.5 -93t-22.5 -81h-98q2 35 9 63.5t21.5 55.5t33 52.5t46.5 56.5q27 33 60.5 66.5t61.5 71.5t46.5 80 t18.5 93q0 115 -73 180.5t-190 65.5q-133 0 -206.5 -83t-87.5 -214h-109zM379 74q0 16 6 30.5t16.5 25.5t24.5 17.5t31 6.5q33 0 55.5 -24t22.5 -56q0 -35 -23 -57.5t-55 -22.5q-16 0 -30.5 6t-25 16.5t-16.5 25t-6 32.5z" />
<glyph unicode="@" horiz-adv-x="1585" d="M76 381q0 158 55 298t155.5 244.5t242 166t313.5 61.5q150 0 272.5 -46t210.5 -127t137 -190.5t49 -238.5q0 -123 -32.5 -216t-88 -155.5t-126 -92.5t-144.5 -30q-72 0 -123 32t-63 93q-37 -47 -96.5 -84t-126.5 -37q-66 0 -115 23.5t-83 63.5t-50.5 94.5t-16.5 117.5 q0 82 26 161t75 140.5t116.5 98.5t151.5 37q76 0 127 -37t72 -80l18 100h92l-92 -522q-12 -72 16.5 -97.5t79.5 -25.5q61 0 114.5 27.5t94.5 81t63.5 130.5t22.5 177q0 115 -43 209t-119.5 163.5t-183 107.5t-235.5 38q-152 0 -277 -53t-214 -146.5t-137 -218.5t-48 -268 q0 -166 58.5 -281.5t153.5 -190.5t217 -108.5t249 -33.5q133 0 241.5 27.5t186.5 64.5v-86q-76 -35 -186.5 -61.5t-241.5 -26.5q-147 0 -285.5 39.5t-245 124.5t-172 216.5t-65.5 315.5zM541 360q0 -100 49 -157.5t133 -57.5q72 0 126 41t95 103l49 282q-20 57 -65 97.5 t-107 40.5q-66 0 -118 -32t-87.5 -81t-55 -110.5t-19.5 -125.5z" />
<glyph unicode="A" horiz-adv-x="1187" d="M47 0l498 1257h98l498 -1257h-107l-164 412h-555l-161 -412h-107zM352 510h482l-242 610z" />
<glyph unicode="B" horiz-adv-x="1073" d="M162 0v1257h387q193 0 297 -83.5t104 -241.5q0 -61 -17.5 -108.5t-46 -81t-65.5 -56.5t-78 -35q59 -8 105.5 -36.5t79.5 -69.5t50 -92.5t17 -106.5q0 -166 -107.5 -256t-301.5 -90h-424zM266 96h328q145 0 221 68.5t76 183.5t-76 184.5t-221 69.5h-328v-506zM266 692h281 q145 0 222 58.5t77 175.5q0 121 -77 178t-222 57h-281v-469z" />
<glyph unicode="C" horiz-adv-x="1177" d="M80 629q0 147 43 267t117.5 205t176 130t216.5 45q92 0 169 -26.5t136 -74t101 -114t61 -146.5h-105q-39 121 -131 191t-231 70q-96 0 -178 -38t-141.5 -110t-92.5 -172t-33 -227t33 -228.5t92.5 -172t141.5 -108.5t178 -38q139 0 231 69.5t131 192.5h105 q-18 -82 -60.5 -148.5t-101.5 -113.5t-136 -73.5t-169 -26.5q-115 0 -216.5 45t-176 130t-117.5 203.5t-43 268.5z" />
<glyph unicode="D" horiz-adv-x="1234" d="M162 0v1257h383q137 0 249.5 -44t192.5 -125.5t124 -198.5t44 -260t-44 -260t-124 -199t-192.5 -126t-249.5 -44h-383zM268 98h277q117 0 209 38t157.5 107.5t100.5 167t35 218.5t-35 219t-100.5 166.5t-157.5 106.5t-209 38h-277v-1061z" />
<glyph unicode="E" horiz-adv-x="1056" d="M162 0v1257h780v-98h-676v-463h613v-96h-613v-502h676v-98h-780z" />
<glyph unicode="F" horiz-adv-x="970" d="M162 0v1257h729v-98h-623v-477h590v-96h-590v-586h-106z" />
<glyph unicode="G" horiz-adv-x="1226" d="M80 629q0 150 44 269.5t119.5 203.5t179 129t220.5 45q92 0 171 -26.5t139.5 -74t102.5 -113t60 -147.5h-106q-41 121 -133.5 191t-233.5 70q-98 0 -181 -38t-144.5 -109t-95.5 -172t-34 -228t34 -228.5t94.5 -172t144.5 -109.5t182 -39q188 0 291.5 109.5t112.5 308.5 h-328v92h428v-72q0 -121 -35 -220t-101.5 -170t-159.5 -108.5t-208 -37.5q-117 0 -220.5 45t-179 129t-119.5 203.5t-44 269.5z" />
<glyph unicode="H" horiz-adv-x="1331" d="M162 0v1257h106v-561h795v561h106v-1257h-106v600h-795v-600h-106z" />
<glyph unicode="I" horiz-adv-x="430" d="M162 0v1257h106v-1257h-106z" />
<glyph unicode="J" horiz-adv-x="968" d="M39 348h111q14 -123 88.5 -194.5t197.5 -71.5q59 0 112.5 17.5t92.5 56.5t61.5 99t22.5 146v856h106v-856q0 -109 -30.5 -186.5t-83.5 -129.5t-125 -77.5t-156 -25.5t-153.5 26.5t-123 73.5t-84 114.5t-36.5 151.5z" />
<glyph unicode="K" horiz-adv-x="1118" d="M162 0v1257h106v-657l654 657h137l-574 -573l594 -684h-133l-536 610l-142 -143v-467h-106z" />
<glyph unicode="L" horiz-adv-x="1030" d="M162 0v1257h106v-1159h682v-98h-788z" />
<glyph unicode="M" horiz-adv-x="1495" d="M162 0v1257h117l471 -1101l471 1101h112v-1257h-102v1047l-449 -1047h-67l-451 1047v-1047h-102z" />
<glyph unicode="N" horiz-adv-x="1263" d="M162 0v1257h100l737 -1044v1044h103v-1257h-72l-766 1087v-1087h-102z" />
<glyph unicode="O" horiz-adv-x="1271" d="M80 629q0 143 42 262t115.5 205t176 133t223.5 47q119 0 221.5 -47t177 -133t115.5 -205t41 -262t-41 -263t-115.5 -205t-177 -132t-221.5 -47q-121 0 -223.5 47t-176 132t-115.5 204.5t-42 263.5zM188 629q0 -121 33 -221.5t92.5 -173t141.5 -113.5t182 -41q98 0 181 41 t142.5 113.5t92 173t32.5 221.5t-32.5 221t-92 173t-142.5 114t-181 41q-100 0 -182 -41t-141.5 -114t-92.5 -173t-33 -221z" />
<glyph unicode="P" horiz-adv-x="1083" d="M162 0v1257h454q92 0 166 -23.5t125 -68.5t79 -110.5t28 -153.5q0 -90 -28 -156.5t-79 -111.5t-124.5 -67.5t-166.5 -22.5h-348v-543h-106zM268 639h346q145 0 220 68.5t75 193.5q0 123 -74.5 191.5t-220.5 68.5h-346v-522z" />
<glyph unicode="Q" horiz-adv-x="1269" d="M80 629q0 143 42 262t115.5 205t176 133t223.5 47q119 0 221.5 -47t177 -133t115.5 -205t41 -262t-41 -263t-117 -206q-16 -18 -35 -35l105 -131l-72 -60l-104 134q-33 -23 -72 -39q-100 -47 -219 -47q-121 0 -223.5 47t-176 132t-115.5 204.5t-42 263.5zM188 629 q0 -121 33 -221.5t92.5 -173t141.5 -113.5t182 -41t182 39q27 12 49 26l-106 140l72 55l104 -137q12 12 23 26q59 72 91.5 173.5t32.5 226.5q0 121 -32.5 221t-92 173t-142.5 114t-181 41q-100 0 -182 -41t-141.5 -114t-92.5 -173t-33 -221z" />
<glyph unicode="R" horiz-adv-x="1124" d="M162 0v1257h446q92 0 165 -23.5t124 -67.5t79 -109.5t28 -151.5t-28 -151.5t-79 -109.5t-125 -66q-41 -14 -88 -19l377 -559h-121l-375 555h-297v-555h-106zM268 649h336q143 0 218 67.5t75 188.5q0 123 -74.5 189.5t-218.5 66.5h-336v-512z" />
<glyph unicode="S" horiz-adv-x="1019" d="M53 307h111q37 -115 131 -173t223 -58q70 0 127 17.5t99 49t64.5 78.5t22.5 107q0 84 -48 141t-169 90l-239 68q-66 18 -119 43.5t-91 62.5t-57.5 86t-19.5 117q0 80 31 142.5t85 106.5t125.5 67.5t155.5 23.5q92 0 165 -23.5t129.5 -65.5t93 -99.5t55.5 -129.5h-107 q-35 102 -116.5 163t-219.5 61q-61 0 -115.5 -16.5t-94 -47.5t-63.5 -76t-24 -100q0 -51 16.5 -86t46.5 -59.5t74 -43t101 -34.5l213 -60q154 -45 225.5 -123.5t71.5 -203.5q0 -82 -32 -147.5t-88 -109.5t-132 -68.5t-166 -24.5q-174 0 -301 84t-164 241z" />
<glyph unicode="T" horiz-adv-x="1153" d="M63 1159v98h1027v-98h-461v-1159h-107v1159h-459z" />
<glyph unicode="U" horiz-adv-x="1239" d="M137 496v761h107v-747q0 -109 27.5 -190.5t77.5 -135t119 -79t150 -25.5q80 0 150 25.5t119 79t78.5 135t29.5 190.5v747h107v-761q0 -129 -38 -225.5t-102.5 -161t-154 -96t-189.5 -31.5q-102 0 -189 31.5t-152.5 96t-102.5 161t-37 225.5z" />
<glyph unicode="V" horiz-adv-x="1183" d="M47 1257h111l434 -1112l434 1112h111l-498 -1257h-96z" />
<glyph unicode="W" horiz-adv-x="1554" d="M45 1257h105l290 -1079l293 1079h88l295 -1079l291 1079h102l-342 -1257h-96l-295 1069l-293 -1069h-96z" />
<glyph unicode="X" horiz-adv-x="1110" d="M49 0l445 637l-433 620h121l373 -534l373 534h119l-433 -618l447 -639h-121l-387 553l-387 -553h-117z" />
<glyph unicode="Y" horiz-adv-x="1099" d="M39 1257h117l395 -624l395 624h115l-459 -722v-535h-106v535z" />
<glyph unicode="Z" horiz-adv-x="1062" d="M76 0v80l766 1079h-756v98h887v-79l-764 -1080h774v-98h-907z" />
<glyph unicode="[" horiz-adv-x="638" d="M162 -172v1503h422v-94h-324v-1315h324v-94h-422z" />
<glyph unicode="\" horiz-adv-x="628" d="M10 1331h101l507 -1503h-100z" />
<glyph unicode="]" horiz-adv-x="638" d="M55 -78h324v1315h-324v94h422v-1503h-422v94z" />
<glyph unicode="^" horiz-adv-x="657" d="M49 887l236 370h88l235 -370h-110l-168 264l-170 -264h-111z" />
<glyph unicode="_" horiz-adv-x="720" d="M41 -86h639v-96h-639v96z" />
<glyph unicode="`" horiz-adv-x="1024" d="M373 1331h108l170 -266h-100z" />
<glyph unicode="a" horiz-adv-x="899" d="M78 266q0 63 26.5 114.5t72.5 88.5t107.5 56.5t133.5 19.5q80 0 147.5 -31t100.5 -65v161q0 100 -58.5 163t-169.5 63q-84 0 -139 -37t-80 -119h-102q12 57 41.5 103t71.5 78t95.5 49.5t114.5 17.5q152 0 238 -84t86 -230v-614h-98v84q-31 -33 -99.5 -65.5t-152.5 -32.5 q-70 0 -131.5 19.5t-106.5 56t-71.5 88t-26.5 116.5zM176 266q0 -49 20.5 -85t55.5 -60.5t80 -35.5t92 -11q41 0 80 9t71.5 27.5t55 43t35.5 55.5v115q-12 29 -35 53t-55.5 42.5t-71.5 29t-80 10.5q-47 0 -92 -12.5t-80 -37t-55.5 -60.5t-20.5 -83z" />
<glyph unicode="b" horiz-adv-x="1007" d="M145 0v1331h103v-557q18 29 47 56.5t65.5 49t79.5 35t90 13.5q100 0 174 -39t124.5 -103.5t75 -150.5t24.5 -180t-24.5 -180.5t-75 -151t-124 -103t-174.5 -38.5q-47 0 -90 13t-79.5 34.5t-65.5 48t-47 57.5v-135h-103zM248 256q45 -86 116.5 -132t155.5 -46 q72 0 128.5 27.5t95 77.5t59 120t20.5 152t-20.5 151.5t-59 119.5t-95 77.5t-128.5 27.5q-84 0 -155.5 -46t-116.5 -132v-397z" />
<glyph unicode="c" horiz-adv-x="905" d="M80 455q0 106 28.5 193t82 148.5t127 96.5t163.5 35q72 0 131.5 -20.5t103.5 -57.5t72.5 -89t42.5 -116h-108q-18 88 -80.5 139.5t-159.5 51.5q-68 0 -123 -28t-94 -78t-60.5 -119.5t-21.5 -155.5t21.5 -156t60.5 -120t94.5 -77.5t122.5 -27.5q96 0 159 51t81 139h108 q-14 -63 -42.5 -115.5t-72.5 -89t-103.5 -57t-131.5 -20.5q-90 0 -163.5 34.5t-127 96t-82 149t-28.5 193.5z" />
<glyph unicode="d" horiz-adv-x="1007" d="M80 455q0 94 24.5 180t73.5 150.5t124 103.5t175 39q47 0 90 -13.5t79 -35t64.5 -49t49.5 -56.5v557h102v-1331h-102v135q-20 -31 -49 -57.5t-65 -48t-79 -34.5t-90 -13q-100 0 -175 38.5t-124 103t-73.5 150.5t-24.5 181zM184 455q0 -82 20.5 -152t59.5 -120t94.5 -77.5 t128.5 -27.5q84 0 156 46t117 132v397q-45 86 -117 132t-156 46q-74 0 -129 -27.5t-94 -77.5t-59.5 -119.5t-20.5 -151.5z" />
<glyph unicode="e" horiz-adv-x="927" d="M80 455q0 100 27.5 187t80 150.5t127 99.5t166.5 36q90 0 160 -33t117 -92.5t70.5 -141t23.5 -178.5v-37h-670q0 -86 22.5 -155.5t63.5 -117.5t95.5 -74.5t119.5 -26.5q98 0 166 51t88 141h99q-27 -127 -118 -204.5t-235 -77.5q-90 0 -163.5 34.5t-127 96t-83 148.5 t-29.5 194zM186 528h562q-2 59 -18.5 115.5t-49.5 99.5t-82 69t-117 26q-59 0 -110.5 -22.5t-90 -62.5t-63 -97.5t-31.5 -127.5z" />
<glyph unicode="f" horiz-adv-x="530" d="M45 819v90h148v164q0 61 18 112.5t53 88.5t82 56.5t103 19.5q29 0 54 -4.5t50 -14.5v-94q-23 10 -45.5 15t-48.5 5q-74 0 -120 -50t-46 -144v-154h215v-90h-215v-819h-100v819h-148z" />
<glyph unicode="g" horiz-adv-x="999" d="M80 467q0 90 24.5 173t72.5 147.5t122 102.5t174 38q45 0 87 -13.5t79 -34t65.5 -48t47.5 -56.5v133h102v-843q0 -106 -27.5 -188.5t-78 -136.5t-121 -81t-156.5 -27q-78 0 -141.5 19.5t-110.5 55.5t-76.5 87t-44.5 117h105q25 -96 94.5 -143.5t173.5 -47.5 q135 0 208 86.5t73 251.5v97q-18 -29 -47 -56.5t-66 -48t-79 -33t-87 -12.5q-100 0 -174 38t-122 101.5t-72.5 146.5t-24.5 175zM184 467q0 -82 20.5 -148.5t58.5 -115.5t93.5 -77t126.5 -28q82 0 153 46t116 130v383q-45 84 -116 130.5t-153 46.5q-72 0 -127 -28t-93 -76 t-58.5 -115.5t-20.5 -147.5z" />
<glyph unicode="h" horiz-adv-x="989" d="M145 0v1331h103v-567q41 66 117.5 115t173.5 49q156 0 235.5 -90t79.5 -236v-602h-102v586q0 106 -55.5 175.5t-176.5 69.5q-47 0 -89 -15t-77 -41.5t-62.5 -62.5t-43.5 -75v-637h-103z" />
<glyph unicode="i" d="M127 1186q0 29 19.5 49t50.5 20t50 -20t19 -49q0 -31 -19.5 -51.5t-49.5 -20.5q-31 0 -50.5 20.5t-19.5 51.5zM145 0v909h103v-909h-103z" />
<glyph unicode="j" horiz-adv-x="395" d="M-29 -270q8 -2 19.5 -3t23.5 -1q31 0 55.5 7t42 24.5t26.5 47t9 74.5v1030h103v-1040q0 -117 -61.5 -176.5t-168.5 -59.5q-12 0 -26 2.5t-23 4.5v90zM129 1186q0 29 19.5 49t50.5 20t50 -20t19 -49q0 -31 -19.5 -51.5t-49.5 -20.5q-31 0 -50.5 20.5t-19.5 51.5z" />
<glyph unicode="k" horiz-adv-x="913" d="M145 0v1331h103v-858l479 436h137l-430 -391l445 -518h-125l-394 453l-112 -101v-352h-103z" />
<glyph unicode="l" d="M145 0v1331h103v-1331h-103z" />
<glyph unicode="m" horiz-adv-x="1458" d="M145 0v909h103v-139q35 63 102.5 110.5t159.5 47.5q98 0 162.5 -48t91.5 -124q18 33 47 63.5t64.5 55t78.5 39t93 14.5q139 0 207.5 -88t68.5 -226v-614h-102v598q0 106 -47.5 169.5t-147.5 63.5q-84 0 -147.5 -54t-92.5 -134v-643h-102v598q0 106 -47 169.5t-148 63.5 q-86 0 -149.5 -54t-91.5 -134v-643h-103z" />
<glyph unicode="n" horiz-adv-x="989" d="M145 0v909h103v-145q41 66 117.5 115t173.5 49q156 0 235.5 -90t79.5 -236v-602h-102v586q0 106 -55.5 175.5t-176.5 69.5q-47 0 -89 -15t-77 -41.5t-62.5 -62.5t-43.5 -75v-637h-103z" />
<glyph unicode="o" horiz-adv-x="964" d="M80 455q0 104 28.5 191t82 149.5t128 97.5t164.5 35t165 -35t127 -97.5t81 -149.5t29 -191t-29 -191.5t-81 -150t-127 -97t-165 -34.5t-164.5 34.5t-128 97t-82 149.5t-28.5 192zM184 455q0 -86 20.5 -156t59.5 -120t94.5 -77.5t124.5 -27.5q68 0 123.5 27.5t94 77.5 t60 120t21.5 156t-21.5 155.5t-60 119.5t-94 78t-123.5 28q-70 0 -125 -28t-94 -78t-59.5 -119.5t-20.5 -155.5z" />
<glyph unicode="p" horiz-adv-x="1007" d="M145 -348v1257h103v-135q18 29 47 56.5t65.5 49t79.5 35t90 13.5q100 0 174 -39t124.5 -103.5t75 -151.5t24.5 -179q0 -94 -24.5 -180.5t-75 -151t-124 -103t-174.5 -38.5q-47 0 -90 13t-79.5 34.5t-65.5 48t-47 57.5v-483h-103zM248 256q45 -86 116.5 -132t155.5 -46 q72 0 128.5 27.5t95 77.5t59 120t20.5 152t-20.5 151.5t-59 119.5t-95 77.5t-128.5 27.5q-84 0 -155.5 -46t-116.5 -132v-397z" />
<glyph unicode="q" horiz-adv-x="1007" d="M80 455q0 92 24.5 179t73.5 151.5t124 103.5t175 39q47 0 90 -13.5t79 -35t64.5 -49t49.5 -56.5v135h102v-1257h-102v483q-20 -31 -49 -57.5t-65 -48t-79 -34.5t-90 -13q-100 0 -175 38.5t-124 103t-73.5 150.5t-24.5 181zM184 455q0 -82 20.5 -152t59.5 -120t94.5 -77.5 t128.5 -27.5q84 0 156 46t117 132v397q-45 86 -117 132t-156 46q-74 0 -129 -27.5t-94 -77.5t-59.5 -119.5t-20.5 -151.5z" />
<glyph unicode="r" horiz-adv-x="616" d="M145 0v909h103v-145q33 70 97.5 117t148.5 47q27 0 46 -4t33 -9v-102q-18 8 -38.5 12t-45.5 4q-84 0 -146 -54t-95 -140v-635h-103z" />
<glyph unicode="s" horiz-adv-x="819" d="M61 236h105q27 -84 92.5 -124t159.5 -40q47 0 87 10t69.5 29.5t47 51.5t17.5 75q0 57 -40 97t-128 64l-168 45q-96 27 -155.5 79t-59.5 153q0 59 23.5 106t66.5 79t98.5 49.5t118.5 17.5q141 0 227.5 -66.5t110.5 -181.5h-102q-27 80 -83 119t-153 39q-84 0 -145.5 -39 t-61.5 -119q0 -66 40 -94.5t122 -53.5l160 -43q117 -33 173 -95t56 -152q0 -61 -24.5 -110.5t-67.5 -81.5t-102.5 -50t-126.5 -18q-70 0 -130.5 17t-106.5 50t-76.5 80t-43.5 107z" />
<glyph unicode="t" horiz-adv-x="610" d="M33 819v90h151v234h103v-234h235v-90h-235v-598q0 -78 33.5 -111.5t97.5 -33.5q33 0 64.5 9t60.5 24v-97q-27 -14 -63 -22t-72 -8q-100 0 -162 55t-62 174v608h-151z" />
<glyph unicode="u" horiz-adv-x="985" d="M135 307v602h103v-585q0 -106 55 -176t176 -70q94 0 165 57.5t103 136.5v637h103v-909h-103v145q-41 -66 -115.5 -114.5t-170.5 -48.5q-156 0 -236 90t-80 235z" />
<glyph unicode="v" horiz-adv-x="886" d="M37 909h108l299 -766l299 766h107l-363 -909h-88z" />
<glyph unicode="w" horiz-adv-x="1239" d="M37 909h100l225 -747l216 747h86l215 -747l223 747h100l-274 -909h-90l-220 750l-217 -750h-90z" />
<glyph unicode="x" horiz-adv-x="882" d="M47 0l336 463l-322 446h117l264 -368l267 368h112l-323 -442l338 -467h-117l-279 387l-282 -387h-111z" />
<glyph unicode="y" horiz-adv-x="886" d="M37 909h110l297 -768l299 768h107l-502 -1257h-100l145 360z" />
<glyph unicode="z" horiz-adv-x="851" d="M80 0v72l553 747h-543v90h672v-71l-551 -748h557v-90h-688z" />
<glyph unicode="{" horiz-adv-x="684" d="M41 532v95h86q86 0 86 92v420q0 86 52 139t134 53h230v-94h-230q-86 0 -86 -90v-424q0 -51 -22.5 -86t-59.5 -57q37 -23 59.5 -59t22.5 -85v-424q0 -90 86 -90h230v-94h-230q-82 0 -134 53t-52 139v420q0 92 -86 92h-86z" />
<glyph unicode="|" horiz-adv-x="421" d="M162 -172v1503h98v-1503h-98z" />
<glyph unicode="}" horiz-adv-x="684" d="M55 -78h230q86 0 86 90v424q0 49 22.5 85t59.5 59q-37 23 -59.5 57.5t-22.5 85.5v424q0 90 -86 90h-230v94h230q82 0 134 -53t52 -139v-420q0 -92 86 -92h86v-95h-86q-86 0 -86 -92v-420q0 -86 -52 -139t-134 -53h-230v94z" />
<glyph unicode="~" horiz-adv-x="831" d="M82 449q0 106 48 169.5t136 63.5q49 0 87 -23.5t71 -51t64.5 -50t68.5 -22.5q47 0 72.5 37.5t25.5 101.5h95q0 -109 -47.5 -171.5t-135.5 -62.5q-51 0 -89 22.5t-70.5 50.5t-64.5 50.5t-67 22.5q-49 0 -74.5 -37t-25.5 -100h-94z" />
<glyph unicode="&#xa2;" horiz-adv-x="905" d="M80 475q0 106 28.5 193.5t82 149t126.5 95.5q57 27 127 33v176h95v-178q39 -6 73 -18q59 -20 103.5 -57.5t73 -90.5t40.5 -116h-104q-20 90 -82.5 142t-161.5 52q-68 0 -122 -27.5t-93 -78t-60.5 -120t-21.5 -155.5t21.5 -155.5t60.5 -119.5t93.5 -78t121.5 -28 q98 0 161 52.5t83 142.5h104q-12 -63 -40.5 -116.5t-72.5 -90.5t-104 -59q-35 -12 -73 -19v-176h-95v174q-70 6 -127 35q-74 35 -127 96.5t-81.5 148.5t-28.5 193z" />
<glyph unicode="&#xa3;" horiz-adv-x="989" d="M63 0v92h134q23 37 36 78t13 109v299h-183v86h183v202q0 94 25.5 170t72.5 128.5t112.5 82t143.5 29.5q72 0 127 -20.5t97 -56.5t69 -86t39 -112h-103q-20 86 -75.5 133.5t-153.5 47.5q-115 0 -184.5 -81t-69.5 -235v-202h346v-86h-346v-299q0 -53 -13.5 -104.5 t-35.5 -82.5h629v-92h-863z" />
<glyph unicode="&#xa5;" horiz-adv-x="1058" d="M59 1257h115l356 -589l357 589h112l-391 -636h295v-84h-321v-158h321v-84h-321v-295h-107v295h-321v84h321v158h-321v84h292z" />
<glyph unicode="&#xa8;" horiz-adv-x="1024" d="M315 1169q0 29 19.5 48.5t48.5 19.5q14 0 26.5 -6t21.5 -14.5t14.5 -20.5t5.5 -27q0 -29 -19.5 -48t-48.5 -19t-48.5 19t-19.5 48zM571 1169q0 29 19.5 48.5t48.5 19.5q14 0 26.5 -6t21.5 -14.5t15.5 -20.5t6.5 -27q0 -29 -20.5 -48t-49.5 -19t-48.5 19t-19.5 48z" />
<glyph unicode="&#xa9;" horiz-adv-x="1452" d="M80 629q0 141 51 259t138 205t206 135t252 48t251 -48t205 -135t138 -205t51 -259t-51 -259t-138 -205t-205 -135t-251 -48t-252 48t-206 135t-138 204.5t-51 259.5zM145 629q0 -127 46.5 -233.5t125 -183.5t184 -121t226.5 -44q119 0 224.5 44t184 121t125 183.5 t46.5 233.5t-46.5 233.5t-125 183t-184 120.5t-224.5 44q-121 0 -226.5 -44t-184 -120.5t-125 -183t-46.5 -233.5zM375 633q0 92 27.5 168t75.5 129t114.5 81.5t142.5 28.5q61 0 113.5 -17t91.5 -49t65.5 -77t38.5 -98h-102q-25 70 -77 108.5t-130 38.5q-115 0 -186.5 -85 t-71.5 -228t72 -228.5t186 -85.5q78 0 130.5 39t76.5 109h102q-12 -53 -38.5 -98t-65.5 -77t-91 -49.5t-114 -17.5q-76 0 -142.5 29t-114.5 82t-75.5 129t-27.5 168z" />
<glyph unicode="&#xab;" horiz-adv-x="645" d="M51 455l189 280h100l-188 -280l188 -281h-100zM305 455l189 280h100l-188 -280l188 -281h-100z" />
<glyph unicode="&#xad;" horiz-adv-x="657" d="M82 483v97h493v-97h-493z" />
<glyph unicode="&#xae;" horiz-adv-x="856" d="M57 901q0 82 30 150.5t80 119t117.5 78t143.5 27.5t143.5 -27.5t117.5 -78t80 -119t30 -150.5t-30 -150.5t-80 -118.5t-117.5 -78t-143.5 -28t-143.5 28t-117.5 78t-80 118.5t-30 150.5zM115 901q0 -70 24.5 -129t67.5 -101t99 -65.5t122 -23.5t122 23.5t99 65.5 t67.5 101t24.5 129q0 68 -24.5 127t-67.5 101t-99 66t-122 24t-122 -24t-99 -66t-67.5 -101t-24.5 -127zM291 709v393h160q61 0 99 -32t38 -91q0 -47 -25.5 -77t-68.5 -38l108 -155h-80l-102 151h-60v-151h-69zM360 922h93q33 0 50 16t17 41q0 27 -17.5 43t-49.5 16h-93 v-116z" />
<glyph unicode="&#xb4;" horiz-adv-x="1024" d="M373 1065l170 266h108l-178 -266h-100z" />
<glyph unicode="&#xb8;" horiz-adv-x="1024" d="M397 -360l123 262h101l-127 -262h-97z" />
<glyph unicode="&#xbb;" horiz-adv-x="645" d="M51 174l189 281l-189 280h101l188 -280l-188 -281h-101zM305 174l189 281l-189 280h101l188 -280l-188 -281h-101z" />
<glyph unicode="&#xc1;" horiz-adv-x="1187" d="M47 0l498 1257h98l498 -1257h-107l-164 412h-555l-161 -412h-107zM352 510h482l-242 610zM541 1362l170 240h114l-178 -240h-106z" />
<glyph unicode="&#xc9;" horiz-adv-x="1056" d="M162 0v1257h780v-98h-676v-463h613v-96h-613v-502h676v-98h-780zM498 1362l170 240h114l-178 -240h-106z" />
<glyph unicode="&#xcd;" horiz-adv-x="430" d="M150 1362l170 240h114l-178 -240h-106zM162 0v1257h106v-1257h-106z" />
<glyph unicode="&#xd3;" horiz-adv-x="1271" d="M80 629q0 143 42 262t115.5 205t176 133t223.5 47q119 0 221.5 -47t177 -133t115.5 -205t41 -262t-41 -263t-115.5 -205t-177 -132t-221.5 -47q-121 0 -223.5 47t-176 132t-115.5 204.5t-42 263.5zM188 629q0 -121 33 -221.5t92.5 -173t141.5 -113.5t182 -41q98 0 181 41 t142.5 113.5t92 173t32.5 221.5t-32.5 221t-92 173t-142.5 114t-181 41q-100 0 -182 -41t-141.5 -114t-92.5 -173t-33 -221zM572 1362l170 240h114l-178 -240h-106z" />
<glyph unicode="&#xda;" horiz-adv-x="1239" d="M137 496v761h107v-747q0 -109 27.5 -190.5t77.5 -135t119 -79t150 -25.5q80 0 150 25.5t119 79t78.5 135t29.5 190.5v747h107v-761q0 -129 -38 -225.5t-102.5 -161t-154 -96t-189.5 -31.5q-102 0 -189 31.5t-152.5 96t-102.5 161t-37 225.5zM557 1362l170 240h114 l-178 -240h-106z" />
<glyph unicode="&#xdd;" horiz-adv-x="1099" d="M39 1257h117l395 -624l395 624h115l-459 -722v-535h-106v535zM486 1362l170 240h114l-178 -240h-106z" />
<glyph unicode="&#xe1;" horiz-adv-x="899" d="M78 266q0 63 26.5 114.5t72.5 88.5t107.5 56.5t133.5 19.5q80 0 147.5 -31t100.5 -65v161q0 100 -58.5 163t-169.5 63q-84 0 -139 -37t-80 -119h-102q12 57 41.5 103t71.5 78t95.5 49.5t114.5 17.5q152 0 238 -84t86 -230v-614h-98v84q-31 -33 -99.5 -65.5t-152.5 -32.5 q-70 0 -131.5 19.5t-106.5 56t-71.5 88t-26.5 116.5zM176 266q0 -49 20.5 -85t55.5 -60.5t80 -35.5t92 -11q41 0 80 9t71.5 27.5t55 43t35.5 55.5v115q-12 29 -35 53t-55.5 42.5t-71.5 29t-80 10.5q-47 0 -92 -12.5t-80 -37t-55.5 -60.5t-20.5 -83zM398 1065l170 266h108 l-178 -266h-100z" />
<glyph unicode="&#xe9;" horiz-adv-x="927" d="M80 455q0 100 27.5 187t80 150.5t127 99.5t166.5 36q90 0 160 -33t117 -92.5t70.5 -141t23.5 -178.5v-37h-670q0 -86 22.5 -155.5t63.5 -117.5t95.5 -74.5t119.5 -26.5q98 0 166 51t88 141h99q-27 -127 -118 -204.5t-235 -77.5q-90 0 -163.5 34.5t-127 96t-83 148.5 t-29.5 194zM186 528h562q-2 59 -18.5 115.5t-49.5 99.5t-82 69t-117 26q-59 0 -110.5 -22.5t-90 -62.5t-63 -97.5t-31.5 -127.5zM426 1065l170 266h108l-178 -266h-100z" />
<glyph unicode="&#xed;" d="M137 1065l170 266h108l-178 -266h-100zM145 0v909h103v-909h-103z" />
<glyph unicode="&#xf3;" horiz-adv-x="964" d="M80 455q0 104 28.5 191t82 149.5t128 97.5t164.5 35t165 -35t127 -97.5t81 -149.5t29 -191t-29 -191.5t-81 -150t-127 -97t-165 -34.5t-164.5 34.5t-128 97t-82 149.5t-28.5 192zM184 455q0 -86 20.5 -156t59.5 -120t94.5 -77.5t124.5 -27.5q68 0 123.5 27.5t94 77.5 t60 120t21.5 156t-21.5 155.5t-60 119.5t-94 78t-123.5 28q-70 0 -125 -28t-94 -78t-59.5 -119.5t-20.5 -155.5zM422 1065l170 266h108l-178 -266h-100z" />
<glyph unicode="&#xfa;" horiz-adv-x="985" d="M135 307v602h103v-585q0 -106 55 -176t176 -70q94 0 165 57.5t103 136.5v637h103v-909h-103v145q-41 -66 -115.5 -114.5t-170.5 -48.5q-156 0 -236 90t-80 235zM430 1065l170 266h108l-178 -266h-100z" />
<glyph unicode="&#xfd;" horiz-adv-x="886" d="M37 909h110l297 -768l299 768h107l-502 -1257h-100l145 360zM383 1065l170 266h108l-178 -266h-100z" />
<glyph unicode="&#x100;" horiz-adv-x="1187" d="M47 0l498 1257h98l498 -1257h-107l-164 412h-555l-161 -412h-107zM352 510h482l-242 610zM387 1372v86h414v-86h-414z" />
<glyph unicode="&#x101;" horiz-adv-x="899" d="M78 266q0 63 26.5 114.5t72.5 88.5t107.5 56.5t133.5 19.5q80 0 147.5 -31t100.5 -65v161q0 100 -58.5 163t-169.5 63q-84 0 -139 -37t-80 -119h-102q12 57 41.5 103t71.5 78t95.5 49.5t114.5 17.5q152 0 238 -84t86 -230v-614h-98v84q-31 -33 -99.5 -65.5t-152.5 -32.5 q-70 0 -131.5 19.5t-106.5 56t-71.5 88t-26.5 116.5zM176 266q0 -49 20.5 -85t55.5 -60.5t80 -35.5t92 -11q41 0 80 9t71.5 27.5t55 43t35.5 55.5v115q-12 29 -35 53t-55.5 42.5t-71.5 29t-80 10.5q-47 0 -92 -12.5t-80 -37t-55.5 -60.5t-20.5 -83zM250 1100v86h414v-86 h-414z" />
<glyph unicode="&#x102;" horiz-adv-x="1187" d="M47 0l498 1257h98l498 -1257h-107l-164 412h-555l-161 -412h-107zM352 510h482l-242 610zM383 1599h82q0 -78 36 -118.5t93 -40.5t93 41t36 118h82q0 -59 -15.5 -103t-44 -74.5t-67.5 -46t-84 -15.5q-47 0 -86 15.5t-66.5 46t-43 74.5t-15.5 103z" />
<glyph unicode="&#x103;" horiz-adv-x="899" d="M78 266q0 63 26.5 114.5t72.5 88.5t107.5 56.5t133.5 19.5q80 0 147.5 -31t100.5 -65v161q0 100 -58.5 163t-169.5 63q-84 0 -139 -37t-80 -119h-102q12 57 41.5 103t71.5 78t95.5 49.5t114.5 17.5q152 0 238 -84t86 -230v-614h-98v84q-31 -33 -99.5 -65.5t-152.5 -32.5 q-70 0 -131.5 19.5t-106.5 56t-71.5 88t-26.5 116.5zM176 266q0 -49 20.5 -85t55.5 -60.5t80 -35.5t92 -11q41 0 80 9t71.5 27.5t55 43t35.5 55.5v115q-12 29 -35 53t-55.5 42.5t-71.5 29t-80 10.5q-47 0 -92 -12.5t-80 -37t-55.5 -60.5t-20.5 -83zM244 1282h82 q0 -80 35 -124t92 -44q59 0 93 44t34 124h82q0 -61 -15.5 -106.5t-43 -76t-66.5 -47t-84 -16.5t-84 16.5t-66.5 47t-43 76t-15.5 106.5z" />
<glyph unicode="&#x104;" horiz-adv-x="1187" d="M47 0l498 1257h98l498 -1257q-33 -55 -53.5 -92t-30.5 -63.5t-14.5 -45t-4.5 -37.5q0 -31 14.5 -45t34.5 -14q23 0 39.5 7t36.5 24v-76q-20 -14 -41.5 -22.5t-48.5 -8.5t-49.5 7.5t-37.5 23.5t-23.5 38.5t-8.5 53.5q0 25 6.5 49.5t19.5 53t32.5 64.5t46.5 83h-25 l-164 412h-555l-161 -412h-107zM352 510h482l-242 610z" />
<glyph unicode="&#x105;" horiz-adv-x="899" d="M78 266q0 63 26.5 114.5t72.5 88.5t107.5 56.5t133.5 19.5q80 0 147.5 -31t98.5 -65v161q0 100 -57.5 163t-168.5 63q-84 0 -140 -37t-81 -119h-100q12 57 41.5 103t71.5 78t95.5 49.5t114.5 17.5q152 0 238 -84t86 -230v-614q-31 -55 -50.5 -91t-30.5 -62.5t-15 -46 t-4 -38.5q0 -31 13 -45t36 -14t39 7t36 24v-76q-20 -14 -42.5 -22.5t-49.5 -8.5q-25 0 -47 7.5t-37.5 23.5t-23.5 38.5t-8 53.5q0 25 6 50.5t18 54t31.5 64.5t46.5 81h-18v84q-29 -33 -97.5 -65.5t-152.5 -32.5q-70 0 -131.5 19.5t-106.5 56t-71.5 88t-26.5 116.5zM176 266 q0 -49 20.5 -85t55.5 -60.5t80 -35.5t92 -11q41 0 80 9t71.5 27.5t55 43t33.5 55.5v115q-10 29 -33 53t-55.5 42.5t-71.5 29t-80 10.5q-47 0 -92 -12.5t-80 -37t-55.5 -60.5t-20.5 -83z" />
<glyph unicode="&#x106;" horiz-adv-x="1177" d="M80 629q0 147 43 267t117.5 205t176 130t216.5 45q92 0 169 -26.5t136 -74t101 -114t61 -146.5h-105q-39 121 -131 191t-231 70q-96 0 -178 -38t-141.5 -110t-92.5 -172t-33 -227t33 -228.5t92.5 -172t141.5 -108.5t178 -38q139 0 231 69.5t131 192.5h105 q-18 -82 -60.5 -148.5t-101.5 -113.5t-136 -73.5t-169 -26.5q-115 0 -216.5 45t-176 130t-117.5 203.5t-43 268.5zM580 1362l170 240h114l-178 -240h-106z" />
<glyph unicode="&#x107;" horiz-adv-x="905" d="M80 455q0 106 28.5 193t82 148.5t127 96.5t163.5 35q72 0 131.5 -20.5t103.5 -57.5t72.5 -89t42.5 -116h-108q-18 88 -80.5 139.5t-159.5 51.5q-68 0 -123 -28t-94 -78t-60.5 -119.5t-21.5 -155.5t21.5 -156t60.5 -120t94.5 -77.5t122.5 -27.5q96 0 159 51t81 139h108 q-14 -63 -42.5 -115.5t-72.5 -89t-103.5 -57t-131.5 -20.5q-90 0 -163.5 34.5t-127 96t-82 149t-28.5 193.5zM428 1065l170 266h108l-178 -266h-100z" />
<glyph unicode="&#x108;" horiz-adv-x="1177" d="M80 629q0 147 43 267t117.5 205t176 130t216.5 45q92 0 169 -26.5t136 -74t101 -114t61 -146.5h-105q-39 121 -131 191t-231 70q-96 0 -178 -38t-141.5 -110t-92.5 -172t-33 -227t33 -228.5t92.5 -172t141.5 -108.5t178 -38q139 0 231 69.5t131 192.5h105 q-18 -82 -60.5 -148.5t-101.5 -113.5t-136 -73.5t-169 -26.5q-115 0 -216.5 45t-176 130t-117.5 203.5t-43 268.5zM410 1366l188 244h92l189 -244h-99l-137 170l-135 -170h-98z" />
<glyph unicode="&#x109;" horiz-adv-x="905" d="M80 455q0 106 28.5 193t82 148.5t127 96.5t163.5 35q72 0 131.5 -20.5t103.5 -57.5t72.5 -89t42.5 -116h-108q-18 88 -80.5 139.5t-159.5 51.5q-68 0 -123 -28t-94 -78t-60.5 -119.5t-21.5 -155.5t21.5 -156t60.5 -120t94.5 -77.5t122.5 -27.5q96 0 159 51t81 139h108 q-14 -63 -42.5 -115.5t-72.5 -89t-103.5 -57t-131.5 -20.5q-90 0 -163.5 34.5t-127 96t-82 149t-28.5 193.5zM254 1051l188 268h92l189 -268h-97l-139 196l-139 -196h-94z" />
<glyph unicode="&#x10a;" horiz-adv-x="1177" d="M80 629q0 147 43 267t117.5 205t176 130t216.5 45q92 0 169 -26.5t136 -74t101 -114t61 -146.5h-105q-39 121 -131 191t-231 70q-96 0 -178 -38t-141.5 -110t-92.5 -172t-33 -227t33 -228.5t92.5 -172t141.5 -108.5t178 -38q139 0 231 69.5t131 192.5h105 q-18 -82 -60.5 -148.5t-101.5 -113.5t-136 -73.5t-169 -26.5q-115 0 -216.5 45t-176 130t-117.5 203.5t-43 268.5zM571 1462q0 31 19.5 51.5t50.5 20.5t50.5 -20.5t19.5 -51.5q0 -29 -19.5 -49t-50.5 -20t-50.5 20.5t-19.5 48.5z" />
<glyph unicode="&#x10b;" horiz-adv-x="905" d="M80 455q0 106 28.5 193t82 148.5t127 96.5t163.5 35q72 0 131.5 -20.5t103.5 -57.5t72.5 -89t42.5 -116h-108q-18 88 -80.5 139.5t-159.5 51.5q-68 0 -123 -28t-94 -78t-60.5 -119.5t-21.5 -155.5t21.5 -156t60.5 -120t94.5 -77.5t122.5 -27.5q96 0 159 51t81 139h108 q-14 -63 -42.5 -115.5t-72.5 -89t-103.5 -57t-131.5 -20.5q-90 0 -163.5 34.5t-127 96t-82 149t-28.5 193.5zM417 1186q0 29 19.5 49t50.5 20t50.5 -20t19.5 -49q0 -31 -19.5 -51.5t-50.5 -20.5t-50.5 20.5t-19.5 51.5z" />
<glyph unicode="&#x10c;" horiz-adv-x="1177" d="M80 629q0 147 43 267t117.5 205t176 130t216.5 45q92 0 169 -26.5t136 -74t101 -114t61 -146.5h-105q-39 121 -131 191t-231 70q-96 0 -178 -38t-141.5 -110t-92.5 -172t-33 -227t33 -228.5t92.5 -172t141.5 -108.5t178 -38q139 0 231 69.5t131 192.5h105 q-18 -82 -60.5 -148.5t-101.5 -113.5t-136 -73.5t-169 -26.5q-115 0 -216.5 45t-176 130t-117.5 203.5t-43 268.5zM406 1595h98l135 -170l137 170h99l-189 -243h-92z" />
<glyph unicode="&#x10d;" horiz-adv-x="905" d="M80 455q0 106 28.5 193t82 148.5t127 96.5t163.5 35q72 0 131.5 -20.5t103.5 -57.5t72.5 -89t42.5 -116h-108q-18 88 -80.5 139.5t-159.5 51.5q-68 0 -123 -28t-94 -78t-60.5 -119.5t-21.5 -155.5t21.5 -156t60.5 -120t94.5 -77.5t122.5 -27.5q96 0 159 51t81 139h108 q-14 -63 -42.5 -115.5t-72.5 -89t-103.5 -57t-131.5 -20.5q-90 0 -163.5 34.5t-127 96t-82 149t-28.5 193.5zM254 1321h94l139 -195l139 195h97l-189 -266h-92z" />
<glyph unicode="&#x10e;" horiz-adv-x="1234" d="M162 0v1257h383q137 0 249.5 -44t192.5 -125.5t124 -198.5t44 -260t-44 -260t-124 -199t-192.5 -126t-249.5 -44h-383zM268 98h277q117 0 209 38t157.5 107.5t100.5 167t35 218.5t-35 219t-100.5 166.5t-157.5 106.5t-209 38h-277v-1061zM334 1595h98l135 -170l137 170 h99l-189 -243h-92z" />
<glyph unicode="&#x10f;" horiz-adv-x="1007" d="M80 455q0 94 24.5 180t73.5 150.5t124 103.5t175 39q47 0 90 -13.5t79 -35t64.5 -49t49.5 -56.5v557h102v-1331h-102v135q-20 -31 -49 -57.5t-65 -48t-79 -34.5t-90 -13q-100 0 -175 38.5t-124 103t-73.5 150.5t-24.5 181zM184 455q0 -82 20.5 -152t59.5 -120t94.5 -77.5 t128.5 -27.5q84 0 156 46t117 132v397q-45 86 -117 132t-156 46q-74 0 -129 -27.5t-94 -77.5t-59.5 -119.5t-20.5 -151.5zM979 1004l68 327h82l-66 -327h-84z" />
<glyph unicode="&#x110;" horiz-adv-x="1263" d="M70 604v92h120v561h383q135 0 248 -44t194 -125.5t125 -198.5t44 -260t-44 -260t-125 -199t-193.5 -126t-248.5 -44h-383v604h-120zM295 98h278q115 0 208 38t158 107.5t100.5 167t35.5 218.5t-35.5 219t-100.5 166.5t-158 106.5t-208 38h-278v-463h266v-92h-266v-506z " />
<glyph unicode="&#x111;" horiz-adv-x="1007" d="M80 455q0 94 24.5 180t73.5 150.5t124 103.5t175 39q47 0 90 -13.5t79 -35t64.5 -49t49.5 -56.5v291h-236v78h236v188h102v-188h109v-78h-109v-1065h-102v135q-20 -31 -49 -57.5t-65 -48t-79 -34.5t-90 -13q-100 0 -175 38.5t-124 103t-73.5 150.5t-24.5 181zM184 455 q0 -82 20.5 -152t59.5 -120t94.5 -77.5t128.5 -27.5q84 0 156 46t117 132v397q-45 86 -117 132t-156 46q-74 0 -129 -27.5t-94 -77.5t-59.5 -119.5t-20.5 -151.5z" />
<glyph unicode="&#x112;" horiz-adv-x="1056" d="M162 0v1257h780v-98h-676v-463h613v-96h-613v-502h676v-98h-780zM356 1372v86h414v-86h-414z" />
<glyph unicode="&#x113;" horiz-adv-x="927" d="M80 455q0 100 27.5 187t80 150.5t127 99.5t166.5 36q90 0 160 -33t117 -92.5t70.5 -141t23.5 -178.5v-37h-670q0 -86 22.5 -155.5t63.5 -117.5t95.5 -74.5t119.5 -26.5q98 0 166 51t88 141h99q-27 -127 -118 -204.5t-235 -77.5q-90 0 -163.5 34.5t-127 96t-83 148.5 t-29.5 194zM186 528h562q-2 59 -18.5 115.5t-49.5 99.5t-82 69t-117 26q-59 0 -110.5 -22.5t-90 -62.5t-63 -97.5t-31.5 -127.5zM280 1100v86h414v-86h-414z" />
<glyph unicode="&#x114;" horiz-adv-x="1056" d="M162 0v1257h780v-98h-676v-463h613v-96h-613v-502h676v-98h-780zM350 1599h82q0 -78 36 -118.5t93 -40.5t93 41t36 118h82q0 -59 -15.5 -103t-44 -74.5t-67.5 -46t-84 -15.5q-47 0 -86 15.5t-66.5 46t-43 74.5t-15.5 103z" />
<glyph unicode="&#x115;" horiz-adv-x="927" d="M80 455q0 100 27.5 187t80 150.5t127 99.5t166.5 36q90 0 160 -33t117 -92.5t70.5 -141t23.5 -178.5v-37h-670q0 -86 22.5 -155.5t63.5 -117.5t95.5 -74.5t119.5 -26.5q98 0 166 51t88 141h99q-27 -127 -118 -204.5t-235 -77.5q-90 0 -163.5 34.5t-127 96t-83 148.5 t-29.5 194zM186 528h562q-2 59 -18.5 115.5t-49.5 99.5t-82 69t-117 26q-59 0 -110.5 -22.5t-90 -62.5t-63 -97.5t-31.5 -127.5zM276 1282h82q0 -80 35 -124t92 -44q59 0 93 44t34 124h82q0 -61 -15.5 -106.5t-43 -76t-66.5 -47t-84 -16.5t-84 16.5t-66.5 47t-43 76 t-15.5 106.5z" />
<glyph unicode="&#x116;" horiz-adv-x="1056" d="M162 0v1257h780v-98h-676v-463h613v-96h-613v-502h676v-98h-780zM491 1462q0 31 19.5 51.5t50.5 20.5t50.5 -20.5t19.5 -51.5q0 -29 -19.5 -49t-50.5 -20t-50.5 20.5t-19.5 48.5z" />
<glyph unicode="&#x117;" horiz-adv-x="927" d="M80 455q0 100 27.5 187t80 150.5t127 99.5t166.5 36q90 0 160 -33t117 -92.5t70.5 -141t23.5 -178.5v-37h-670q0 -86 22.5 -155.5t63.5 -117.5t95.5 -74.5t119.5 -26.5q98 0 166 51t88 141h99q-27 -127 -118 -204.5t-235 -77.5q-90 0 -163.5 34.5t-127 96t-83 148.5 t-29.5 194zM186 528h562q-2 59 -18.5 115.5t-49.5 99.5t-82 69t-117 26q-59 0 -110.5 -22.5t-90 -62.5t-63 -97.5t-31.5 -127.5zM415 1186q0 29 19.5 49t50.5 20t50.5 -20t19.5 -49q0 -31 -19.5 -51.5t-50.5 -20.5t-50.5 20.5t-19.5 51.5z" />
<glyph unicode="&#x118;" horiz-adv-x="1056" d="M162 0v1257h780v-98h-676v-463h613v-96h-613v-502h676v-98h-780zM688 -250q0 25 6 50.5t20.5 55t35 66.5t47.5 86h82q-33 -57 -53.5 -94t-32 -64.5t-16.5 -48t-5 -39.5q0 -31 14.5 -45t36.5 -14q20 0 38 7t38 24v-76q-20 -14 -43 -22.5t-49 -8.5q-27 0 -49.5 7.5 t-38 23.5t-23.5 38.5t-8 53.5z" />
<glyph unicode="&#x119;" horiz-adv-x="927" d="M80 455q0 100 27.5 187t80 150.5t127 99.5t166.5 36q90 0 160 -33t117 -92.5t70.5 -141t23.5 -178.5v-37h-670q0 -86 22.5 -155.5t63.5 -117.5t95.5 -74.5t119.5 -26.5q96 0 165 51t89 141h99q-12 -63 -41 -112.5t-82 -104.5q-72 -76 -116 -143.5t-44 -130.5 q0 -37 15.5 -53.5t37.5 -16.5q20 0 38 7t38 24v-76q-20 -14 -43 -22.5t-49 -8.5q-27 0 -48.5 8.5t-38 24.5t-25.5 40t-9 54q0 63 35 122.5t94 129.5q-27 -12 -55.5 -18t-59.5 -6q-90 0 -163.5 34.5t-127 96t-83 148.5t-29.5 194zM186 528h562q-2 59 -18.5 115.5t-49.5 99.5 t-82 69t-117 26q-59 0 -110.5 -22.5t-90 -62.5t-63 -97.5t-31.5 -127.5z" />
<glyph unicode="&#x11a;" horiz-adv-x="1056" d="M162 0v1257h780v-98h-676v-463h613v-96h-613v-502h676v-98h-780zM332 1595h98l135 -170l137 170h99l-189 -243h-92z" />
<glyph unicode="&#x11b;" horiz-adv-x="927" d="M80 455q0 100 27.5 187t80 150.5t127 99.5t166.5 36q90 0 160 -33t117 -92.5t70.5 -141t23.5 -178.5v-37h-670q0 -86 22.5 -155.5t63.5 -117.5t95.5 -74.5t119.5 -26.5q98 0 166 51t88 141h99q-27 -127 -118 -204.5t-235 -77.5q-90 0 -163.5 34.5t-127 96t-83 148.5 t-29.5 194zM186 528h562q-2 59 -18.5 115.5t-49.5 99.5t-82 69t-117 26q-59 0 -110.5 -22.5t-90 -62.5t-63 -97.5t-31.5 -127.5zM252 1321h94l139 -195l139 195h97l-189 -266h-92z" />
<glyph unicode="&#x11c;" horiz-adv-x="1226" d="M80 629q0 150 44 269.5t119.5 203.5t179 129t220.5 45q92 0 171 -26.5t139.5 -74t102.5 -113t60 -147.5h-106q-41 121 -133.5 191t-233.5 70q-98 0 -181 -38t-144.5 -109t-95.5 -172t-34 -228t34 -228.5t94.5 -172t144.5 -109.5t182 -39q188 0 291.5 109.5t112.5 308.5 h-328v92h428v-72q0 -121 -35 -220t-101.5 -170t-159.5 -108.5t-208 -37.5q-117 0 -220.5 45t-179 129t-119.5 203.5t-44 269.5zM414 1366l188 244h92l189 -244h-99l-137 170l-135 -170h-98z" />
<glyph unicode="&#x11d;" horiz-adv-x="1001" d="M80 467q0 90 24.5 173t72.5 147.5t122 102.5t174 38q45 0 87 -13.5t79 -34t65.5 -48t47.5 -56.5v133h102v-843q0 -106 -27.5 -188.5t-78 -136.5t-121 -81t-156.5 -27q-78 0 -141.5 19.5t-110.5 55.5t-76.5 87t-44.5 117h105q25 -96 94.5 -143.5t173.5 -47.5 q135 0 208 86.5t73 251.5v97q-18 -29 -47 -56.5t-66 -48t-79 -33t-87 -12.5q-100 0 -174 38t-122 101.5t-72.5 146.5t-24.5 175zM184 467q0 -82 20.5 -148.5t58.5 -115.5t93.5 -77t126.5 -28q82 0 153 46t116 130v383q-45 84 -116 130.5t-153 46.5q-72 0 -127 -28t-93 -76 t-58.5 -115.5t-20.5 -147.5zM279 1051l188 268h92l189 -268h-97l-139 196l-139 -196h-94z" />
<glyph unicode="&#x11e;" horiz-adv-x="1226" d="M80 629q0 150 44 269.5t119.5 203.5t179 129t220.5 45q92 0 171 -26.5t139.5 -74t102.5 -113t60 -147.5h-106q-41 121 -133.5 191t-233.5 70q-98 0 -181 -38t-144.5 -109t-95.5 -172t-34 -228t34 -228.5t94.5 -172t144.5 -109.5t182 -39q188 0 291.5 109.5t112.5 308.5 h-328v92h428v-72q0 -121 -35 -220t-101.5 -170t-159.5 -108.5t-208 -37.5q-117 0 -220.5 45t-179 129t-119.5 203.5t-44 269.5zM438 1599h82q0 -78 36 -118.5t93 -40.5t93 41t36 118h82q0 -59 -15.5 -103t-44 -74.5t-67.5 -46t-84 -15.5q-47 0 -86 15.5t-66.5 46t-43 74.5 t-15.5 103z" />
<glyph unicode="&#x11f;" horiz-adv-x="999" d="M80 467q0 90 24.5 173t72.5 147.5t122 102.5t174 38q45 0 87 -13.5t79 -34t65.5 -48t47.5 -56.5v133h102v-843q0 -106 -27.5 -188.5t-78 -136.5t-121 -81t-156.5 -27q-78 0 -141.5 19.5t-110.5 55.5t-76.5 87t-44.5 117h105q25 -96 94.5 -143.5t173.5 -47.5 q135 0 208 86.5t73 251.5v97q-18 -29 -47 -56.5t-66 -48t-79 -33t-87 -12.5q-100 0 -174 38t-122 101.5t-72.5 146.5t-24.5 175zM184 467q0 -82 20.5 -148.5t58.5 -115.5t93.5 -77t126.5 -28q82 0 153 46t116 130v383q-45 84 -116 130.5t-153 46.5q-72 0 -127 -28t-93 -76 t-58.5 -115.5t-20.5 -147.5zM303 1282h82q0 -80 35 -124t92 -44q59 0 93 44t34 124h82q0 -61 -15.5 -106.5t-43 -76t-66.5 -47t-84 -16.5t-84 16.5t-66.5 47t-43 76t-15.5 106.5z" />
<glyph unicode="&#x120;" horiz-adv-x="1226" d="M80 629q0 150 44 269.5t119.5 203.5t179 129t220.5 45q92 0 171 -26.5t139.5 -74t102.5 -113t60 -147.5h-106q-41 121 -133.5 191t-233.5 70q-98 0 -181 -38t-144.5 -109t-95.5 -172t-34 -228t34 -228.5t94.5 -172t144.5 -109.5t182 -39q188 0 291.5 109.5t112.5 308.5 h-328v92h428v-72q0 -121 -35 -220t-101.5 -170t-159.5 -108.5t-208 -37.5q-117 0 -220.5 45t-179 129t-119.5 203.5t-44 269.5zM579 1462q0 31 19.5 51.5t50.5 20.5t50.5 -20.5t19.5 -51.5q0 -29 -19.5 -49t-50.5 -20t-50.5 20.5t-19.5 48.5z" />
<glyph unicode="&#x121;" horiz-adv-x="999" d="M80 467q0 90 24.5 173t72.5 147.5t122 102.5t174 38q45 0 87 -13.5t79 -34t65.5 -48t47.5 -56.5v133h102v-843q0 -106 -27.5 -188.5t-78 -136.5t-121 -81t-156.5 -27q-78 0 -141.5 19.5t-110.5 55.5t-76.5 87t-44.5 117h105q25 -96 94.5 -143.5t173.5 -47.5 q135 0 208 86.5t73 251.5v97q-18 -29 -47 -56.5t-66 -48t-79 -33t-87 -12.5q-100 0 -174 38t-122 101.5t-72.5 146.5t-24.5 175zM184 467q0 -82 20.5 -148.5t58.5 -115.5t93.5 -77t126.5 -28q82 0 153 46t116 130v383q-45 84 -116 130.5t-153 46.5q-72 0 -127 -28t-93 -76 t-58.5 -115.5t-20.5 -147.5zM442 1186q0 31 19.5 51.5t50.5 20.5t50.5 -20.5t19.5 -51.5q0 -29 -19.5 -49t-50.5 -20t-50.5 20.5t-19.5 48.5z" />
<glyph unicode="&#x122;" horiz-adv-x="1226" d="M80 629q0 150 44 269.5t119.5 203.5t179 129t220.5 45q92 0 171 -26.5t139.5 -74t102.5 -113t60 -147.5h-106q-41 121 -133.5 191t-233.5 70q-98 0 -181 -38t-144.5 -109t-95.5 -172t-34 -228t34 -228.5t94.5 -172t144.5 -109.5t182 -39q188 0 291.5 109.5t112.5 308.5 h-328v92h428v-72q0 -121 -35 -220t-101.5 -170t-159.5 -108.5t-208 -37.5q-117 0 -220.5 45t-179 129t-119.5 203.5t-44 269.5zM569 -375l74 137q-25 4 -42.5 21.5t-17.5 46.5q0 33 21.5 53.5t52.5 20.5q33 0 53.5 -21.5t20.5 -54.5q0 -25 -8 -44.5t-21 -41.5l-63 -117h-70z " />
<glyph unicode="&#x123;" horiz-adv-x="999" d="M80 467q0 90 24.5 173t72.5 147.5t122 102.5t174 38q45 0 87 -13.5t79 -34t65.5 -48t47.5 -56.5v133h102v-843q0 -106 -27.5 -188.5t-78 -136.5t-121 -81t-156.5 -27q-78 0 -141.5 19.5t-110.5 55.5t-76.5 87t-44.5 117h105q25 -96 94.5 -143.5t173.5 -47.5 q135 0 208 86.5t73 251.5v97q-18 -29 -47 -56.5t-66 -48t-79 -33t-87 -12.5q-100 0 -174 38t-122 101.5t-72.5 146.5t-24.5 175zM184 467q0 -82 20.5 -148.5t58.5 -115.5t93.5 -77t126.5 -28q82 0 153 46t116 130v383q-45 84 -116 130.5t-153 46.5q-72 0 -127 -28t-93 -76 t-58.5 -115.5t-20.5 -147.5zM426 1151q0 27 9 46.5t22 41.5l63 119h70l-74 -139q25 -4 43.5 -21.5t18.5 -48.5t-23 -52.5t-53 -21.5q-33 0 -54.5 21.5t-21.5 54.5z" />
<glyph unicode="&#x124;" horiz-adv-x="1331" d="M162 0v1257h106v-561h795v561h106v-1257h-106v600h-795v-600h-106zM431 1366l188 244h92l189 -244h-99l-137 170l-135 -170h-98z" />
<glyph unicode="&#x125;" horiz-adv-x="989" d="M145 0v1331h103v-567q41 66 117.5 115t173.5 49q156 0 235.5 -90t79.5 -236v-602h-102v586q0 106 -55.5 175.5t-176.5 69.5q-47 0 -89 -15t-77 -41.5t-62.5 -62.5t-43.5 -75v-637h-103zM267 1378l188 244h92l189 -244h-99l-137 170l-135 -170h-98z" />
<glyph unicode="&#x126;" horiz-adv-x="1384" d="M70 897v92h118v268h107v-268h795v268h106v-268h119v-92h-119v-897h-106v532h-795v-532h-107v897h-118zM295 623h795v274h-795v-274z" />
<glyph unicode="&#x127;" horiz-adv-x="989" d="M37 1065v78h108v188h103v-188h235v-78h-235v-301q41 66 116.5 115t174.5 49q156 0 235.5 -90t79.5 -236v-602h-102v586q0 106 -55.5 175.5t-176.5 69.5q-47 0 -89 -15t-77 -41.5t-62.5 -62.5t-43.5 -75v-637h-103v1065h-108z" />
<glyph unicode="&#x128;" horiz-adv-x="430" d="M-43 1368q0 47 9 87t26.5 67.5t44 44t61.5 16.5q39 0 69 -20.5t55.5 -45t49 -45t52.5 -20.5q37 0 55 34t18 91h74q0 -49 -9 -89t-26.5 -68.5t-44 -43t-61.5 -14.5q-39 0 -69 20.5t-55.5 44t-49 44t-52.5 20.5q-37 0 -55 -33t-18 -90h-74zM162 0v1257h106v-1257h-106z" />
<glyph unicode="&#x129;" horiz-adv-x="395" d="M-6 1071q0 47 7 87t21.5 68.5t35 44t46.5 15.5q31 0 54.5 -20.5t44 -45t39 -45t37.5 -20.5q29 0 40 34t13 91h67q0 -49 -7 -89t-21.5 -67.5t-36 -43t-47.5 -15.5q-29 0 -53.5 20.5t-45 45t-38 45t-35.5 20.5q-29 0 -41.5 -34t-12.5 -91h-67zM145 0v909h103v-909h-103z " />
<glyph unicode="&#x12a;" horiz-adv-x="430" d="M8 1372v86h414v-86h-414zM162 0v1257h106v-1257h-106z" />
<glyph unicode="&#x12b;" d="M27 1100v86h305v-86h-305zM145 0v909h103v-909h-103z" />
<glyph unicode="&#x12c;" horiz-adv-x="430" d="M4 1599h82q0 -78 36 -118.5t93 -40.5t93 41t36 118h82q0 -59 -15.5 -103t-44 -74.5t-67.5 -46t-84 -15.5q-47 0 -86 15.5t-66.5 46t-43 74.5t-15.5 103zM162 0v1257h106v-1257h-106z" />
<glyph unicode="&#x12d;" d="M12 1282h80q0 -80 27.5 -124t79.5 -44q49 0 76.5 44t27.5 124h80q0 -121 -52 -183.5t-132 -62.5q-82 0 -134.5 62.5t-52.5 183.5zM145 0v909h103v-909h-103z" />
<glyph unicode="&#x12e;" horiz-adv-x="430" d="M82 -250q0 25 6 50.5t18.5 54t32 64.5t45.5 81h-22v1257h106v-1257q-33 -55 -52 -91t-30.5 -62.5t-15.5 -46t-4 -38.5q0 -31 14.5 -45t36.5 -14q20 0 37.5 7t38.5 24v-76q-20 -14 -43 -22.5t-49 -8.5q-27 0 -49.5 7.5t-38 23.5t-23.5 38.5t-8 53.5z" />
<glyph unicode="&#x12f;" horiz-adv-x="395" d="M63 -250q0 25 6.5 50.5t18.5 54t31.5 64.5t46.5 81h-19v909h103v-909q-33 -55 -52.5 -91t-30.5 -62.5t-15.5 -46t-4.5 -38.5q0 -31 14.5 -45t37.5 -14q20 0 37.5 7t37.5 24v-76q-20 -14 -42.5 -22.5t-49.5 -8.5t-49 7.5t-37.5 23.5t-24 38.5t-8.5 53.5zM129 1186 q0 29 19.5 49t50.5 20t50 -20t19 -49q0 -31 -19.5 -51.5t-49.5 -20.5q-31 0 -50.5 20.5t-19.5 51.5z" />
<glyph unicode="&#x130;" horiz-adv-x="430" d="M143 1462q0 31 19.5 51.5t50.5 20.5t50.5 -20.5t19.5 -51.5q0 -29 -19.5 -49t-50.5 -20t-50.5 20.5t-19.5 48.5zM162 0v1257h106v-1257h-106z" />
<glyph unicode="&#x131;" d="M145 0v909h103v-909h-103z" />
<glyph unicode="&#x134;" horiz-adv-x="968" d="M39 348h111q14 -123 88.5 -194.5t197.5 -71.5q59 0 112.5 17.5t92.5 56.5t61.5 99t22.5 146v856h106v-856q0 -109 -30.5 -186.5t-83.5 -129.5t-125 -77.5t-156 -25.5t-153.5 26.5t-123 73.5t-84 114.5t-36.5 151.5zM547 1366l188 244h92l189 -244h-98l-138 170l-135 -170 h-98z" />
<glyph unicode="&#x135;" horiz-adv-x="395" d="M-29 -270q8 -2 19.5 -3t23.5 -1q31 0 55.5 7t42 24.5t26.5 47t9 74.5v1030h103v-1040q0 -117 -61.5 -176.5t-168.5 -59.5q-12 0 -26 2.5t-23 4.5v90zM4 1051l148 268h92l149 -268h-92l-102 190l-103 -190h-92z" />
<glyph unicode="&#x136;" horiz-adv-x="1114" d="M162 0v1257h106v-657l654 657h137l-574 -573l594 -684h-133l-536 610l-142 -143v-467h-106zM432 -375l74 137q-25 4 -42.5 21.5t-17.5 46.5q0 33 21.5 53.5t52.5 20.5q33 0 53.5 -21.5t20.5 -54.5q0 -25 -8 -44.5t-21 -41.5l-63 -117h-70z" />
<glyph unicode="&#x137;" horiz-adv-x="913" d="M145 0v1331h103v-858l479 436h137l-430 -391l445 -518h-125l-394 453l-112 -101v-352h-103zM356 -375l74 137q-25 4 -42.5 21.5t-17.5 46.5q0 33 21.5 53.5t52.5 20.5q33 0 53.5 -21.5t20.5 -54.5q0 -25 -8 -44.5t-21 -41.5l-63 -117h-70z" />
<glyph unicode="&#x138;" horiz-adv-x="913" d="M145 0v909h103v-436l479 436h137l-430 -391l445 -518h-125l-394 453l-112 -101v-352h-103z" />
<glyph unicode="&#x139;" horiz-adv-x="1030" d="M162 0v1257h106v-1159h682v-98h-788zM174 1362l170 240h114l-178 -240h-106z" />
<glyph unicode="&#x13a;" d="M145 0v1331h103v-1331h-103zM146 1409l170 240h114l-178 -240h-106z" />
<glyph unicode="&#x13b;" horiz-adv-x="1030" d="M162 0v1257h106v-1159h682v-98h-788zM483 -375l74 137q-25 4 -42.5 21.5t-17.5 46.5q0 33 21.5 53.5t52.5 20.5q33 0 53.5 -21.5t20.5 -54.5q0 -25 -8 -44.5t-21 -41.5l-63 -117h-70z" />
<glyph unicode="&#x13c;" d="M108 -375l74 137q-25 4 -42.5 21.5t-17.5 46.5q0 33 21.5 53.5t52.5 20.5q33 0 53.5 -21.5t20.5 -54.5q0 -25 -8 -44.5t-21 -41.5l-63 -117h-70zM145 0v1331h103v-1331h-103z" />
<glyph unicode="&#x13d;" horiz-adv-x="1030" d="M162 0v1257h106v-1159h682v-98h-788zM536 930l68 327h82l-66 -327h-84z" />
<glyph unicode="&#x13e;" d="M145 0v1331h103v-1331h-103zM366 1004l68 327h82l-66 -327h-84z" />
<glyph unicode="&#x13f;" horiz-adv-x="1030" d="M162 0v1257h106v-1159h682v-98h-788zM667 631q0 29 19.5 49t50.5 20t50.5 -20t19.5 -49q0 -31 -19.5 -51.5t-50.5 -20.5t-50.5 20.5t-19.5 51.5z" />
<glyph unicode="&#x140;" horiz-adv-x="610" d="M145 0v1331h103v-1331h-103zM432 668q0 29 19.5 49t50.5 20t50.5 -20t19.5 -49q0 -31 -19.5 -51.5t-50.5 -20.5t-50.5 20.5t-19.5 51.5z" />
<glyph unicode="&#x141;" horiz-adv-x="1054" d="M61 504v100l125 51v602h107v-563l321 129v-100l-321 -129v-496h682v-98h-789v553z" />
<glyph unicode="&#x142;" horiz-adv-x="473" d="M61 592v100l125 86v553h103v-497l133 94v-101l-133 -92v-735h-103v678z" />
<glyph unicode="&#x143;" horiz-adv-x="1263" d="M162 0v1257h100l737 -1044v1044h103v-1257h-72l-766 1087v-1087h-102zM568 1362l170 240h114l-178 -240h-106z" />
<glyph unicode="&#x144;" horiz-adv-x="989" d="M145 0v909h103v-145q41 66 117.5 115t173.5 49q156 0 235.5 -90t79.5 -236v-602h-102v586q0 106 -55.5 175.5t-176.5 69.5q-47 0 -89 -15t-77 -41.5t-62.5 -62.5t-43.5 -75v-637h-103zM445 1065l170 266h108l-178 -266h-100z" />
<glyph unicode="&#x145;" horiz-adv-x="1263" d="M162 0v1257h100l737 -1044v1044h103v-1257h-72l-766 1087v-1087h-102zM553 -375l74 137q-25 4 -42.5 21.5t-17.5 46.5q0 33 21.5 53.5t52.5 20.5q33 0 53.5 -21.5t20.5 -54.5q0 -25 -8 -44.5t-21 -41.5l-63 -117h-70z" />
<glyph unicode="&#x146;" horiz-adv-x="989" d="M145 0v909h103v-145q41 66 117.5 115t173.5 49q156 0 235.5 -90t79.5 -236v-602h-102v586q0 106 -55.5 175.5t-176.5 69.5q-47 0 -89 -15t-77 -41.5t-62.5 -62.5t-43.5 -75v-637h-103zM426 -375l74 137q-25 4 -42.5 21.5t-17.5 46.5q0 33 21.5 53.5t52.5 20.5 q33 0 53.5 -21.5t20.5 -54.5q0 -25 -8 -44.5t-21 -41.5l-63 -117h-70z" />
<glyph unicode="&#x147;" horiz-adv-x="1263" d="M162 0v1257h100l737 -1044v1044h103v-1257h-72l-766 1087v-1087h-102zM398 1595h98l135 -170l137 170h99l-189 -243h-92z" />
<glyph unicode="&#x148;" horiz-adv-x="989" d="M145 0v909h103v-145q41 66 117.5 115t173.5 49q156 0 235.5 -90t79.5 -236v-602h-102v586q0 106 -55.5 175.5t-176.5 69.5q-47 0 -89 -15t-77 -41.5t-62.5 -62.5t-43.5 -75v-637h-103zM271 1321h94l139 -195l139 195h97l-189 -266h-92z" />
<glyph unicode="&#x14a;" horiz-adv-x="1263" d="M162 0v1257h100l737 -1044v1044h103v-1214q0 -109 -22.5 -187.5t-66.5 -130t-107.5 -76t-143.5 -24.5q-74 0 -130.5 21.5t-94.5 48.5v108q55 -41 107 -59t114 -18q121 0 181 72.5t60 244.5l-735 1044v-1087h-102z" />
<glyph unicode="&#x14b;" horiz-adv-x="989" d="M145 0v909h103v-145q41 66 117.5 115t173.5 49q156 0 235.5 -90t79.5 -236v-733q0 -117 -60.5 -176.5t-168.5 -59.5q-12 0 -25.5 2.5t-21.5 4.5v90q6 -2 17 -3t23 -1q33 0 57.5 7t41 24.5t26 47t9.5 74.5v707q0 106 -55.5 175.5t-176.5 69.5q-47 0 -89 -15t-77 -41.5 t-62.5 -62.5t-43.5 -75v-637h-103z" />
<glyph unicode="&#x14c;" horiz-adv-x="1271" d="M80 629q0 143 42 262t115.5 205t176 133t223.5 47q119 0 221.5 -47t177 -133t115.5 -205t41 -262t-41 -263t-115.5 -205t-177 -132t-221.5 -47q-121 0 -223.5 47t-176 132t-115.5 204.5t-42 263.5zM188 629q0 -121 33 -221.5t92.5 -173t141.5 -113.5t182 -41q98 0 181 41 t142.5 113.5t92 173t32.5 221.5t-32.5 221t-92 173t-142.5 114t-181 41q-100 0 -182 -41t-141.5 -114t-92.5 -173t-33 -221zM430 1372v86h414v-86h-414z" />
<glyph unicode="&#x14d;" horiz-adv-x="964" d="M80 455q0 104 28.5 191t82 149.5t128 97.5t164.5 35t165 -35t127 -97.5t81 -149.5t29 -191t-29 -191.5t-81 -150t-127 -97t-165 -34.5t-164.5 34.5t-128 97t-82 149.5t-28.5 192zM184 455q0 -86 20.5 -156t59.5 -120t94.5 -77.5t124.5 -27.5q68 0 123.5 27.5t94 77.5 t60 120t21.5 156t-21.5 155.5t-60 119.5t-94 78t-123.5 28q-70 0 -125 -28t-94 -78t-59.5 -119.5t-20.5 -155.5zM276 1100v86h414v-86h-414z" />
<glyph unicode="&#x14e;" horiz-adv-x="1271" d="M80 629q0 143 42 262t115.5 205t176 133t223.5 47q119 0 221.5 -47t177 -133t115.5 -205t41 -262t-41 -263t-115.5 -205t-177 -132t-221.5 -47q-121 0 -223.5 47t-176 132t-115.5 204.5t-42 263.5zM188 629q0 -121 33 -221.5t92.5 -173t141.5 -113.5t182 -41q98 0 181 41 t142.5 113.5t92 173t32.5 221.5t-32.5 221t-92 173t-142.5 114t-181 41q-100 0 -182 -41t-141.5 -114t-92.5 -173t-33 -221zM424 1599h82q0 -78 36 -118.5t93 -40.5t93 41t36 118h82q0 -59 -15.5 -103t-44 -74.5t-67.5 -46t-84 -15.5q-47 0 -86 15.5t-66.5 46t-43 74.5 t-15.5 103z" />
<glyph unicode="&#x14f;" horiz-adv-x="964" d="M80 455q0 104 28.5 191t82 149.5t128 97.5t164.5 35t165 -35t127 -97.5t81 -149.5t29 -191t-29 -191.5t-81 -150t-127 -97t-165 -34.5t-164.5 34.5t-128 97t-82 149.5t-28.5 192zM184 455q0 -86 20.5 -156t59.5 -120t94.5 -77.5t124.5 -27.5q68 0 123.5 27.5t94 77.5 t60 120t21.5 156t-21.5 155.5t-60 119.5t-94 78t-123.5 28q-70 0 -125 -28t-94 -78t-59.5 -119.5t-20.5 -155.5zM272 1282h82q0 -80 35 -124t92 -44q59 0 93 44t34 124h82q0 -61 -15.5 -106.5t-43 -76t-66.5 -47t-84 -16.5t-84 16.5t-66.5 47t-43 76t-15.5 106.5z" />
<glyph unicode="&#x150;" horiz-adv-x="1271" d="M80 629q0 143 42 262t115.5 205t176 133t223.5 47q119 0 221.5 -47t177 -133t115.5 -205t41 -262t-41 -263t-115.5 -205t-177 -132t-221.5 -47q-121 0 -223.5 47t-176 132t-115.5 204.5t-42 263.5zM188 629q0 -121 33 -221.5t92.5 -173t141.5 -113.5t182 -41q98 0 181 41 t142.5 113.5t92 173t32.5 221.5t-32.5 221t-92 173t-142.5 114t-181 41q-100 0 -182 -41t-141.5 -114t-92.5 -173t-33 -221zM479 1362l152 240h94l-151 -240h-95zM709 1362l149 240h97l-154 -240h-92z" />
<glyph unicode="&#x151;" horiz-adv-x="964" d="M80 455q0 104 28.5 191t82 149.5t128 97.5t164.5 35t165 -35t127 -97.5t81 -149.5t29 -191t-29 -191.5t-81 -150t-127 -97t-165 -34.5t-164.5 34.5t-128 97t-82 149.5t-28.5 192zM184 455q0 -86 20.5 -156t59.5 -120t94.5 -77.5t124.5 -27.5q68 0 123.5 27.5t94 77.5 t60 120t21.5 156t-21.5 155.5t-60 119.5t-94 78t-123.5 28q-70 0 -125 -28t-94 -78t-59.5 -119.5t-20.5 -155.5zM319 1065l152 266h92l-151 -266h-93zM545 1065l151 266h92l-151 -266h-92z" />
<glyph unicode="&#x152;" horiz-adv-x="1720" d="M80 629q0 143 44 260t124 198.5t192.5 125.5t249.5 44h916v-98h-650v-463h586v-96h-586v-502h650v-98h-916q-137 0 -249.5 44t-192.5 126t-124 198.5t-44 260.5zM188 629q0 -121 35 -218.5t100.5 -167t157.5 -107.5t209 -38h162v1061h-162q-117 0 -209 -38t-157.5 -106.5 t-100.5 -166.5t-35 -219z" />
<glyph unicode="&#x153;" horiz-adv-x="1624" d="M80 455q0 104 28.5 191t82 149.5t128 97.5t164.5 35q121 0 210 -64.5t136 -173.5q47 109 134.5 173.5t214.5 64.5q90 0 159.5 -33t116.5 -92.5t70.5 -141t23.5 -178.5v-37h-669q0 -86 22.5 -155.5t63.5 -117.5t95 -74.5t120 -26.5q98 0 165.5 51t88.5 141h98 q-27 -127 -118 -204.5t-234 -77.5q-121 0 -211 61t-140 170q-49 -106 -138 -168.5t-208 -62.5q-90 0 -164.5 34.5t-128 97t-82 149.5t-28.5 192zM184 455q0 -86 20.5 -156t59.5 -120t94.5 -77.5t124.5 -27.5q68 0 123.5 27.5t94 77.5t60 120t21.5 156t-21.5 155.5t-60 119.5 t-94 78t-123.5 28q-70 0 -125 -28t-94 -78t-59.5 -119.5t-20.5 -155.5zM883 528h561q-2 59 -18.5 115.5t-49.5 99.5t-81.5 69t-116.5 26q-123 0 -202 -85t-93 -225z" />
<glyph unicode="&#x154;" horiz-adv-x="1124" d="M162 0v1257h446q92 0 165 -23.5t124 -67.5t79 -109.5t28 -151.5t-28 -151.5t-79 -109.5t-125 -66q-41 -14 -88 -19l377 -559h-121l-375 555h-297v-555h-106zM268 649h336q143 0 218 67.5t75 188.5q0 123 -74.5 189.5t-218.5 66.5h-336v-512zM478 1362l170 240h114 l-178 -240h-106z" />
<glyph unicode="&#x155;" horiz-adv-x="616" d="M145 0v909h103v-145q33 70 97.5 117t148.5 47q27 0 46 -4t33 -9v-102q-18 8 -38.5 12t-45.5 4q-84 0 -146 -54t-95 -140v-635h-103zM299 1065l170 266h108l-178 -266h-100z" />
<glyph unicode="&#x156;" horiz-adv-x="1124" d="M162 0v1257h446q92 0 165 -23.5t124 -67.5t79 -109.5t28 -151.5t-28 -151.5t-79 -109.5t-125 -66q-41 -14 -88 -19l377 -559h-121l-375 555h-297v-555h-106zM268 649h336q143 0 218 67.5t75 188.5q0 123 -74.5 189.5t-218.5 66.5h-336v-512zM463 -375l74 137 q-25 4 -42.5 21.5t-17.5 46.5q0 33 21.5 53.5t52.5 20.5q33 0 53.5 -21.5t20.5 -54.5q0 -25 -8 -44.5t-21 -41.5l-63 -117h-70z" />
<glyph unicode="&#x157;" horiz-adv-x="616" d="M104 -375l74 137q-25 4 -42.5 21.5t-17.5 46.5q0 33 21.5 53.5t52.5 20.5q33 0 53.5 -21.5t20.5 -54.5q0 -25 -8 -44.5t-21 -41.5l-63 -117h-70zM145 0v909h103v-145q33 70 97.5 117t148.5 47q27 0 46 -4t33 -9v-102q-18 8 -38.5 12t-45.5 4q-84 0 -146 -54t-95 -140 v-635h-103z" />
<glyph unicode="&#x158;" horiz-adv-x="1124" d="M162 0v1257h446q92 0 165 -23.5t124 -67.5t79 -109.5t28 -151.5t-28 -151.5t-79 -109.5t-125 -66q-41 -14 -88 -19l377 -559h-121l-375 555h-297v-555h-106zM268 649h336q143 0 218 67.5t75 188.5q0 123 -74.5 189.5t-218.5 66.5h-336v-512zM308 1595h98l135 -170 l137 170h99l-189 -243h-92z" />
<glyph unicode="&#x159;" horiz-adv-x="616" d="M125 1321h94l139 -195l139 195h97l-189 -266h-92zM145 0v909h103v-145q33 70 97.5 117t148.5 47q27 0 46 -4t33 -9v-102q-18 8 -38.5 12t-45.5 4q-84 0 -146 -54t-95 -140v-635h-103z" />
<glyph unicode="&#x15a;" horiz-adv-x="1019" d="M53 307h111q37 -115 131 -173t223 -58q70 0 127 17.5t99 49t64.5 78.5t22.5 107q0 84 -48 141t-169 90l-239 68q-66 18 -119 43.5t-91 62.5t-57.5 86t-19.5 117q0 80 31 142.5t85 106.5t125.5 67.5t155.5 23.5q92 0 165 -23.5t129.5 -65.5t93 -99.5t55.5 -129.5h-107 q-35 102 -116.5 163t-219.5 61q-61 0 -115.5 -16.5t-94 -47.5t-63.5 -76t-24 -100q0 -51 16.5 -86t46.5 -59.5t74 -43t101 -34.5l213 -60q154 -45 225.5 -123.5t71.5 -203.5q0 -82 -32 -147.5t-88 -109.5t-132 -68.5t-166 -24.5q-174 0 -301 84t-164 241zM430 1362l170 240 h114l-178 -240h-106z" />
<glyph unicode="&#x15b;" horiz-adv-x="819" d="M61 236h105q27 -84 92.5 -124t159.5 -40q47 0 87 10t69.5 29.5t47 51.5t17.5 75q0 57 -40 97t-128 64l-168 45q-96 27 -155.5 79t-59.5 153q0 59 23.5 106t66.5 79t98.5 49.5t118.5 17.5q141 0 227.5 -66.5t110.5 -181.5h-102q-27 80 -83 119t-153 39q-84 0 -145.5 -39 t-61.5 -119q0 -66 40 -94.5t122 -53.5l160 -43q117 -33 173 -95t56 -152q0 -61 -24.5 -110.5t-67.5 -81.5t-102.5 -50t-126.5 -18q-70 0 -130.5 17t-106.5 50t-76.5 80t-43.5 107zM344 1065l170 266h108l-178 -266h-100z" />
<glyph unicode="&#x15c;" horiz-adv-x="1019" d="M53 307h111q37 -115 131 -173t223 -58q70 0 127 17.5t99 49t64.5 78.5t22.5 107q0 84 -48 141t-169 90l-239 68q-66 18 -119 43.5t-91 62.5t-57.5 86t-19.5 117q0 80 31 142.5t85 106.5t125.5 67.5t155.5 23.5q92 0 165 -23.5t129.5 -65.5t93 -99.5t55.5 -129.5h-107 q-35 102 -116.5 163t-219.5 61q-61 0 -115.5 -16.5t-94 -47.5t-63.5 -76t-24 -100q0 -51 16.5 -86t46.5 -59.5t74 -43t101 -34.5l213 -60q154 -45 225.5 -123.5t71.5 -203.5q0 -82 -32 -147.5t-88 -109.5t-132 -68.5t-166 -24.5q-174 0 -301 84t-164 241zM263 1366l188 244 h92l189 -244h-99l-137 170l-135 -170h-98z" />
<glyph unicode="&#x15d;" horiz-adv-x="819" d="M61 236h105q27 -84 92.5 -124t159.5 -40q47 0 87 10t69.5 29.5t47 51.5t17.5 75q0 57 -40 97t-128 64l-168 45q-96 27 -155.5 79t-59.5 153q0 59 23.5 106t66.5 79t98.5 49.5t118.5 17.5q141 0 227.5 -66.5t110.5 -181.5h-102q-27 80 -83 119t-153 39q-84 0 -145.5 -39 t-61.5 -119q0 -66 40 -94.5t122 -53.5l160 -43q117 -33 173 -95t56 -152q0 -61 -24.5 -110.5t-67.5 -81.5t-102.5 -50t-126.5 -18q-70 0 -130.5 17t-106.5 50t-76.5 80t-43.5 107zM170 1051l188 268h92l189 -268h-97l-139 196l-139 -196h-94z" />
<glyph unicode="&#x15e;" horiz-adv-x="1019" d="M53 307h111q37 -115 131 -173t223 -58q70 0 127 17.5t99 49t64.5 78.5t22.5 107q0 84 -48 141t-169 90l-239 68q-66 18 -119 43.5t-91 62.5t-57.5 86t-19.5 117q0 80 31 142.5t85 106.5t125.5 67.5t155.5 23.5q92 0 165 -23.5t129.5 -65.5t93 -99.5t55.5 -129.5h-107 q-35 102 -116.5 163t-219.5 61q-61 0 -115.5 -16.5t-94 -47.5t-63.5 -76t-24 -100q0 -51 16.5 -86t46.5 -59.5t74 -43t101 -34.5l213 -60q154 -45 225.5 -123.5t71.5 -203.5q0 -82 -32 -147.5t-88 -109.5t-132 -68.5t-166 -24.5q-174 0 -301 84t-164 241zM325 -360l123 262 h101l-127 -262h-97z" />
<glyph unicode="&#x15f;" horiz-adv-x="819" d="M61 236h105q27 -84 92.5 -124t159.5 -40q47 0 87 10t69.5 29.5t47 51.5t17.5 75q0 57 -40 97t-128 64l-168 45q-96 27 -155.5 79t-59.5 153q0 59 23.5 106t66.5 79t98.5 49.5t118.5 17.5q141 0 227.5 -66.5t110.5 -181.5h-102q-27 80 -83 119t-153 39q-84 0 -145.5 -39 t-61.5 -119q0 -66 40 -94.5t122 -53.5l160 -43q117 -33 173 -95t56 -152q0 -61 -24.5 -110.5t-67.5 -81.5t-102.5 -50t-126.5 -18q-70 0 -130.5 17t-106.5 50t-76.5 80t-43.5 107zM235 -360l123 262h101l-127 -262h-97z" />
<glyph unicode="&#x160;" horiz-adv-x="1019" d="M53 307h111q37 -115 131 -173t223 -58q70 0 127 17.5t99 49t64.5 78.5t22.5 107q0 84 -48 141t-169 90l-239 68q-66 18 -119 43.5t-91 62.5t-57.5 86t-19.5 117q0 80 31 142.5t85 106.5t125.5 67.5t155.5 23.5q92 0 165 -23.5t129.5 -65.5t93 -99.5t55.5 -129.5h-107 q-35 102 -116.5 163t-219.5 61q-61 0 -115.5 -16.5t-94 -47.5t-63.5 -76t-24 -100q0 -51 16.5 -86t46.5 -59.5t74 -43t101 -34.5l213 -60q154 -45 225.5 -123.5t71.5 -203.5q0 -82 -32 -147.5t-88 -109.5t-132 -68.5t-166 -24.5q-174 0 -301 84t-164 241zM263 1595h98 l135 -170l137 170h99l-189 -243h-92z" />
<glyph unicode="&#x161;" horiz-adv-x="819" d="M61 236h105q27 -84 92.5 -124t159.5 -40q47 0 87 10t69.5 29.5t47 51.5t17.5 75q0 57 -40 97t-128 64l-168 45q-96 27 -155.5 79t-59.5 153q0 59 23.5 106t66.5 79t98.5 49.5t118.5 17.5q141 0 227.5 -66.5t110.5 -181.5h-102q-27 80 -83 119t-153 39q-84 0 -145.5 -39 t-61.5 -119q0 -66 40 -94.5t122 -53.5l160 -43q117 -33 173 -95t56 -152q0 -61 -24.5 -110.5t-67.5 -81.5t-102.5 -50t-126.5 -18q-70 0 -130.5 17t-106.5 50t-76.5 80t-43.5 107zM170 1321h94l139 -195l139 195h97l-189 -266h-92z" />
<glyph unicode="&#x162;" horiz-adv-x="1153" d="M63 1159v98h1027v-98h-461v-1159h-107v1159h-459zM498 -375l74 137q-25 4 -42.5 21.5t-17.5 46.5q0 33 21.5 53.5t52.5 20.5q33 0 53.5 -21.5t20.5 -54.5q0 -25 -8 -44.5t-21 -41.5l-63 -117h-70z" />
<glyph unicode="&#x163;" horiz-adv-x="610" d="M33 819v90h151v234h103v-234h235v-90h-235v-598q0 -78 33.5 -111.5t97.5 -33.5q33 0 64.5 9t60.5 24v-97q-27 -14 -63 -22t-72 -8q-100 0 -162 55t-62 174v608h-151zM276 -375l74 137q-25 4 -42 21.5t-17 46.5q0 33 21.5 53.5t52.5 20.5q33 0 53 -21.5t20 -54.5 q0 -25 -8 -44.5t-20 -41.5l-64 -117h-70z" />
<glyph unicode="&#x164;" horiz-adv-x="1153" d="M63 1159v98h1027v-98h-461v-1159h-107v1159h-459zM342 1595h98l135 -170l137 170h99l-189 -243h-92z" />
<glyph unicode="&#x165;" horiz-adv-x="610" d="M33 819v90h151v234h103v-234h235v-90h-235v-598q0 -78 33.5 -111.5t97.5 -33.5q33 0 64.5 9t60.5 24v-97q-27 -14 -63 -22t-72 -8q-100 0 -162 55t-62 174v608h-151zM403 1024l68 328h84l-68 -328h-84z" />
<glyph unicode="&#x166;" horiz-adv-x="1153" d="M63 1159v98h1027v-98h-461v-463h239v-92h-239v-604h-107v604h-239v92h239v463h-459z" />
<glyph unicode="&#x167;" horiz-adv-x="614" d="M37 819v90h151v234h103v-234h235v-90h-235v-241h192v-86h-192v-271q0 -78 33.5 -111.5t97.5 -33.5q33 0 64.5 9t60.5 24v-97q-27 -14 -62.5 -22t-72.5 -8q-100 0 -162 55t-62 174v281h-131v86h131v241h-151z" />
<glyph unicode="&#x168;" horiz-adv-x="1239" d="M137 496v761h107v-747q0 -109 27.5 -190.5t77.5 -135t119 -79t150 -25.5q80 0 150 25.5t119 79t78.5 135t29.5 190.5v747h107v-761q0 -129 -38 -225.5t-102.5 -161t-154 -96t-189.5 -31.5q-102 0 -189 31.5t-152.5 96t-102.5 161t-37 225.5zM363 1368q0 47 9 87 t26.5 67.5t44 44t61.5 16.5q39 0 69 -20.5t55.5 -45t49 -45t52.5 -20.5q37 0 55 34t18 91h74q0 -49 -9 -89t-26.5 -68.5t-44 -43t-61.5 -14.5q-39 0 -69 20.5t-55.5 44t-49 44t-52.5 20.5q-37 0 -55 -33t-18 -90h-74z" />
<glyph unicode="&#x169;" horiz-adv-x="985" d="M135 307v602h103v-585q0 -106 55 -176t176 -70q94 0 165 57.5t103 136.5v637h103v-909h-103v145q-41 -66 -115.5 -114.5t-170.5 -48.5q-156 0 -236 90t-80 235zM235 1071q0 47 9 87t26.5 68.5t44.5 44t61 15.5q39 0 68 -20.5t54.5 -45t48 -46t48.5 -21.5q37 0 55.5 35 t18.5 92h74q0 -49 -8 -89t-26.5 -67.5t-45.5 -43t-61 -15.5q-37 0 -67 20.5t-54.5 46t-48 46t-49.5 20.5q-37 0 -55.5 -35t-18.5 -92h-74z" />
<glyph unicode="&#x16a;" horiz-adv-x="1239" d="M137 496v761h107v-747q0 -109 27.5 -190.5t77.5 -135t119 -79t150 -25.5q80 0 150 25.5t119 79t78.5 135t29.5 190.5v747h107v-761q0 -129 -38 -225.5t-102.5 -161t-154 -96t-189.5 -31.5q-102 0 -189 31.5t-152.5 96t-102.5 161t-37 225.5zM414 1372v86h414v-86h-414z " />
<glyph unicode="&#x16b;" horiz-adv-x="985" d="M135 307v602h103v-585q0 -106 55 -176t176 -70q94 0 165 57.5t103 136.5v637h103v-909h-103v145q-41 -66 -115.5 -114.5t-170.5 -48.5q-156 0 -236 90t-80 235zM285 1100v86h414v-86h-414z" />
<glyph unicode="&#x16c;" horiz-adv-x="1239" d="M137 496v761h107v-747q0 -109 27.5 -190.5t77.5 -135t119 -79t150 -25.5q80 0 150 25.5t119 79t78.5 135t29.5 190.5v747h107v-761q0 -129 -38 -225.5t-102.5 -161t-154 -96t-189.5 -31.5q-102 0 -189 31.5t-152.5 96t-102.5 161t-37 225.5zM410 1599h82q0 -78 36 -118.5 t93 -40.5t93 41t36 118h82q0 -59 -15.5 -103t-44 -74.5t-67.5 -46t-84 -15.5q-47 0 -86 15.5t-66.5 46t-43 74.5t-15.5 103z" />
<glyph unicode="&#x16d;" horiz-adv-x="985" d="M135 307v602h103v-585q0 -106 55 -176t176 -70q94 0 165 57.5t103 136.5v637h103v-909h-103v145q-41 -66 -115.5 -114.5t-170.5 -48.5q-156 0 -236 90t-80 235zM280 1282h82q0 -80 35 -124t92 -44q59 0 93 44t34 124h82q0 -61 -15.5 -106.5t-43 -76t-66.5 -47t-84 -16.5 t-84 16.5t-66.5 47t-43 76t-15.5 106.5z" />
<glyph unicode="&#x16e;" horiz-adv-x="1239" d="M137 496v761h107v-747q0 -109 27.5 -190.5t77.5 -135t119 -79t150 -25.5q80 0 150 25.5t119 79t78.5 135t29.5 190.5v747h107v-761q0 -129 -38 -225.5t-102.5 -161t-154 -96t-189.5 -31.5q-102 0 -189 31.5t-152.5 96t-102.5 161t-37 225.5zM453 1493q0 33 13.5 63.5 t36 53t52 36t66.5 13.5q33 0 63.5 -13.5t54 -36t36 -53t12.5 -63.5q0 -37 -12.5 -66.5t-36 -52t-54 -35t-63.5 -12.5q-37 0 -66.5 12.5t-52 35t-36 52t-13.5 66.5zM519 1493q0 -43 29.5 -72.5t72.5 -29.5q41 0 70.5 29.5t29.5 72.5q0 41 -29.5 70.5t-70.5 29.5 q-43 0 -72.5 -29.5t-29.5 -70.5z" />
<glyph unicode="&#x16f;" horiz-adv-x="985" d="M135 307v602h103v-585q0 -106 55 -176t176 -70q94 0 165 57.5t103 136.5v637h103v-909h-103v145q-41 -66 -115.5 -114.5t-170.5 -48.5q-156 0 -236 90t-80 235zM324 1188q0 35 13.5 65.5t36 52t52 35t66.5 13.5q33 0 63.5 -13.5t54 -35t36 -52t12.5 -65.5t-12.5 -65.5 t-36 -52t-54 -35t-63.5 -13.5q-37 0 -66.5 13.5t-52 35t-36 52t-13.5 65.5zM390 1188q0 -43 29.5 -72t72.5 -29q41 0 70.5 29t29.5 72t-29.5 71.5t-70.5 28.5q-43 0 -72.5 -28.5t-29.5 -71.5z" />
<glyph unicode="&#x170;" horiz-adv-x="1239" d="M137 496v761h107v-747q0 -109 27.5 -190.5t77.5 -135t119 -79t150 -25.5q80 0 150 25.5t119 79t78.5 135t29.5 190.5v747h107v-761q0 -129 -38 -225.5t-102.5 -161t-154 -96t-189.5 -31.5q-102 0 -189 31.5t-152.5 96t-102.5 161t-37 225.5zM464 1362l152 240h94 l-151 -240h-95zM694 1362l149 240h97l-154 -240h-92z" />
<glyph unicode="&#x171;" horiz-adv-x="985" d="M135 307v602h103v-585q0 -106 55 -176t176 -70q94 0 165 57.5t103 136.5v637h103v-909h-103v145q-41 -66 -115.5 -114.5t-170.5 -48.5q-156 0 -236 90t-80 235zM325 1065l152 266h92l-151 -266h-93zM551 1065l151 266h92l-151 -266h-92z" />
<glyph unicode="&#x172;" horiz-adv-x="1239" d="M137 496v761h107v-747q0 -109 27.5 -190.5t77.5 -135t119 -79t150 -25.5q80 0 150 25.5t119 79t78.5 135t29.5 190.5v747h107v-761q0 -86 -17.5 -155t-46 -122t-69.5 -96t-92 -80q-106 -76 -145.5 -147.5t-39.5 -131.5q0 -29 14.5 -45t34.5 -16q23 0 39.5 7t36.5 24v-76 q-20 -14 -41.5 -22.5t-48.5 -8.5t-49.5 8.5t-37.5 23.5t-23.5 38.5t-8.5 54.5q0 18 3 39t10.5 41.5t16.5 41t23.5 42t32 40.5t37.5 40q-29 -6 -56.5 -10t-56.5 -4q-102 0 -189 31.5t-152.5 96t-102.5 161t-37 225.5z" />
<glyph unicode="&#x173;" horiz-adv-x="985" d="M135 307v602h103v-585q0 -106 55 -176t176 -70q94 0 165 57.5t103 136.5v637h103v-909q-31 -55 -50.5 -91t-30.5 -62.5t-15.5 -46t-4.5 -38.5q0 -31 13.5 -45t35.5 -14q23 0 39.5 7t36.5 24v-76q-20 -14 -42.5 -22.5t-49.5 -8.5q-25 0 -47.5 7.5t-37.5 23.5t-23.5 38.5 t-8.5 53.5q0 25 6.5 50.5t18.5 54t31.5 64.5t46.5 81h-21v145q-41 -66 -115.5 -114.5t-170.5 -48.5q-156 0 -236 90t-80 235z" />
<glyph unicode="&#x174;" horiz-adv-x="1554" d="M45 1257h105l290 -1079l293 1079h88l295 -1079l291 1079h102l-342 -1257h-96l-295 1069l-293 -1069h-96zM543 1366l188 244h92l189 -244h-99l-137 170l-135 -170h-98z" />
<glyph unicode="&#x175;" horiz-adv-x="1239" d="M37 909h100l225 -747l216 747h86l215 -747l223 747h100l-274 -909h-90l-220 750l-217 -750h-90zM385 1051l188 268h92l189 -268h-97l-139 196l-139 -196h-94z" />
<glyph unicode="&#x176;" horiz-adv-x="1099" d="M39 1257h117l395 -624l395 624h115l-459 -722v-535h-106v535zM314 1366l188 244h92l189 -244h-99l-137 170l-135 -170h-98z" />
<glyph unicode="&#x177;" horiz-adv-x="886" d="M37 909h110l297 -768l299 768h107l-502 -1257h-100l145 360zM209 1051l188 268h92l189 -268h-97l-139 196l-139 -196h-94z" />
<glyph unicode="&#x178;" horiz-adv-x="1099" d="M39 1257h117l395 -624l395 624h115l-459 -722v-535h-106v535zM352 1464q0 31 19.5 49.5t48.5 18.5t48.5 -18.5t19.5 -49.5q0 -29 -19.5 -48t-48.5 -19t-48.5 19t-19.5 48zM608 1464q0 31 19.5 49.5t48.5 18.5t49.5 -18.5t20.5 -49.5q0 -29 -20.5 -48t-49.5 -19t-48.5 19 t-19.5 48z" />
<glyph unicode="&#x179;" horiz-adv-x="1062" d="M76 0v80l766 1079h-756v98h887v-79l-764 -1080h774v-98h-907zM508 1362l170 240h114l-178 -240h-106z" />
<glyph unicode="&#x17a;" horiz-adv-x="854" d="M80 0v72l553 747h-543v90h672v-71l-551 -748h557v-90h-688zM373 1065l170 266h108l-178 -266h-100z" />
<glyph unicode="&#x17b;" horiz-adv-x="1062" d="M76 0v80l766 1079h-756v98h887v-79l-764 -1080h774v-98h-907zM499 1462q0 31 19.5 51.5t50.5 20.5t50.5 -20.5t19.5 -51.5q0 -29 -19.5 -49t-50.5 -20t-50.5 20.5t-19.5 48.5z" />
<glyph unicode="&#x17c;" horiz-adv-x="851" d="M80 0v72l553 747h-543v90h672v-71l-551 -748h557v-90h-688zM366 1186q0 29 19.5 49t50.5 20t50.5 -20t19.5 -49q0 -31 -19.5 -51.5t-50.5 -20.5t-50.5 20.5t-19.5 51.5z" />
<glyph unicode="&#x17d;" horiz-adv-x="1062" d="M76 0v80l766 1079h-756v98h887v-79l-764 -1080h774v-98h-907zM336 1595h98l135 -170l137 170h99l-189 -243h-92z" />
<glyph unicode="&#x17e;" horiz-adv-x="851" d="M80 0v72l553 747h-543v90h672v-71l-551 -748h557v-90h-688zM203 1321h94l139 -195l139 195h97l-189 -266h-92z" />
<glyph unicode="&#x2c6;" horiz-adv-x="1024" d="M279 1051l188 268h92l189 -268h-97l-139 196l-139 -196h-94z" />
<glyph unicode="&#x2da;" horiz-adv-x="1024" d="M344 1188q0 35 13.5 65.5t36 52t52 35t66.5 13.5q33 0 63.5 -13.5t54 -35t36 -52t12.5 -65.5t-12.5 -65.5t-36 -52t-54 -35t-63.5 -13.5q-37 0 -66.5 13.5t-52 35t-36 52t-13.5 65.5zM410 1188q0 -43 29.5 -72t72.5 -29q41 0 70.5 29t29.5 72t-29.5 71.5t-70.5 28.5 q-43 0 -72.5 -28.5t-29.5 -71.5z" />
<glyph unicode="&#x2dc;" horiz-adv-x="1024" d="M258 1071q0 47 9 87t26.5 68.5t44.5 44t61 15.5q39 0 68 -20.5t54.5 -45t48 -46t48.5 -21.5q37 0 55.5 35t18.5 92h74q0 -49 -8 -89t-26.5 -67.5t-45.5 -43t-61 -15.5q-37 0 -67 20.5t-54.5 46t-48 46t-49.5 20.5q-37 0 -55.5 -35t-18.5 -92h-74z" />
<glyph unicode="&#x2000;" horiz-adv-x="829" />
<glyph unicode="&#x2001;" horiz-adv-x="1659" />
<glyph unicode="&#x2002;" horiz-adv-x="829" />
<glyph unicode="&#x2003;" horiz-adv-x="1659" />
<glyph unicode="&#x2004;" horiz-adv-x="553" />
<glyph unicode="&#x2005;" horiz-adv-x="414" />
<glyph unicode="&#x2006;" horiz-adv-x="276" />
<glyph unicode="&#x2007;" horiz-adv-x="276" />
<glyph unicode="&#x2008;" horiz-adv-x="207" />
<glyph unicode="&#x2009;" horiz-adv-x="331" />
<glyph unicode="&#x200a;" horiz-adv-x="92" />
<glyph unicode="&#x2010;" horiz-adv-x="657" d="M82 483v97h493v-97h-493z" />
<glyph unicode="&#x2011;" horiz-adv-x="657" d="M82 483v97h493v-97h-493z" />
<glyph unicode="&#x2012;" horiz-adv-x="657" d="M82 483v97h493v-97h-493z" />
<glyph unicode="&#x2013;" horiz-adv-x="972" d="M82 489v86h809v-86h-809z" />
<glyph unicode="&#x2014;" horiz-adv-x="1732" d="M82 489v86h1569v-86h-1569z" />
<glyph unicode="&#x2018;" horiz-adv-x="290" d="M51 989q0 25 8.5 46.5t22.5 43.5l94 178h74l-107 -198q27 -6 45.5 -24.5t18.5 -49.5q0 -35 -22.5 -57.5t-55.5 -22.5t-55.5 22.5t-22.5 61.5z" />
<glyph unicode="&#x2019;" horiz-adv-x="290" d="M41 924l106 198q-27 6 -45 24.5t-18 49.5q0 33 22.5 56.5t55.5 23.5t55.5 -23.5t22.5 -60.5q0 -25 -9.5 -47.5t-21.5 -42.5l-94 -178h-74z" />
<glyph unicode="&#x201a;" horiz-adv-x="262" d="M41 -201l106 199q-27 6 -45 24.5t-18 49.5q0 35 22.5 57.5t55.5 22.5t55.5 -23t22.5 -61q0 -25 -9.5 -46.5t-21.5 -44.5l-94 -178h-74z" />
<glyph unicode="&#x201c;" horiz-adv-x="544" d="M51 989q0 25 8.5 46.5t22.5 43.5l94 178h74l-107 -198q27 -6 45.5 -24.5t18.5 -49.5q0 -35 -22.5 -57.5t-55.5 -22.5t-55.5 22.5t-22.5 61.5zM305 989q0 25 8.5 46.5t22.5 43.5l94 178h74l-107 -198q25 -6 44.5 -24.5t19.5 -49.5q0 -35 -22.5 -57.5t-55.5 -22.5 t-55.5 22.5t-22.5 61.5z" />
<glyph unicode="&#x201d;" horiz-adv-x="544" d="M41 924l106 198q-27 6 -45 24.5t-18 49.5q0 33 22.5 56.5t55.5 23.5t55.5 -23.5t22.5 -60.5q0 -25 -9.5 -47.5t-21.5 -42.5l-94 -178h-74zM295 924l106 198q-27 6 -45 24.5t-18 49.5q0 33 22.5 56.5t55.5 23.5t55.5 -23.5t22.5 -60.5q0 -25 -9.5 -47.5t-21.5 -42.5 l-94 -178h-74z" />
<glyph unicode="&#x201e;" horiz-adv-x="544" d="M41 -201l106 199q-27 6 -45 24.5t-18 49.5q0 35 22.5 57.5t55.5 22.5t55.5 -23t22.5 -61q0 -25 -9.5 -46.5t-21.5 -44.5l-94 -178h-74zM295 -201l106 199q-27 6 -45 24.5t-18 49.5q0 35 22.5 57.5t55.5 22.5t55.5 -23t22.5 -61q0 -25 -9.5 -46.5t-21.5 -44.5l-94 -178 h-74z" />
<glyph unicode="&#x2026;" horiz-adv-x="952" d="M68 74q0 33 22.5 56.5t54.5 23.5q16 0 30.5 -6.5t25 -17.5t16.5 -25.5t6 -30.5q0 -18 -6 -32.5t-16.5 -25t-24.5 -16.5t-31 -6q-16 0 -30.5 6t-24.5 16.5t-16 25t-6 32.5zM397 74q0 33 22.5 56.5t55.5 23.5q16 0 30.5 -6.5t25 -17.5t16.5 -25.5t6 -30.5q0 -18 -6 -32.5 t-16.5 -25t-24.5 -16.5t-31 -6q-14 0 -28.5 6t-25.5 16.5t-17.5 25t-6.5 32.5zM729 74q0 33 22.5 56.5t55.5 23.5q14 0 29.5 -6.5t25.5 -17.5t16.5 -25.5t6.5 -30.5q0 -18 -6.5 -32.5t-16.5 -25t-25.5 -16.5t-29.5 -6q-16 0 -30.5 6t-25 16.5t-16.5 25t-6 32.5z" />
<glyph unicode="&#x202f;" horiz-adv-x="331" />
<glyph unicode="&#x2039;" d="M51 455l189 280h102l-188 -280l188 -281h-102z" />
<glyph unicode="&#x203a;" d="M51 174l189 281l-189 280h103l188 -280l-188 -281h-103z" />
<glyph unicode="&#x205f;" horiz-adv-x="414" />
<glyph unicode="&#x20ac;" horiz-adv-x="1103" d="M59 461v84h115q-2 41 -2 84q0 37 2 73h-115v84h123q10 57 27 111q37 121 100.5 205t150.5 129t189 45q76 0 139.5 -24.5t113.5 -68.5t86 -107.5t52 -141.5h-98q-33 115 -106.5 180.5t-186.5 65.5q-82 0 -150.5 -39t-117.5 -111t-76 -174q-10 -35 -16 -70h454l-18 -84 h-444q-2 -37 -2 -73q0 -43 2 -84h419l-20 -84h-389q6 -31 14 -60q27 -102 76 -173.5t117.5 -110.5t150.5 -39q113 0 186.5 65.5t106.5 180.5h98q-16 -78 -52 -141.5t-86 -107.5t-113.5 -68.5t-139.5 -24.5q-102 0 -189 45t-150.5 129t-100.5 202q-16 49 -25 103h-125z" />
<glyph unicode="&#x2122;" horiz-adv-x="1175" d="M33 1190v67h432v-67h-176v-453h-80v453h-176zM555 737v520h96l168 -411l166 411h94v-520h-78v385l-155 -385h-58l-155 385v-385h-78z" />
<glyph unicode="&#x25fc;" horiz-adv-x="911" d="M0 0v911h911v-911h-911z" />
</font>
</defs>
</svg>
