<?xml version="1.0" standalone="no"?>
<!DOCTYPE svg PUBLIC "-//W3C//DTD SVG 1.1//EN" "http://www.w3.org/Graphics/SVG/1.1/DTD/svg11.dtd">
<svg xmlns="http://www.w3.org/2000/svg">
<metadata>Generated by Fontastic.me</metadata>
<defs>
<font id="twisto-icons" horiz-adv-x="512">
<font-face font-family="twisto-icons" units-per-em="512" ascent="480" descent="-32"/>
<missing-glyph horiz-adv-x="512" />

<glyph glyph-name="arrow" unicode="&#98;" d="M9 331c-10 9-10 25 0 35l37 35c10 10 26 10 36 0l174-169 175 170c10 10 27 10 37 0l36-35c11-9 11-25 0-35l-230-222c-10-10-26-10-36 0z"/>
<glyph glyph-name="devices" unicode="&#99;" d="M13 482l373 0c7 0 13-6 13-14l0-56 57 0c31 0 56-24 56-54l0-273c0-30-25-55-56-55l-131 0c-24 0-44 15-52 35l-260 0c-7 0-13 6-13 13l0 390c0 8 6 14 13 14z m369-31c0 7-6 13-14 13l-337 0c-8 0-14-6-14-13l0-91 252 0c1 29 26 52 56 52l57 0z m-113-108l-252 0 0-247c0-7 6-13 14-13l238 0c0 0 0 1 0 2z m-217 78c0 5 4 9 9 9l17 0c5 0 9-4 9-9l0-17c0-5-4-9-9-9l-17 0c-5 0-9 4-9 9z m69 0c0 5 4 9 9 9l18 0c4 0 8-4 8-9l0-17c0-5-4-9-8-9l-18 0c-5 0-9 4-9 9z m70 0c0 5 4 9 9 9l17 0c5 0 9-4 9-9l0-17c0-5-4-9-9-9l-17 0c-5 0-9 4-9 9z m304-61c0 19-16 35-35 35l-139 0c-19 0-35-16-35-35l0-225 209 0z m0-243l-209 0 0-35c0-19 16-34 35-34l139 0c19 0 35 15 35 34z m-104-52c-10 0-18 8-18 17 0 10 8 18 18 18 9 0 17-8 17-18 0-9-8-17-17-17z m-27 304l53 0c4 0 8-4 8-9 0-5-4-9-8-9l-53 0c-4 0-8 4-8 9 0 5 4 9 8 9z"/>
<glyph glyph-name="facebook" unicode="&#101;" d="M315 391l62 0 0 92-73 0 0-1c-89-3-107-52-108-105l-1 0 0-45-60 0 0-90 60 0 0-241 91 0 0 241 75 0 14 90-89 0 0 27c0 18 12 32 29 32z"/>
<glyph glyph-name="facebook-square" unicode="&#102;" d="M512 32c0-18-14-32-32-32l-448 0c-18 0-32 14-32 32l0 448c0 18 14 32 32 32l448 0c18 0 32-14 32-32z m-160-32l0 192 64 0 16 80-80 0 0 32c0 32 16 48 48 48l32 0 0 80c-16 0-36 0-64 0-59 0-96-46-96-112l0-48-64 0 0-80 64 0 0-192z"/>
<glyph glyph-name="love" unicode="&#104;" d="M51 235c-31 26-51 68-51 114 0 80 60 145 135 145 53 0 99-33 121-80 22 47 68 80 121 80 75 0 135-65 135-145 0-46-20-88-51-114-75-84-185-208-185-208-11-12-29-12-40 0 0 0-111 126-185 208z"/>
<glyph glyph-name="play" unicode="&#105;" d="M454 287l-362 215c-13 13-37 13-51-4-7-10-10-20-10-30l0-427c-4-21 7-38 27-44 10-4 24 0 31 10l358 211c21 7 31 28 24 45 0 13-7 20-17 24z"/>
<glyph glyph-name="bubble" unicode="&#110;" d="M0 287c0-66 32-124 82-165l0-122 135 64c13-2 26-3 39-3 141 0 256 101 256 226 0 124-115 225-256 225-141 0-256-101-256-225z m214-202l-112-53 0 100c-50 37-82 93-82 155 0 113 106 204 236 204 130 0 0 0 0 0 130 0 236-91 236-204 0-113-106-205-236-205-14 0-28 1-42 3z m-112 191c0-16 14-30 31-30 17 0 31 14 31 30 0 17-14 31-31 31-17 0-31-14-31-31z m123 0c0-16 14-30 31-30 17 0 31 14 31 30 0 17-14 31-31 31-17 0-31-14-31-31z m123 0c0-16 14-30 31-30 17 0 31 14 31 30 0 17-14 31-31 31-17 0-31-14-31-31z"/>
<glyph glyph-name="phone" unicode="&#112;" d="M385 499c-5-7-62-93-69-103-2-5-4-10-4-16 0-8 3-17 7-25 4-9 19-33 26-46-8-10-27-36-67-75-40-40-65-59-76-67-12 7-37 21-46 25-8 5-17 7-25 7-6 0-11-1-16-4-10-6-95-63-103-69-8-5-12-15-12-26 0-8 3-17 8-25 1-1 54-75 85-75 0 0 0 0 0 0 88 3 190 88 261 158 70 70 155 173 158 260l0 1c0 30-74 84-75 84-9 6-18 9-26 9-11 0-20-5-26-13z m26-8c5 0 10-1 14-4 29-21 66-57 66-69-2-80-84-178-152-246-96-95-184-149-246-151-11 0-44 32-68 66-3 4-4 9-4 13 0 5 1 9 3 10 7 5 92 61 102 68 1 0 3 1 5 1 5 0 10-2 16-5 8-4 34-18 45-25l11-6 10 7c13 9 39 29 79 69 40 40 61 66 69 79l8 10-7 12c-10 17-21 37-25 44-3 6-4 11-4 16 0 2 0 4 1 5 6 10 62 94 68 103 1 1 5 3 9 3 5 0 0 0 0 0z"/>
<glyph glyph-name="email" unicode="&#100;" d="M483 44l7-8 0-15-15 0-141 164 18 15z m-306 141l-142-164-14 0 0 15 138 164z m78-65l-231 192 0 28 231-193 235 195 0-28z m235-99l-469 0 3 316 232 149 234-149z m-234 491l-256-164 0-348 512 0 0 348z"/>
<glyph glyph-name="car" unicode="&#97;" d="M252 398c0 0 111-1 129-18 15-13 34-46 43-60 1-2 3-4 5-6 3 4 5 9 3 14l0 1c-1 4 2 7 6 8 3 1 6 1 8 1 6 0 11-1 16-3 4-2 6-6 4-9 0-4-2-6-5-8-3-1-7-1-11-2-6 0-11-3-15-6l2-1c3-1 6-2 9-2 7 1 13 0 19-2 3-3 23-20 23-44 0-24 1-127-2-134-3-7 0-12-51-13-6 0-11 5-12 11-1 10-2 21-9 21l-325 0c-7 0-7-11-8-21-1-6-6-11-12-11-51 1-48 6-51 13-3 7-2 107-2 131 0 25 20 43 24 47 3 2 7 3 12 2 2 0 4 0 6 0 4 0 7 1 10 2l1 1c-4 4-9 6-15 6-4 1-8 1-11 2-3 2-5 5-6 8 0 4 2 7 5 9 5 2 10 3 15 3 3 0 6 0 9-1 4-1 7-4 6-8l0-1c-2-5-1-10 3-15 2 2 4 4 6 7 8 14 28 47 42 60 18 16 129 18 129 18z m-165-87l165 0 166 0c0 0-39 65-53 67-38 6-75 10-113 11-38-1-75-5-113-11-14-2-51-65-51-65z m315-80l63 10 0 27c0 4-9 4-9 4l-89-16z m-365 37l1 0 0-27 63-10 35 25-90 16c0 0-9 0-9-4z m213-108c0 0 80 3 88 3 6 0 11 2 15 4l15 63-25 25-185 0-25-25 14-63c4-3 10-4 15-4 8 0 88-3 88-3z m2 254l0 0c-35-1-120-4-139-23-13-13-24-28-33-43-3 2-6 4-10 4 0 0-1 0-1 1-4 0-8 1-12 1-7 0-14-2-21-4 0 0 0-1-1-1-9-4-14-13-13-23 0-1 0-2 0-2 0-4 2-8 3-11-14-14-23-34-25-54 0-5 0-12 0-21-1-93 1-110 4-117 0 0 0-1 0-1 6-18 20-21 65-22 14 0 26 11 27 26 1 4-1 5 0 7l312 0c0-2-1-4 0-8 1-14 13-24 27-25 43 1 59 4 65 22 0 0 0 0 0 1 3 6 5 21 4 123 0 6 0 12 0 16-1 20-10 40-25 53 1 4 3 7 3 11 2 11-4 22-14 26-7 2-14 4-22 4-4 0-8-1-11-1l-1-1c-3 0-6-2-9-4-9 16-21 31-33 44-21 18-105 21-140 22z m-109-51c36 6 73 9 109 10 36-1 73-4 109-10 5-3 14-18 25-36l-134 0c0 0 0 5 0 5 0-16 0-5 0-5l-134 0c7 13 16 25 25 36z m279-113l28 5 0-1z m-368 4l0 1 25-5z m111-14l171 0 15-15-11-46c-1 0-1 0-2 0-8 0-80-3-88-3-7 0-80 2-88 2-1 0-1 0-2 0l-10 47z"/>
<glyph glyph-name="globe" unicode="&#113;" d="M256 512c138 0 250-109 256-246l0 0 0-20 0 0c-6-136-117-244-253-246-1 0-2 0-3 0-1 0-2 0-3 0-136 2-247 110-253 246l0 0 0 20 0 0c6 137 118 246 256 246z m-235-266c2-46 16-88 41-123 3 1 47 21 109 33-4 28-7 58-7 90z m52-139c36-43 86-74 144-83-18 23-33 63-42 112-47-8-84-21-102-29z m222-83c58 9 108 40 144 83-18 8-55 21-102 29-9-49-24-89-42-112z m155 99c25 35 39 77 41 123l-143 0c0-32-3-62-7-90 62-12 106-32 109-33z m-266 123c1-32 3-61 7-87 21 3 43 5 65 5 23 0 45-2 65-5 4 26 6 55 7 87z m11-107c14-75 41-119 61-119 20 0 47 44 61 119-19 3-39 4-60 4-22 0-43-1-62-4z m-31 127c0 32 3 62 7 90-63 12-106 32-109 33-25-35-39-77-41-123z m327 0c-2 46-16 88-41 123-3-1-46-21-109-33 4-28 7-58 7-90z m-52 139c-36 43-86 74-144 83 18-23 33-63 42-112 47 8 84 21 102 29z m-264-29c9 49 24 89 42 112-58-9-108-40-144-83 18-8 55-21 102-29z m81 116c-20 0-47-44-61-119 19-3 40-4 62-4 21 0 41 1 60 4-14 75-41 119-61 119 0 0 29 0 0 0z m-65-139c-4-26-6-55-7-87l144 0c-1 32-3 61-7 87-20-3-42-5-65-5-22 0-44 2-65 5z"/>
<glyph glyph-name="user" unicode="&#114;" d="M199 486c75 0 135-61 135-136 0-55-32-102-78-123 34-10 64-29 87-55l-30 0 0 0c-31 26-71 42-114 42-99 0-178-79-178-177 0-4 0-7 0-11l-21 0c0 4 0 7 0 11 0 89 60 165 141 190-46 21-78 68-78 123 0 75 61 136 136 136z m-115-136c0-63 51-115 115-115 63 0 114 52 114 115 0 64-51 115-114 115-64 0-115-51-115-115z m302-278l101 101 15-15-111-111-4 4-4-4-69 70 13 14z"/>
<glyph glyph-name="users" unicode="&#115;" d="M363 129c-9 1-9 28-9 28 17 18 29 42 34 66 17 0 28 41 11 55 0 15 21 118-84 118-106 0-85-103-84-118-17-14-6-55 11-55 5-24 17-48 36-66 0 0 0-27-10-28-31-5-149-58-149-113l396 0c-3 57-121 108-152 113z m-199-16c22 17 45 31 70 42-9 14-17 30-23 47-8 7-16 17-19 28-4 10-6 23-4 35 1 8 3 16 7 24-1 24-3 71 27 107 12 14 28 23 45 29-3 34-20 73-85 73-106 0-86-102-84-118-17-14-6-54 11-54 4-25 17-48 35-67 0 0 0-26-9-28-31-4-133-59-133-121l158 0c0 0 3 2 4 3z"/>
<glyph glyph-name="bank" unicode="&#116;" d="M400 384l-144 81-144-81-68 0 212 119 0 0 0 0 212-119z m112-51c0-10-8-17-17-17l-478 0c-9 0-17 7-17 17 0 9 8 17 17 17l478 0c9 0 17-8 17-17z m-478-239l0 171c0 9 8 17 17 17 10 0 17-8 17-17l0-171c0-10-7-17-17-17-9 0-17 7-17 17z m68 0l0 171c0 9 8 17 17 17 10 0 18-8 18-17l0-171c0-10-8-17-18-17-9 0-17 7-17 17z m103 0l0 171c0 9 7 17 17 17 9 0 17-8 17-17l0-171c0-10-8-17-17-17-10 0-17 7-17 17z m68 0l0 171c0 9 8 17 17 17 10 0 17-8 17-17l0-171c0-10-7-17-17-17-9 0-17 7-17 17z m102 0l0 171c0 9 8 17 18 17 9 0 17-8 17-17l0-171c0-10-8-17-17-17-10 0-18 7-18 17z m69 0l0 171c0 9 7 17 17 17 9 0 17-8 17-17l0-171c0-10-8-17-17-17-10 0-17 7-17 17z m-444-68c0-10 8-17 17-17l478 0c9 0 17 7 17 17 0 9-8 17-17 17l-478 0c-9 0-17-8-17-17z"/>
<glyph glyph-name="card" unicode="&#117;" d="M64 472l384 0c35 0 64-29 64-64l0-320c0-35-29-64-64-64l-384 0c-35 0-64 29-64 64l0 320c0 35 29 64 64 64z m-32-221l0-163c0-18 14-32 32-32l384 0c18 0 32 14 32 32l0 169c-9-6-20-9-32-9l-400 0c-6 0-11 1-16 3z m0 157l0-35c5 2 10 3 16 3l400 0c12 0 23-3 32-9l0 41c0 18-14 32-32 32l-384 0c-18 0-32-14-32-32z m0-96c0-18 14-32 32-32l384 0c18 0 32 14 32 32 0 18-14 32-32 32l-384 0c-18 0-32-14-32-32z m48-160l96 0c9 0 16-7 16-16 0-9-7-16-16-16l-96 0c-9 0-16 7-16 16 0 9 7 16 16 16z m160 0l64 0c9 0 16-7 16-16 0-9-7-16-16-16l-64 0c-9 0-16 7-16 16 0 9 7 16 16 16z"/>
<glyph glyph-name="clock" unicode="&#119;" d="M256 512c-141 0-256-115-256-256 0-141 115-256 256-256 141 0 256 115 256 256 0 141-115 256-256 256z m119-375c-13-12-33-12-46 0l-105 106 0 141c0 18 14 32 32 32 18 0 32-14 32-32l0-115 87-86c12-13 12-33 0-46z"/>
<glyph glyph-name="paper-airplane" unicode="&#120;" d="M384 0l-169 127 233 321-301-271-147 111 512 224z m-160 64l-96 64 0-128z"/>
<glyph glyph-name="envelope" unicode="&#68;" d="M244 133l-82 76c-6 6-16 6-23 0l-139-130 0-17c1-17 15-31 32-30l448 0c17-1 31 13 32 30l0 17-139 130c-7 6-17 6-23 0l-82-76c-7-7-17-7-24 0z m174 118l82-76c7-6 12-4 12 5l0 165c0 8-5 11-12 5l-82-77c-3-3-4-7-4-11 0-4 1-8 4-11z m-386 229c-17 1-31-13-32-30l0-5 243-228c7-6 17-6 23 0l246 231 0 2c-1 17-15 31-32 30l-448 0z m-32-135l0-165c0-9 5-11 12-5l82 76c3 3 4 7 4 11 0 4-1 8-4 11l-82 77c-7 6-12 3-12-5z"/>
<glyph glyph-name="lock" unicode="&#69;" d="M160 288l0 64c0 47 34 86 80 94 46 8 91-19 107-63 4-17 19-29 37-31 8 0 16 3 22 9 6 6 8 15 7 23-17 80-91 135-173 127-82-8-144-77-144-159l0-64-32 0c-18-2-32-17-32-35l0-221c0-18 14-32 32-32l384 0c18 0 32 14 32 32l0 221c0 18-14 33-32 35z"/>
<glyph glyph-name="pills" unicode="&#109;" d="M475 298l-261-261c-49-48-128-48-177 1-48 48-49 127-1 176l262 262c49 49 128 49 177 0 49-49 49-129 0-178z m-19 158c-38 39-100 39-139 0l-131-130 139-139 131 130c19 19 29 44 29 70 0 26-10 51-29 69z m-22-116c-5-5-13-5-18 0-5 5-5 13 0 18 8 7 12 18 12 29 0 11-4 21-12 29-4 3-5 8-4 12 1 5 5 8 9 10 5 1 10-1 13-4 12-12 19-29 19-47 0-18-7-35-19-47z"/>
<glyph glyph-name="paw" unicode="&#71;" d="M142 24c-2 0-4 0-6 0-11 1-22 5-32 12-16 11-27 27-30 46-2 8-2 15-2 23 1 8 2 17 5 25 5 13 11 26 20 37 6 8 14 16 22 22 7 7 14 14 21 21 8 10 15 20 22 30 7 9 13 18 20 27 5 6 10 13 16 18 7 8 16 13 25 18 8 2 15 4 23 4 9 0 18-1 27-3 13-3 25-9 34-19 7-6 13-13 18-21 6-8 11-16 16-24 6-10 13-19 20-27 7-9 14-17 23-24 10-9 19-19 26-30 7-9 12-19 16-30 3-8 5-17 5-26 1-13-2-27-8-39-5-11-14-20-24-27-8-5-16-9-25-12-3 0-7-1-10-1l-1-1c-1 0-1 0-2 0 0 1-1 1-1 0l-8 0c-1 1-1 1-1 0l-2 0c-7 1-14 2-21 4-12 3-24 6-36 9-9 3-19 4-29 6-6 0-13 0-20 0-6 0-11-1-16-2-11-2-21-5-32-7-11-4-22-6-33-8-4-1-9-1-13-1l-3 0c-1-1-3-1-4 0z m209 465c15-2 28-10 36-22 6-8 10-18 12-28 2-8 3-17 3-26-1-16-5-32-12-46-5-10-11-19-19-27-7-7-16-13-25-16-6-3-13-4-21-3-11 0-23 5-31 14-7 7-13 16-16 25-3 7-4 14-5 21-1 5-1 10-1 15 1 11 3 23 7 34 4 11 9 22 17 32 7 8 14 14 23 20 7 3 14 6 22 6 0 1 1 1 1 0l1 0c0 0 0 0 1 0l5 0c0 0 0 0 1 0l0 0c1 1 1 1 1 1z m-351-179c1 5 2 9 3 14 2 8 6 16 12 23 7 7 15 12 25 14 8 2 16 1 24-1 9-3 17-8 24-14 11-9 19-21 25-34 3-7 5-15 6-22 0-4 1-7 1-11 0-7-1-14-3-20-2-9-6-18-12-25-7-8-17-13-27-14-8-2-16-1-23 2-10 3-19 8-27 16-7 7-13 15-18 24-4 9-7 19-9 28 0 2 0 4 0 6-1 0 0 1-1 2 0 0 0 1 0 1 0 0 0 1 0 1l0 7c0 0 0 1 0 2 0 0 0 1 0 1z m108 103c-1 12 1 24 6 36 3 8 8 16 14 22 6 7 15 12 24 15 9 2 19 2 28-2 8-3 16-7 22-13 10-9 17-21 22-33 3-8 6-17 7-25 1-5 1-10 1-15 0-6 0-12-1-18-2-13-7-25-14-35-5-7-11-12-18-16-8-4-17-6-26-6-8 1-16 4-23 8-9 5-17 13-23 21-7 10-13 22-16 34-1 7-3 14-3 20 0 3 0 5-1 7z m404-110l0-2c-1-12-4-24-9-35-4-8-10-16-17-23-8-9-18-16-30-21-7-2-14-3-22-3-11 1-21 5-29 12-6 6-11 14-14 23-2 7-3 15-3 23 1 18 6 35 16 49 3 5 7 10 12 14 8 9 19 15 30 19 7 2 14 3 21 3 10-1 20-5 28-13 7-6 12-15 14-24 2-5 3-10 3-15l0-2c0-2 0-4 0-5z"/>
<glyph glyph-name="attachment" unicode="&#73;" d="M148 0c-35 1-69 16-92 42-36 32-51 82-40 129 9 31 26 60 49 83 15 15 67 68 116 118 45 46 87 89 98 100 22 24 52 39 85 40 29-1 56-14 76-35 20-21 30-50 27-79-4-29-17-57-38-78l-162-165c-45-46-85-38-107-16-14 15-42 55 14 111l135 138c4 4 9 6 14 6 6 0 11-2 15-6 4-4 6-9 6-15 0-5-2-11-6-14l-135-138c-33-33-20-46-14-52 14-15 37 3 49 16l162 164c14 15 24 33 26 53 2 17-3 33-15 45-12 14-29 22-48 23l0 0c-21-1-41-11-55-27-11-11-53-55-98-100-49-51-101-104-116-119-18-18-31-39-38-63-8-33 3-68 29-90 16-16 74-63 148 12 27 28 228 231 231 233 3 4 9 6 14 6 5 0 11-2 14-6 8-8 8-21 0-30-2-2-203-204-230-232-30-32-71-52-114-54z"/>
<glyph glyph-name="ball" unicode="&#74;" d="M256 512c-141 0-256-115-256-256 0-141 115-256 256-256 141 0 256 115 256 256 0 141-115 256-256 256z m-21-235l-188 0c3 31 13 61 29 87 49-27 103-43 159-47z m0-42l0-40c-56-4-110-20-159-47-16 27-26 56-29 87z m42 0l188 0c-3-30-13-60-29-86-49 27-103 43-159 46z m0 42l0 40c56 4 110 19 159 46 16-26 26-55 29-86z m134 120c-42-22-87-35-134-38l0 106c51-6 99-29 134-68z m-176 68l0-106c-47 4-92 17-133 39 35 38 82 62 133 67z m-133-351c41 22 86 35 133 39l0-105c-51 5-98 28-133 66z m175-66l0 105c47-3 92-16 134-38-35-38-83-62-134-67z"/>
<glyph glyph-name="book" unicode="&#75;" d="M512 389l0-283c0-15-12-27-27-27l-98 0c-26-2-51-12-72-28-28-22-68-22-96 0-21 16-46 26-72 28l-96 0c-16 0-28 12-28 27l0 283c0 16 13 28 29 28l19 0 0-275c-1-5 1-10 5-14 4-4 9-6 15-5l48 0c24 0 49-3 73-11 16-5 31-14 43-26 3-3 8-5 12-6 5 0 10 2 13 6 20 18 45 30 72 33 27 3 54 4 81 3l12 0c6-1 11 1 15 5 4 4 6 9 5 15l0 274 19 0c7 0 14-2 20-7 5-5 8-12 8-20z m-419 87l0-323c0 0 114 8 163-25l0 323c-49 33-163 25-163 25z m186-25l0-323c49 33 163 25 163 25l0 323c0 0-114 8-163-25z"/>
<glyph glyph-name="cart" unicode="&#78;" d="M481 331l-40 0-117 147c-7 9-20 10-29 4-4-4-7-8-8-14 0-5 1-10 4-14l98-123-268 0 102 123c7 8 6 20-2 28-9 6-22 5-29-4l-124-147-37 0c-16 0-30-13-31-29l0 1c0-16 12-29 27-31l56-210c2-19 17-34 36-36l273 0c18 2 33 16 36 34l56 212c16 1 28 15 28 31l0-1c-1 16-15 30-31 29z m-276-206c-2-13-13-22-26-22-13 0-24 9-25 22l0 83c1 13 12 23 25 23 13 0 24-10 26-23z m77 0c-2-13-13-22-26-22-13 0-24 9-26 22l0 83c2 13 13 23 26 23 13 0 24-10 26-23z m76 0c-1-13-12-22-25-22-13 0-24 9-26 22l0 83c2 13 13 23 26 23 13 0 24-10 25-23z"/>
<glyph glyph-name="cutlery" unicode="&#81;" d="M384 512c-28 0-52-22-53-50l0-440c0-12 9-22 21-22 12 0 21 10 21 22l0 195c4-1 9-2 14-2 28 1 50 24 50 52l0 193c-1 29-24 52-53 52z m-139 0c-12 0-21-10-21-21l0-84c-1-17-9-34-21-46l0 130c0 11-10 21-22 21-12 0-21-10-21-21l0-130c-13 12-21 29-21 46l0 84c0 11-10 21-22 21-12 0-21-10-21-21l0-84c0-46 21-81 64-91l0-295c0-12 9-21 21-21 12 0 22 9 22 21l0 295c42 10 64 45 64 91l0 84c0 11-10 21-22 21z"/>
<glyph glyph-name="hands" unicode="&#83;" d="M408 167c-5-5-11-7-18-7-4 0-9 1-13 3 2-8 0-16-6-22-5-5-11-7-18-7-6 0-12 2-16 6 1-7-1-15-5-20-5-6-12-9-19-9-5 0-9 1-13 3 0-3 0-5-2-8-1-3-3-6-6-9 0 0-1-1-1-1l-1 0c-4-4-10-6-16-6-4 0-8 1-11 3l-9 6 20 24c6 8 9 18 8 29-2 10-8 19-17 24-7 7-17 9-27 8 0 9-4 19-12 25-8 6-18 9-28 7 1 10-4 20-12 26-7 6-17 8-27 7 0 10-4 19-12 25-17 15-37 21-55 2l-28-34-1-1-1 0c-2 1-3 2-4 4-10 8-43 30-53 38-5 3-6 9-4 13 10 21 20 41 29 60 5 11 10 21 15 33 1 2 3 5 6 6 3 0 6 0 8-2 13-9 27-17 41-24 9-5 20-8 30-10 6 0 12 0 18 1 5 1 10 2 15 3 1 0 2 1 2 1 3 0 5 1 8 2 0 0 0 0 1 1 0 0 1 0 2 0 10 3 21 5 31 7l-32-31c0-1-1-2-2-3-2-1-3-3-3-3-4-5-6-11-8-17l0 0c-2-29 17-54 45-60 4 0 8-1 12-1 17 0 33 6 46 16 7 5 14 11 21 16l1 1c1 2 3 3 5 4 0 0 0 0 0 1 0 0 0 0 0 0l1 1c2 0 3-1 5-1 2 0 5-1 7-3 2-1 4-2 5-4l4-3 3-3 9-9 5-6 10-10 8-8 1-1 56-48c5-4 8-10 9-17 0-7-2-14-7-18z m97 146c-10-8-50-38-60-47-6-6-16-14-23-20-1-1-2-1-3-2-1-1-1-1-2-1-1-1-2-1-3-1-1 0-3 1-4 1l-14 14-33 30-2 2-1 2-16 14c-4 4-8 8-13 12-1 1-3 3-4 4l-1 1c0 0-1 1-2 1l0 0c-4 3-9 5-14 7-3 0-5 1-8 1l-1 0c-7 0-14-2-19-6-2-1-4-3-5-5 0 0-1 0-1 0 0 0 0 0 0 0-2-2-4-3-6-5-7-6-14-11-20-16 0-1-1-1-1-1-8-5-17-8-26-9-3 0-6 1-8 1-12 3-20 13-20 25 1 2 1 3 2 4l1 1 2 2 2 2 30 29 3 4 32 32 8 8 2 0c4 4 10 5 15 5 11-1 21-4 31-8 7-2 14-4 21-6 9-2 19-4 28-4l5 0c21 2 58 28 70 37 1 1 4 2 6 2 2 0 4 0 5-1l1-2c1-1 2-2 3-4 5-10 11-21 16-31 10-20 21-40 31-59 2-5 0-11-4-13z m-371-84l-28-34-1 0c-6-8-17-9-25-3 0 1-1 1-2 1-1 2-2 3-3 5 0 1-1 1-1 2 0 1 0 2 0 3l0 6c0 1 0 2 0 2 1 2 1 3 2 4 0 0 0 1 0 1 0 0 0 0 1 0 0 1 0 1 0 1l28 34c7 8 18 9 26 2 0 0 1-1 1-1 0 0 1 0 1 0 0 0 0 0 0 0 0-1 1-1 1-2 0 0 0-1 1-1 0-1 0-1 0-1 1-1 1-2 1-2 0-1 0-1 0-2 3-5 2-11-2-15z m40-33l-27-31-2-3c-3-3-8-5-12-6-5 0-10 1-13 4-1 1-2 1-2 1-1 1-2 2-3 3l-1 4c0 0 0 1-1 1 0 1 0 1-1 1l0 5c0 1 1 2 1 3l0 1c1 2 2 3 3 5l1 1 27 33c3 4 8 6 12 6 5 1 10-1 14-4l1-1c0 0 0-1 0-1l2-1c0-1 0-1 1-2 0-1 1-2 1-3 0-1 0-1 0-2 3-4 2-10-1-14z m43-22l0-3c0-1 0-2 0-3 0 0-1-1-1-1 0-1-1-1-1-2-1-1-1-1-1-2l-25-29-4-5c-6-8-17-9-25-3 0 1-1 1-2 2-1 2-3 4-4 6 0 1 0 1 0 2-2 5 0 11 3 15l3 3 26 31c6 8 18 9 25 3 1-1 1-1 2-2 0 0 1 0 1-1 1 0 1-1 1-1l2-4c0 0 0-1 1-1l0-1c-1-1-1-3-1-4z m40-32l0-3c-1-1-1-2-1-3 0 0 0 0-1-1 0 0 0-1-1-1 0-1-1-2-1-2l-22-28-6-7c-7-7-18-8-26-2 0 1-1 1-1 1 0 0-1 0-1 0 0 0 0 1 0 1 0 0 0 0 0 1-1 0-1 1-2 2 0 0 0 0 0 1-1 0-1 1-1 2 0 0 0 1 0 1-2 6 0 11 3 16l5 5 24 29c3 3 7 6 12 6 5 1 10-1 13-4 1 0 1-1 2-1 1 0 1-1 1-2 1 0 1 0 1-1 0-1 0-1 0-1l0-1c0 0 1 0 1-1 0 0 0-1 1-1 0 0 0-1 0-1l0-1c0-1 0-3 0-4z"/>
<glyph glyph-name="perfume" unicode="&#82;" d="M385 361l-78 0 0 51c14 0 27 11 27 27 0 15-11 26-27 26l-6 0 6 51-104 0 6-51-6 0c-14 0-25-9-27-22 0 0 0-2 0-2 0-14 11-27 27-27l0-51-78 0c-14 0-25-9-27-22 0 0 0-3 0-3l0-307c0-13 9-24 22-27 0 0 2 0 2 0l261 0c13 0 24 9 27 23 0 0 0 2 0 2l0 305c0 13-9 24-23 27 0 0 0 0-2 0z m-202-185c-18 22-9 53 6 67 16 17 43 17 60 4 3-2 5-4 7-7 16 18 42 20 60 7 2-2 5-4 7-7 13-17 20-42 9-64-9-16-72-76-72-76"/>
<glyph glyph-name="minus" unicode="&#85;" d="M312 295l-312 0 0-128 497 0 0 128z"/>
<glyph glyph-name="clipboard" unicode="&#48;" d="M316 482l-30 0c0 18-12 30-30 30-18 0-30-12-30-30l-30 0c-15 0-30-9-30-27 0 0 0-3 0-3l0-45c0-9 6-15 15-15l150 0c9 0 15 6 15 15l0 45c3 15-9 27-24 30 0 0-3 0-6 0z m60-30l0-76c0-9-6-15-15-15l-210 0c-9 0-15 6-15 15l0 76-61 0c-18 0-30-12-30-30l0-392c0-18 12-30 30-30l362 0c18 0 30 12 30 30l0 392c0 18-12 30-30 30z m-3-196l-132-136c-6-6-15-6-18 0l-81 76c-6 6-6 15 0 18l18 18c6 6 15 6 18 0l51-48 105 105c6 6 15 6 18 0l18-18c6 0 6-9 3-15z"/>
<glyph glyph-name="broken-heart" unicode="&#50;" d="M400 461c-44 4-84-17-111-51l49-99-63-33-16-8c-8-4-15-8-16-9 0 0 6-8 14-17l13-16 0 0 46-53-58-124c85 67 238 153 250 283 5 66-41 122-108 127z m-396-128c-5 66 41 121 108 127 44 4 84-17 111-52l66-88-85-66 87-71-37-133c-85 67-238 153-250 283z"/>
<glyph glyph-name="twitter" unicode="&#106;" d="M499 405c-8-5-33-14-55-16 14 8 36 34 41 54-14-9-46-22-62-22 0 0 0 0 0 0-18 19-43 31-72 31-55 0-99-45-99-100 0-7 1-15 2-22l0 0c-74 2-161 40-210 103-30-52-4-110 30-131-12-1-33 1-44 11 0-34 16-80 77-97-12-6-32-5-41-3 3-29 44-68 89-68-16-18-71-51-138-41 46-28 99-44 155-44 161 0 285 130 279 291 0 0 0 0 0 0 0 0 0 1 0 1 0 1 0 1 0 2 14 10 34 27 48 51z"/>
<glyph glyph-name="tools" unicode="&#108;" d="M306 280l116 117 6-6 26 18 58 74-15 15-14 14-74-58-18-26 6-6-117-116c-21 21-42 41-59 59-4 3-6 9-5 14 2 6 2 13 2 20 0 61-49 111-111 111-29 0-57-12-78-33-8-8-15-17-20-27-1-2-1-5 0-8 2-2 4-4 7-4l87 0c6 0 11-3 14-8l13-23c3-5 3-11 0-16l-13-24c-1-1-2-2-3-3-3-3-7-5-11-5l-87 0c-2 0-4-1-6-2 0-1 0-1-1-2-1-2-1-5 0-7 19-37 57-60 98-60 7 0 14 0 20 2 5 1 11-1 15-5 8-9 19-20 32-32l-157-157c-11-10-17-25-17-39 0-15 6-30 17-40 10-11 24-17 39-17 15 0 30 6 40 17l157 157c75-75 153-154 155-155 22-22 57-22 79 0l0 0c22 22 22 57 0 79z m-235-237c-8-7-20-7-28 0-7 8-7 20 0 28 8 7 20 7 28 0 3-4 5-9 5-14 0-5-2-10-5-14z m389 3c-7-7-18-7-25 0-7 7-7 18 0 25 7 7 18 7 25 0 3-3 5-8 5-12 0-5-2-10-5-13z"/>
<glyph glyph-name="stroller" unicode="&#72;" d="M498 323l-64 0-34-42c-8-11-14-23-19-35l-10-58c-6-15-21-25-37-24l-276 0c-16-1-31 9-37 24l-21 99 369 0 47 56c3 3 7 5 12 5l71 0c3 1 7-1 9-3 3-2 4-5 4-9-1-7-7-13-14-13z m-436 107l143 62 0 0 0-205-205 0z m61-287c34 0 61-27 61-61 0-34-27-62-61-62-34 1-62 28-62 62 0 34 28 61 62 61z m0-82c11 0 20 9 20 21 0 11-9 20-20 20-11 0-20-9-20-20 0-12 9-21 20-21z m164 82c34 0 61-27 61-61 0-34-28-62-61-62-34 1-62 28-62 62 0 34 28 61 62 61z m0-82c11 0 20 9 20 21 0 11-9 20-20 20-11 0-21-9-21-20 0-12 9-21 21-21z"/>
<glyph glyph-name="quotes" unicode="&#79;" d="M0 201c0-88 58-137 123-137 59 0 109 48 109 106 0 57-42 96-94 96-11 0-24-1-28-4 13 48 64 105 108 127l-76 59c-85-58-142-147-142-247z m422 247l77-59c-44-22-96-79-107-127 4 3 16 4 27 4 51 0 93-39 93-96 0-58-49-106-109-106-65 0-122 49-122 137 0 100 56 189 141 247z"/>
<glyph glyph-name="plus" unicode="&#86;" d="M312 327l0 185-128 0 0-185-184 0 0-128 184 0 0-184 128 0 0 184 185 0 0 128z"/>
<glyph glyph-name="wallet" unicode="&#88;" d="M427 497c17 0 31-14 31-32l0-93c17 0 31-13 31-31l0-310c0-17-14-31-31-31l-404 0c-17 0-31 14-31 31l0 310c0 18 14 31 31 31z m-373-171l0-279c0-9 7-16 16-16l372 0c9 0 16 7 16 16l0 77-78 0c-8 0-15 7-15 16l0 62c0 8 7 15 15 15l78 0 0 109c0 8-7 15-16 15l-372 0c-9 0-16-7-16-15z m373 46l0 78c0 9-7 15-16 15l-256-93z m-31-201c0-9 7-16 15-16l31 0c9 0 16 7 16 16 0 8-7 15-16 15l-31 0c-8 0-15-7-15-15z"/>
<glyph glyph-name="tag" unicode="&#49;" d="M502 264l-224 225c-7 7-16 11-26 12l-211 11c-21 2-40-14-41-36l0-5 13-210c0-9 4-18 11-24l223-225c7-8 17-12 27-12 10 0 20 4 27 12l199 198c15 15 16 39 2 54z m-287 33c-15-15-37-19-56-11-19 8-32 27-32 48 0 21 13 39 32 47 19 8 41 4 56-11 10-9 15-23 15-36 0-14-5-27-15-37z"/>
<glyph glyph-name="lock-pin" unicode="&#51;" d="M396 0l-280 0c-37 0-66 30-66 66l0 198c0 37 29 66 66 66l0 66c0 64 51 116 115 116l50 0c64 0 115-52 115-116l0-66c37 0 66-29 66-66l0-198c0-36-29-66-66-66z m-140 83c25 0 47 16 55 40 8 23-1 50-21 64l-9 36c0 14-11 25-25 25-14 0-25-11-25-25l-9-36c-20-14-29-41-21-64 8-24 30-40 55-40z m91 302c0 42-33 77-75 77l-32 0c-42 0-75-35-75-77l0-55 182 0z"/>
<glyph glyph-name="coin" unicode="&#52;" d="M256 512c141 0 256-115 256-256 0-141-115-256-256-256-141 0-256 115-256 256 0 141 115 256 256 256z m-142-199l57-142 170 0 57 142-85-57-57 85-57-85z"/>
<glyph glyph-name="tshirt" unicode="&#107;" d="M477 302l-69 0c-8-5-13-13-12-23l0-256-256 0 0 256c-10 11-22 19-36 22l-70 0-34 116 143 71c10-48 61-78 109-78 49 0 101 30 112 79l148-71z"/>
<glyph glyph-name="camera" unicode="&#55;" d="M486 69l-460 0c-15 1-26 12-26 26l0 257c0 15 11 26 26 26l76 0c25 0 52 65 76 65l155 0c26 0 50-65 81-65l72 0c15 0 26-11 26-26l0-257c0-14-11-25-26-26z m-416 271c-13 0-24-8-29-20-5-12-3-26 6-35 10-9 24-12 36-7 12 5 19 16 19 29 1 18-14 33-32 33z m186 0c-47 0-89-28-107-71-18-44-9-94 24-127 33-33 83-43 127-25 43 18 71 60 71 107 0 64-51 115-115 116z m0-206c-36 0-69 21-83 55-14 34-7 72 19 98 26 26 64 34 98 20 34-14 56-47 56-83 0-50-40-90-90-90z"/>
<glyph glyph-name="image" unicode="&#56;" d="M412 125l-325 0c-20 0-37 17-37 37l0 250c0 21 17 38 37 38l325 0c21 0 38-17 38-38l0-250c0-20-17-37-38-37z m13 287c0 7-6 13-13 13l-325 0c-6 0-12-6-12-13l0-250c0-7 6-12 12-12l325 0c7 0 13 5 13 12z m-279-136l35-39 46 90 46-64 59 112 58-188-279 0z m15 49c-13 0-25 11-25 25 0 14 12 25 25 25 14 0 25-11 25-25 0-6-2-13-7-17-5-5-11-8-18-8z"/>
<glyph glyph-name="card-1" unicode="&#57;" d="M0 298l0-218c0-19 13-32 32-32l448 0c19 0 32 16 32 32l0 218c0 9-6 16-16 16l-480 0c-10 0-16-7-16-16z m448-167c0-9-6-16-16-16l-64 0c-10 0-16 7-16 16l0 32c0 10 6 16 16 16l64 0c10 0 16-6 16-16z m64 250l0 51c0 19-13 32-32 32l-448 0c-19 0-32-16-32-32l0-51c0-10 6-16 16-16l480 0c10 0 16 6 16 16z m-208-250c0-9-6-16-16-16l-208 0c-10 0-16 7-16 16l0 32c0 10 6 16 16 16l208 0c10 0 16-6 16-16z"/>
<glyph glyph-name="eye" unicode="&#33;" d="M261 96c-180 0-261 162-261 160 0-6 81 160 261 160 179 0 261-164 261-160 0 2-82-160-261-160z m-5 224c-35 0-64-29-64-64 0-35 29-64 64-64 35 0 64 29 64 64 0 35-29 64-64 64z"/>
<glyph glyph-name="overview" unicode="&#34;" d="M30 407l452 0c17 0 30-14 30-31 0-16-13-30-30-30l-452 0c-17 0-30 14-30 30 0 17 13 31 30 31z m0-121l271 0c17 0 30-13 30-30 0-17-13-30-30-30l-271 0c-17 0-30 13-30 30 0 17 13 30 30 30z m0-120l362 0c16 0 30-14 30-30 0-17-14-31-30-31l-362 0c-17 0-30 14-30 31 0 16 13 30 30 30z"/>
<glyph glyph-name="key" unicode="&#35;" d="M366 110c-72 0-133 52-144 122-1 0-2 0-3 0l-73 0 0-49c0-14-11-25-24-25-14 0-24 11-24 25l0 49-49 0 0-49c0-14-11-25-25-25-13 0-24 11-24 25l0 73c0 13 11 24 24 24l195 0c1 0 2 0 3 0 12 77 83 130 160 121 77-8 134-76 130-153-4-78-69-138-146-138z m0 244c-54 0-98-44-98-98 0-54 44-98 98-98 54 0 97 44 97 98 0 54-43 98-97 98z"/>
<glyph glyph-name="help" unicode="&#36;" d="M256 0c-141 0-256 115-256 256 0 141 115 256 256 256 141 0 256-115 256-256 0-141-115-256-256-256z m-19 109c16-12 38-12 54 0 7 7 11 16 11 25 0 9-4 18-11 25-16 13-38 13-54 0-7-7-11-15-11-25 0-9 4-18 11-25z m100 272c-20 15-45 23-70 21-26 2-51-7-71-23-17-16-26-39-25-63l68 0c0 9 3 17 8 24 5 6 12 10 20 9 8 1 16-3 21-9 5-6 7-14 5-21 1-9-2-17-8-23-6-9-14-17-22-24-10-7-17-18-22-29-5-15-7-31-7-47l58 0c0 9 2 17 5 25 3 8 7 15 13 20l24 22c8 8 16 17 21 28 5 10 7 20 7 31 1 22-8 44-25 59z"/>
<glyph glyph-name="warning" unicode="&#37;" d="M256 0c-141 0-256 115-256 256 0 141 115 256 256 256 141 0 256-115 256-256 0-141-115-256-256-256z m0 89c18 0 33 15 33 33 0 19-15 34-33 34-18 0-33-15-33-34 0-18 15-33 33-33z m0 312c-31 0-56-26-55-57l27-112c-1-8 2-16 7-21 6-6 13-9 21-8 8-1 16 2 21 7 6 6 8 14 7 22l27 112c1 31-24 57-55 57z"/>
<glyph glyph-name="arrow-long" unicode="&#38;" d="M356 239l-90-92 49-48 170 174-171 171-48-48 89-89-355 0 0-68z"/>
<glyph glyph-name="youtube" unicode="&#39;" d="M499 379c11-40 10-123 10-123 0 0 0-83-10-123-6-22-23-39-45-45-40-10-199-10-199-10 0 0-159 0-200 11-21 5-39 23-45 44-10 40-10 123-10 123 0 0 0 83 10 123 6 21 24 39 45 45 40 10 200 10 200 10 0 0 159 0 199-11 22-5 39-23 45-44z m-295-199l133 76-133 76z"/>
<glyph glyph-name="gear-outline" unicode="&#87;" d="M397 368c-7-4-16-3-22 2-21 21-47 37-76 44-8 2-13 9-13 17l0 36-60 0 0-36c0-8-5-15-13-17-29-7-55-23-76-44-6-5-15-6-22-2l-31 18-29-52 31-17c7-5 10-13 8-21-4-14-6-28-6-43 0-15 2-30 6-44 2-8-1-16-8-20l-31-18 29-51 31 18c7 4 16 3 22-3 21-21 47-36 76-44 8-2 13-9 13-17l0-36 60 0 0 36c0 8 5 15 13 17 29 8 55 23 76 44 6 6 15 7 22 3l31-18 29 51-31 18c-7 4-10 12-8 20 4 14 6 29 6 44 0 15-2 29-6 43-2 8 1 16 8 21l31 17-29 52z m-7 37l35 20c9 5 20 2 25-6l47-82c5-9 2-20-6-25l-35-20c2-13 4-26 4-39 0-14-2-27-4-40l35-20c8-5 11-16 6-24l-47-82c-5-9-16-12-25-7l-35 20c-20-17-43-31-69-39l0-40c0-10-8-18-17-18l-96 0c-9 0-17 8-17 18l0 40c-26 8-49 22-69 39l-35-20c-9-5-20-2-25 7l-47 82c-5 8-2 19 6 24l35 20c-2 13-4 26-4 40 0 13 2 26 4 39l-35 20c-8 5-11 16-6 25l47 82c5 8 16 11 25 6l35-20c20 18 43 31 69 40l0 40c0 10 8 18 17 18l96 0c9 0 17-8 17-18l0-40c26-9 49-22 69-40z m-134-265c-62 0-113 50-113 113 0 62 51 113 113 113 62 0 113-51 113-113 0-63-51-113-113-113z m0 35c42 0 77 35 77 78 0 42-35 77-77 77-42 0-77-35-77-77 0-43 35-78 77-78z"/>
<glyph glyph-name="house-outline" unicode="&#89;" d="M34 57l0 235c0 15 6 28 16 38l171 161c20 19 50 19 70 0l171-161c10-10 16-23 16-38l0-235c0-28-23-51-51-51l-69 0c-28 0-51 23-51 51l0 102c0 10-7 17-17 17l-68 0c-10 0-17-7-17-17l0-102c0-28-23-51-51-51l-69 0c-28 0-51 23-51 51z m120-17c9 0 17 7 17 17l0 102c0 29 23 51 51 51l68 0c28 0 51-22 51-51l0-102c0-10 8-17 17-17l69 0c9 0 17 7 17 17l0 235c0 5-2 10-6 13l-170 161c-7 6-17 6-24 0l-170-161c-4-3-6-8-6-13l0-235c0-10 8-17 17-17z"/>
<glyph glyph-name="period-outline" unicode="&#90;" d="M161 423l190 0c9 0 16-8 16-17 0-9-7-16-16-16l-190 0c-9 0-16 7-16 16 0 9 7 17 16 17z m0-78l112 0c9 0 16-7 16-17 0-9-7-16-16-16l-112 0c-9 0-16 7-16 16 0 10 7 17 16 17z m78-223l112 0c9 0 16-7 16-16 0-9-7-17-16-17l-112 0c-9 0-16 8-16 17 0 9 7 16 16 16z m-128 351c-9 0-16-7-16-17l0-400c0-10 7-17 16-17l290 0c9 0 16 7 16 17l0 400c0 10-7 17-16 17z m0 33l290 0c27 0 50-22 50-50l0-400c0-28-23-50-50-50l-290 0c-27 0-50 22-50 50l0 400c0 28 23 50 50 50z"/>
<glyph glyph-name="badge-outline" unicode="&#40;" d="M230 499c13 6 28 6 41 0l162-74c17-8 29-26 29-46l0-112c0-88-39-157-104-206-23-18-46-32-70-42-9-4-17-7-24-10-2-1-5-1-6-2-2 0-2 0-2-1-4-1-7-1-10 0-62 16-112 58-149 116-29 46-47 99-47 134l0 134c0 20 12 38 31 46z m23-458c6 2 13 5 21 8 22 10 43 22 64 38 57 44 91 103 91 180l0 112c0 7-4 13-10 15l-162 74c-5 2-9 2-14 1l-149-64c-7-3-11-9-11-15l0-134c0-28 16-76 42-116 32-50 74-85 125-100 1 0 2 0 3 1z m-21 182l86 98c6 7 15 7 21 2 7-6 7-15 2-22l-96-110c-6-7-15-7-22-2-1 1-1 2-2 3l-49 44c-6 5-6 15-1 21 6 6 15 7 22 1z"/>
<glyph glyph-name="invoices-outline" unicode="&#41;" d="M111 473c-9 0-16-7-16-17l0-400c0-10 7-17 16-17l290 0c9 0 16 7 16 17l0 400c0 10-7 17-16 17z m0 33l290 0c27 0 50-22 50-50l0-400c0-28-23-50-50-50l-290 0c-27 0-50 22-50 50l0 400c0 28 23 50 50 50z m34-72l22 0c12 0 22-10 22-22l0-22c0-13-10-23-22-23l-22 0c-13 0-23 10-23 23l0 22c0 12 10 22 23 22z m0-22l0-22 22 0 0 22z m100 0l122 0c6 0 11-5 11-11 0-6-5-11-11-11l-122 0c-6 0-11 5-11 11 0 6 5 11 11 11z m-100-89l22 0c12 0 22-10 22-22l0-23c0-12-10-22-22-22l-22 0c-13 0-23 10-23 22l0 23c0 12 10 22 23 22z m0-22l0-23 22 0 0 23z m100 0l122 0c6 0 11-5 11-12 0-6-5-11-11-11l-122 0c-6 0-11 5-11 11 0 7 5 12 11 12z m-100-90l22 0c12 0 22-9 22-22l0-22c0-12-10-22-22-22l-22 0c-13 0-23 10-23 22l0 22c0 13 10 22 23 22z m0-22l0-22 22 0 0 22z m100 0l122 0c6 0 11-5 11-11 0-6-5-11-11-11l-122 0c-6 0-11 5-11 11 0 6 5 11 11 11z"/>
<glyph glyph-name="cart-outline" unicode="&#42;" d="M40 322l31-228c3-21 23-38 44-38l283 0c21 0 41 17 44 38l31 228c3 19-10 34-29 34l-374 0c-20 0-33-15-30-34z m361 68l43 0c39 0 68-33 62-72l-31-228c-5-38-39-68-77-68l-283 0c-38 0-72 30-77 68l-31 228c-6 39 23 72 63 72l43 0 90 90c7 7 17 7 24 0 7-6 7-17 0-23l-67-67 193 0-67 67c-16 15 8 39 24 23z m-160-111l0-149c0-9 7-17 16-17 10 0 17 8 17 17l0 149c0 9-7 17-17 17-9 0-16-8-16-17z m111-11l0-127c0-9 8-16 17-16 9 0 16 7 16 16l0 127c0 9-7 17-16 17-9 0-17-8-17-17z m-223 0l0-127c0-9 8-16 17-16 9 0 17 7 17 16l0 127c0 9-8 17-17 17-9 0-17-8-17-17z"/>
<glyph glyph-name="lock-outline" unicode="&#43;" d="M70 297c-10 0-18-8-18-18l0-221c0-9 8-17 18-17l372 0c10 0 18 8 18 17l0 221c0 10-8 18-18 18z m0 35l372 0c29 0 53-24 53-53l0-221c0-29-24-52-53-52l-372 0c-29 0-53 23-53 52l0 221c0 29 24 53 53 53z m171-178c1-1 2-2 3-4 1-2 1-5 1-7-1-2-1-2-1-3-3-6-11-8-16-5-3 2-5 3-7 5 0 3 0 6 1 8 2 7 8 10 14 9 1-1 2-1 3-1 1-1 2-1 2-2 1-1 2-2 3-4 1-2 1-5 1-8-1-1-1-1-1-2l0-24c0-6 6-11 12-11 6 0 12 5 12 11l0 24c0 1 0 2-1 3-1 5 1 10 6 13 11 6 18 17 18 30 0 19-16 35-35 35-19 0-35-16-35-35 0-13 7-24 18-30 1-1 1-1 2-2z m-43 32c0 32 26 58 58 58 32 0 58-26 58-58 0-18-9-36-23-46l0-24c0-19-16-35-35-35-19 0-35 16-35 35l0 24c-14 10-23 28-23 46z m208 206c2-9-3-19-12-22-9-3-19 2-22 12-16 53-63 89-116 89-67 0-122-58-122-130l0-15c0-10-8-18-18-18-9 0-17 8-17 18l0 15c0 91 70 165 157 165 69 0 129-47 150-114z"/>
<glyph glyph-name="credits-outline" unicode="&#44;" d="M256 6c-138 0-250 112-250 250 0 138 112 250 250 250 138 0 250-112 250-250 0-138-112-250-250-250z m0 35c119 0 215 96 215 215 0 119-96 215-215 215-119 0-215-96-215-215 0-119 96-215 215-215z m-45 144c-8 8-12 16-13 28-1 7 4 14 11 15 1 0 1 0 2 0 0 0 0 0 0 0l3 0c7 0 13-5 14-12 1-6 3-10 7-13 4-5 11-7 21-7 9 0 16 2 21 6 4 3 7 8 7 15 0 6-2 10-6 14-5 4-13 8-24 11-17 5-30 12-38 20-8 9-12 20-12 33 0 13 4 24 12 33 7 8 17 13 29 15l0 4c0 8 6 14 13 14 8 0 13-6 13-14l0-5c13-2 23-7 30-16 6-7 9-16 11-27 1-8-4-15-12-16-1 0-1 0-2 0-8 0-15 5-17 13-1 6-3 10-5 13-5 5-10 8-18 8-8 0-14-2-18-6-4-4-6-9-6-16 0-6 2-11 6-14 5-4 13-8 24-11 12-4 22-8 29-13 7-5 12-10 16-17 3-7 5-14 5-23 0-13-4-25-13-33-8-8-18-12-32-14l0-5c0-8-5-14-13-14-7 0-13 6-13 14l0 5c-13 2-24 7-32 15z"/>
<glyph glyph-name="documents-outline" unicode="&#45;" d="M127 319c-1 3-2 5-2 8l0 24c0 10 8 18 18 18 0 0 8 0 24 0 10 0 18-8 18-18l0-22 220 39c4 1 8 1 12 1l0 83c0 10-8 18-18 18l-286 0c-10 0-18-8-18-18l0-139z m325 34c8-8 13-17 15-28l35-200c5-29-14-57-43-62l-7-1c-5-25-27-44-53-44l-197 0-95-17c-29-5-57 14-62 44l-35 199c-5 29 14 57 43 62l7 1 0 145c0 30 24 54 53 54l286 0c29 0 53-24 53-54z m-393-82c-9-2-16-11-14-21l35-199c2-10 11-16 21-15l352 62c9 2 16 11 14 21l-35 199c-2 10-11 17-21 15z m108 170c10 0 18-8 18-18l0-24c0-10-8-18-18-18l-24 0c-10 0-18 8-18 18l0 24c0 10 8 18 18 18 0 0 8 0 24 0z m-18-24l0-12 12 0 0 12z m0-72l0-12 12 0 0 12z m22-99c13 2 26-6 28-19l10-59c3-13-6-25-19-28l-59-10c-13-2-25 6-27 19l-11 59c-2 13 7 25 20 28z m-54-34l10-59 59 11-10 58z m131 50l129 23c10 1 19-5 21-15 2-10-5-19-14-21l-129-22c-10-2-19 4-21 14-2 10 5 19 14 21z m13-71l129 23c10 2 19-5 21-14 1-10-5-19-15-21l-129-23c-10-1-19 5-21 15-1 9 5 19 15 20z"/>
<glyph glyph-name="snap-outline" unicode="&#46;" d="M111 473c-9 0-16-7-16-17l0-400c0-10 7-17 16-17l290 0c9 0 16 7 16 17l0 400c0 10-7 17-16 17z m0 33l290 0c27 0 50-22 50-50l0-400c0-28-23-50-50-50l-290 0c-27 0-50 22-50 50l0 400c0 28 23 50 50 50z m84-233l122 0c9 0 17-8 17-17 0-9-8-17-17-17l-122 0c-9 0-17 8-17 17 0 9 8 17 17 17z m78 44l0-122c0-9-8-17-17-17-9 0-17 8-17 17l0 122c0 9 8 17 17 17 9 0 17-8 17-17z"/>
<glyph glyph-name="tags-outline" unicode="&#47;" d="M460 331c26-1 47-22 47-48l0-182c0-26-22-48-48-48l-320 0c-27 0-48 22-48 48l0 43c0 8 6 15 14 16 5 1 9 2 13 5l-74 20c-25 7-41 33-34 59l11 41c3 8 10 13 18 12 16-3 32 7 36 23 4 16-4 32-19 38-8 3-12 11-10 19l11 42c7 25 33 41 59 34l309-83c19-5 32-21 35-39z m-369-46c-11-12-26-19-42-20l-8-30c-2-8 3-17 12-19l80-22c-1 15-13 28-28 30-8 1-14 8-14 16l0 43c0 0 0 1 0 2z m16 34c9 7 20 12 32 12l288 0c-2 4-6 7-10 8l-309 83c-9 2-18-3-20-12l-8-29c20-13 31-38 27-62z m16-218c0-9 7-16 16-16l320 0c9 0 16 7 16 16l0 182c0 9-7 16-16 16l-320 0c-9 0-16-7-16-16l0-31c25-8 42-32 42-60 0-28-17-52-42-60z m148 103c-15 0-27 12-27 26 0 15 12 27 27 27 15 0 27-12 27-27 0-14-12-26-27-26z m0 21c3 0 5 2 5 5 0 3-2 6-5 6-3 0-5-3-5-6 0-3 2-5 5-5z m77-98c-15 0-27 12-27 27 0 14 12 26 27 26 14 0 26-12 26-26 0-15-12-27-26-27z m0 21c3 0 5 3 5 6 0 3-2 5-5 5-3 0-6-2-6-5 0-3 3-6 6-6z m18 101c4-5 4-11 0-16l-98-98c-4-4-11-4-15 0-4 5-4 11 0 16l98 98c4 4 11 4 15 0z"/>
<glyph glyph-name="cards-outline" unicode="&#58;" d="M415 369l-183-49 196 0z m-14 54l-3 11c-3 9-12 14-21 12l-322-87c-9-2-14-11-12-20l3-11z m-341-149l8-30 0 26c0 2 0 4 1 7z m403 45c23-5 39-25 39-49l0-189c0-28-22-50-50-50l-334 0c-27 0-50 22-50 50l0 49c-4 5-7 11-8 17l-49 183c-7 27 8 54 35 62l323 86c26 7 54-9 61-35z m-345-32c-9 0-16-8-16-17l0-189c0-9 7-17 16-17l334 0c10 0 17 8 17 17l0 189c0 9-7 17-17 17z m34-162l33 0c6 0 11-5 11-11 0-6-5-11-11-11l-33 0c-6 0-11 5-11 11 0 6 5 11 11 11z m78 0l33 0c6 0 11-5 11-11 0-6-5-11-11-11l-33 0c-6 0-11 5-11 11 0 6 5 11 11 11z m78 0l33 0c6 0 11-5 11-11 0-6-5-11-11-11l-33 0c-7 0-12 5-12 11 0 6 5 11 12 11z m78 0l33 0c6 0 11-5 11-11 0-6-5-11-11-11l-33 0c-7 0-12 5-12 11 0 6 5 11 12 11z m-223 89l22 0c12 0 22-10 22-22l0-22c0-12-10-22-22-22l-22 0c-12 0-22 10-22 22l0 22c0 12 10 22 22 22z m0-22l0-22 22 0 0 22z"/>
<glyph glyph-name="mobile" unicode="&#103;" d="M378 512l-244 0c-23 0-42-19-42-43l0-426c0-24 19-43 42-43l244 0c12 0 22 5 30 13 8 8 12 18 12 30l0 426c0 11-4 22-12 30-8 8-18 13-30 13z m-122-492c-13 2-22 14-20 27 0 14 9 12 20 12 12 0 21 2 21-12 1-13-8-25-21-27z m123 72c-1-3-2-5-4-7-2-2-5-3-7-3l-223 0c-6 0-11 4-12 10l0 369c1 6 6 10 12 10l223 0c2 0 5-1 7-3 2-2 3-4 4-7l0-369z"/>
<glyph glyph-name="headphones-outline" unicode="&#111;" d="M324 39c0-1 0-3 0-5 0-19-15-34-34-34l-68 0c-19 0-34 15-34 34 0 19 15 34 34 34l68 0c7 0 13-2 18-5 63 8 100 32 117 67 6 13 10 27 10 41l-4 0c-21 0-38 17-38 39l0 92c0 22 17 39 38 39l1 0c-3 20-9 39-18 57-27 55-76 88-153 88-77 0-128-33-158-89-10-17-17-36-21-56 21 0 37-18 37-39l0-92c0-22-17-39-38-39l-26 0c-21 0-38 17-38 39l0 92c0 22 17 39 38 39l1 0c5 24 13 47 25 69 35 63 94 102 180 102 87 0 144-39 175-103 11-21 18-45 21-68 21 0 38-18 38-39l0-92c0-20-15-37-34-39-1-17-5-35-13-52-20-41-60-69-124-80z m-273 257l0-80c0-6 4-11 9-11l17 0c5 0 8 5 8 11l0 80c0 6-4 11-8 11l-17 0c-5 0-9-5-9-11z m376 0l0-80c0-6 4-11 8-11l17 0c5 0 9 5 9 11l0 80c0 6-4 11-9 11l-17 0c-5 0-8-5-8-11z"/>
<glyph glyph-name="envelope-outline" unicode="&#118;" d="M50 415l-4 0c-10 0-18-8-18-19l0-280c0-11 8-19 18-19l420 0c10 0 18 8 18 19l0 280c0 11-8 19-18 19l-4 0-167-171c-22-20-56-20-78 0z m-50-19c0 26 21 48 46 48l420 0c25 0 46-22 46-48l0-280c0-26-21-48-46-48l-420 0c-25 0-46 22-46 48z m419 19l-326 0 142-149c12-11 30-11 42 0z"/>
<glyph glyph-name="house" unicode="&#121;" d="M494 291l-238 181-238-181-18 25 256 196 256-196z m-238 150l-205-159 0-282 154 0 0 154 102 0 0-154 154 0 0 282z"/>
</font>
</defs>
</svg>
