<?xml version="1.0" standalone="no"?>
<!DOCTYPE svg PUBLIC "-//W3C//DTD SVG 1.1//EN" "http://www.w3.org/Graphics/SVG/1.1/DTD/svg11.dtd" >
<svg xmlns="http://www.w3.org/2000/svg">
<metadata></metadata>
<defs>
<font id="webfontregular" horiz-adv-x="1024" >
<font-face units-per-em="2048" ascent="1638" descent="-410" />
<missing-glyph horiz-adv-x="452" />
<glyph horiz-adv-x="0" />
<glyph unicode="&#xd;" horiz-adv-x="452" />
<glyph horiz-adv-x="0" />
<glyph horiz-adv-x="0" />
<glyph unicode=" "  horiz-adv-x="452" />
<glyph unicode="&#x09;" horiz-adv-x="452" />
<glyph unicode="&#xa0;" horiz-adv-x="452" />
<glyph unicode="!" horiz-adv-x="415" d="M98 100q0 25 9.5 45.5t23.5 35t34.5 23.5t43.5 9t42 -9t34.5 -23.5t23.5 -35t8 -45.5t-8 -44t-23.5 -34.5t-35 -23.5t-41.5 -8q-23 0 -43.5 8t-34.5 23.5t-23.5 34.5t-9.5 44zM117 1257h184l-37 -862h-112z" />
<glyph unicode="&#x22;" horiz-adv-x="542" d="M82 809v448h135v-448h-135zM326 809v448h135v-448h-135z" />
<glyph unicode="#" horiz-adv-x="1177" d="M47 360l27 121h198l70 295h-209l23 121h215l86 360h137l-88 -360h291l88 360h137l-86 -360h194l-24 -121h-199l-69 -295h209l-25 -121h-213l-86 -360h-139l86 360h-291l-86 -360h-135l86 360h-197zM408 481h290l70 295h-291z" />
<glyph unicode="$" horiz-adv-x="978" d="M55 340h158q33 -96 108.5 -142t182.5 -46q57 0 105 13t82 38.5t53.5 63.5t19.5 87q0 70 -42 115t-142 72l-209 55q-61 14 -113.5 40t-90.5 62.5t-59.5 88t-21.5 118.5q0 76 28.5 138.5t80 105.5t120.5 68q53 18 117 22v184h139v-190q31 -6 60 -14q74 -23 128 -64 t90 -98.5t52 -128.5h-151q-29 78 -95.5 129t-183.5 51q-53 0 -97 -13.5t-76 -38t-49.5 -60t-17.5 -81.5q0 -39 12.5 -66.5t37 -50t59.5 -38t80 -27.5l198 -51q141 -37 217 -116t76 -206q0 -80 -30.5 -144t-85 -108.5t-129.5 -68.5q-45 -14 -95 -21v-200h-139v202 q-127 12 -221 78q-121 84 -156 242z" />
<glyph unicode="%" horiz-adv-x="1314" d="M68 1004q0 55 20.5 105t58 87t87 58.5t106.5 21.5q55 0 105.5 -21.5t87 -58.5t58 -87t21.5 -105q0 -57 -21.5 -106.5t-58 -86.5t-87 -58.5t-105.5 -21.5q-57 0 -106.5 21.5t-87 58.5t-58 86t-20.5 107zM188 1004q0 -33 12.5 -59.5t32 -47t47 -33t60.5 -12.5 q31 0 58.5 12.5t48 33t33 47t12.5 59.5q0 63 -45.5 107t-106.5 44q-33 0 -60.5 -11t-47 -32.5t-32 -49t-12.5 -58.5zM201 0l784 1257h127l-782 -1257h-129zM702 254q0 57 21.5 106.5t58.5 86t86.5 58t106.5 21.5t106 -21.5t86 -58t58.5 -86t21.5 -106.5t-21.5 -106.5 t-58.5 -86t-86 -58t-106 -21.5t-106.5 21.5t-86.5 58t-58.5 86t-21.5 106.5zM821 254q0 -63 45 -107.5t109 -44.5q31 0 58.5 11.5t48 33t32.5 49t12 58.5t-12 58.5t-32.5 48t-48 33t-58.5 12.5t-58.5 -12.5t-49 -33t-34 -48t-12.5 -58.5z" />
<glyph unicode="&#x26;" horiz-adv-x="1198" d="M80 367q0 72 26.5 135t72.5 112.5t108 81.5q10 6 22 13q-31 39 -53.5 76.5t-34.5 79.5t-12 93q0 74 26.5 132.5t72.5 100.5t108.5 63.5t136.5 21.5q80 0 141.5 -23.5t103.5 -64.5t65.5 -97.5t25.5 -119.5h-154q-4 78 -51 129t-131 51q-82 0 -138.5 -49t-56.5 -139 q0 -70 40 -124.5t96 -111.5l350 -375q16 35 28 74q29 96 33 205h144q-4 -123 -43 -240q-27 -76 -66 -141l236 -250h-203l-123 131q-57 -57 -131 -96q-102 -53 -232 -53q-90 0 -164.5 28.5t-128 79.5t-84 122t-30.5 155zM227 367q0 -55 19.5 -102.5t53.5 -81t82 -52 t105 -18.5q98 0 175 39q57 29 100 73l-365 387q-12 -4 -24 -10q-43 -20 -76 -56t-51.5 -82t-18.5 -97z" />
<glyph unicode="'" horiz-adv-x="305" d="M82 809v448h141v-448h-141z" />
<glyph unicode="(" horiz-adv-x="657" d="M61 580q0 141 39 263t110 220t172 166.5t228 101.5v-166q-82 -20 -153.5 -69t-124.5 -125t-85 -174.5t-32 -216.5q0 -119 32 -217.5t85 -174t124.5 -125t153.5 -69.5v-166q-127 33 -228 101.5t-172 167t-110 220.5t-39 263z" />
<glyph unicode=")" horiz-adv-x="657" d="M47 -6q82 20 153.5 69.5t125 125t85 174t31.5 217.5t-31.5 217t-85 174t-125 125t-153.5 69v166q125 -33 227.5 -101.5t173 -166.5t109.5 -220t39 -263t-39 -263t-109.5 -220.5t-173 -167t-227.5 -101.5v166z" />
<glyph unicode="*" horiz-adv-x="681" d="M63 930l187 106l-187 109l48 78l184 -107v213h92v-213l184 107l47 -78l-188 -109l188 -106l-47 -80l-184 108v-215h-92v215l-184 -108z" />
<glyph unicode="+" horiz-adv-x="1107" d="M150 545v127h339v340h129v-340h340v-127h-340v-340h-129v340h-339z" />
<glyph unicode="," horiz-adv-x="352" d="M27 -221l129 219q-37 6 -63.5 32.5t-26.5 69.5q0 47 31.5 79t78.5 32t79 -32t32 -89q0 -33 -13.5 -65.5t-33.5 -63.5l-109 -182h-104z" />
<glyph unicode="-" horiz-adv-x="657" d="M82 463v143h493v-143h-493z" />
<glyph unicode="." horiz-adv-x="350" d="M66 100q0 47 31.5 80t78.5 33q23 0 42.5 -9t34.5 -23.5t23.5 -35t8.5 -45.5t-8.5 -44t-23.5 -34.5t-34.5 -23.5t-42.5 -8t-43 8t-34.5 23.5t-23.5 34.5t-9 44z" />
<glyph unicode="/" horiz-adv-x="681" d="M10 -172l508 1503h154l-508 -1503h-154z" />
<glyph unicode="0" horiz-adv-x="1101" d="M82 629q0 143 34 263t95 205t148 132t192 47q104 0 191 -47t148.5 -132t95.5 -205t34 -263t-34 -263t-95.5 -205t-148.5 -132t-191 -47t-191.5 47t-148.5 132t-95 204.5t-34 263.5zM240 629q0 -109 19.5 -201t59 -159.5t97 -104.5t135.5 -37q76 0 134 37t97 104.5 t58.5 159.5t19.5 201t-19.5 201t-58.5 159.5t-97 104t-134 36.5q-78 0 -135.5 -36.5t-97 -104t-59 -160t-19.5 -200.5z" />
<glyph unicode="1" horiz-adv-x="675" d="M51 905v164l373 191h96v-1260h-158v1065z" />
<glyph unicode="2" horiz-adv-x="937" d="M59 0v106l406 447q49 53 92 101t74 92.5t49 86.5t18 87q0 96 -61.5 154.5t-163.5 58.5q-115 0 -176 -71t-70 -181h-166q8 88 41 160.5t86.5 125t125 81t159.5 28.5q90 0 161 -24.5t121 -71.5t75.5 -113t25.5 -145q0 -59 -21.5 -113.5t-57.5 -107t-82 -103.5t-93 -104 l-321 -351h600v-143h-822z" />
<glyph unicode="3" horiz-adv-x="942" d="M35 358h158q16 -109 86.5 -173t189.5 -64q113 0 182.5 62.5t69.5 166.5q0 53 -19.5 95t-55.5 71t-82 44t-99 15h-88v138h84q49 0 92 13t74.5 41t50 66.5t18.5 90.5q0 92 -61.5 151.5t-167.5 59.5t-171 -61.5t-77 -160.5h-160q10 80 44 146.5t87.5 115t123 75t151.5 26.5 q90 0 161.5 -25.5t121 -70.5t76 -109.5t26.5 -138.5q0 -53 -14.5 -99.5t-41 -83t-62.5 -64.5t-77 -40q49 -16 90 -44t70 -65.5t44 -85t15 -98.5q0 -78 -27.5 -145.5t-79.5 -117.5t-127 -78.5t-171 -28.5q-90 0 -167 26.5t-133 75.5t-91 118.5t-43 155.5z" />
<glyph unicode="4" horiz-adv-x="1042" d="M45 285v114l483 858h164l-469 -837h400v303h151v-303h221v-135h-221v-285h-151v285h-578z" />
<glyph unicode="5" horiz-adv-x="958" d="M55 358h158q20 -111 88 -173t186 -62q55 0 103.5 20.5t81.5 57.5t51 87t18 109t-18 109.5t-52 88.5t-81.5 58.5t-104.5 20.5q-76 0 -132 -31t-91 -76h-127v690h688v-145h-553v-377q33 29 92.5 54.5t137.5 25.5q86 0 159.5 -31.5t126 -87t81 -132.5t28.5 -167 t-30.5 -165.5t-85 -131t-128 -87t-164.5 -31.5q-90 0 -164.5 25.5t-130 74.5t-91 118.5t-46.5 157.5z" />
<glyph unicode="6" d="M82 606q0 154 34 278t94 211t145 134t188 47q166 0 260 -83t131 -228h-162q-27 80 -80 129t-149 49q-70 0 -128.5 -38t-100.5 -102.5t-65.5 -151.5t-23.5 -189q0 -12 1 -26.5t1 -29.5q16 47 47 87t73 67.5t93.5 44t104.5 16.5q92 0 166.5 -32.5t128 -90t83 -133.5 t29.5 -162t-29.5 -163.5t-85 -135t-133 -90t-174.5 -32.5q-125 0 -220 60t-154 179q-41 86 -57.5 180.5t-16.5 204.5zM260 401q0 -61 20.5 -113t56.5 -90t85 -58.5t110 -20.5q57 0 107.5 20.5t86.5 58.5t56.5 89t20.5 114q0 61 -20.5 114.5t-56.5 91.5t-86 59.5t-108 21.5 q-59 0 -109 -21.5t-86 -58.5t-56.5 -90.5t-20.5 -116.5z" />
<glyph unicode="7" horiz-adv-x="901" d="M37 1112v145h813v-124l-449 -1133h-161l444 1112h-647z" />
<glyph unicode="8" horiz-adv-x="997" d="M70 342q0 61 18 113.5t52 93.5t78 68.5t97 41.5q-88 33 -144 108t-56 175q0 76 29.5 138.5t82 106.5t122 66.5t149.5 22.5q82 0 151.5 -22.5t121.5 -66.5t82 -106.5t30 -138.5q0 -100 -57.5 -175t-143.5 -108q51 -14 96 -41.5t79 -68.5t52.5 -93.5t18.5 -113.5 q0 -82 -33 -148.5t-90 -113.5t-136 -72.5t-171 -25.5q-90 0 -169 25.5t-136.5 72.5t-90 113.5t-32.5 148.5zM225 354q0 -53 20.5 -97t56.5 -75.5t86.5 -50t109.5 -18.5t109 18.5t87 50t57.5 75.5t20.5 97t-20.5 97.5t-57.5 76t-87 49t-109 17.5t-109.5 -17.5t-86.5 -49 t-56.5 -75.5t-20.5 -98zM268 936q0 -45 17.5 -83t48.5 -65.5t73 -43t91 -15.5t91 15.5t72.5 43t48 65.5t17.5 83q0 47 -17.5 85t-48 65.5t-72.5 43t-91 15.5t-91 -15.5t-73 -43t-48.5 -65.5t-17.5 -85z" />
<glyph unicode="9" d="M72 854q0 86 29.5 163t85 134t133 91t174.5 34q123 0 219 -60.5t153 -179.5q41 -86 58.5 -180t17.5 -205q0 -154 -34 -277.5t-94 -210.5t-145 -134t-188 -47q-168 0 -261 82.5t-132 228.5h162q27 -80 81 -129t150 -49q70 0 127.5 37.5t100.5 102t65.5 152t22.5 189.5v27 q0 14 -2 28q-14 -47 -45 -87t-73 -67.5t-93.5 -44t-106.5 -16.5q-92 0 -165.5 33t-128 90t-83 133t-28.5 162zM221 856q0 -61 19.5 -114.5t56.5 -91.5t86 -59.5t109 -21.5q59 0 109 21.5t86 58.5t56.5 90.5t20.5 116.5q0 61 -20.5 113.5t-56.5 90.5t-86 58.5t-109 20.5 t-108.5 -20.5t-86.5 -58.5t-56.5 -90t-19.5 -114z" />
<glyph unicode=":" horiz-adv-x="350" d="M66 100q0 47 31.5 80t78.5 33q23 0 42.5 -9t34.5 -23.5t23.5 -35t8.5 -45.5t-8.5 -44t-23.5 -34.5t-34.5 -23.5t-42.5 -8t-43 8t-34.5 23.5t-23.5 34.5t-9 44zM66 743q0 47 31.5 80t78.5 33q23 0 42.5 -9t34.5 -24.5t23.5 -35t8.5 -44.5t-8.5 -44t-23.5 -34.5 t-34.5 -24.5t-42.5 -9t-43 9t-34.5 24.5t-23.5 34.5t-9 44z" />
<glyph unicode=";" horiz-adv-x="352" d="M27 -221l129 219q-37 6 -63.5 32.5t-26.5 69.5q0 47 31.5 79t78.5 32t79 -32t32 -89q0 -33 -13.5 -65.5t-33.5 -63.5l-109 -182h-104zM66 743q0 47 31.5 80t78.5 33q23 0 43.5 -9t34.5 -24.5t23.5 -35t9.5 -44.5t-9.5 -44t-23.5 -34.5t-34.5 -24.5t-43.5 -9t-43 9 t-34.5 24.5t-23.5 34.5t-9 44z" />
<glyph unicode="&#x3c;" horiz-adv-x="866" d="M127 524v162l606 309v-147l-485 -244l485 -244v-147z" />
<glyph unicode="=" horiz-adv-x="1130" d="M162 408v118h809v-118h-809zM162 690v123h809v-123h-809z" />
<glyph unicode="&#x3e;" horiz-adv-x="866" d="M133 213v147l488 244l-488 244v147l608 -309v-162z" />
<glyph unicode="?" horiz-adv-x="884" d="M41 881q8 88 42 160.5t87 125t125 81t160 28.5t159.5 -24.5t120.5 -70.5t76 -111.5t27 -145.5q0 -57 -19.5 -106.5t-50.5 -93.5t-67.5 -84t-73.5 -77q-51 -55 -68.5 -93t-19.5 -75h-152q2 39 9 70t21.5 59.5t35 56t53.5 60.5q27 31 57.5 61.5t56 64.5t42 72t16.5 83 q0 96 -60.5 153.5t-162.5 57.5q-115 0 -176.5 -71t-69.5 -181h-168zM348 100q0 25 8.5 45.5t23.5 35t34.5 23.5t42.5 9q47 0 78.5 -33t31.5 -80t-31.5 -78.5t-78.5 -31.5q-23 0 -42.5 8t-34.5 23.5t-23.5 34.5t-8.5 44z" />
<glyph unicode="@" horiz-adv-x="1585" d="M66 385q0 160 55 301t157.5 246.5t246 167t317.5 61.5q152 0 275.5 -46t212.5 -128t139.5 -192.5t50.5 -239.5q0 -125 -34 -217t-90.5 -154.5t-128 -92.5t-147.5 -30q-72 0 -128 31t-77 88q-33 -51 -91 -84t-117 -33q-66 0 -116 24t-85 65t-53.5 95t-18.5 120 q0 84 27.5 161.5t77 138t118 96.5t152.5 36q68 0 116 -30t68 -64l17 75h137l-88 -495q-10 -63 11.5 -88t70.5 -25q53 0 100 25.5t81 75t53.5 121t19.5 161.5q0 113 -41 202t-115 153.5t-176 99t-221 34.5q-145 0 -265 -50t-205 -138t-131 -208t-46 -263q0 -164 58 -275.5 t150.5 -181t208 -99.5t232.5 -30q137 0 245.5 28t198.5 69v-119q-78 -37 -193.5 -64.5t-250.5 -27.5q-150 0 -290 41t-248.5 126t-174 217t-65.5 316zM578 373q0 -82 42 -132.5t115 -50.5q61 0 107.5 35t79.5 84l47 254q-16 45 -56.5 77t-95.5 32t-99 -25.5t-75 -68.5 t-48 -96.5t-17 -108.5z" />
<glyph unicode="A" horiz-adv-x="1220" d="M43 0l489 1257h154l492 -1257h-164l-146 379h-518l-143 -379h-164zM403 522h410l-205 535z" />
<glyph unicode="B" horiz-adv-x="1101" d="M150 0v1257h413q197 0 306.5 -85t109.5 -248q0 -57 -15.5 -102.5t-40 -79t-58 -56.5t-70.5 -35q51 -12 92 -40.5t71.5 -67.5t47 -88t16.5 -101q0 -174 -110.5 -264t-307.5 -90h-454zM307 141h297q127 0 192.5 58.5t65.5 158.5t-65.5 158.5t-192.5 58.5h-297v-434z M307 711h256q127 0 192.5 50t65.5 152q0 104 -65.5 153.5t-192.5 49.5h-256v-405z" />
<glyph unicode="C" horiz-adv-x="1200" d="M76 629q0 147 44 267t119.5 204t178 130t221.5 46q98 0 181 -27.5t144.5 -79t103.5 -123t60 -159.5h-157q-39 111 -119 176t-213 65q-90 0 -164 -35.5t-126 -102t-80.5 -158t-28.5 -203.5q0 -113 28.5 -205t80.5 -157.5t126 -101.5t164 -36q133 0 213 65.5t119 176.5h157 q-18 -88 -60 -160t-104.5 -123t-144.5 -78.5t-180 -27.5q-119 0 -221.5 46t-178 130t-119.5 204t-44 267z" />
<glyph unicode="D" horiz-adv-x="1239" d="M150 0v1257h403q139 0 252 -44t192.5 -125.5t122.5 -198.5t43 -260t-43 -260t-122.5 -199t-192.5 -126t-252 -44h-403zM311 145h238q109 0 191.5 35t141 97.5t89 151.5t30.5 200t-30.5 200t-89 152t-141.5 97t-191 34h-238v-967z" />
<glyph unicode="E" horiz-adv-x="1052" d="M150 0v1257h800v-145h-641v-395h582v-144h-582v-428h641v-145h-800z" />
<glyph unicode="F" horiz-adv-x="993" d="M150 0v1257h768v-145h-607v-422h570v-143h-570v-547h-161z" />
<glyph unicode="G" horiz-adv-x="1249" d="M76 629q0 147 44 267t121.5 204t183 130t224.5 46q100 0 183 -27.5t146.5 -79t105.5 -122t61 -158.5h-162q-39 111 -119 175t-215 64q-90 0 -164.5 -35.5t-130 -101t-85 -158t-29.5 -204.5q0 -113 29.5 -205t84 -158.5t131 -103.5t168.5 -37q166 0 259.5 96t107.5 260 h-299v140h453v-86q0 -125 -38 -227.5t-106.5 -175.5t-165 -111.5t-211.5 -38.5q-121 0 -227.5 46t-184 130t-121.5 203.5t-44 267.5z" />
<glyph unicode="H" horiz-adv-x="1333" d="M150 0v1257h161v-538h711v538h162v-1257h-162v573h-711v-573h-161z" />
<glyph unicode="I" horiz-adv-x="460" d="M150 0v1257h161v-1257h-161z" />
<glyph unicode="J" horiz-adv-x="980" d="M35 358h168q12 -109 73.5 -169t167.5 -60q57 0 103.5 16.5t79 52t50 90t17.5 130.5v839h162v-839q0 -111 -29.5 -192t-84 -136t-130 -81.5t-166.5 -26.5q-92 0 -165.5 26.5t-126 76.5t-83 119.5t-36.5 153.5z" />
<glyph unicode="K" horiz-adv-x="1155" d="M150 0v1257h161v-628l586 628h205l-539 -573l557 -684h-200l-474 573l-135 -145v-428h-161z" />
<glyph unicode="L" horiz-adv-x="1032" d="M150 0v1257h161v-1112h641v-145h-802z" />
<glyph unicode="M" horiz-adv-x="1507" d="M150 0v1257h182l426 -1032l424 1032h176v-1257h-156v956l-391 -956h-111l-397 956v-956h-153z" />
<glyph unicode="N" horiz-adv-x="1275" d="M150 0v1257h153l668 -954v954h155v-1257h-118l-703 997v-997h-155z" />
<glyph unicode="O" horiz-adv-x="1290" d="M76 629q0 143 43 262t117.5 205t179 133t229.5 47q123 0 227.5 -47t180 -133t118.5 -205t43 -262t-43 -262t-118.5 -204t-180 -133t-227.5 -48q-125 0 -229.5 48t-179 133t-117.5 203.5t-43 262.5zM240 629q0 -111 28.5 -203t83 -158.5t128 -103.5t165.5 -37q90 0 165 37 t128 103.5t83 158.5t30 203t-30 203t-83 158.5t-128 103t-165 36.5q-92 0 -165.5 -36.5t-128 -103t-83 -159t-28.5 -202.5z" />
<glyph unicode="P" horiz-adv-x="1099" d="M150 0v1257h471q94 0 170.5 -24.5t131 -71.5t83 -116.5t28.5 -163.5q0 -92 -28.5 -163t-83 -118t-131 -71.5t-170.5 -24.5h-310v-504h-161zM311 647h305q127 0 192.5 62.5t65.5 171.5t-65.5 172t-192.5 63h-305v-469z" />
<glyph unicode="Q" horiz-adv-x="1288" d="M76 629q0 143 43 262t117.5 205t179 133t229.5 47q123 0 227.5 -47t180 -133t118.5 -205t43 -262t-43 -262t-120 -205l-21 -21l105 -131l-111 -86l-104 131q-25 -14 -50 -26q-104 -47 -225 -47q-125 0 -229.5 48t-179 133t-117.5 203.5t-43 262.5zM240 629 q0 -111 28.5 -203t83 -158.5t128 -103.5t165.5 -37t168 33q8 4 18 10l-106 135l111 82l102 -131l2 2q53 63 82 157.5t29 213.5q0 111 -30 203t-83 158.5t-128 103t-165 36.5q-92 0 -165.5 -36.5t-128 -103t-83 -159t-28.5 -202.5z" />
<glyph unicode="R" horiz-adv-x="1130" d="M150 0v1257h466q94 0 171 -23.5t130.5 -69.5t82 -114.5t28.5 -156.5q0 -90 -28.5 -157.5t-82 -112.5t-131.5 -68q-37 -12 -79 -18l372 -537h-184l-360 532h-224v-532h-161zM311 670h301q125 0 190.5 59t65.5 164q0 104 -65.5 163.5t-190.5 59.5h-301v-446z" />
<glyph unicode="S" horiz-adv-x="1042" d="M47 328h166q35 -104 119 -156.5t198 -52.5q63 0 113.5 15.5t87.5 43t57.5 68.5t20.5 92q0 74 -45 123t-154 76l-227 59q-66 16 -121 42t-95 64.5t-62.5 92t-22.5 125.5q0 80 31.5 145t87 112.5t130.5 73t165 25.5q98 0 175 -23.5t135 -67.5t96 -105.5t54 -135.5h-161 q-29 86 -100.5 140.5t-196.5 54.5q-57 0 -104.5 -14.5t-82.5 -42t-54 -65.5t-19 -85q0 -39 12 -70t37.5 -53.5t62.5 -38.5t86 -31l217 -55q150 -39 231 -122t81 -216q0 -84 -33 -152.5t-90.5 -115.5t-137 -71.5t-174.5 -24.5q-186 0 -316 90t-167 256z" />
<glyph unicode="T" horiz-adv-x="1161" d="M61 1112v145h1039v-145h-438v-1112h-162v1112h-439z" />
<glyph unicode="U" horiz-adv-x="1241" d="M127 500v757h162v-739q0 -100 22.5 -174t66.5 -122t104.5 -71.5t138.5 -23.5q74 0 135 23.5t104 71.5t67.5 122t24.5 174v739h162v-759q0 -129 -38 -226.5t-102.5 -162t-155.5 -96t-197 -31.5q-109 0 -199 31.5t-155.5 96t-102.5 163t-37 227.5z" />
<glyph unicode="V" horiz-adv-x="1208" d="M43 1257h170l393 -1044l393 1044h166l-485 -1257h-152z" />
<glyph unicode="W" horiz-adv-x="1570" d="M39 1257h160l256 -999l266 999h131l266 -999l256 999h158l-334 -1257h-147l-267 981l-266 -981h-147z" />
<glyph unicode="X" horiz-adv-x="1144" d="M35 0l444 639l-428 618h185l337 -487l340 487h179l-428 -614l446 -643h-186l-355 512l-354 -512h-180z" />
<glyph unicode="Y" horiz-adv-x="1142" d="M35 1257h176l364 -591l361 591h172l-457 -739v-518h-159v518z" />
<glyph unicode="Z" horiz-adv-x="1093" d="M84 0v117l713 995h-703v145h903v-114l-710 -998h721v-145h-924z" />
<glyph unicode="[" horiz-adv-x="641" d="M150 -172v1503h444v-141h-297v-1221h297v-141h-444z" />
<glyph unicode="\" horiz-adv-x="681" d="M10 1331h154l508 -1503h-154z" />
<glyph unicode="]" horiz-adv-x="641" d="M47 -31h297v1221h-297v141h445v-1503h-445v141z" />
<glyph unicode="^" horiz-adv-x="733" d="M35 860l256 397h151l256 -397h-159l-172 260l-170 -260h-162z" />
<glyph unicode="_" horiz-adv-x="751" d="M41 -86h670v-139h-670v139z" />
<glyph unicode="`" d="M350 1331h162l164 -274h-144z" />
<glyph unicode="a" horiz-adv-x="921" d="M72 274q0 63 26.5 115.5t73.5 90.5t110.5 58.5t137.5 20.5q70 0 133 -23.5t94 -50.5v115q0 86 -50 140.5t-148 54.5q-72 0 -119 -32t-68 -95h-151q12 57 41.5 105t74.5 83t101.5 53.5t122.5 18.5q164 0 255 -86t91 -238v-604h-150v68q-27 -29 -91 -56.5t-146 -27.5 q-70 0 -131.5 20.5t-107.5 57t-72.5 91t-26.5 121.5zM217 274q0 -43 18.5 -72.5t49 -50t69.5 -29.5t80 -9q37 0 71 8t62.5 23.5t49 35t30.5 45.5v94q-10 25 -30.5 46.5t-49 37t-62.5 22.5t-71 7q-41 0 -80 -9t-69.5 -29.5t-49 -50.5t-18.5 -69z" />
<glyph unicode="b" horiz-adv-x="1028" d="M135 0v1331h156v-526q16 23 42.5 45t59.5 39.5t73 28t81 10.5q100 0 176 -38t128 -102.5t78.5 -150.5t26.5 -182t-26.5 -183.5t-78.5 -152t-128 -101t-176 -36.5q-41 0 -81 10t-73 27.5t-59.5 40t-42.5 44.5v-104h-156zM291 270q35 -70 97.5 -109.5t135.5 -39.5 q66 0 117 25.5t86 69.5t54.5 105.5t19.5 133.5t-19.5 133t-54.5 105t-86 69.5t-117 25.5q-74 0 -136 -39.5t-97 -109.5v-369z" />
<glyph unicode="c" horiz-adv-x="913" d="M72 455q0 106 30.5 193t85 149.5t130 96.5t167.5 34q76 0 138.5 -21.5t109.5 -59.5t77 -92.5t40 -119.5h-158q-14 74 -69.5 116t-135.5 42q-59 0 -107 -26t-82 -70t-52.5 -106.5t-18.5 -135.5q0 -76 18.5 -137.5t52.5 -105.5t82 -69.5t107 -25.5q80 0 135.5 42t69.5 115 h158q-10 -66 -40 -120t-77 -91.5t-109.5 -59t-138.5 -21.5q-92 0 -167.5 33.5t-130 96t-85 150t-30.5 193.5z" />
<glyph unicode="d" horiz-adv-x="1028" d="M72 455q0 96 26.5 182t78.5 150.5t128 102.5t176 38q43 0 82 -10.5t72 -28t58.5 -40t43.5 -44.5v526h156v-1331h-156v104q-18 -23 -43.5 -45t-58.5 -39.5t-72 -27.5t-82 -10q-100 0 -176 36.5t-128 101t-78.5 151.5t-26.5 184zM227 455q0 -72 19.5 -133.5t54.5 -105.5 t86 -69.5t117 -25.5q74 0 136 40t97 109v369q-35 70 -97 109.5t-136 39.5q-66 0 -117 -25.5t-86 -69.5t-54.5 -105.5t-19.5 -132.5z" />
<glyph unicode="e" horiz-adv-x="935" d="M72 453q0 102 29.5 189t84 150.5t131 99.5t168.5 36q94 0 166 -33t120 -92.5t72.5 -140t24.5 -181.5v-55h-643q2 -72 21.5 -130t55.5 -98t83 -62.5t104 -22.5q84 0 144.5 42t79.5 119h145q-25 -131 -119 -211.5t-250 -80.5q-94 0 -169.5 33.5t-131 96t-86 149.5 t-30.5 192zM229 543h484q0 51 -14.5 97t-43 81t-70 55.5t-98.5 20.5q-51 0 -94 -18.5t-76.5 -50.5t-56 -79t-31.5 -106z" />
<glyph unicode="f" horiz-adv-x="591" d="M41 778v131h154v152q0 68 20.5 121t57 91t88 57.5t112.5 19.5q37 0 64.5 -5.5t54.5 -15.5v-139q-23 14 -47.5 19t-48.5 5q-68 0 -109 -42t-41 -123v-140h207v-131h-207v-778h-151v778h-154z" />
<glyph unicode="g" d="M72 467q0 92 26.5 175t77.5 146.5t127 101.5t176 38q43 0 81 -10.5t71 -27t59.5 -38t42.5 -45.5v102h156v-837q0 -113 -30 -195t-84 -136t-129 -82t-163 -28q-82 0 -149.5 20.5t-116.5 60.5t-81 95.5t-42 124.5h154q20 -86 80.5 -128t154.5 -42q125 0 187.5 76t62.5 223 v66q-16 -23 -42.5 -45.5t-59.5 -38.5t-71 -26.5t-81 -10.5q-100 0 -176 38t-127 102.5t-77.5 147.5t-26.5 173zM231 467q0 -70 17.5 -129t52.5 -101t86 -67t115 -25q74 0 135 38t96 104v362q-35 63 -96.5 102.5t-134.5 39.5q-63 0 -114.5 -25t-86.5 -68t-52.5 -101 t-17.5 -130z" />
<glyph unicode="h" horiz-adv-x="1001" d="M135 0v1331h156v-536q39 53 109.5 93t158.5 40q156 0 237 -91.5t81 -240.5v-596h-156v571q0 94 -48 154.5t-153 60.5q-39 0 -74.5 -13t-66.5 -35.5t-53.5 -53.5t-34.5 -68v-616h-156z" />
<glyph unicode="i" horiz-adv-x="428" d="M115 1184q0 43 28.5 71.5t71.5 28.5q41 0 69.5 -28.5t28.5 -71.5q0 -41 -28.5 -70t-69.5 -29q-43 0 -71.5 29t-28.5 70zM137 0v909h156v-909h-156z" />
<glyph unicode="j" horiz-adv-x="425" d="M-39 -227q8 -2 23.5 -4t29.5 -2q29 0 52.5 8t38 24.5t22.5 43t8 65.5v1001h156v-1013q0 -127 -67.5 -195t-196.5 -68q-14 0 -34 1t-32 8v131zM115 1184q0 43 28.5 71.5t69.5 28.5q43 0 71.5 -28.5t28.5 -71.5q0 -41 -28.5 -70t-71.5 -29q-41 0 -69.5 29t-28.5 70z" />
<glyph unicode="k" horiz-adv-x="950" d="M135 0v1331h156v-825l416 403h202l-409 -393l424 -516h-191l-344 418l-98 -92v-326h-156z" />
<glyph unicode="l" horiz-adv-x="425" d="M135 0v1331h156v-1331h-156z" />
<glyph unicode="m" horiz-adv-x="1468" d="M135 0v909h156v-106q33 53 96.5 89t147.5 36q88 0 151 -40t94 -106q23 31 51.5 57.5t62.5 47t75 31t88 10.5q141 0 213.5 -89t72.5 -237v-602h-155v578q0 96 -42 152t-128 56q-70 0 -124 -43t-77 -116v-627h-155v578q0 96 -42 152t-128 56q-70 0 -125.5 -43t-75.5 -116 v-627h-156z" />
<glyph unicode="n" horiz-adv-x="1001" d="M135 0v909h156v-114q39 53 109.5 93t158.5 40q156 0 237 -91.5t81 -240.5v-596h-156v571q0 94 -48 154.5t-153 60.5q-39 0 -74.5 -13t-66.5 -35.5t-53.5 -53.5t-34.5 -68v-616h-156z" />
<glyph unicode="o" horiz-adv-x="978" d="M72 455q0 104 30.5 191t85 150.5t132 97.5t169.5 34q94 0 171 -34t132.5 -97.5t85 -150.5t29.5 -191t-29.5 -191.5t-85 -151t-132 -97t-171.5 -33.5q-92 0 -169.5 33.5t-132 97t-85 150.5t-30.5 192zM227 455q0 -76 17.5 -137.5t52.5 -106.5t83 -69.5t109 -24.5 t109.5 24.5t83.5 69.5t52.5 106.5t17.5 137.5q0 74 -17.5 136t-52.5 107t-83 70t-110 25q-61 0 -109 -25t-83 -70t-52.5 -107.5t-17.5 -135.5z" />
<glyph unicode="p" horiz-adv-x="1028" d="M135 -348v1257h156v-104q16 23 42.5 45t59.5 39.5t73 28t81 10.5q100 0 176 -39t128 -103.5t78.5 -150.5t26.5 -180t-26.5 -180.5t-78.5 -151t-128 -103t-176 -38.5q-41 0 -81 10t-73 27.5t-59.5 40t-42.5 44.5v-452h-156zM291 270q35 -70 97.5 -109.5t135.5 -39.5 q66 0 117 25.5t86 69.5t54.5 105.5t19.5 133.5t-19.5 133t-54.5 105t-86 69.5t-117 25.5q-74 0 -136 -39.5t-97 -109.5v-369z" />
<glyph unicode="q" horiz-adv-x="1028" d="M72 455q0 94 26.5 180t78.5 150.5t128 103.5t176 39q43 0 82 -10.5t72 -28t58.5 -40t43.5 -44.5v104h156v-1257h-156v452q-18 -23 -43.5 -45t-58.5 -39.5t-72 -27.5t-82 -10q-100 0 -176 38.5t-128 103t-78.5 150.5t-26.5 181zM227 455q0 -72 19.5 -133.5t54.5 -105.5 t86 -69.5t117 -25.5q74 0 136 40t97 109v369q-35 70 -97 109.5t-136 39.5q-66 0 -117 -25.5t-86 -69.5t-54.5 -105.5t-19.5 -132.5z" />
<glyph unicode="r" horiz-adv-x="657" d="M135 0v909h156v-118q29 59 89 98t134 39q31 0 54.5 -4t35.5 -11v-157q-20 12 -47 18t-55 6q-74 0 -130.5 -45t-80.5 -125v-610h-156z" />
<glyph unicode="s" horiz-adv-x="847" d="M61 250h160q20 -70 76.5 -104.5t136.5 -34.5q41 0 75 9t59.5 25.5t40 42t14.5 60.5q0 47 -33 76.5t-105 48.5l-178 47q-96 23 -158.5 78t-62.5 161q0 61 25.5 110.5t69.5 84.5t103.5 54.5t129.5 19.5q152 0 239.5 -68.5t112.5 -189.5h-154q-20 61 -68 95t-132 34 q-68 0 -121 -33t-53 -98q0 -47 30.5 -72t96.5 -43l176 -43q117 -31 174 -94.5t57 -159.5q0 -63 -25.5 -115.5t-70.5 -87.5t-107.5 -53t-134.5 -18q-76 0 -139.5 18t-111.5 53t-79.5 84t-42.5 113z" />
<glyph unicode="t" horiz-adv-x="651" d="M33 778v131h147v240h156v-240h219v-131h-219v-532q0 -66 30.5 -95.5t88.5 -29.5q33 0 64.5 9t55.5 26v-144q-27 -14 -64.5 -22t-80.5 -8q-111 0 -180.5 60t-69.5 187v549h-147z" />
<glyph unicode="u" horiz-adv-x="997" d="M125 313v596h156v-571q0 -94 48 -154.5t150 -60.5q80 0 141.5 48t86.5 122v616h155v-909h-155v115q-39 -53 -108 -93t-157 -40q-156 0 -236.5 91t-80.5 240z" />
<glyph unicode="v" horiz-adv-x="931" d="M37 909h166l266 -714l264 714h162l-352 -909h-154z" />
<glyph unicode="w" horiz-adv-x="1288" d="M37 909h156l198 -694l187 694h137l186 -694l201 694h149l-268 -909h-149l-189 688l-190 -688h-150z" />
<glyph unicode="x" horiz-adv-x="917" d="M35 0l338 465l-318 444h176l230 -325l235 325h166l-317 -438l338 -471h-176l-252 352l-252 -352h-168z" />
<glyph unicode="y" horiz-adv-x="931" d="M37 909h168l266 -716l264 716h160l-489 -1257h-152l137 342z" />
<glyph unicode="z" horiz-adv-x="888" d="M84 0v102l508 676h-492v131h691v-102l-506 -676h514v-131h-715z" />
<glyph unicode="{" horiz-adv-x="694" d="M41 508v143h94q72 0 72 76v373q0 104 63.5 167.5t163.5 63.5h213v-141h-215q-72 0 -72 -74v-379q0 -59 -25.5 -97t-64.5 -60q39 -25 64.5 -63t25.5 -95v-379q0 -74 72 -74h215v-141h-213q-100 0 -163.5 63.5t-63.5 167.5v373q0 76 -72 76h-94z" />
<glyph unicode="|" horiz-adv-x="448" d="M150 -172v1503h149v-1503h-149z" />
<glyph unicode="}" horiz-adv-x="694" d="M47 -31h215q72 0 72 74v379q0 57 25.5 95t64.5 63q-39 23 -64.5 60.5t-25.5 96.5v379q0 74 -72 74h-215v141h213q98 0 161.5 -63.5t63.5 -167.5v-373q0 -76 74 -76h94v-143h-94q-74 0 -74 -76v-373q0 -104 -63.5 -167.5t-161.5 -63.5h-213v141z" />
<glyph unicode="~" horiz-adv-x="856" d="M82 430q0 123 52 193.5t147 70.5q47 0 83.5 -21.5t68.5 -47t61.5 -47t62.5 -21.5q41 0 63.5 34t22.5 95h131q0 -125 -52 -194.5t-144 -69.5q-49 0 -87 20.5t-70 47t-60.5 47t-61.5 20.5q-41 0 -63.5 -32.5t-22.5 -94.5h-131z" />
<glyph unicode="&#xa2;" horiz-adv-x="915" d="M72 475q0 106 30.5 193.5t85 150t129.5 94.5q49 23 107 31v178h141v-180q33 -6 62 -16q63 -20 109 -60.5t75 -96.5t39 -124h-156q-14 78 -69.5 123t-139.5 45q-59 0 -106 -25.5t-81 -69.5t-52.5 -106.5t-18.5 -136.5q0 -76 18.5 -137.5t52.5 -105.5t81 -69.5t106 -25.5 q84 0 139.5 45t69.5 123h156q-10 -68 -39 -124t-75 -96t-109 -62q-29 -10 -62 -15v-186h-141v182q-57 8 -107 31q-76 35 -130 97.5t-84.5 149.5t-30.5 193z" />
<glyph unicode="&#xa3;" horiz-adv-x="999" d="M63 0v133h125q20 35 32.5 77t12.5 109v238h-170v127h170v186q0 88 26 163t75 129.5t116.5 84t151.5 29.5q74 0 133.5 -21.5t103.5 -60.5t70.5 -94.5t36.5 -120.5h-149q-14 76 -62.5 119t-132.5 43q-104 0 -161.5 -73t-57.5 -198v-186h317v-127h-317v-238 q0 -53 -11.5 -104t-33.5 -82h606v-133h-881z" />
<glyph unicode="&#xa5;" horiz-adv-x="1093" d="M51 1257h172l328 -563l323 563h168l-354 -595h260v-121h-321v-144h321v-123h-321v-274h-160v274h-322v123h322v144h-322v121h261z" />
<glyph unicode="&#xa8;" d="M272 1169q0 43 28 70t69 27q18 0 35.5 -7.5t29.5 -20.5t20.5 -29.5t8.5 -39.5q0 -39 -27.5 -66.5t-66.5 -27.5q-41 0 -69 27.5t-28 66.5zM559 1169q0 43 27.5 70t66.5 27q20 0 37 -7.5t31 -20.5t21.5 -29.5t7.5 -39.5q0 -39 -29 -66.5t-68 -27.5t-66.5 27.5t-27.5 66.5z " />
<glyph unicode="&#xa9;" horiz-adv-x="1447" d="M76 629q0 141 51 260t139 205t206 134t251 48t252 -48t207 -134t139 -205t51 -260t-51 -260t-139 -205t-207 -134t-252 -48t-251 48t-206 134t-139 204.5t-51 260.5zM158 629q0 -123 45 -227.5t121.5 -179.5t179 -118t219.5 -43t220.5 43t180 118t121.5 179.5t45 227.5 t-45 227.5t-121.5 179t-180 117.5t-220.5 43t-219.5 -43t-179 -117.5t-121.5 -179t-45 -227.5zM360 633q0 92 28 166.5t77 128t117.5 83t148.5 29.5q68 0 123 -19.5t96 -53t67.5 -81.5t39.5 -106h-154q-20 57 -63 89t-109 32q-100 0 -158.5 -73.5t-58.5 -194.5t58.5 -194.5 t158.5 -73.5q66 0 109 31.5t63 88.5h154q-12 -57 -39 -105t-68 -82t-96 -53.5t-123 -19.5q-80 0 -148.5 30t-117.5 83t-77 128t-28 167z" />
<glyph unicode="&#xab;" horiz-adv-x="733" d="M51 455l189 303h143l-188 -303l188 -303h-143zM348 455l189 303h145l-188 -303l188 -303h-145z" />
<glyph unicode="&#xad;" horiz-adv-x="657" d="M82 463v143h493v-143h-493z" />
<glyph unicode="&#xae;" horiz-adv-x="843" d="M51 901q0 82 30 150.5t80 119t117.5 78t143.5 27.5t143.5 -27.5t117.5 -78t80 -119t30 -150.5t-30 -150.5t-80 -118.5t-117.5 -78t-143.5 -28t-143.5 28t-117.5 78t-80 118.5t-30 150.5zM115 901q0 -68 23.5 -126t65.5 -100t98 -64.5t120 -22.5q63 0 119.5 22.5 t98.5 64.5t65.5 100t23.5 126q0 70 -23.5 127t-65.5 100t-98.5 66t-119.5 23t-119.5 -23t-98.5 -66t-65.5 -100t-23.5 -127zM276 709v393h173q63 0 102 -34t39 -95q0 -47 -23.5 -77t-62.5 -40l100 -147h-98l-90 139h-51v-139h-89zM365 920h81q29 0 44.5 15t15.5 38 q0 25 -15.5 39t-44.5 14h-81v-106z" />
<glyph unicode="&#xaf;" d="M291 1085v125h438v-125h-438z" />
<glyph unicode="&#xb4;" d="M350 1057l164 274h162l-182 -274h-144z" />
<glyph unicode="&#xb8;" d="M367 -375l135 271h153l-143 -271h-145z" />
<glyph unicode="&#xbb;" horiz-adv-x="733" d="M51 152l189 303l-189 303h144l188 -303l-188 -303h-144zM348 152l189 303l-189 303h146l188 -303l-188 -303h-146z" />
<glyph unicode="&#xc1;" horiz-adv-x="1220" d="M43 0l489 1257h154l492 -1257h-164l-146 379h-518l-143 -379h-164zM403 522h410l-205 535zM526 1368l164 240h178l-186 -240h-156z" />
<glyph unicode="&#xc9;" horiz-adv-x="1052" d="M150 0v1257h800v-145h-641v-395h582v-144h-582v-428h641v-145h-800zM469 1368l164 240h178l-186 -240h-156z" />
<glyph unicode="&#xcd;" horiz-adv-x="460" d="M139 1368l164 240h178l-186 -240h-156zM150 0v1257h161v-1257h-161z" />
<glyph unicode="&#xd3;" horiz-adv-x="1290" d="M76 629q0 143 43 262t117.5 205t179 133t229.5 47q123 0 227.5 -47t180 -133t118.5 -205t43 -262t-43 -262t-118.5 -204t-180 -133t-227.5 -48q-125 0 -229.5 48t-179 133t-117.5 203.5t-43 262.5zM240 629q0 -111 28.5 -203t83 -158.5t128 -103.5t165.5 -37q90 0 165 37 t128 103.5t83 158.5t30 203t-30 203t-83 158.5t-128 103t-165 36.5q-92 0 -165.5 -36.5t-128 -103t-83 -159t-28.5 -202.5zM553 1368l164 240h178l-186 -240h-156z" />
<glyph unicode="&#xda;" horiz-adv-x="1241" d="M127 500v757h162v-739q0 -100 22.5 -174t66.5 -122t104.5 -71.5t138.5 -23.5q74 0 135 23.5t104 71.5t67.5 122t24.5 174v739h162v-759q0 -129 -38 -226.5t-102.5 -162t-155.5 -96t-197 -31.5q-109 0 -199 31.5t-155.5 96t-102.5 163t-37 227.5zM530 1368l164 240h178 l-186 -240h-156z" />
<glyph unicode="&#xdd;" horiz-adv-x="1142" d="M35 1257h176l364 -591l361 591h172l-457 -739v-518h-159v518zM481 1368l164 240h178l-186 -240h-156z" />
<glyph unicode="&#xe1;" horiz-adv-x="921" d="M72 274q0 63 26.5 115.5t73.5 90.5t110.5 58.5t137.5 20.5q70 0 133 -23.5t94 -50.5v115q0 86 -50 140.5t-148 54.5q-72 0 -119 -32t-68 -95h-151q12 57 41.5 105t74.5 83t101.5 53.5t122.5 18.5q164 0 255 -86t91 -238v-604h-150v68q-27 -29 -91 -56.5t-146 -27.5 q-70 0 -131.5 20.5t-107.5 57t-72.5 91t-26.5 121.5zM217 274q0 -43 18.5 -72.5t49 -50t69.5 -29.5t80 -9q37 0 71 8t62.5 23.5t49 35t30.5 45.5v94q-10 25 -30.5 46.5t-49 37t-62.5 22.5t-71 7q-41 0 -80 -9t-69.5 -29.5t-49 -50.5t-18.5 -69zM389 1057l164 274h162 l-182 -274h-144z" />
<glyph unicode="&#xe9;" horiz-adv-x="935" d="M72 453q0 102 29.5 189t84 150.5t131 99.5t168.5 36q94 0 166 -33t120 -92.5t72.5 -140t24.5 -181.5v-55h-643q2 -72 21.5 -130t55.5 -98t83 -62.5t104 -22.5q84 0 144.5 42t79.5 119h145q-25 -131 -119 -211.5t-250 -80.5q-94 0 -169.5 33.5t-131 96t-86 149.5 t-30.5 192zM229 543h484q0 51 -14.5 97t-43 81t-70 55.5t-98.5 20.5q-51 0 -94 -18.5t-76.5 -50.5t-56 -79t-31.5 -106zM411 1057l164 274h162l-182 -274h-144z" />
<glyph unicode="&#xed;" horiz-adv-x="425" d="M131 1057l164 274h162l-182 -274h-144zM135 0v909h156v-909h-156z" />
<glyph unicode="&#xf3;" horiz-adv-x="978" d="M72 455q0 104 30.5 191t85 150.5t132 97.5t169.5 34q94 0 171 -34t132.5 -97.5t85 -150.5t29.5 -191t-29.5 -191.5t-85 -151t-132 -97t-171.5 -33.5q-92 0 -169.5 33.5t-132 97t-85 150.5t-30.5 192zM227 455q0 -76 17.5 -137.5t52.5 -106.5t83 -69.5t109 -24.5 t109.5 24.5t83.5 69.5t52.5 106.5t17.5 137.5q0 74 -17.5 136t-52.5 107t-83 70t-110 25q-61 0 -109 -25t-83 -70t-52.5 -107.5t-17.5 -135.5zM407 1057l164 274h162l-182 -274h-144z" />
<glyph unicode="&#xfa;" horiz-adv-x="997" d="M125 313v596h156v-571q0 -94 48 -154.5t150 -60.5q80 0 141.5 48t86.5 122v616h155v-909h-155v115q-39 -53 -108 -93t-157 -40q-156 0 -236.5 91t-80.5 240zM416 1057l164 274h162l-182 -274h-144z" />
<glyph unicode="&#xfd;" horiz-adv-x="931" d="M37 909h168l266 -716l264 716h160l-489 -1257h-152l137 342zM385 1057l164 274h162l-182 -274h-144z" />
<glyph unicode="&#x100;" horiz-adv-x="1220" d="M43 0l489 1257h154l492 -1257h-164l-146 379h-518l-143 -379h-164zM393 1374v125h438v-125h-438zM403 522h410l-205 535z" />
<glyph unicode="&#x101;" horiz-adv-x="921" d="M72 274q0 63 26.5 115.5t73.5 90.5t110.5 58.5t137.5 20.5q70 0 133 -23.5t94 -50.5v115q0 86 -50 140.5t-148 54.5q-72 0 -119 -32t-68 -95h-151q12 57 41.5 105t74.5 83t101.5 53.5t122.5 18.5q164 0 255 -86t91 -238v-604h-150v68q-27 -29 -91 -56.5t-146 -27.5 q-70 0 -131.5 20.5t-107.5 57t-72.5 91t-26.5 121.5zM217 274q0 -43 18.5 -72.5t49 -50t69.5 -29.5t80 -9q37 0 71 8t62.5 23.5t49 35t30.5 45.5v94q-10 25 -30.5 46.5t-49 37t-62.5 22.5t-71 7q-41 0 -80 -9t-69.5 -29.5t-49 -50.5t-18.5 -69zM252 1085v125h438v-125h-438z " />
<glyph unicode="&#x102;" horiz-adv-x="1220" d="M43 0l489 1257h154l492 -1257h-164l-146 379h-518l-143 -379h-164zM374 1610h117q0 -66 34 -98.5t85 -32.5q55 0 88 32.5t33 98.5h117q0 -59 -16.5 -105.5t-48.5 -78t-76 -47t-97 -15.5t-96 15.5t-74 47t-48.5 77.5t-17.5 106zM403 522h410l-205 535z" />
<glyph unicode="&#x103;" horiz-adv-x="921" d="M72 274q0 63 26.5 115.5t73.5 90.5t110.5 58.5t137.5 20.5q70 0 133 -23.5t94 -50.5v115q0 86 -50 140.5t-148 54.5q-72 0 -119 -32t-68 -95h-151q12 57 41.5 105t74.5 83t101.5 53.5t122.5 18.5q164 0 255 -86t91 -238v-604h-150v68q-27 -29 -91 -56.5t-146 -27.5 q-70 0 -131.5 20.5t-107.5 57t-72.5 91t-26.5 121.5zM217 274q0 -43 18.5 -72.5t49 -50t69.5 -29.5t80 -9q37 0 71 8t62.5 23.5t49 35t30.5 45.5v94q-10 25 -30.5 46.5t-49 37t-62.5 22.5t-71 7q-41 0 -80 -9t-69.5 -29.5t-49 -50.5t-18.5 -69zM232 1286h116 q0 -70 30 -109.5t87 -39.5t87 40t30 109h116q0 -63 -17 -112.5t-48 -82t-74 -50t-94 -17.5t-94 17.5t-74 50t-48 82t-17 112.5z" />
<glyph unicode="&#x104;" horiz-adv-x="1220" d="M43 0l489 1257h154l492 -1257q-31 -51 -51.5 -84t-31 -57.5t-15.5 -41t-5 -34.5q0 -27 13.5 -40t33.5 -13t37 8t39 22v-102q-23 -18 -49.5 -28.5t-56.5 -10.5q-35 0 -60.5 9.5t-42 26.5t-26 43t-9.5 56q0 29 8.5 56.5t22.5 56.5t33.5 61.5t44.5 71.5h-49l-146 379h-518 l-143 -379h-164zM403 522h410l-205 535z" />
<glyph unicode="&#x105;" horiz-adv-x="919" d="M72 274q0 63 26.5 115.5t73.5 90.5t110.5 58.5t137.5 20.5q70 0 133 -23.5t92 -50.5v115q0 86 -49 140.5t-147 54.5q-72 0 -121 -32t-70 -95h-147q12 57 41.5 105t74.5 83t101.5 53.5t122.5 18.5q164 0 255 -86t91 -238v-604q-31 -51 -50.5 -84t-30.5 -56.5t-15.5 -41 t-4.5 -35.5q0 -27 12.5 -40t32.5 -13t37 8t39 22v-102q-23 -18 -48.5 -28.5t-57.5 -10.5q-33 0 -58.5 9.5t-43 26.5t-27 43t-9.5 56q0 29 8.5 56.5t22.5 56.5t33.5 61.5t44.5 71.5h-37v68q-25 -29 -89 -56.5t-146 -27.5q-70 0 -131.5 20.5t-107.5 57t-72.5 91t-26.5 121.5z M217 274q0 -43 18.5 -72.5t49 -50t69.5 -29.5t80 -9q37 0 71 8t62.5 23.5t49 35t28.5 45.5v94q-8 25 -28.5 46.5t-49 37t-62.5 22.5t-71 7q-41 0 -80 -9t-69.5 -29.5t-49 -50.5t-18.5 -69z" />
<glyph unicode="&#x106;" horiz-adv-x="1200" d="M76 629q0 147 44 267t119.5 204t178 130t221.5 46q98 0 181 -27.5t144.5 -79t103.5 -123t60 -159.5h-157q-39 111 -119 176t-213 65q-90 0 -164 -35.5t-126 -102t-80.5 -158t-28.5 -203.5q0 -113 28.5 -205t80.5 -157.5t126 -101.5t164 -36q133 0 213 65.5t119 176.5h157 q-18 -88 -60 -160t-104.5 -123t-144.5 -78.5t-180 -27.5q-119 0 -221.5 46t-178 130t-119.5 204t-44 267zM561 1368l164 240h178l-186 -240h-156z" />
<glyph unicode="&#x107;" horiz-adv-x="913" d="M72 455q0 106 30.5 193t85 149.5t130 96.5t167.5 34q76 0 138.5 -21.5t109.5 -59.5t77 -92.5t40 -119.5h-158q-14 74 -69.5 116t-135.5 42q-59 0 -107 -26t-82 -70t-52.5 -106.5t-18.5 -135.5q0 -76 18.5 -137.5t52.5 -105.5t82 -69.5t107 -25.5q80 0 135.5 42t69.5 115 h158q-10 -66 -40 -120t-77 -91.5t-109.5 -59t-138.5 -21.5q-92 0 -167.5 33.5t-130 96t-85 150t-30.5 193.5zM411 1057l164 274h162l-182 -274h-144z" />
<glyph unicode="&#x108;" horiz-adv-x="1200" d="M76 629q0 147 44 267t119.5 204t178 130t221.5 46q98 0 181 -27.5t144.5 -79t103.5 -123t60 -159.5h-157q-39 111 -119 176t-213 65q-90 0 -164 -35.5t-126 -102t-80.5 -158t-28.5 -203.5q0 -113 28.5 -205t80.5 -157.5t126 -101.5t164 -36q133 0 213 65.5t119 176.5h157 q-18 -88 -60 -160t-104.5 -123t-144.5 -78.5t-180 -27.5q-119 0 -221.5 46t-178 130t-119.5 204t-44 267zM391 1370l190 250h142l190 -250h-141l-119 146l-121 -146h-141z" />
<glyph unicode="&#x109;" horiz-adv-x="913" d="M72 455q0 106 30.5 193t85 149.5t130 96.5t167.5 34q76 0 138.5 -21.5t109.5 -59.5t77 -92.5t40 -119.5h-158q-14 74 -69.5 116t-135.5 42q-59 0 -107 -26t-82 -70t-52.5 -106.5t-18.5 -135.5q0 -76 18.5 -137.5t52.5 -105.5t82 -69.5t107 -25.5q80 0 135.5 42t69.5 115 h158q-10 -66 -40 -120t-77 -91.5t-109.5 -59t-138.5 -21.5q-92 0 -167.5 33.5t-130 96t-85 150t-30.5 193.5zM232 1042l190 279h142l190 -279h-135l-125 181l-127 -181h-135z" />
<glyph unicode="&#x10a;" horiz-adv-x="1200" d="M76 629q0 147 44 267t119.5 204t178 130t221.5 46q98 0 181 -27.5t144.5 -79t103.5 -123t60 -159.5h-157q-39 111 -119 176t-213 65q-90 0 -164 -35.5t-126 -102t-80.5 -158t-28.5 -203.5q0 -113 28.5 -205t80.5 -157.5t126 -101.5t164 -36q133 0 213 65.5t119 176.5h157 q-18 -88 -60 -160t-104.5 -123t-144.5 -78.5t-180 -27.5q-119 0 -221.5 46t-178 130t-119.5 204t-44 267zM545 1477q0 43 28.5 71.5t71.5 28.5q41 0 69.5 -28.5t28.5 -71.5q0 -41 -28.5 -70t-69.5 -29q-43 0 -71.5 29t-28.5 70z" />
<glyph unicode="&#x10b;" horiz-adv-x="913" d="M72 455q0 106 30.5 193t85 149.5t130 96.5t167.5 34q76 0 138.5 -21.5t109.5 -59.5t77 -92.5t40 -119.5h-158q-14 74 -69.5 116t-135.5 42q-59 0 -107 -26t-82 -70t-52.5 -106.5t-18.5 -135.5q0 -76 18.5 -137.5t52.5 -105.5t82 -69.5t107 -25.5q80 0 135.5 42t69.5 115 h158q-10 -66 -40 -120t-77 -91.5t-109.5 -59t-138.5 -21.5q-92 0 -167.5 33.5t-130 96t-85 150t-30.5 193.5zM394 1184q0 43 28.5 71.5t71.5 28.5q41 0 69.5 -28.5t28.5 -71.5q0 -41 -28.5 -70t-69.5 -29q-43 0 -71.5 29t-28.5 70z" />
<glyph unicode="&#x10c;" horiz-adv-x="1200" d="M76 629q0 147 44 267t119.5 204t178 130t221.5 46q98 0 181 -27.5t144.5 -79t103.5 -123t60 -159.5h-157q-39 111 -119 176t-213 65q-90 0 -164 -35.5t-126 -102t-80.5 -158t-28.5 -203.5q0 -113 28.5 -205t80.5 -157.5t126 -101.5t164 -36q133 0 213 65.5t119 176.5h157 q-18 -88 -60 -160t-104.5 -123t-144.5 -78.5t-180 -27.5q-119 0 -221.5 46t-178 130t-119.5 204t-44 267zM383 1612h141l121 -146l119 146h141l-190 -248h-142z" />
<glyph unicode="&#x10d;" horiz-adv-x="913" d="M72 455q0 106 30.5 193t85 149.5t130 96.5t167.5 34q76 0 138.5 -21.5t109.5 -59.5t77 -92.5t40 -119.5h-158q-14 74 -69.5 116t-135.5 42q-59 0 -107 -26t-82 -70t-52.5 -106.5t-18.5 -135.5q0 -76 18.5 -137.5t52.5 -105.5t82 -69.5t107 -25.5q80 0 135.5 42t69.5 115 h158q-10 -66 -40 -120t-77 -91.5t-109.5 -59t-138.5 -21.5q-92 0 -167.5 33.5t-130 96t-85 150t-30.5 193.5zM232 1323h135l127 -178l125 178h135l-190 -279h-142z" />
<glyph unicode="&#x10e;" horiz-adv-x="1239" d="M150 0v1257h403q139 0 252 -44t192.5 -125.5t122.5 -198.5t43 -260t-43 -260t-122.5 -199t-192.5 -126t-252 -44h-403zM311 145h238q109 0 191.5 35t141 97.5t89 151.5t30.5 200t-30.5 200t-89 152t-141.5 97t-191 34h-238v-967zM311 1612h141l121 -146l119 146h141 l-190 -248h-142z" />
<glyph unicode="&#x10f;" horiz-adv-x="1028" d="M72 455q0 96 26.5 182t78.5 150.5t128 102.5t176 38q43 0 82 -10.5t72 -28t58.5 -40t43.5 -44.5v526h156v-1331h-156v104q-18 -23 -43.5 -45t-58.5 -39.5t-72 -27.5t-82 -10q-100 0 -176 36.5t-128 101t-78.5 151.5t-26.5 184zM227 455q0 -72 19.5 -133.5t54.5 -105.5 t86 -69.5t117 -25.5q74 0 136 40t97 109v369q-35 70 -97 109.5t-136 39.5q-66 0 -117 -25.5t-86 -69.5t-54.5 -105.5t-19.5 -132.5zM1002 995l67 336h123l-68 -336h-122z" />
<glyph unicode="&#x110;" horiz-adv-x="1271" d="M66 582v137h116v538h404q137 0 249.5 -44t193.5 -125.5t124 -198.5t43 -260t-43 -260t-124 -199t-193.5 -126t-249.5 -44h-404v582h-116zM344 145h238q106 0 190 35t142.5 97.5t89 151.5t30.5 200t-30.5 200t-89 152t-142.5 97t-190 34h-238v-393h250v-137h-250v-437z " />
<glyph unicode="&#x111;" horiz-adv-x="1030" d="M72 455q0 96 26.5 182t78.5 150.5t128 102.5t176 38q43 0 82 -10.5t72 -28t58.5 -40t43.5 -44.5v242h-221v110h221v174h156v-174h117v-110h-117v-1047h-156v104q-18 -23 -43.5 -45t-58.5 -39.5t-72 -27.5t-82 -10q-100 0 -176 36.5t-128 101t-78.5 151.5t-26.5 184z M227 455q0 -72 19.5 -133.5t54.5 -105.5t86 -69.5t117 -25.5q74 0 136 40t97 109v369q-35 70 -97 109.5t-136 39.5q-66 0 -117 -25.5t-86 -69.5t-54.5 -105.5t-19.5 -132.5z" />
<glyph unicode="&#x112;" horiz-adv-x="1052" d="M150 0v1257h800v-145h-641v-395h582v-144h-582v-428h641v-145h-800zM342 1374v125h438v-125h-438z" />
<glyph unicode="&#x113;" horiz-adv-x="935" d="M72 453q0 102 29.5 189t84 150.5t131 99.5t168.5 36q94 0 166 -33t120 -92.5t72.5 -140t24.5 -181.5v-55h-643q2 -72 21.5 -130t55.5 -98t83 -62.5t104 -22.5q84 0 144.5 42t79.5 119h145q-25 -131 -119 -211.5t-250 -80.5q-94 0 -169.5 33.5t-131 96t-86 149.5 t-30.5 192zM229 543h484q0 51 -14.5 97t-43 81t-70 55.5t-98.5 20.5q-51 0 -94 -18.5t-76.5 -50.5t-56 -79t-31.5 -106zM275 1085v125h438v-125h-438z" />
<glyph unicode="&#x114;" horiz-adv-x="1052" d="M150 0v1257h800v-145h-641v-395h582v-144h-582v-428h641v-145h-800zM323 1610h117q0 -66 34 -98.5t85 -32.5q55 0 88 32.5t33 98.5h117q0 -59 -16.5 -105.5t-48.5 -78t-76 -47t-97 -15.5t-96 15.5t-74 47t-48.5 77.5t-17.5 106z" />
<glyph unicode="&#x115;" horiz-adv-x="935" d="M72 453q0 102 29.5 189t84 150.5t131 99.5t168.5 36q94 0 166 -33t120 -92.5t72.5 -140t24.5 -181.5v-55h-643q2 -72 21.5 -130t55.5 -98t83 -62.5t104 -22.5q84 0 144.5 42t79.5 119h145q-25 -131 -119 -211.5t-250 -80.5q-94 0 -169.5 33.5t-131 96t-86 149.5 t-30.5 192zM229 543h484q0 51 -14.5 97t-43 81t-70 55.5t-98.5 20.5q-51 0 -94 -18.5t-76.5 -50.5t-56 -79t-31.5 -106zM261 1286h116q0 -70 30 -109.5t87 -39.5t87 40t30 109h116q0 -63 -17 -112.5t-48 -82t-74 -50t-94 -17.5t-94 17.5t-74 50t-48 82t-17 112.5z" />
<glyph unicode="&#x116;" horiz-adv-x="1052" d="M150 0v1257h800v-145h-641v-395h582v-144h-582v-428h641v-145h-800zM459 1477q0 43 28.5 71.5t71.5 28.5q41 0 69.5 -28.5t28.5 -71.5q0 -41 -28.5 -70t-69.5 -29q-43 0 -71.5 29t-28.5 70z" />
<glyph unicode="&#x117;" horiz-adv-x="935" d="M72 453q0 102 29.5 189t84 150.5t131 99.5t168.5 36q94 0 166 -33t120 -92.5t72.5 -140t24.5 -181.5v-55h-643q2 -72 21.5 -130t55.5 -98t83 -62.5t104 -22.5q84 0 144.5 42t79.5 119h145q-25 -131 -119 -211.5t-250 -80.5q-94 0 -169.5 33.5t-131 96t-86 149.5 t-30.5 192zM229 543h484q0 51 -14.5 97t-43 81t-70 55.5t-98.5 20.5q-51 0 -94 -18.5t-76.5 -50.5t-56 -79t-31.5 -106zM394 1184q0 43 28.5 71.5t71.5 28.5q41 0 69.5 -28.5t28.5 -71.5q0 -41 -28.5 -70t-69.5 -29q-43 0 -71.5 29t-28.5 70z" />
<glyph unicode="&#x118;" horiz-adv-x="1052" d="M150 0v1257h800v-145h-641v-395h582v-144h-582v-428h641v-145h-800zM659 -246q0 29 8.5 57.5t23.5 58.5t35.5 63.5t45.5 74.5h115q-31 -51 -51.5 -85t-32 -59.5t-17.5 -44t-6 -36.5q0 -27 13.5 -40t33.5 -13t36.5 8t39.5 22v-102q-23 -18 -49.5 -28.5t-57.5 -10.5 q-35 0 -60.5 9.5t-41.5 26.5t-25.5 43t-9.5 56z" />
<glyph unicode="&#x119;" horiz-adv-x="935" d="M72 453q0 102 29.5 189t84 150.5t131 99.5t168.5 36q94 0 166 -33t120 -92.5t72.5 -140t24.5 -181.5v-55h-643q2 -72 21.5 -130t55.5 -98t83 -62.5t104 -22.5q84 0 144.5 42t79.5 119h145q-12 -66 -43 -118t-82 -105q-72 -74 -112.5 -139.5t-40.5 -122.5q0 -29 14 -44 t37 -15q18 0 35.5 8t40.5 22v-102q-23 -18 -49.5 -28.5t-59.5 -10.5t-58.5 10.5t-44 28.5t-27.5 44t-9 56q0 61 30.5 117t83.5 119q-20 -6 -40.5 -9t-43.5 -3q-94 0 -169.5 33.5t-131 96t-86 149.5t-30.5 192zM229 543h484q0 51 -14.5 97t-43 81t-70 55.5t-98.5 20.5 q-51 0 -94 -18.5t-76.5 -50.5t-56 -79t-31.5 -106z" />
<glyph unicode="&#x11a;" horiz-adv-x="1052" d="M150 0v1257h800v-145h-641v-395h582v-144h-582v-428h641v-145h-800zM305 1612h141l121 -146l119 146h141l-190 -248h-142z" />
<glyph unicode="&#x11b;" horiz-adv-x="935" d="M72 453q0 102 29.5 189t84 150.5t131 99.5t168.5 36q94 0 166 -33t120 -92.5t72.5 -140t24.5 -181.5v-55h-643q2 -72 21.5 -130t55.5 -98t83 -62.5t104 -22.5q84 0 144.5 42t79.5 119h145q-25 -131 -119 -211.5t-250 -80.5q-94 0 -169.5 33.5t-131 96t-86 149.5 t-30.5 192zM229 543h484q0 51 -14.5 97t-43 81t-70 55.5t-98.5 20.5q-51 0 -94 -18.5t-76.5 -50.5t-56 -79t-31.5 -106zM232 1323h135l127 -178l125 178h135l-190 -279h-142z" />
<glyph unicode="&#x11c;" horiz-adv-x="1249" d="M76 629q0 147 44 267t121.5 204t183 130t224.5 46q100 0 183 -27.5t146.5 -79t105.5 -122t61 -158.5h-162q-39 111 -119 175t-215 64q-90 0 -164.5 -35.5t-130 -101t-85 -158t-29.5 -204.5q0 -113 29.5 -205t84 -158.5t131 -103.5t168.5 -37q166 0 259.5 96t107.5 260 h-299v140h453v-86q0 -125 -38 -227.5t-106.5 -175.5t-165 -111.5t-211.5 -38.5q-121 0 -227.5 46t-184 130t-121.5 203.5t-44 267.5zM389 1370l190 250h142l190 -250h-141l-119 146l-121 -146h-141z" />
<glyph unicode="&#x11d;" d="M72 467q0 92 26.5 175t77.5 146.5t127 101.5t176 38q43 0 81 -10.5t71 -27t59.5 -38t42.5 -45.5v102h156v-837q0 -113 -30 -195t-84 -136t-129 -82t-163 -28q-82 0 -149.5 20.5t-116.5 60.5t-81 95.5t-42 124.5h154q20 -86 80.5 -128t154.5 -42q125 0 187.5 76t62.5 223 v66q-16 -23 -42.5 -45.5t-59.5 -38.5t-71 -26.5t-81 -10.5q-100 0 -176 38t-127 102.5t-77.5 147.5t-26.5 173zM231 467q0 -70 17.5 -129t52.5 -101t86 -67t115 -25q74 0 135 38t96 104v362q-35 63 -96.5 102.5t-134.5 39.5q-63 0 -114.5 -25t-86.5 -68t-52.5 -101 t-17.5 -130zM270 1042l190 279h142l190 -279h-135l-125 181l-127 -181h-135z" />
<glyph unicode="&#x11e;" horiz-adv-x="1249" d="M76 629q0 147 44 267t121.5 204t183 130t224.5 46q100 0 183 -27.5t146.5 -79t105.5 -122t61 -158.5h-162q-39 111 -119 175t-215 64q-90 0 -164.5 -35.5t-130 -101t-85 -158t-29.5 -204.5q0 -113 29.5 -205t84 -158.5t131 -103.5t168.5 -37q166 0 259.5 96t107.5 260 h-299v140h453v-86q0 -125 -38 -227.5t-106.5 -175.5t-165 -111.5t-211.5 -38.5q-121 0 -227.5 46t-184 130t-121.5 203.5t-44 267.5zM417 1610h117q0 -66 34 -98.5t85 -32.5q55 0 88 32.5t33 98.5h117q0 -59 -16.5 -105.5t-48.5 -78t-76 -47t-97 -15.5t-96 15.5t-74 47 t-48.5 77.5t-17.5 106z" />
<glyph unicode="&#x11f;" d="M72 467q0 92 26.5 175t77.5 146.5t127 101.5t176 38q43 0 81 -10.5t71 -27t59.5 -38t42.5 -45.5v102h156v-837q0 -113 -30 -195t-84 -136t-129 -82t-163 -28q-82 0 -149.5 20.5t-116.5 60.5t-81 95.5t-42 124.5h154q20 -86 80.5 -128t154.5 -42q125 0 187.5 76t62.5 223 v66q-16 -23 -42.5 -45.5t-59.5 -38.5t-71 -26.5t-81 -10.5q-100 0 -176 38t-127 102.5t-77.5 147.5t-26.5 173zM231 467q0 -70 17.5 -129t52.5 -101t86 -67t115 -25q74 0 135 38t96 104v362q-35 63 -96.5 102.5t-134.5 39.5q-63 0 -114.5 -25t-86.5 -68t-52.5 -101 t-17.5 -130zM297 1286h116q0 -70 30 -109.5t87 -39.5t87 40t30 109h116q0 -63 -17 -112.5t-48 -82t-74 -50t-94 -17.5t-94 17.5t-74 50t-48 82t-17 112.5z" />
<glyph unicode="&#x120;" horiz-adv-x="1249" d="M76 629q0 147 44 267t121.5 204t183 130t224.5 46q100 0 183 -27.5t146.5 -79t105.5 -122t61 -158.5h-162q-39 111 -119 175t-215 64q-90 0 -164.5 -35.5t-130 -101t-85 -158t-29.5 -204.5q0 -113 29.5 -205t84 -158.5t131 -103.5t168.5 -37q166 0 259.5 96t107.5 260 h-299v140h453v-86q0 -125 -38 -227.5t-106.5 -175.5t-165 -111.5t-211.5 -38.5q-121 0 -227.5 46t-184 130t-121.5 203.5t-44 267.5zM555 1477q0 43 28.5 71.5t71.5 28.5q41 0 69.5 -28.5t28.5 -71.5q0 -41 -28.5 -70t-69.5 -29q-43 0 -71.5 29t-28.5 70z" />
<glyph unicode="&#x121;" d="M72 467q0 92 26.5 175t77.5 146.5t127 101.5t176 38q43 0 81 -10.5t71 -27t59.5 -38t42.5 -45.5v102h156v-837q0 -113 -30 -195t-84 -136t-129 -82t-163 -28q-82 0 -149.5 20.5t-116.5 60.5t-81 95.5t-42 124.5h154q20 -86 80.5 -128t154.5 -42q125 0 187.5 76t62.5 223 v66q-16 -23 -42.5 -45.5t-59.5 -38.5t-71 -26.5t-81 -10.5q-100 0 -176 38t-127 102.5t-77.5 147.5t-26.5 173zM231 467q0 -70 17.5 -129t52.5 -101t86 -67t115 -25q74 0 135 38t96 104v362q-35 63 -96.5 102.5t-134.5 39.5q-63 0 -114.5 -25t-86.5 -68t-52.5 -101 t-17.5 -130zM432 1184q0 43 28.5 71.5t71.5 28.5q41 0 69.5 -28.5t28.5 -71.5q0 -41 -28.5 -70t-69.5 -29q-43 0 -71.5 29t-28.5 70z" />
<glyph unicode="&#x122;" horiz-adv-x="1249" d="M76 629q0 147 44 267t121.5 204t183 130t224.5 46q100 0 183 -27.5t146.5 -79t105.5 -122t61 -158.5h-162q-39 111 -119 175t-215 64q-90 0 -164.5 -35.5t-130 -101t-85 -158t-29.5 -204.5q0 -113 29.5 -205t84 -158.5t131 -103.5t168.5 -37q166 0 259.5 96t107.5 260 h-299v140h453v-86q0 -125 -38 -227.5t-106.5 -175.5t-165 -111.5t-211.5 -38.5q-121 0 -227.5 46t-184 130t-121.5 203.5t-44 267.5zM553 -190q0 43 29.5 70.5t72.5 27.5t71.5 -29t28.5 -74q0 -35 -13 -62.5t-30 -53.5l-59 -101h-98l82 131q-35 4 -59.5 28t-24.5 63z" />
<glyph unicode="&#x123;" d="M72 467q0 92 26.5 175t77.5 146.5t127 101.5t176 38q43 0 81 -10.5t71 -27t59.5 -38t42.5 -45.5v102h156v-837q0 -113 -30 -195t-84 -136t-129 -82t-163 -28q-82 0 -149.5 20.5t-116.5 60.5t-81 95.5t-42 124.5h154q20 -86 80.5 -128t154.5 -42q125 0 187.5 76t62.5 223 v66q-16 -23 -42.5 -45.5t-59.5 -38.5t-71 -26.5t-81 -10.5q-100 0 -176 38t-127 102.5t-77.5 147.5t-26.5 173zM231 467q0 -70 17.5 -129t52.5 -101t86 -67t115 -25q74 0 135 38t96 104v362q-35 63 -96.5 102.5t-134.5 39.5q-63 0 -114.5 -25t-86.5 -68t-52.5 -101 t-17.5 -130zM421 1171q0 35 14.5 64t31.5 57l61 101h98l-80 -133q35 -4 59.5 -30t24.5 -65q0 -41 -30.5 -69.5t-75.5 -28.5q-43 0 -73 28.5t-30 75.5z" />
<glyph unicode="&#x124;" horiz-adv-x="1333" d="M150 0v1257h161v-538h711v538h162v-1257h-162v573h-711v-573h-161zM406 1370l190 250h142l190 -250h-141l-119 146l-121 -146h-141z" />
<glyph unicode="&#x125;" horiz-adv-x="1003" d="M135 0v1331h156v-536q39 53 109.5 93t158.5 40q156 0 237 -91.5t81 -240.5v-596h-156v571q0 94 -48 154.5t-153 60.5q-39 0 -74.5 -13t-66.5 -35.5t-53.5 -53.5t-34.5 -68v-616h-156zM250 1397l190 250h142l190 -250h-141l-119 146l-121 -146h-141z" />
<glyph unicode="&#x126;" horiz-adv-x="1392" d="M66 881v135h112v241h162v-241h711v241h161v-241h115v-135h-115v-881h-161v500h-711v-500h-162v881h-112zM340 635h711v246h-711v-246z" />
<glyph unicode="&#x127;" horiz-adv-x="1003" d="M20 1047v110h117v174h156v-174h219v-110h-219v-252q39 53 108.5 93t157.5 40q156 0 238 -91.5t82 -240.5v-596h-156v571q0 94 -49 154.5t-152 60.5q-41 0 -76.5 -13t-65.5 -35.5t-52.5 -53.5t-34.5 -68v-616h-156v1047h-117z" />
<glyph unicode="&#x128;" horiz-adv-x="460" d="M-45 1368q0 55 9 99t29.5 77t49 50.5t67.5 17.5t68.5 -17.5t55.5 -39t50.5 -40t52.5 -18.5q33 0 50.5 28.5t19.5 80.5h98q0 -55 -9 -100.5t-28.5 -77t-49 -49t-68.5 -17.5t-69 18.5t-55.5 39t-50 39t-53.5 18.5q-35 0 -51 -28t-18 -81h-98zM150 0v1257h161v-1257h-161z " />
<glyph unicode="&#x129;" horiz-adv-x="428" d="M-14 1061q0 53 9 98t25.5 77t40 49.5t56.5 17.5q29 0 53.5 -17.5t45 -39t38.5 -40t35 -18.5q29 0 41 28.5t14 79.5h94q0 -53 -9 -98t-25.5 -76.5t-41 -49t-55.5 -17.5t-54.5 17.5t-44 40t-37.5 39.5t-38 17q-29 0 -40 -28.5t-13 -79.5h-94zM135 0v909h156v-909h-156z" />
<glyph unicode="&#x12a;" horiz-adv-x="460" d="M12 1374v125h438v-125h-438zM150 0v1257h161v-1257h-161z" />
<glyph unicode="&#x12b;" horiz-adv-x="425" d="M-4 1085v125h438v-125h-438zM135 0v909h156v-909h-156z" />
<glyph unicode="&#x12c;" horiz-adv-x="460" d="M-7 1610h117q0 -66 34 -98.5t85 -32.5q55 0 88 32.5t33 98.5h117q0 -59 -16.5 -105.5t-48.5 -78t-76 -47t-97 -15.5t-96 15.5t-74 47t-48.5 77.5t-17.5 106zM150 0v1257h161v-1257h-161z" />
<glyph unicode="&#x12d;" horiz-adv-x="425" d="M6 1286h115q0 -70 21.5 -109.5t72.5 -39.5q49 0 71.5 40t22.5 109h113q0 -127 -57.5 -194.5t-149.5 -67.5q-94 0 -151.5 66.5t-57.5 195.5zM135 0v909h156v-909h-156z" />
<glyph unicode="&#x12e;" horiz-adv-x="462" d="M90 -246q0 29 8 56.5t21.5 56.5t33 61.5t44.5 71.5h-45v1257h161v-1257q-31 -51 -50 -84t-30.5 -56.5t-16.5 -41t-5 -35.5q0 -27 13.5 -40t33.5 -13t36.5 8t39.5 22v-102q-23 -18 -49.5 -28.5t-57.5 -10.5q-35 0 -60.5 9.5t-41.5 26.5t-25.5 43t-9.5 56z" />
<glyph unicode="&#x12f;" horiz-adv-x="428" d="M70 -246q0 29 8 56.5t21.5 56.5t33 61.5t43.5 71.5h-39v909h156v-909q-31 -51 -50.5 -84t-30.5 -56.5t-16.5 -41t-5.5 -35.5q0 -27 13.5 -40t34.5 -13q20 0 36.5 8t38.5 22v-102q-23 -18 -49 -28.5t-57 -10.5q-35 0 -60.5 9.5t-42 26.5t-25.5 43t-9 56zM115 1184 q0 43 28.5 71.5t71.5 28.5q41 0 69.5 -28.5t28.5 -71.5q0 -41 -28.5 -70t-69.5 -29q-43 0 -71.5 29t-28.5 70z" />
<glyph unicode="&#x130;" horiz-adv-x="460" d="M131 1477q0 43 28.5 71.5t71.5 28.5q41 0 69.5 -28.5t28.5 -71.5q0 -41 -28.5 -70t-69.5 -29q-43 0 -71.5 29t-28.5 70zM150 0v1257h161v-1257h-161z" />
<glyph unicode="&#x131;" horiz-adv-x="425" d="M135 0v909h156v-909h-156z" />
<glyph unicode="&#x134;" horiz-adv-x="980" d="M35 358h168q12 -109 73.5 -169t167.5 -60q57 0 103.5 16.5t79 52t50 90t17.5 130.5v839h162v-839q0 -111 -29.5 -192t-84 -136t-130 -81.5t-166.5 -26.5q-92 0 -165.5 26.5t-126 76.5t-83 119.5t-36.5 153.5zM516 1370l191 250h141l190 -250h-141l-119 146l-121 -146 h-141z" />
<glyph unicode="&#x135;" horiz-adv-x="423" d="M-39 -227q8 -2 23.5 -4t29.5 -2q29 0 52.5 8t38 24.5t22.5 43t8 65.5v1001h156v-1013q0 -127 -67.5 -195t-196.5 -68q-14 0 -34 1t-32 8v131zM-10 1042l153 279h142l151 -279h-131l-92 175l-90 -175h-133z" />
<glyph unicode="&#x136;" horiz-adv-x="1155" d="M150 0v1257h161v-628l586 628h205l-539 -573l557 -684h-200l-474 573l-135 -145v-428h-161zM441 -190q0 43 29.5 70.5t72.5 27.5t71.5 -29t28.5 -74q0 -35 -13 -62.5t-30 -53.5l-59 -101h-98l82 131q-35 4 -59.5 28t-24.5 63z" />
<glyph unicode="&#x137;" horiz-adv-x="950" d="M135 0v1331h156v-825l416 403h202l-409 -393l424 -516h-191l-344 418l-98 -92v-326h-156zM365 -190q0 43 29.5 70.5t72.5 27.5t71.5 -29t28.5 -74q0 -35 -13 -62.5t-30 -53.5l-59 -101h-98l82 131q-35 4 -59.5 28t-24.5 63z" />
<glyph unicode="&#x138;" horiz-adv-x="950" d="M135 0v909h156v-403l416 403h202l-409 -393l424 -516h-191l-344 418l-98 -92v-326h-156z" />
<glyph unicode="&#x139;" horiz-adv-x="1032" d="M150 0v1257h161v-1112h641v-145h-802zM164 1368l164 240h178l-186 -240h-156z" />
<glyph unicode="&#x13a;" horiz-adv-x="425" d="M135 0v1331h156v-1331h-156zM135 1423l164 240h178l-186 -240h-156z" />
<glyph unicode="&#x13b;" horiz-adv-x="1032" d="M150 0v1257h161v-1112h641v-145h-802zM469 -190q0 43 29.5 70.5t72.5 27.5t71.5 -29t28.5 -74q0 -35 -13 -62.5t-30 -53.5l-59 -101h-98l82 131q-35 4 -59.5 28t-24.5 63z" />
<glyph unicode="&#x13c;" horiz-adv-x="425" d="M113 -190q0 43 29.5 70.5t72.5 27.5t71.5 -29t28.5 -74q0 -35 -13 -62.5t-30 -53.5l-59 -101h-98l82 131q-35 4 -59.5 28t-24.5 63zM135 0v1331h156v-1331h-156z" />
<glyph unicode="&#x13d;" horiz-adv-x="1032" d="M150 0v1257h161v-1112h641v-145h-802zM535 921l67 336h123l-68 -336h-122z" />
<glyph unicode="&#x13e;" horiz-adv-x="425" d="M135 0v1331h156v-1331h-156zM406 995l67 336h123l-68 -336h-122z" />
<glyph unicode="&#x13f;" horiz-adv-x="1032" d="M150 0v1257h161v-1112h641v-145h-802zM645 629q0 43 28.5 71.5t71.5 28.5q41 0 69.5 -28.5t28.5 -71.5q0 -41 -28.5 -70t-69.5 -29q-43 0 -71.5 29t-28.5 70z" />
<glyph unicode="&#x140;" horiz-adv-x="679" d="M135 0v1331h156v-1331h-156zM453 666q0 43 28.5 71.5t71.5 28.5q41 0 69.5 -28.5t28.5 -71.5q0 -41 -28.5 -70t-69.5 -29q-43 0 -71.5 29t-28.5 70z" />
<glyph unicode="&#x141;" horiz-adv-x="1073" d="M61 463v149l129 54v591h162v-532l314 129v-149l-314 -127v-433h641v-145h-803v514z" />
<glyph unicode="&#x142;" horiz-adv-x="503" d="M61 561v141l113 70v559h156v-483l123 80v-140l-123 -79v-709h-156v633z" />
<glyph unicode="&#x143;" horiz-adv-x="1275" d="M150 0v1257h153l668 -954v954h155v-1257h-118l-703 997v-997h-155zM549 1368l164 240h178l-186 -240h-156z" />
<glyph unicode="&#x144;" horiz-adv-x="1001" d="M135 0v909h156v-114q39 53 109.5 93t158.5 40q156 0 237 -91.5t81 -240.5v-596h-156v571q0 94 -48 154.5t-153 60.5q-39 0 -74.5 -13t-66.5 -35.5t-53.5 -53.5t-34.5 -68v-616h-156zM432 1057l164 274h162l-182 -274h-144z" />
<glyph unicode="&#x145;" horiz-adv-x="1275" d="M150 0v1257h153l668 -954v954h155v-1257h-118l-703 997v-997h-155zM541 -190q0 43 29.5 70.5t72.5 27.5t71.5 -29t28.5 -74q0 -35 -13 -62.5t-30 -53.5l-59 -101h-98l82 131q-35 4 -59.5 28t-24.5 63z" />
<glyph unicode="&#x146;" horiz-adv-x="1001" d="M135 0v909h156v-114q39 53 109.5 93t158.5 40q156 0 237 -91.5t81 -240.5v-596h-156v571q0 94 -48 154.5t-153 60.5q-39 0 -74.5 -13t-66.5 -35.5t-53.5 -53.5t-34.5 -68v-616h-156zM414 -190q0 43 29.5 70.5t72.5 27.5t71.5 -29t28.5 -74q0 -35 -13 -62.5t-30 -53.5 l-59 -101h-98l82 131q-35 4 -59.5 28t-24.5 63z" />
<glyph unicode="&#x147;" horiz-adv-x="1275" d="M150 0v1257h153l668 -954v954h155v-1257h-118l-703 997v-997h-155zM377 1612h141l121 -146l119 146h141l-190 -248h-142z" />
<glyph unicode="&#x148;" horiz-adv-x="1003" d="M135 0v909h156v-114q39 53 109.5 93t158.5 40q156 0 237 -91.5t81 -240.5v-596h-156v571q0 94 -48 154.5t-153 60.5q-39 0 -74.5 -13t-66.5 -35.5t-53.5 -53.5t-34.5 -68v-616h-156zM250 1323h135l127 -178l125 178h135l-190 -279h-142z" />
<glyph unicode="&#x14a;" horiz-adv-x="1275" d="M150 0v1257h153l668 -954v954h155v-1202q0 -115 -23.5 -196.5t-69.5 -136t-114.5 -80t-156.5 -25.5q-68 0 -122 17.5t-95 39.5v160q51 -33 100 -50t109 -17q109 0 163 65.5t54 218.5l-666 946v-997h-155z" />
<glyph unicode="&#x14b;" horiz-adv-x="1001" d="M135 0v909h156v-114q39 53 109.5 93t158.5 40q156 0 237 -91.5t81 -240.5v-700q0 -127 -68 -195t-197 -68q-14 0 -33.5 1t-31.5 8v131q8 -2 22.5 -4t28.5 -2q31 0 54.5 8t38 24.5t22.5 43t8 65.5v663q0 94 -48 154.5t-153 60.5q-39 0 -74.5 -13t-66.5 -35.5t-53.5 -53.5 t-34.5 -68v-616h-156z" />
<glyph unicode="&#x14c;" horiz-adv-x="1290" d="M76 629q0 143 43 262t117.5 205t179 133t229.5 47q123 0 227.5 -47t180 -133t118.5 -205t43 -262t-43 -262t-118.5 -204t-180 -133t-227.5 -48q-125 0 -229.5 48t-179 133t-117.5 203.5t-43 262.5zM240 629q0 -111 28.5 -203t83 -158.5t128 -103.5t165.5 -37q90 0 165 37 t128 103.5t83 158.5t30 203t-30 203t-83 158.5t-128 103t-165 36.5q-92 0 -165.5 -36.5t-128 -103t-83 -159t-28.5 -202.5zM426 1374v125h438v-125h-438z" />
<glyph unicode="&#x14d;" horiz-adv-x="978" d="M72 455q0 104 30.5 191t85 150.5t132 97.5t169.5 34q94 0 171 -34t132.5 -97.5t85 -150.5t29.5 -191t-29.5 -191.5t-85 -151t-132 -97t-171.5 -33.5q-92 0 -169.5 33.5t-132 97t-85 150.5t-30.5 192zM227 455q0 -76 17.5 -137.5t52.5 -106.5t83 -69.5t109 -24.5 t109.5 24.5t83.5 69.5t52.5 106.5t17.5 137.5q0 74 -17.5 136t-52.5 107t-83 70t-110 25q-61 0 -109 -25t-83 -70t-52.5 -107.5t-17.5 -135.5zM271 1085v125h438v-125h-438z" />
<glyph unicode="&#x14e;" horiz-adv-x="1290" d="M76 629q0 143 43 262t117.5 205t179 133t229.5 47q123 0 227.5 -47t180 -133t118.5 -205t43 -262t-43 -262t-118.5 -204t-180 -133t-227.5 -48q-125 0 -229.5 48t-179 133t-117.5 203.5t-43 262.5zM240 629q0 -111 28.5 -203t83 -158.5t128 -103.5t165.5 -37q90 0 165 37 t128 103.5t83 158.5t30 203t-30 203t-83 158.5t-128 103t-165 36.5q-92 0 -165.5 -36.5t-128 -103t-83 -159t-28.5 -202.5zM407 1610h117q0 -66 34 -98.5t85 -32.5q55 0 88 32.5t33 98.5h117q0 -59 -16.5 -105.5t-48.5 -78t-76 -47t-97 -15.5t-96 15.5t-74 47t-48.5 77.5 t-17.5 106z" />
<glyph unicode="&#x14f;" horiz-adv-x="978" d="M72 455q0 104 30.5 191t85 150.5t132 97.5t169.5 34q94 0 171 -34t132.5 -97.5t85 -150.5t29.5 -191t-29.5 -191.5t-85 -151t-132 -97t-171.5 -33.5q-92 0 -169.5 33.5t-132 97t-85 150.5t-30.5 192zM227 455q0 -76 17.5 -137.5t52.5 -106.5t83 -69.5t109 -24.5 t109.5 24.5t83.5 69.5t52.5 106.5t17.5 137.5q0 74 -17.5 136t-52.5 107t-83 70t-110 25q-61 0 -109 -25t-83 -70t-52.5 -107.5t-17.5 -135.5zM256 1286h116q0 -70 30 -109.5t87 -39.5t87 40t30 109h116q0 -63 -17 -112.5t-48 -82t-74 -50t-94 -17.5t-94 17.5t-74 50t-48 82 t-17 112.5z" />
<glyph unicode="&#x150;" horiz-adv-x="1290" d="M76 629q0 143 43 262t117.5 205t179 133t229.5 47q123 0 227.5 -47t180 -133t118.5 -205t43 -262t-43 -262t-118.5 -204t-180 -133t-227.5 -48q-125 0 -229.5 48t-179 133t-117.5 203.5t-43 262.5zM240 629q0 -111 28.5 -203t83 -158.5t128 -103.5t165.5 -37q90 0 165 37 t128 103.5t83 158.5t30 203t-30 203t-83 158.5t-128 103t-165 36.5q-92 0 -165.5 -36.5t-128 -103t-83 -159t-28.5 -202.5zM461 1368l137 240h135l-139 -240h-133zM713 1368l135 240h137l-139 -240h-133z" />
<glyph unicode="&#x151;" horiz-adv-x="978" d="M72 455q0 104 30.5 191t85 150.5t132 97.5t169.5 34q94 0 171 -34t132.5 -97.5t85 -150.5t29.5 -191t-29.5 -191.5t-85 -151t-132 -97t-171.5 -33.5q-92 0 -169.5 33.5t-132 97t-85 150.5t-30.5 192zM227 455q0 -76 17.5 -137.5t52.5 -106.5t83 -69.5t109 -24.5 t109.5 24.5t83.5 69.5t52.5 106.5t17.5 137.5q0 74 -17.5 136t-52.5 107t-83 70t-110 25q-61 0 -109 -25t-83 -70t-52.5 -107.5t-17.5 -135.5zM295 1057l137 274h131l-139 -274h-129zM539 1057l137 274h131l-137 -274h-131z" />
<glyph unicode="&#x152;" horiz-adv-x="1699" d="M76 629q0 143 43 260t124 198.5t193.5 125.5t249.5 44h911v-145h-608v-395h549v-144h-549v-428h608v-145h-911q-137 0 -249.5 44t-193.5 126t-124 198.5t-43 260.5zM238 629q0 -111 30.5 -200t89 -151.5t142.5 -97.5t190 -35h139v967h-139q-106 0 -190 -34t-142.5 -97 t-89 -152.5t-30.5 -199.5z" />
<glyph unicode="&#x153;" horiz-adv-x="1611" d="M72 455q0 104 30.5 191t85 150.5t132 97.5t169.5 34q113 0 198 -51.5t138 -139.5q53 88 137.5 139.5t198.5 51.5q92 0 164 -33t121 -92.5t73.5 -140t24.5 -181.5v-55h-643q0 -72 20.5 -130t55.5 -98t83 -62.5t103 -22.5q86 0 145.5 42t77.5 119h146q-25 -131 -119 -211.5 t-250 -80.5q-113 0 -198.5 49t-139.5 137q-53 -88 -139 -137t-197 -49q-92 0 -169.5 33.5t-132 97t-85 150.5t-30.5 192zM227 455q0 -76 17.5 -137.5t52.5 -106.5t83 -69.5t109 -24.5t109.5 24.5t83.5 69.5t52.5 106.5t17.5 137.5q0 74 -17.5 136t-52.5 107t-83 70t-110 25 q-61 0 -109 -25t-83 -70t-52.5 -107.5t-17.5 -135.5zM905 543h484q0 51 -14.5 97t-43 81t-71 55.5t-99.5 20.5q-102 0 -170.5 -67.5t-85.5 -186.5z" />
<glyph unicode="&#x154;" horiz-adv-x="1130" d="M150 0v1257h466q94 0 171 -23.5t130.5 -69.5t82 -114.5t28.5 -156.5q0 -90 -28.5 -157.5t-82 -112.5t-131.5 -68q-37 -12 -79 -18l372 -537h-184l-360 532h-224v-532h-161zM311 670h301q125 0 190.5 59t65.5 164q0 104 -65.5 163.5t-190.5 59.5h-301v-446zM465 1368 l164 240h178l-186 -240h-156z" />
<glyph unicode="&#x155;" horiz-adv-x="657" d="M135 0v909h156v-118q29 59 89 98t134 39q31 0 54.5 -4t35.5 -11v-157q-20 12 -47 18t-55 6q-74 0 -130.5 -45t-80.5 -125v-610h-156zM289 1057l164 274h162l-182 -274h-144z" />
<glyph unicode="&#x156;" horiz-adv-x="1130" d="M150 0v1257h466q94 0 171 -23.5t130.5 -69.5t82 -114.5t28.5 -156.5q0 -90 -28.5 -157.5t-82 -112.5t-131.5 -68q-37 -12 -79 -18l372 -537h-184l-360 532h-224v-532h-161zM311 670h301q125 0 190.5 59t65.5 164q0 104 -65.5 163.5t-190.5 59.5h-301v-446zM459 -190 q0 43 29.5 70.5t72.5 27.5t71.5 -29t28.5 -74q0 -35 -13 -62.5t-30 -53.5l-59 -101h-98l82 131q-35 4 -59.5 28t-24.5 63z" />
<glyph unicode="&#x157;" horiz-adv-x="657" d="M109 -190q0 43 29.5 70.5t72.5 27.5t71.5 -29t28.5 -74q0 -35 -13 -62.5t-30 -53.5l-59 -101h-98l82 131q-35 4 -59.5 28t-24.5 63zM135 0v909h156v-118q29 59 89 98t134 39q31 0 54.5 -4t35.5 -11v-157q-20 12 -47 18t-55 6q-74 0 -130.5 -45t-80.5 -125v-610h-156z" />
<glyph unicode="&#x158;" horiz-adv-x="1130" d="M150 0v1257h466q94 0 171 -23.5t130.5 -69.5t82 -114.5t28.5 -156.5q0 -90 -28.5 -157.5t-82 -112.5t-131.5 -68q-37 -12 -79 -18l372 -537h-184l-360 532h-224v-532h-161zM293 1612h141l121 -146l119 146h141l-190 -248h-142zM311 670h301q125 0 190.5 59t65.5 164 q0 104 -65.5 163.5t-190.5 59.5h-301v-446z" />
<glyph unicode="&#x159;" horiz-adv-x="657" d="M109 1323h135l127 -178l125 178h135l-190 -279h-142zM135 0v909h156v-118q29 59 89 98t134 39q31 0 54.5 -4t35.5 -11v-157q-20 12 -47 18t-55 6q-74 0 -130.5 -45t-80.5 -125v-610h-156z" />
<glyph unicode="&#x15a;" horiz-adv-x="1042" d="M47 328h166q35 -104 119 -156.5t198 -52.5q63 0 113.5 15.5t87.5 43t57.5 68.5t20.5 92q0 74 -45 123t-154 76l-227 59q-66 16 -121 42t-95 64.5t-62.5 92t-22.5 125.5q0 80 31.5 145t87 112.5t130.5 73t165 25.5q98 0 175 -23.5t135 -67.5t96 -105.5t54 -135.5h-161 q-29 86 -100.5 140.5t-196.5 54.5q-57 0 -104.5 -14.5t-82.5 -42t-54 -65.5t-19 -85q0 -39 12 -70t37.5 -53.5t62.5 -38.5t86 -31l217 -55q150 -39 231 -122t81 -216q0 -84 -33 -152.5t-90.5 -115.5t-137 -71.5t-174.5 -24.5q-186 0 -316 90t-167 256zM416 1368l164 240h178 l-186 -240h-156z" />
<glyph unicode="&#x15b;" horiz-adv-x="847" d="M61 250h160q20 -70 76.5 -104.5t136.5 -34.5q41 0 75 9t59.5 25.5t40 42t14.5 60.5q0 47 -33 76.5t-105 48.5l-178 47q-96 23 -158.5 78t-62.5 161q0 61 25.5 110.5t69.5 84.5t103.5 54.5t129.5 19.5q152 0 239.5 -68.5t112.5 -189.5h-154q-20 61 -68 95t-132 34 q-68 0 -121 -33t-53 -98q0 -47 30.5 -72t96.5 -43l176 -43q117 -31 174 -94.5t57 -159.5q0 -63 -25.5 -115.5t-70.5 -87.5t-107.5 -53t-134.5 -18q-76 0 -139.5 18t-111.5 53t-79.5 84t-42.5 113zM342 1057l164 274h162l-182 -274h-144z" />
<glyph unicode="&#x15c;" horiz-adv-x="1040" d="M47 328h166q35 -104 119 -156.5t198 -52.5q63 0 113.5 15.5t87.5 43t57.5 68.5t20.5 92q0 74 -45 123t-154 76l-227 59q-66 16 -121 42t-95 64.5t-62.5 92t-22.5 125.5q0 80 31.5 145t87 112.5t130.5 73t165 25.5q98 0 175 -23.5t135 -67.5t96 -105.5t54 -135.5h-161 q-29 86 -100.5 140.5t-196.5 54.5q-57 0 -104.5 -14.5t-82.5 -42t-54 -65.5t-19 -85q0 -39 12 -70t37.5 -53.5t62.5 -38.5t86 -31l217 -55q150 -39 231 -122t81 -216q0 -84 -33 -152.5t-90.5 -115.5t-137 -71.5t-174.5 -24.5q-186 0 -316 90t-167 256zM250 1370l190 250h142 l190 -250h-141l-119 146l-121 -146h-141z" />
<glyph unicode="&#x15d;" horiz-adv-x="847" d="M61 250h160q20 -70 76.5 -104.5t136.5 -34.5q41 0 75 9t59.5 25.5t40 42t14.5 60.5q0 47 -33 76.5t-105 48.5l-178 47q-96 23 -158.5 78t-62.5 161q0 61 25.5 110.5t69.5 84.5t103.5 54.5t129.5 19.5q152 0 239.5 -68.5t112.5 -189.5h-154q-20 61 -68 95t-132 34 q-68 0 -121 -33t-53 -98q0 -47 30.5 -72t96.5 -43l176 -43q117 -31 174 -94.5t57 -159.5q0 -63 -25.5 -115.5t-70.5 -87.5t-107.5 -53t-134.5 -18q-76 0 -139.5 18t-111.5 53t-79.5 84t-42.5 113zM162 1042l190 279h142l190 -279h-135l-125 181l-127 -181h-135z" />
<glyph unicode="&#x15e;" horiz-adv-x="1042" d="M47 328h166q35 -104 119 -156.5t198 -52.5q63 0 113.5 15.5t87.5 43t57.5 68.5t20.5 92q0 74 -45 123t-154 76l-227 59q-66 16 -121 42t-95 64.5t-62.5 92t-22.5 125.5q0 80 31.5 145t87 112.5t130.5 73t165 25.5q98 0 175 -23.5t135 -67.5t96 -105.5t54 -135.5h-161 q-29 86 -100.5 140.5t-196.5 54.5q-57 0 -104.5 -14.5t-82.5 -42t-54 -65.5t-19 -85q0 -39 12 -70t37.5 -53.5t62.5 -38.5t86 -31l217 -55q150 -39 231 -122t81 -216q0 -84 -33 -152.5t-90.5 -115.5t-137 -71.5t-174.5 -24.5q-186 0 -316 90t-167 256zM304 -375l135 271h153 l-143 -271h-145z" />
<glyph unicode="&#x15f;" horiz-adv-x="847" d="M61 250h160q20 -70 76.5 -104.5t136.5 -34.5q41 0 75 9t59.5 25.5t40 42t14.5 60.5q0 47 -33 76.5t-105 48.5l-178 47q-96 23 -158.5 78t-62.5 161q0 61 25.5 110.5t69.5 84.5t103.5 54.5t129.5 19.5q152 0 239.5 -68.5t112.5 -189.5h-154q-20 61 -68 95t-132 34 q-68 0 -121 -33t-53 -98q0 -47 30.5 -72t96.5 -43l176 -43q117 -31 174 -94.5t57 -159.5q0 -63 -25.5 -115.5t-70.5 -87.5t-107.5 -53t-134.5 -18q-76 0 -139.5 18t-111.5 53t-79.5 84t-42.5 113zM222 -375l135 271h153l-143 -271h-145z" />
<glyph unicode="&#x160;" horiz-adv-x="1040" d="M47 328h166q35 -104 119 -156.5t198 -52.5q63 0 113.5 15.5t87.5 43t57.5 68.5t20.5 92q0 74 -45 123t-154 76l-227 59q-66 16 -121 42t-95 64.5t-62.5 92t-22.5 125.5q0 80 31.5 145t87 112.5t130.5 73t165 25.5q98 0 175 -23.5t135 -67.5t96 -105.5t54 -135.5h-161 q-29 86 -100.5 140.5t-196.5 54.5q-57 0 -104.5 -14.5t-82.5 -42t-54 -65.5t-19 -85q0 -39 12 -70t37.5 -53.5t62.5 -38.5t86 -31l217 -55q150 -39 231 -122t81 -216q0 -84 -33 -152.5t-90.5 -115.5t-137 -71.5t-174.5 -24.5q-186 0 -316 90t-167 256zM250 1612h141 l121 -146l119 146h141l-190 -248h-142z" />
<glyph unicode="&#x161;" horiz-adv-x="847" d="M61 250h160q20 -70 76.5 -104.5t136.5 -34.5q41 0 75 9t59.5 25.5t40 42t14.5 60.5q0 47 -33 76.5t-105 48.5l-178 47q-96 23 -158.5 78t-62.5 161q0 61 25.5 110.5t69.5 84.5t103.5 54.5t129.5 19.5q152 0 239.5 -68.5t112.5 -189.5h-154q-20 61 -68 95t-132 34 q-68 0 -121 -33t-53 -98q0 -47 30.5 -72t96.5 -43l176 -43q117 -31 174 -94.5t57 -159.5q0 -63 -25.5 -115.5t-70.5 -87.5t-107.5 -53t-134.5 -18q-76 0 -139.5 18t-111.5 53t-79.5 84t-42.5 113zM162 1323h135l127 -178l125 178h135l-190 -279h-142z" />
<glyph unicode="&#x162;" horiz-adv-x="1161" d="M61 1112v145h1039v-145h-438v-1112h-162v1112h-439zM484 -190q0 43 29.5 70.5t72.5 27.5t71.5 -29t28.5 -74q0 -35 -13 -62.5t-30 -53.5l-59 -101h-98l82 131q-35 4 -59.5 28t-24.5 63z" />
<glyph unicode="&#x163;" horiz-adv-x="651" d="M33 778v131h147v240h156v-240h219v-131h-219v-532q0 -66 30.5 -95.5t88.5 -29.5q33 0 64.5 9t55.5 26v-144q-27 -14 -64.5 -22t-80.5 -8q-111 0 -180.5 60t-69.5 187v549h-147zM283 -190q0 43 29.5 70.5t72.5 27.5t71.5 -29t28.5 -74q0 -35 -13 -62.5t-30 -53.5l-59 -101 h-98l80 131q-35 4 -58.5 28t-23.5 63z" />
<glyph unicode="&#x164;" horiz-adv-x="1161" d="M61 1112v145h1039v-145h-438v-1112h-162v1112h-439zM320 1612h141l121 -146l119 146h141l-190 -248h-142z" />
<glyph unicode="&#x165;" horiz-adv-x="649" d="M33 778v131h147v240h156v-240h219v-131h-219v-532q0 -66 30.5 -95.5t88.5 -29.5q33 0 64.5 9t55.5 26v-144q-27 -14 -64.5 -22t-80.5 -8q-111 0 -180.5 60t-69.5 187v549h-147zM444 1016l68 336h123l-68 -336h-123z" />
<glyph unicode="&#x166;" horiz-adv-x="1161" d="M61 1112v145h1039v-145h-438v-393h231v-137h-231v-582h-162v582h-234v137h234v393h-439z" />
<glyph unicode="&#x167;" horiz-adv-x="659" d="M41 778v131h147v240h156v-240h219v-131h-219v-205h184v-124h-184v-203q0 -66 31 -95.5t88 -29.5q33 0 64.5 9t56.5 26v-144q-27 -14 -65 -22t-81 -8q-111 0 -180.5 60t-69.5 187v220h-129v124h129v205h-147z" />
<glyph unicode="&#x168;" horiz-adv-x="1241" d="M127 500v757h162v-739q0 -100 22.5 -174t66.5 -122t104.5 -71.5t138.5 -23.5q74 0 135 23.5t104 71.5t67.5 122t24.5 174v739h162v-759q0 -129 -38 -226.5t-102.5 -162t-155.5 -96t-197 -31.5q-109 0 -199 31.5t-155.5 96t-102.5 163t-37 227.5zM347 1368q0 55 9 99 t29.5 77t49 50.5t67.5 17.5t68.5 -17.5t55.5 -39t50.5 -40t52.5 -18.5q33 0 50.5 28.5t19.5 80.5h98q0 -55 -9 -100.5t-28.5 -77t-49 -49t-68.5 -17.5t-69 18.5t-55.5 39t-50 39t-53.5 18.5q-35 0 -51 -28t-18 -81h-98z" />
<glyph unicode="&#x169;" horiz-adv-x="997" d="M125 313v596h156v-571q0 -94 48 -154.5t150 -60.5q80 0 141.5 48t86.5 122v616h155v-909h-155v115q-39 -53 -108 -93t-157 -40q-156 0 -236.5 91t-80.5 240zM230 1061q0 53 9 98t29.5 77t49 49.5t67.5 17.5q37 0 66 -18.5t54.5 -41t47 -41t45.5 -18.5q35 0 52.5 30.5 t17.5 81.5h100q0 -53 -10 -98t-29.5 -76.5t-49 -49t-68.5 -17.5q-35 0 -64 18.5t-53.5 41t-48 41t-47.5 18.5q-35 0 -51.5 -31t-18.5 -82h-98z" />
<glyph unicode="&#x16a;" horiz-adv-x="1241" d="M127 500v757h162v-739q0 -100 22.5 -174t66.5 -122t104.5 -71.5t138.5 -23.5q74 0 135 23.5t104 71.5t67.5 122t24.5 174v739h162v-759q0 -129 -38 -226.5t-102.5 -162t-155.5 -96t-197 -31.5q-109 0 -199 31.5t-155.5 96t-102.5 163t-37 227.5zM404 1374v125h438v-125 h-438z" />
<glyph unicode="&#x16b;" horiz-adv-x="997" d="M125 313v596h156v-571q0 -94 48 -154.5t150 -60.5q80 0 141.5 48t86.5 122v616h155v-909h-155v115q-39 -53 -108 -93t-157 -40q-156 0 -236.5 91t-80.5 240zM281 1085v125h438v-125h-438z" />
<glyph unicode="&#x16c;" horiz-adv-x="1241" d="M127 500v757h162v-739q0 -100 22.5 -174t66.5 -122t104.5 -71.5t138.5 -23.5q74 0 135 23.5t104 71.5t67.5 122t24.5 174v739h162v-759q0 -129 -38 -226.5t-102.5 -162t-155.5 -96t-197 -31.5q-109 0 -199 31.5t-155.5 96t-102.5 163t-37 227.5zM385 1610h117 q0 -66 34 -98.5t85 -32.5q55 0 88 32.5t33 98.5h117q0 -59 -16.5 -105.5t-48.5 -78t-76 -47t-97 -15.5t-96 15.5t-74 47t-48.5 77.5t-17.5 106z" />
<glyph unicode="&#x16d;" horiz-adv-x="997" d="M125 313v596h156v-571q0 -94 48 -154.5t150 -60.5q80 0 141.5 48t86.5 122v616h155v-909h-155v115q-39 -53 -108 -93t-157 -40q-156 0 -236.5 91t-80.5 240zM265 1286h116q0 -70 30 -109.5t87 -39.5t87 40t30 109h116q0 -63 -17 -112.5t-48 -82t-74 -50t-94 -17.5 t-94 17.5t-74 50t-48 82t-17 112.5z" />
<glyph unicode="&#x16e;" horiz-adv-x="1241" d="M127 500v757h162v-739q0 -100 22.5 -174t66.5 -122t104.5 -71.5t138.5 -23.5q74 0 135 23.5t104 71.5t67.5 122t24.5 174v739h162v-759q0 -129 -38 -226.5t-102.5 -162t-155.5 -96t-197 -31.5q-109 0 -199 31.5t-155.5 96t-102.5 163t-37 227.5zM443 1505q0 35 13 68 t39 56.5t57.5 37.5t70.5 14q35 0 67.5 -14t58.5 -37.5t39 -56.5t13 -68q0 -39 -13 -70.5t-39 -55t-58.5 -38t-67.5 -14.5q-39 0 -70.5 14.5t-57.5 38t-39 55t-13 70.5zM529 1505q0 -41 27.5 -67.5t66.5 -26.5q37 0 64.5 26.5t27.5 67.5q0 39 -27.5 65.5t-64.5 26.5 q-39 0 -66.5 -26.5t-27.5 -65.5z" />
<glyph unicode="&#x16f;" horiz-adv-x="997" d="M125 313v596h156v-571q0 -94 48 -154.5t150 -60.5q80 0 141.5 48t86.5 122v616h155v-909h-155v115q-39 -53 -108 -93t-157 -40q-156 0 -236.5 91t-80.5 240zM320 1188q0 37 13 69.5t39 56t57.5 37t70.5 13.5q35 0 67.5 -13.5t58.5 -37t39 -56t13 -69.5q0 -39 -13 -71 t-39 -55.5t-58.5 -36.5t-67.5 -13q-39 0 -70.5 13t-57.5 36.5t-39 55.5t-13 71zM406 1188q0 -39 27.5 -65.5t66.5 -26.5q37 0 64.5 26.5t27.5 65.5t-27.5 65.5t-64.5 26.5q-39 0 -66.5 -26.5t-27.5 -65.5z" />
<glyph unicode="&#x170;" horiz-adv-x="1241" d="M127 500v757h162v-739q0 -100 22.5 -174t66.5 -122t104.5 -71.5t138.5 -23.5q74 0 135 23.5t104 71.5t67.5 122t24.5 174v739h162v-759q0 -129 -38 -226.5t-102.5 -162t-155.5 -96t-197 -31.5q-109 0 -199 31.5t-155.5 96t-102.5 163t-37 227.5zM438 1368l137 240h135 l-139 -240h-133zM690 1368l135 240h137l-139 -240h-133z" />
<glyph unicode="&#x171;" horiz-adv-x="997" d="M125 313v596h156v-571q0 -94 48 -154.5t150 -60.5q80 0 141.5 48t86.5 122v616h155v-909h-155v115q-39 -53 -108 -93t-157 -40q-156 0 -236.5 91t-80.5 240zM303 1057l137 274h131l-139 -274h-129zM547 1057l137 274h131l-137 -274h-131z" />
<glyph unicode="&#x172;" horiz-adv-x="1241" d="M127 500v757h162v-739q0 -100 22.5 -174t66.5 -122t104.5 -71.5t138.5 -23.5q74 0 135 23.5t104 71.5t67.5 122t24.5 174v739h162v-759q0 -84 -15.5 -153t-44 -122t-70.5 -98t-95 -82q-109 -78 -148 -142.5t-39 -117.5q0 -25 12.5 -39t33.5 -14q20 0 36.5 8t38.5 22v-102 q-23 -18 -48 -28.5t-58 -10.5t-58.5 9.5t-43 27.5t-25.5 44t-8 56q0 18 3 38t10 39.5t16.5 40t21.5 39.5t28.5 37.5t34.5 37.5q-18 -4 -37.5 -5t-37.5 -1q-109 0 -199 31.5t-155.5 96t-102.5 163t-37 227.5z" />
<glyph unicode="&#x173;" horiz-adv-x="999" d="M125 313v596h156v-571q0 -94 48 -154.5t150 -60.5q80 0 141.5 48t86.5 122v616h155v-909q-29 -51 -48 -84t-30.5 -56.5t-16.5 -41t-5 -35.5q0 -27 12 -40t35 -13q18 0 35.5 8t40.5 22v-102q-23 -18 -49.5 -28.5t-59.5 -10.5t-58.5 9.5t-43 26.5t-25.5 43t-8 56 q0 29 7 56.5t21.5 56.5t34 61.5t44.5 71.5h-41v115q-39 -53 -108 -93t-157 -40q-156 0 -236.5 91t-80.5 240z" />
<glyph unicode="&#x174;" horiz-adv-x="1570" d="M39 1257h160l256 -999l266 999h131l266 -999l256 999h158l-334 -1257h-147l-267 981l-266 -981h-147zM524 1370l190 250h142l190 -250h-141l-119 146l-121 -146h-141z" />
<glyph unicode="&#x175;" horiz-adv-x="1288" d="M37 909h156l198 -694l187 694h137l186 -694l201 694h149l-268 -909h-149l-189 688l-190 -688h-150zM383 1042l190 279h142l190 -279h-135l-125 181l-127 -181h-135z" />
<glyph unicode="&#x176;" horiz-adv-x="1142" d="M35 1257h176l364 -591l361 591h172l-457 -739v-518h-159v518zM309 1370l190 250h142l190 -250h-141l-119 146l-121 -146h-141z" />
<glyph unicode="&#x177;" horiz-adv-x="931" d="M37 909h168l266 -716l264 716h160l-489 -1257h-152l137 342zM205 1042l190 279h142l190 -279h-135l-125 181l-127 -181h-135z" />
<glyph unicode="&#x178;" horiz-adv-x="1142" d="M35 1257h176l364 -591l361 591h172l-457 -739v-518h-159v518zM333 1479q0 41 28 67.5t69 26.5q39 0 66.5 -26.5t27.5 -67.5q0 -39 -27.5 -67t-66.5 -28q-41 0 -69 28t-28 67zM620 1479q0 41 27.5 67.5t66.5 26.5t68 -26.5t29 -67.5q0 -39 -29 -67t-68 -28t-66.5 28 t-27.5 67z" />
<glyph unicode="&#x179;" horiz-adv-x="1093" d="M84 0v117l713 995h-703v145h903v-114l-710 -998h721v-145h-924zM498 1368l164 240h178l-186 -240h-156z" />
<glyph unicode="&#x17a;" horiz-adv-x="888" d="M84 0v102l508 676h-492v131h691v-102l-506 -676h514v-131h-715zM377 1057l164 274h162l-182 -274h-144z" />
<glyph unicode="&#x17b;" horiz-adv-x="1093" d="M84 0v117l713 995h-703v145h903v-114l-710 -998h721v-145h-924zM488 1477q0 43 28.5 71.5t71.5 28.5q41 0 69.5 -28.5t28.5 -71.5q0 -41 -28.5 -70t-69.5 -29q-43 0 -71.5 29t-28.5 70z" />
<glyph unicode="&#x17c;" horiz-adv-x="888" d="M84 0v102l508 676h-492v131h691v-102l-506 -676h514v-131h-715zM359 1184q0 43 28.5 71.5t71.5 28.5q41 0 69.5 -28.5t28.5 -71.5q0 -41 -28.5 -70t-69.5 -29q-43 0 -71.5 29t-28.5 70z" />
<glyph unicode="&#x17d;" horiz-adv-x="1093" d="M84 0v117l713 995h-703v145h903v-114l-710 -998h721v-145h-924zM326 1612h141l121 -146l119 146h141l-190 -248h-142z" />
<glyph unicode="&#x17e;" horiz-adv-x="888" d="M84 0v102l508 676h-492v131h691v-102l-506 -676h514v-131h-715zM197 1323h135l127 -178l125 178h135l-190 -279h-142z" />
<glyph unicode="&#x2c6;" d="M250 1042l190 279h142l190 -279h-135l-125 181l-127 -181h-135z" />
<glyph unicode="&#x2c7;" d="M250 1323h135l127 -178l125 178h135l-190 -279h-142z" />
<glyph unicode="&#x2d8;" d="M279 1286h116q0 -70 30 -109.5t87 -39.5t87 40t30 109h116q0 -63 -17 -112.5t-48 -82t-74 -50t-94 -17.5t-94 17.5t-74 50t-48 82t-17 112.5z" />
<glyph unicode="&#x2d9;" d="M412 1184q0 43 28.5 71.5t71.5 28.5q41 0 69.5 -28.5t28.5 -71.5q0 -41 -28.5 -70t-69.5 -29q-43 0 -71.5 29t-28.5 70z" />
<glyph unicode="&#x2da;" d="M332 1188q0 37 13 69.5t39 56t57.5 37t70.5 13.5q35 0 67.5 -13.5t58.5 -37t39 -56t13 -69.5q0 -39 -13 -71t-39 -55.5t-58.5 -36.5t-67.5 -13q-39 0 -70.5 13t-57.5 36.5t-39 55.5t-13 71zM418 1188q0 -39 27.5 -65.5t66.5 -26.5q37 0 64.5 26.5t27.5 65.5t-27.5 65.5 t-64.5 26.5q-39 0 -66.5 -26.5t-27.5 -65.5z" />
<glyph unicode="&#x2db;" d="M395 -246q0 29 8.5 57.5t23.5 58.5t35.5 63.5t45.5 74.5h115q-31 -51 -51.5 -85t-32 -59.5t-17.5 -44t-6 -36.5q0 -27 13.5 -40t33.5 -13t36.5 8t39.5 22v-102q-23 -18 -49.5 -28.5t-57.5 -10.5q-35 0 -60.5 9.5t-41.5 26.5t-25.5 43t-9.5 56z" />
<glyph unicode="&#x2dc;" d="M244 1061q0 53 9 98t29.5 77t49 49.5t67.5 17.5q37 0 66 -18.5t54.5 -41t47 -41t45.5 -18.5q35 0 52.5 30.5t17.5 81.5h100q0 -53 -10 -98t-29.5 -76.5t-49 -49t-68.5 -17.5q-35 0 -64 18.5t-53.5 41t-48 41t-47.5 18.5q-35 0 -51.5 -31t-18.5 -82h-98z" />
<glyph unicode="&#x2dd;" d="M256 1057l137 274h131l-139 -274h-129zM500 1057l137 274h131l-137 -274h-131z" />
<glyph unicode="&#x2000;" horiz-adv-x="840" />
<glyph unicode="&#x2001;" horiz-adv-x="1681" />
<glyph unicode="&#x2002;" horiz-adv-x="840" />
<glyph unicode="&#x2003;" horiz-adv-x="1681" />
<glyph unicode="&#x2004;" horiz-adv-x="560" />
<glyph unicode="&#x2005;" horiz-adv-x="420" />
<glyph unicode="&#x2006;" horiz-adv-x="280" />
<glyph unicode="&#x2007;" horiz-adv-x="280" />
<glyph unicode="&#x2008;" horiz-adv-x="210" />
<glyph unicode="&#x2009;" horiz-adv-x="336" />
<glyph unicode="&#x200a;" horiz-adv-x="93" />
<glyph unicode="&#x2010;" horiz-adv-x="657" d="M82 463v143h493v-143h-493z" />
<glyph unicode="&#x2011;" horiz-adv-x="657" d="M82 463v143h493v-143h-493z" />
<glyph unicode="&#x2012;" horiz-adv-x="657" d="M82 463v143h493v-143h-493z" />
<glyph unicode="&#x2013;" horiz-adv-x="972" d="M82 473v125h809v-125h-809z" />
<glyph unicode="&#x2014;" horiz-adv-x="1732" d="M82 473v125h1569v-125h-1569z" />
<glyph unicode="&#x2018;" horiz-adv-x="344" d="M51 954q0 33 13.5 66t31.5 63l105 174h104l-125 -210q39 -6 64.5 -33t25.5 -70q0 -47 -31.5 -78.5t-76.5 -31.5q-47 0 -79 31.5t-32 88.5z" />
<glyph unicode="&#x2019;" horiz-adv-x="344" d="M39 854l125 209q-39 8 -64.5 34.5t-25.5 69.5q0 47 31.5 78t76.5 31q47 0 79 -31t32 -88q0 -33 -13.5 -66.5t-31.5 -62.5l-105 -174h-104z" />
<glyph unicode="&#x201a;" horiz-adv-x="329" d="M39 -211l125 211q-39 6 -64.5 32.5t-25.5 69.5q0 47 31.5 79t76.5 32q47 0 79 -31.5t32 -89.5q0 -33 -13.5 -65.5t-31.5 -63.5l-105 -174h-104z" />
<glyph unicode="&#x201c;" horiz-adv-x="659" d="M51 954q0 33 13.5 66t31.5 63l105 174h104l-125 -210q39 -6 64.5 -33t25.5 -70q0 -47 -31.5 -78.5t-76.5 -31.5q-47 0 -79 31.5t-32 88.5zM367 954q0 33 12 66t33 63l104 174h105l-125 -210q37 -6 63.5 -33t26.5 -70q0 -47 -32 -78.5t-79 -31.5t-77.5 31.5t-30.5 88.5z " />
<glyph unicode="&#x201d;" horiz-adv-x="659" d="M39 854l125 209q-39 8 -64.5 34.5t-25.5 69.5q0 47 31.5 78t76.5 31q47 0 79 -31t32 -88q0 -33 -13.5 -66.5t-31.5 -62.5l-105 -174h-104zM354 854l123 209q-37 8 -63.5 34.5t-26.5 69.5q0 47 32 78t79 31t78.5 -31t31.5 -88q0 -33 -13 -66.5t-34 -62.5l-102 -174h-105z " />
<glyph unicode="&#x201e;" horiz-adv-x="659" d="M39 -211l125 211q-39 6 -64.5 32.5t-25.5 69.5q0 47 31.5 79t76.5 32q47 0 79 -31.5t32 -89.5q0 -33 -13.5 -65.5t-31.5 -63.5l-105 -174h-104zM354 -211l123 211q-37 6 -63.5 32.5t-26.5 69.5q0 47 32 79t79 32t78.5 -31.5t31.5 -89.5q0 -33 -13 -65.5t-34 -63.5 l-102 -174h-105z" />
<glyph unicode="&#x2026;" horiz-adv-x="1136" d="M66 100q0 47 31.5 80t78.5 33q23 0 42.5 -9t34.5 -23.5t23.5 -35t8.5 -45.5t-8.5 -44t-23.5 -34.5t-34.5 -23.5t-42.5 -8t-43 8t-34.5 23.5t-23.5 34.5t-9 44zM459 100q0 47 31.5 80t76.5 33q23 0 43.5 -9t34.5 -23.5t23.5 -35t9.5 -45.5t-9.5 -44t-23.5 -34.5 t-34.5 -23.5t-43.5 -8q-20 0 -40.5 8t-36 23.5t-23.5 34.5t-8 44zM852 100q0 47 31.5 80t77.5 33q23 0 43 -9t34.5 -23.5t23.5 -35t9 -45.5t-9 -44t-23.5 -34.5t-35 -23.5t-42.5 -8q-23 0 -42.5 8t-35 23.5t-23.5 34.5t-8 44z" />
<glyph unicode="&#x202f;" horiz-adv-x="336" />
<glyph unicode="&#x2039;" horiz-adv-x="440" d="M51 455l189 303h149l-188 -303l188 -303h-149z" />
<glyph unicode="&#x203a;" horiz-adv-x="440" d="M51 152l189 303l-189 303h150l188 -303l-188 -303h-150z" />
<glyph unicode="&#x205f;" horiz-adv-x="420" />
<glyph unicode="&#x20ac;" horiz-adv-x="1112" d="M59 430v123h109q-2 37 -2 76q0 33 2 65h-109v123h123q8 41 21 78q37 121 103.5 205t155.5 130t193 46q80 0 145.5 -22.5t117 -66.5t88 -108.5t53.5 -146.5h-148q-29 94 -93 148.5t-163 54.5q-76 0 -138 -37t-105 -103.5t-66 -160.5q-2 -8 -4 -17h420l-25 -123h-411 q-2 -33 -2 -65q0 -39 2 -76h391l-27 -123h-346q0 -4 2 -8q23 -92 66 -158.5t105.5 -103.5t137.5 -37q98 0 163 54t93 149h148q-16 -82 -53 -146.5t-88.5 -108.5t-117 -66.5t-145.5 -22.5q-104 0 -193 46t-155.5 130t-103.5 202q-10 35 -19 70h-125z" />
<glyph unicode="&#x2122;" horiz-adv-x="1198" d="M37 1163v94h444v-94h-168v-426h-108v426h-168zM563 737v520h133l142 -366l141 366h131v-520h-104v344l-132 -344h-73l-133 344v-344h-105z" />
<glyph unicode="&#x25fc;" horiz-adv-x="911" d="M0 0v911h911v-911h-911z" />
</font>
</defs>
</svg>
