<svg xmlns="http://www.w3.org/2000/svg" width="400" height="164" viewBox="0 0 400 164"><path fill="#424B52" fill-rule="nonzero" d="M0 0h400v163.807H0V0zm12.851 142.706h46.563c30.928 0 43.674-20.731 46.222-36.536 2.72-17.164-4.588-27.698-21.41-29.06v-.339c14.612 0 25.83-11.216 28.037-25.66 4.42-27.7-18.012-36.537-38.404-36.537H33.073L12.851 142.706zm47.072-78.34l3.57-22.092h3.399c7.136 0 11.894 3.228 10.534 10.877-1.19 8.325-8.326 11.215-15.463 11.215h-2.04zm-7.987 50.642l3.909-24.64h2.719c7.987 0 13.935 3.567 12.576 12.235-1.36 8.666-8.668 12.405-16.315 12.405h-2.889zm51.192 27.719h54.442l4.27-27.144h-23.331l13.876-87.84h-31.11l-18.147 114.984zm77.377-114.984l-18.148 114.984h57.799l4.268-27.144h-26.687l2.745-17.538h23.942l4.422-27.145h-23.94l2.438-16.013h26.688l4.27-27.144h-57.797zm49.985 76.25v-.001l-5.643 35.99c6.864 3.051 14.64 4.728 22.57 4.728 21.655 0 39.346-17.08 42.7-38.431 1.372-8.692.305-14.791-2.44-19.977-2.745-5.185-7.32-9.455-13.114-14.03-1.373-1.372-3.508-2.897-4.88-4.727-1.373-1.831-2.441-3.965-1.983-6.405.61-4.423 5.49-7.015 9.15-7.015 7.167 0 13.572 6.558 16.317 12.352l5.49-34.922c-5.947-3.507-13.725-5.795-21.197-5.795-26.536 0-38.887 24.4-41.023 37.82-1.372 8.388.153 14.792 3.05 20.129 3.204 5.49 7.778 9.913 13.116 14.64 1.83 1.373 3.355 2.745 4.422 4.423 1.373 1.678 1.982 3.66 1.525 6.406-.763 5.032-6.1 7.625-10.37 7.625-7.93 0-14.335-6.405-17.69-12.81zm110.712 38.734H374.6l-18.3-59.475 33.549-55.509h-32.788l-24.704 48.952h-.458l-.153.305.459-.305h-.153.153l7.624-48.952h-31.11l-18.147 114.984h31.11l8.387-52.764h.305-.152l10.98 52.764z"/></svg>