<svg xmlns="http://www.w3.org/2000/svg" width="173" height="100" viewBox="0 0 173 100"><g fill="#424B52" fill-rule="evenodd"><path d="M136.514 34.437c0 3.948-.272 9.76-1.195 15.224-2.215 13.116-5.624 16.087-23.893 17.547-6.637.528-13.822.79-19.651.883V59.45c2.762-.098 5.847-.283 8.739-.594 10.186-1.088 12.088-3.297 13.318-13.079.514-4.063.667-8.396.667-11.333 0-2.947-.153-7.271-.667-11.348-1.23-9.784-3.132-11.992-13.318-13.08-2.892-.309-5.977-.495-8.739-.592V.787c5.829.094 13.014.353 19.651.88 18.269 1.464 21.678 4.429 23.893 17.546.923 5.465 1.195 11.276 1.195 15.224M166.107 86.316c-4.544 0-6.964 3.031-6.964 6.842 0 4.789 3.323 6.842 7.257 6.842 1.76 0 3.69-.367 5.303-.953l-.318-2.859c-1.565.367-2.981.611-4.252.611-2.003 0-3.421-.659-3.908-2.248h8.942c.903-3.934-.953-8.235-6.06-8.235zm2.224 5.328h-5.06c.417-1.369 1.394-2.396 2.812-2.396 1.319 0 2.248.733 2.248 2.396zm-22.158 7.989h11.631v-2.932h-6.5v-.097l6.257-6.989v-2.931h-11.144v2.931h6.036v.097l-6.28 7.014v2.907zm-2.362-16.127c0-1.319-.562-2.004-2.37-2.004s-2.371.685-2.371 2.004c0 1.295.563 1.979 2.371 1.979s2.37-.684 2.37-1.979zm-10.762 16.127l4.912-12.949h-4.203l-3.079 8.893h-.098l-3.079-8.893h-4.3l4.935 12.949h4.912zm-10.645-5.082c.905-3.934-.952-8.235-6.059-8.235-4.545 0-6.964 3.031-6.964 6.842 0 4.789 3.323 6.842 7.257 6.842 1.758 0 3.69-.367 5.301-.953l-.316-2.859c-1.564.367-2.98.611-4.252.611-2.004 0-3.422-.659-3.91-2.248h8.943zm-3.836-2.907h-5.058c.416-1.369 1.392-2.396 2.81-2.396 1.321 0 2.248.733 2.248 2.396zm-15.718 7.989h4.005V82.088h-4.005v17.545zm-2.64-5.082c.903-3.934-.953-8.235-6.06-8.235-4.545 0-6.964 3.031-6.964 6.842 0 4.789 3.323 6.842 7.257 6.842 1.76 0 3.69-.367 5.303-.953l-.318-2.859c-1.565.367-2.981.611-4.252.611-2.003 0-3.421-.659-3.908-2.248h8.942zm-3.836-2.907h-5.058c.414-1.369 1.392-2.396 2.81-2.396 1.319 0 2.248.733 2.248 2.396zm-13.508 3.835v-5.864h2.932v-2.931h-2.932v-3.128h-3.543l-.464 3.128-1.955.243v2.688h1.955v6.281c0 4.324 3.763 4.618 7.184 3.517l-.318-2.834c-2.053.342-2.859.049-2.859-1.1zm-16.652 4.154h3.763v-8.796c0-3.348-2.762-4.521-5.816-4.521-2.004 0-4.129.49-5.644 1.295l.342 2.835c1.71-.66 3.445-.88 4.667-.88 1.49 0 2.443.49 2.443 1.686v.489c-4.398-.953-8.308.391-8.308 4.251 0 2.395 1.882 4.008 4.228 4.008 1.637 0 2.981-.489 4.08-1.491l.245 1.124zm-.245-3.689c-.537.635-1.564 1.148-2.419 1.148-.977 0-1.759-.464-1.759-1.367 0-1.321 1.368-2.054 4.178-1.394v1.613zm-.757-10.361l3.323-3.934h-4.496l-2.053 3.934h3.226zm-13.043 7.086v-.098l4.619-5.887h-4.545l-4.594 6.156 4.813 6.793h4.814l-5.107-6.964zm-8.845 6.964h4.007V82.088h-4.007v17.545zm-9.779-9.334c0-.659.391-1.026 1.881-1.026 1.027 0 2.591.195 4.57.757l.342-2.737c-1.539-.635-3.397-.977-5.107-.977-3.006 0-5.669 1.026-5.669 4.105 0 5.327 7.404 3.812 7.404 5.62 0 .709-.538 1.002-1.93 1.002-1.418 0-3.006-.171-5.034-.757l-.318 2.737c1.564.66 3.641.977 5.571.977 3.055 0 5.694-1.198 5.694-4.081 0-5.351-7.404-3.812-7.404-5.62zm-5.961 4.252c.904-3.934-.953-8.235-6.06-8.235-4.545 0-6.964 3.031-6.964 6.842 0 4.789 3.323 6.842 7.257 6.842 1.759 0 3.69-.367 5.302-.953l-.317-2.859c-1.564.367-2.981.611-4.252.611-2.004 0-3.421-.659-3.91-2.248h8.944zm-3.837-2.907h-5.058c.416-1.369 1.393-2.396 2.81-2.396 1.32 0 2.248.733 2.248 2.396zm-19.422-.099c0-3.054 1.759-5.009 4.912-5.009 1.563 0 2.736.342 3.934.563l.342-3.178a14.248 14.248 0 0 0-4.814-.83C2.981 83.091 0 86.878 0 91.57 0 96.457 2.981 100 8.699 100c1.686 0 3.323-.293 4.814-.854l-.342-3.154c-1.198.22-2.346.538-3.934.538-3.128 0-4.912-1.711-4.912-4.985zm6.378-9.235l2.614-3.642H9.505L8.381 80.5l-1.124-1.832H3.421l2.615 3.642h4.667zm128.735 17.324h4.007v-12.95h-4.007v12.95zM62.114 1.666C68.752 1.141 75.939.88 81.768.787v8.636c-2.764.099-5.849.284-8.744.593-10.183 1.089-12.085 3.296-13.317 13.08-.515 4.077-.667 8.401-.667 11.348 0 2.937.152 7.269.667 11.334 1.232 9.781 3.134 11.99 13.317 13.078 2.895.311 5.98.497 8.744.594v8.64c-5.829-.093-13.016-.354-19.654-.883-18.268-1.46-21.676-4.429-23.893-17.545-.923-5.465-1.194-11.277-1.194-15.225 0-3.948.271-9.759 1.194-15.224C40.438 6.096 43.846 3.13 62.114 1.666"/></g></svg>