<svg version="1" xmlns="http://www.w3.org/2000/svg" width="665.333" height="665.333" viewBox="0 0 499.000000 499.000000"><path d="M451.5 116.1c-4.4 1-9.1 2.1-10.4 2.3-2.6.6-11.2 2.3-14.6 3-1.1.3-7.4 1.6-14 3s-24.7 5.2-40.3 8.6c-15.6 3.3-29.3 6.2-30.5 6.4-1.2.3-5.6 1.2-9.7 2.1-4.1.9-8.5 1.9-9.8 2.1-1.3.3-7.6 1.6-14 3s-13.7 2.9-16.2 3.4-5.6 1.2-7 1.5c-1.4.4-3.6.8-5 1.1-1.4.3-10.4 2.2-20 4.3-9.6 2.1-17.8 3.6-18.2 3.2-.4-.3-4.3-7.8-8.7-16.7-4.4-8.8-9.2-17.1-10.6-18.4-3.2-3.1-8.7-3.9-15.5-2.3-3 .7-6.6 1.5-8 1.8-24.2 4.7-31.5 6.7-34.2 9.2-2.7 2.6-4.5 6.5-4.3 9.3.1.8.3 2.4.3 3.6.3 3 5.9 8.3 9.8 9 2 .4 7.4-.3 13.6-1.6 5.7-1.2 11.4-2.4 12.8-2.7 1.4-.2 4.1-.8 6.1-1.2l3.6-.8 46.3 92.9c33.4 67 47.1 93.6 49.2 95.3 4.6 3.9 7.6 3.7 27.3-1.1 7.7-1.9 15.3-3.7 16.9-4 1.5-.2 6-1.3 10-2.4 3.9-1.1 8.2-2.1 9.6-2.4 1.4-.2 5.4-1.2 9-2.1 3.6-.9 7.5-1.8 8.7-2.1 1.9-.4 38.5-9.1 66.8-15.9 5.5-1.3 15.2-3.6 21.5-5.1 9.7-2.3 12-3.2 14.7-5.9 1.7-1.7 3.4-4.7 3.8-6.6 1.3-7.2-4.9-14.9-12.1-14.9-3.1 0-11.6 1.9-50.9 11.5-10 2.4-19.2 4.6-20.5 4.9-1.4.3-6.1 1.4-10.5 2.5-16.9 4.1-46.1 11.1-48 11.5-1.1.3-7.8 1.8-15 3.5-7.1 1.7-13.7 3.3-14.6 3.5-1.2.2-3.4-3.3-8.3-13.3-3.8-7.5-6.8-14-6.7-14.5 0-.6.6-1.1 1.3-1.2.7-.1 4.7-1 8.8-1.9 4.1-.9 8.6-1.9 10-2.1 1.3-.3 5.6-1.2 9.5-2 3.8-.9 7.7-1.7 8.5-1.9.8-.1 6.2-1.3 12-2.5s11.2-2.4 12-2.5c8.9-2 32.9-7.1 42-9 54.2-11.3 82.7-17.7 84.7-19 6.5-4.3 6.9-8.6 2.8-26.5-1.1-4.7-4.8-21.9-5.2-23.9-.2-1.4-.6-2.8-.8-3.1-.2-.4-.7-2.1-1-3.9-.3-1.8-3.1-14.5-6.1-28.4-3.1-13.9-5.7-25.9-5.9-26.7-1.8-9.1-4.3-12.8-9.8-14.9-3.6-1.4-5.4-1.3-15.2 1zm3.3 37.6c1.3 6 2.5 12 2.8 13.4.5 2.6.3 2.7-8.3 4.4-4.8.9-9.7 1.9-10.8 2.2-1.1.2-3.1.6-4.5.9-1.4.3-3.3.7-4.2 1-1 .3-3 .8-4.5 1-1.6.3-10.2 2.1-19.3 4.1-9.1 1.9-17.6 3.7-19 4-1.4.2-7.7 1.5-14 2.9s-15.5 3.4-20.5 4.5c-13.3 2.8-56.6 12-59.5 12.5-1.4.3-7.6 1.6-13.8 3-6.3 1.3-11.8 2.4-12.2 2.4-.9 0-13-23.3-13-24.9 0-.4.6-.8 1.3-.8.6 0 4.6-.8 8.7-1.7 4.1-1 8.6-2 10-2.2 1.4-.2 6.6-1.3 11.5-2.4 5-1.1 10-2.2 11.3-2.5 1.3-.2 3.1-.6 4-.9.9-.3 3.1-.8 4.7-1 1.7-.3 7.5-1.5 13-2.7 12.2-2.6 28.1-5.9 31.5-6.5 1.4-.3 7.2-1.6 13-2.9 5.8-1.3 16.4-3.5 23.5-5 7.2-1.4 14.6-3 16.6-3.6 1.9-.5 11.4-2.5 21-4.5L445 144c7.7-1.7 7.3-2 9.8 9.7zm11.1 51c1.2 5.4 2.6 11.5 3 13.5.9 4 1.4 3.6-6.4 5.2-1.1.3-6.3 1.4-11.5 2.5s-15.8 3.4-23.5 5c-7.7 1.6-16 3.4-18.5 4-2.5.5-5.6 1.2-7 1.5-4.3.8-12.4 2.5-14.5 3-1.1.3-7.4 1.6-14 3s-18.5 3.9-26.4 5.6c-8 1.6-15.4 3.2-16.5 3.4-5.2 1-36.3 7.8-37.8 8.2-1.3.4-3-2.2-7.9-12.1-3.4-6.9-5.9-12.8-5.6-13.1.5-.5 12.4-3.2 21.4-4.9 1.3-.2 3.1-.6 4.1-.9.9-.3 2.8-.7 4.2-1 1.4-.2 11.1-2.2 21.5-4.4 10.5-2.3 20.1-4.3 21.5-4.6 1.4-.3 3.6-.8 5-1.1 1.4-.3 4.5-1 7-1.5s9.9-2 16.5-3.5c6.6-1.4 19.4-4.2 28.5-6 9.1-1.9 20.8-4.4 26-5.5 5.2-1.1 10.6-2.3 12-2.6 1.4-.2 5.2-1.1 8.5-1.8 3.3-.8 6.5-1.4 7.1-1.5.7-.1 2.1 4.2 3.3 9.6zM79.4 205.5c-1.6.7-4.2 2.7-5.7 4.4-2.9 3.5-3.4 5.8-2.8 13.2.1 2.1 4.9 7.3 8.1 8.9 2.6 1.4 16.1 1.8 70 2 17.5.1 30.5-.2 32-.8 8-3.2 11.6-14.2 6.8-21.2-4.6-6.9-3.9-6.8-57.3-7.3-37.3-.4-48.8-.2-51.1.8zM8.8 255.7c-2 .8-4.5 3-6.1 5.6-4.5 6.8-2.7 14.6 4.6 20.1 3.1 2.3-5 2.1 135.2 2.8l67 .3 3.5-2.2c11.3-7 8.4-24.7-4.4-26.8-1.7-.3-46.6-.6-99.7-.8-79.9-.3-97.2-.1-100.1 1zM129.2 305.6c-10 4.2-11.7 17.7-3 24.7 4.5 3.6 1.8 3.4 63.7 3.8 44.2.4 43.8.4 48.1-6.5 4-6.5 2.2-15.1-4.1-19.9-3.3-2.4-8.2-2.6-62.1-3-29-.2-40.5 0-42.6.9zM450.8 322.4c-5.8 2.1-8.5 4.2-11.3 9-8.2 14.1 2.7 31.2 19.3 30.1 18.6-1.3 25.7-24.9 10.9-35.9-6.2-4.5-12.3-5.6-18.9-3.2zM350.4 346.9c-16.8 9.8-11.9 34.4 7.5 37.4 6 1 12.1-1.2 17.1-6.2 8.4-8.4 8.2-20.1-.5-28.5-6.3-6.2-16.1-7.2-24.1-2.7z"/></svg>