<svg xmlns="http://www.w3.org/2000/svg" width="951" height="296" viewBox="0 0 951 296"><g fill="#424B52" fill-rule="evenodd"><path d="M818.24 184.436l-.067-10.104 10.327-.152-.134 10.42z"/><path fill-rule="nonzero" d="M126.5 1.4c-33.9 5.6-61.2 20-85 44.8C2.4 86.8-9.8 145.3 9.6 199c7.1 19.9 18.2 36.9 34.8 53.6 21.5 21.4 44.8 34.1 74.9 40.6 13.8 3 42.6 3.2 56.2.5 29.7-6 54.1-18.7 75.3-39.1 13-12.6 21.4-23.7 29-38.5 13.4-26 18.9-53.1 16.3-80.4-6.2-66.3-52.3-118.5-117.4-132.8-11.9-2.6-40.5-3.5-52.2-1.5zm68 118.3c14.9 41 27.1 75.2 27.3 76 .3 1-3.4 1.3-19.2 1.3h-19.5l-4.3-13.8-4.4-13.7-26.6-.3-26.7-.2-4.4 13.7-4.3 13.8-18.8.3c-14.9.2-18.7 0-18.4-1 .3-.7 12.6-34.9 27.3-76.1L129.4 45h38.2l26.9 74.7zM224 221v13H73v-26h151v13z"/><path fill-rule="nonzero" d="M144.7 94.3c-1.5 5.1-5.4 17.7-8.7 28.1-3.3 10.4-6 19.3-6 19.8 0 .4 7.9.8 17.5.8 13.3 0 17.5-.3 17.5-1.3 0-.6-3.4-12-7.5-25.1-4.1-13.2-7.8-25.5-8.1-27.3-.3-1.8-.9-3.5-1.3-3.8-.4-.2-2 3.7-3.4 8.8zM389.3 111.2c-.9 1.3-28.3 72.1-28.3 73.3 0 .3 2.4.5 5.2.3l5.3-.3 4-11 4.1-11h30.6l4.3 11 4.2 11 5.7.3c3.1.2 5.6 0 5.6-.3 0-.4-6.8-17.3-15.1-37.6L399.7 110H395c-2.6 0-5.2.6-5.7 1.2zm5.9 42.6c-6.3.1-11.7.1-11.9-.2-.3-.2 1.8-6.4 4.5-13.8 2.7-7.3 5.3-14.8 5.7-16.7.7-3.2 1.2-2.2 7 13.5l6.3 16.9-11.6.3zM443 147.5V185h9v-10.8c0-10.7 0-10.9 3-13.7 1.6-1.6 3.3-2.6 3.6-2.2.4.4 4.4 6.4 8.9 13.4l8.1 12.8 5.7.3c3.1.2 5.7 0 5.7-.3s-5-8.1-11.2-17.2l-11.1-16.7 10.4-9.8 10.4-9.7-6-.1h-6l-10.7 10.7-10.8 10.8V110h-9v37.5zM662 147.5V185h9v-75h-9zM761.6 111.2c.4.7 2.9 4.1 5.7 7.5 4.6 6 5.1 6.3 9.2 6.3 4.6 0 3.8.7 15.4-13.3 1.3-1.6 1-1.7-4.2-1.7-5.5 0-5.6.1-7.8 4-1.3 2.2-2.5 4-2.8 4-.4 0-1.7-1.8-3.1-4-2.4-3.9-2.7-4-7.8-4-4 0-5.1.3-4.6 1.2zM506.3 114.9l-4.3 2.6V131h-3.5c-3.3 0-3.5.2-3.5 3.5s.2 3.5 3.5 3.5h3.5v19.4c0 10.7.4 20.6 1 22 1.3 3.5 5.9 5.6 12.3 5.6 2.9 0 5.6-.2 5.9-.5.3-.3.2-2.2-.1-4.3-.6-3.4-.9-3.7-4.1-4-5.7-.5-6-1.7-6-20.9V138h4.5c4.5 0 4.5 0 4.5-3.5s0-3.5-4.5-3.5h-4.4l-.3-9.3-.3-9.3-4.2 2.5zM606.9 132.7c-5.3 2.8-8.1 6.1-9.4 11.4-.6 2.6-.5 2.7 3.9 3 4.2.4 4.7.2 5.7-2.4 2.1-5 5.4-6.7 13.1-6.7 6 0 7.2.3 9.3 2.5 1.8 1.8 2.5 3.5 2.5 6.5 0 2.2-.2 4-.4 4-3.2 0-25.6 4.5-27.6 5.5-4.2 2.2-7.7 7-8.5 11.5-.5 3.2-.2 5.1 1.7 8.8 3.2 6.5 7.3 8.7 16.4 8.7 6 0 8-.5 13.3-3.2l6.2-3.2 1.1 2.9c.9 2.7 1.4 3 5.5 3 4.5 0 4.5 0 3.8-2.8-.4-1.5-1-11.7-1.4-22.7-.7-22.8-1.1-24.3-8.4-27.6-3.1-1.3-6.5-1.9-12.8-1.9-7.4 0-9.3.4-14 2.7zm23.3 38.2c-3.5 4.8-8 7.1-13.9 7.1-4.7 0-5.9-.4-8.5-3-2.4-2.5-2.9-3.6-2.3-5.8 1.2-4.9 3.7-6.3 15.1-8.6l10.9-2.1.3 4.9c.2 3.7-.2 5.6-1.6 7.5z"/><path d="M615.6 124.104l7.316.075 11.007-13.985-12.296-.173z"/><path fill-rule="nonzero" d="M706.2 132.1c-2.4 1.2-4.6 2.8-4.9 3.5-.9 2.5-2.3 1.5-2.3-1.6 0-2.8-.2-3-4-3h-4v54h8.8l.4-18.8c.4-21.2 1.1-23.7 7.4-26.7 4.7-2.2 11.8-1.6 14.8 1.4 2 2 2.1 3.4 2.6 22.9l.5 20.7h9v-21c0-19-.2-21.4-2-25-4.1-8.1-16.6-11.2-26.3-6.4zM765.4 131.9c-2.2 1-5.6 3.7-7.6 6-9.8 11.5-8.1 34.8 3.1 42.9 10.8 7.8 27 6.2 34.9-3.4 2.7-3.2 4.9-8.1 4-8.9-.2-.2-2.2-.6-4.4-1-3.9-.6-4.2-.5-6.2 2.9-3.2 5.4-7.7 7.8-13.5 7.3-7.6-.7-12.7-5.6-14.2-14l-.7-3.7h40.5l-.7-6.1c-1.1-10.8-5.8-18.2-14.1-22-5.4-2.5-15.6-2.5-21.1 0zm19.2 8.1c2.5 1.5 4.8 5.3 5.8 9.2l.6 2.8h-14.5c-14.4 0-14.5 0-14.5-2.3 0-3 3.3-8.3 6.2-9.8 5.3-2.9 11.8-2.8 16.4.1zM862 131.6c-4.5 2-8.6 5.9-11.3 10.9-1.9 3.4-2.2 5.6-2.2 15 0 9.6.3 11.6 2.4 15.8 6.6 13.4 25.8 16.7 36.6 6.4 5-4.9 7.9-12.2 5.4-13.8-.8-.5-2.8-.9-4.4-.9-2.7 0-3.2.5-4.5 4.2-3.9 11.2-18.1 11.6-24.4.9-2.9-5.1-2.9-19 0-24.6 5.2-10 18.8-10.4 23.4-.7 1.5 3.2 3.2 3.8 7.8 2.5 2-.5 2.3-1 1.8-3.6-.9-4.5-5.3-9.7-10-11.8-5.1-2.3-15.6-2.5-20.6-.3zM535 151.5c0 16.5.3 21.2 1.6 24.5 4.2 10.4 20.5 13.1 29.9 4.9l3.5-3.1v3.6c0 3.5.1 3.6 4 3.6h4v-54h-8.8l-.4 18.8c-.3 20.3-.8 22.2-6.3 25.8-3.2 2.1-10.7 2.2-13.9.1-3.8-2.5-4.6-7.4-4.6-27V131h-9v20.5zM905.2 134.7l.3 3.8h15.3c8.3 0 15.2.2 15.2.5s-7.5 9-16.6 19.4c-15.5 17.7-16.5 19.1-16.2 22.5l.3 3.6h47v-8h-17.3c-9.4 0-17.2-.1-17.2-.3 0-.1 7.4-8.9 16.5-19.5 13.8-16.2 16.4-19.7 16.5-22.5V131h-44.1l.3 3.7z"/></g></svg>