<svg xmlns="http://www.w3.org/2000/svg" width="45" height="25" viewBox="0 0 45 25"><defs><linearGradient id="a" x1="32.723%" x2="89.955%" y1="115.303%" y2="0%"><stop offset="0%" stop-color="#FD8835"/><stop offset="100%" stop-color="#FC6120"/></linearGradient></defs><g fill="none" fill-rule="evenodd"><path fill="#FEE8D6" d="M16.007 10.782c-.099.02-.2.03-.3.03l-8.044-.08a1.316 1.316 0 1 1 .021-2.63l8.044.08a1.311 1.311 0 0 1 .279 2.6zm2.7 4.5c-.099.02-.2.03-.3.03l-17.044-.08a1.316 1.316 0 1 1 .021-2.629l17.044.08a1.31 1.31 0 0 1 .279 2.599zm1.8 4.5c-.099.02-.2.03-.3.03l-8.044-.08a1.316 1.316 0 1 1 .021-2.629l8.044.08a1.31 1.31 0 0 1 .279 2.599z"/><path fill="url(#a)" d="M44.155 16.746l-15.044 3.585a1.189 1.189 0 0 1-1.312-.624l-4.5-9.029a1.148 1.148 0 0 1-.18-.36l-3.565-7.146-2.729.581a1.182 1.182 0 0 1-1.406-.89 1.163 1.163 0 0 1 .906-1.382l3.633-.773a1.189 1.189 0 0 1 1.312.624l1.43 2.869L42.282.033a1.183 1.183 0 0 1 1.406.89l2.07 9.411a1.163 1.163 0 0 1-.906 1.382l-16.639 3.54 1.3 2.61 14.139-3.392c.633-.14 1.26.258 1.406.89a1.162 1.162 0 0 1-.903 1.382zm-2.533-14.19l-17.852 3.8 1.149 2.3 17.239-3.669-.536-2.431zm1.571 7.14l-.535-2.44-16.666 3.548 1.149 2.3 16.052-3.408zm-10.2 11a1.858 1.858 0 0 1 2.209 1.4 1.827 1.827 0 0 1-1.424 2.171 1.858 1.858 0 0 1-2.209-1.4 1.827 1.827 0 0 1 1.425-2.173l-.001.002zm8.679-2.04a1.858 1.858 0 0 1 2.209 1.4 1.828 1.828 0 0 1-1.424 2.172 1.858 1.858 0 0 1-2.209-1.4 1.828 1.828 0 0 1 1.424-2.172z" transform="translate(-1)"/></g></svg>