<svg xmlns="http://www.w3.org/2000/svg" width="309" height="100" viewBox="0 0 309 100"><g fill="none" fill-rule="nonzero"><path fill="#F6F6F6" d="M0 9h160v80H0z"/><path fill="#265697" d="M148 0H8C4 0 0 4 0 8v12h160v-8c0-8-4-12-12-12z"/><path fill="#D97B16" d="M0 80v8c0 8 4 12 12 12h136c8 0 12-4 12-12v-8H0z"/><path fill="#265697" d="M111.61 29.78A28.68 28.68 0 0 0 101.47 28c-11.18 0-19.06 5.76-19.13 14-.06 6.1 5.63 9.5 9.92 11.53 4.4 2.08 5.89 3.4 5.86 5.26-.02 2.85-3.51 4.15-6.77 4.15A23.3 23.3 0 0 1 80.7 60.7l-1.46-.67-1.59 9.5c2.65 1.18 7.53 2.2 12.61 2.26 11.9 0 19.62-5.7 19.7-14.5.05-4.83-2.96-8.5-9.5-11.53-3.95-1.96-6.37-3.27-6.35-5.26 0-1.76 2.05-3.65 6.48-3.65 3.7-.06 6.39.77 8.48 1.63l1.01.49 1.53-9.2v.01zm29.03-1h-8.75c-2.7 0-4.73.75-5.92 3.52l-16.81 38.88h11.88s1.94-5.23 2.38-6.37l14.5.01c.34 1.49 1.38 6.36 1.38 6.36h10.5l-9.16-42.4zm-13.96 27.35l4.51-11.86c-.07.1.93-2.46 1.5-4.05l.77 3.65 2.62 12.26h-9.4zM59.25 71.17l7.08-42.43h11.32l-7.09 42.43H59.25zm-9.49-42.4L38.68 57.7l-1.19-5.88C35.43 45.04 29 37.7 21.82 34.02l10.13 37.11 11.98-.01 17.82-42.35h-12 .01z"/><path fill="#D97B16" d="M28.4 28.74H10.14l-.14.88c14.2 3.52 23.6 12 27.5 22.2l-3.97-19.5c-.69-2.68-2.68-3.48-5.13-3.58"/><g><path fill="#FF5F00" d="M234.5 21.7H266v56.6h-31.5z"/><path fill="#EB001B" d="M236.5 50c0-11.5 5.4-21.7 13.7-28.3A35.98 35.98 0 0 0 192 50a35.98 35.98 0 0 0 58.2 28.3A36.1 36.1 0 0 1 236.5 50z"/><path fill="#F79E1B" d="M308.5 50a35.98 35.98 0 0 1-58.2 28.3C258.6 71.7 264 61.5 264 50s-5.4-21.7-13.8-28.3c6.2-4.8 13.9-7.7 22.3-7.7 19.9 0 36 16.1 36 36z"/></g></g></svg>