<svg xmlns="http://www.w3.org/2000/svg" id="svg3535" width="563.7" height="97.4" viewBox="-23 348.6 563.7 97.4"><style>.st0{fill:#387ac7}.st1{fill:#d12151}</style><g id="g3543" transform="matrix(1.25 0 0 -1.25 -90.186 590.716)"><g id="g3545"><g id="g3547"><path id="path3553" d="M504.7 147.3l-39.8 17.4v-12.9h-22.1l-6.9-9h29v-11.7l39.8 16.2zm-190.2-18.8c0-1.5-.9-2.4-2.4-2.4h-17.6c-3.6 0-5.3-.2-5.3-.2v.2s2.3 2.3 4.6 5l28.2 34.8v6.1h-45c-8.5 0-14.8-5.6-17.4-13.7h-.2s.2 1.6.2 3.8v3.5c0 4.5-2.3 6.4-7.1 6.4h-10v-9h4.5c1.5 0 2.4-.8 2.4-2.4v-43.5h10.5v22.5c0 3.4.3 6.7 1.3 9.9 2.5 8.1 8.7 13.6 15.4 13.6h26.2c3.6 0 5.3.2 5.3.2v-.3s-2.2-2.2-4.6-5.1l-28.1-34.7v-6.1h41.7c4.9 0 6.9 2.1 6.9 6.9v8.1h-9.6l.1-3.6zm-82.9-.2l-8.1 14.9c-1.8 3.5-3.7 4.1-3.7 4.1v.2s1.6.8 4.1 4.1l14.9 20.4h-12L214 154.2c-1.4-1.8-3.8-2.4-5.8-2.4h-4.9v35.6c0 4.9-2.1 6.3-6.9 6.3H186v-9h4.5c1.5 0 2.4-.8 2.4-2.4v-65.2h10.5v25.8h4.1c1.7 0 4.2-.2 5.4-2.3l10-18.5c2.4-4.2 4-5.1 9.1-5.1h7.6v9h-3.4c-2.6.1-3.7.5-4.6 2.3m-76.3 30c0 4.3 4 6.5 10.2 6.5 3.4 0 8.2-1.4 8.2-4.7v-2.7h9.4v5.2c0 8.4-11.4 10.6-18 10.6-11.2 0-20.4-4.9-20.4-15.4 0-17.7 30-16.6 30-26.5 0-4.8-4.4-7.1-9.6-7.1-10.1 0-16.6 8.1-16.6 8.1l-5.4-7.1s7.3-9.7 21.9-9.7c11.5 0 20.2 6.3 20.2 16.1.1 18.6-29.9 16.3-29.9 26.7" class="st0"/><path id="path3555" d="M81.9 171.9H53.7l15.5-24.6-15.5-24.6h28.1l15.5 24.6-15.4 24.6zm60.1-25.3c-1.9 2.2-2.8 5.3-2.8 5.3h-21.1L105.4 172H93l15.5-24.6L93 122.6h12.5l12.7 20.1h28.2c-.1 0-2.5 1.7-4.4 3.9m194.5-16.8c-3.2 0-5.7-2.6-5.7-5.7s2.6-5.7 5.7-5.7c3.2.1 5.7 2.7 5.6 5.8-.1 3-2.6 5.5-5.6 5.6m100 2.4v-3.7c0-1.5-.9-2.4-2.4-2.4h-17.6c-3.6 0-5.3-.2-5.3-.2v.2s2.3 2.3 4.6 5l28.2 34.8v6.1h-39.3c-4.9 0-6.9-2.1-6.9-6.9V157h9.7v3.7c0 1.5.9 2.4 2.4 2.4h15c3.6 0 5.3.2 5.3.2v-.3s-2.2-2.2-4.6-5.1l-28.1-34.7v-6.1h41.7c4.9 0 6.9 2.1 6.9 6.9v8.1l-9.6.1zm-62.6-7.1c-10.2 0-19.3 7.1-19.3 19.5 0 11.6 8 19.6 18.8 19.6 4 0 10.2-1.7 10.2-5.6v-3h9.6v5.6c0 9.3-13.1 12-19.8 12-14.9 0-25.7-9-28.7-21.5h-23l-8.2-8.9h30.4c.8-15.7 12.6-27.1 29.3-27.1 14.5 0 22.4 9.4 22.4 9.4l-4.6 7.5c-.1.1-6.8-7.5-17.1-7.5" class="st1"/></g></g></g></svg>