<?xml version="1.0" encoding="UTF-8"?>
<svg width="150px" height="125px" viewBox="0 0 150 125" version="1.1" xmlns="http://www.w3.org/2000/svg" xmlns:xlink="http://www.w3.org/1999/xlink">
    <!-- Generator: Sketch 50 (54983) - http://www.bohemiancoding.com/sketch -->
    <title>child</title>
    <desc>Created with Sketch.</desc>
    <defs></defs>
    <g id="Page-1" stroke="none" stroke-width="1" fill="none" fill-rule="evenodd">
        <g id="child" fill="#FFFFFF" fill-rule="nonzero">
            <path d="M147.944531,106.509375 C146.630273,105.229102 144.85459,104.535059 143.02002,104.582227 C133.297266,104.832715 124.205859,102.684375 116.002441,96.7570313 C108.590332,91.4018555 102.796875,83.6176758 97.9710937,75.815918 C95.2731445,71.4541992 92.7287109,66.0181641 85.4481445,60.5200195 C76.4352539,53.7125977 64.3842773,50.6947266 53.3589844,50.6674805 L53.3589844,35.7518555 L69.6512695,47.9835938 C77.0443359,49.8738281 84.1921875,53.165332 90.1816406,58.2125977 C95.6033203,62.7814453 98.2505859,67.0289063 100.534863,70.8755859 L103.479492,69.5797852 L105.231445,78.2800781 C108.812402,83.503125 112.545117,87.909082 116.741309,91.3508789 C117.234961,90.3972656 117.421289,89.2766602 117.192773,88.1422852 L111.87832,61.7504883 C111.587402,60.3073242 110.661914,59.071875 109.358496,58.3869141 C108.055078,57.7025391 106.512598,57.6416016 105.159375,58.2210938 L98.287207,61.1651367 C96.4473633,53.7711914 95.8157227,51.2329102 94.0157227,43.9983398 L110.569922,21.3952148 C111.899414,19.5799805 111.505664,17.0299805 109.690137,15.7001953 C107.874609,14.3704102 105.325488,14.7644531 103.994824,16.5799805 L87.2566406,39.4344727 L75.84375,42.4420898 L53.3592773,25.5615234 L53.3592773,22.8662109 C53.3592773,21.3421875 52.6702148,19.8996094 51.4845703,18.9418945 L29.3548828,1.06816406 C27.7942383,-0.1921875 25.565332,-0.1921875 24.0043945,1.06816406 L1.87470703,18.9418945 C0.689355469,19.8999023 0,21.3421875 0,22.8662109 L0,121.606348 C0,122.98125 1.11474609,124.095703 2.48935547,124.095703 L8.45595703,124.095703 C9.83085937,124.095703 10.9456055,122.980957 10.9456055,121.606348 L10.9456055,95.2174805 L42.4136719,95.2174805 L42.4136719,121.606348 C42.4136719,122.98125 43.528418,124.095703 44.9030273,124.095703 L46.1273438,124.095703 C46.1888672,124.095703 46.2079102,124.095703 46.2052734,124.095703 L50.8696289,124.095703 C52.2445313,124.095703 53.3592773,122.980957 53.3592773,121.606348 L53.3592773,70.4698242 C58.921582,71.0709961 66.0518555,72.6398437 72.6336914,76.4695312 C78.0726562,79.6344727 82.3921875,83.9179687 85.4888672,89.2204102 C92.3182617,100.914844 98.4058594,108.546973 105.227051,113.967773 C116.548828,122.965137 129.566602,125.293066 144.043945,123.49248 C144.046582,123.492188 144.049512,123.491895 144.052441,123.491602 C147.458789,123.065039 150,120.176074 150,116.742773 L150,111.381445 C150,109.546582 149.258496,107.789648 147.944531,106.509375 Z M42.4136719,86.6666016 L10.9456055,86.6666016 L10.9456055,74.6950195 L42.4136719,74.6950195 L42.4136719,86.6666016 Z M42.4136719,66.1438477 L10.9456055,66.1438477 L10.9456055,53.8371094 L42.4136719,53.8371094 L42.4136719,66.1438477 Z" id="Shape"></path>
            <path d="M131.431348,73.3016602 C114.414844,59.7164062 115.61748,60.6533203 115.21377,60.4063477 C115.356152,60.9099609 115.114453,59.7676758 118.238672,75.2824219 L125.330273,80.944043 C127.44082,82.6291992 130.517578,82.2832031 132.202148,80.1732422 C133.887012,78.0632813 133.541895,74.9865234 131.431348,73.3016602 Z" id="Shape"></path>
            <circle id="Oval" cx="79.4712891" cy="30.0498047" r="9.50683594"></circle>
        </g>
    </g>
</svg>