<?xml version="1.0" encoding="UTF-8"?>
<svg width="99px" height="150px" viewBox="0 0 99 150" version="1.1" xmlns="http://www.w3.org/2000/svg" xmlns:xlink="http://www.w3.org/1999/xlink">
    <!-- Generator: Sketch 50 (54983) - http://www.bohemiancoding.com/sketch -->
    <title>Shape</title>
    <desc>Created with Sketch.</desc>
    <defs></defs>
    <g id="Page-1" stroke="none" stroke-width="1" fill="none" fill-rule="evenodd">
        <g id="building" fill="#FFFFFF" fill-rule="nonzero">
            <path d="M49.0206375,0 C28.9101464,0 12.6072634,5.72978893 12.6072634,12.7979422 L12.6072634,114.845672 C12.6072634,115.384881 12.3305121,115.887337 11.8736054,116.173827 C9.29849876,117.788471 7.76395825,119.594737 7.54202316,121.506394 C7.52348931,121.666445 7.51076691,121.826967 7.51076691,121.988117 L7.51076691,142.748393 L1.57066583,142.748393 C0.70318709,142.748393 0,143.451737 0,144.319059 L0,148.429334 C0,149.296813 0.70318709,150 1.57066583,150 L96.4707662,150 C97.3379308,150 98.0414321,149.296813 98.0414321,148.429334 L98.0414321,144.319059 C98.0414321,143.451737 97.3379308,142.748393 96.4707662,142.748393 L90.5305081,142.748393 L90.5305081,121.988274 C90.5305081,121.82681 90.5179428,121.666288 90.4992518,121.506551 C90.2774738,119.595051 88.7429333,117.788785 86.1676696,116.173984 C85.71092,115.887494 85.4341687,115.385038 85.4341687,114.845829 L85.4341687,12.7979422 C85.4341687,5.72978893 69.1311286,0 49.0206375,0 Z M29.0287317,16.7021463 C29.0287317,15.9477555 29.5643287,15.2971857 30.3059971,15.15881 C34.886844,14.3043678 39.9966911,13.7540065 45.4183154,13.5839034 C46.3038568,13.5561026 47.0368866,14.2688708 47.0368866,15.1547263 L47.0368866,22.3838728 C47.0368866,23.2329748 46.3611861,23.9268949 45.5125554,23.9528109 C40.2811387,24.1127047 35.3382534,24.6264695 30.878976,25.4257813 C29.9147443,25.5985546 29.0290458,24.8603416 29.0290458,23.8807174 L29.0287317,16.7021463 Z M29.0287317,33.4891085 C29.0287317,32.7347177 29.5643287,32.0841479 30.3059971,31.9457722 C34.886844,31.0914871 39.9966911,30.5409687 45.4183154,30.3708656 C46.3038568,30.3430648 47.0368866,31.055833 47.0368866,31.9416885 L47.0368866,39.170835 C47.0368866,40.019937 46.3611861,40.7138571 45.5125554,40.7397731 C40.2811387,40.8995098 35.3382534,41.4134317 30.878976,42.2127435 C29.9147443,42.3856739 29.0290458,41.6473038 29.0290458,40.6676796 L29.0287317,33.4891085 Z M29.0287317,50.2762278 C29.0287317,49.521837 29.5643287,48.8712672 30.3059971,48.7328915 C34.886844,47.8786064 39.9966911,47.3282451 45.4183154,47.1579849 C46.3038568,47.1301841 47.0368866,47.8429523 47.0368866,48.7288078 L47.0368866,55.9579543 C47.0368866,56.8070563 46.3611861,57.5009764 45.5125554,57.5268924 C40.2811387,57.6866291 35.3382534,58.200551 30.878976,58.9997058 C29.9147443,59.1726361 29.0290458,58.4342661 29.0290458,57.4547989 L29.0287317,50.2762278 Z M29.0287317,67.063347 C29.0287317,66.3087992 29.5643287,65.6583865 30.3059971,65.5200108 C34.886844,64.6657257 39.9966911,64.1152073 45.4183154,63.9451042 C46.3038568,63.9173034 47.0368866,64.6300715 47.0368866,65.5159271 L47.0368866,72.7450736 C47.0368866,73.5940185 46.3611861,74.2879386 45.5125554,74.3138546 C40.2811387,74.4737484 35.3382534,74.9873561 30.878976,75.7869821 C29.9147443,75.9599124 29.0290458,75.2213853 29.0290458,74.2417611 L29.0287317,67.063347 Z M29.0287317,83.8504663 C29.0287317,83.0959185 29.5643287,82.4455057 30.3059971,82.3071301 C34.886844,81.4528449 39.9966911,80.9023266 45.4183154,80.7322235 C46.3038568,80.7044227 47.0368866,81.4171908 47.0368866,82.3030464 L47.0368866,89.5321929 C47.0368866,90.3812948 46.3611861,91.075215 45.5125554,91.101131 C40.2811387,91.2610248 35.3382534,91.7746325 30.878976,92.5741014 C29.9147443,92.7470317 29.0290458,92.0085046 29.0290458,91.0290374 L29.0287317,83.8504663 Z M25.0609157,109.438183 C25.0609157,110.142941 24.5903442,110.758328 23.9124448,110.950892 C21.7245073,111.57209 19.7267774,112.272921 17.9545952,113.040505 C16.913872,113.491444 15.7517364,112.73721 15.7517364,111.603032 L15.7517364,104.685506 C15.7517364,104.0797 16.1016807,103.531066 16.647173,103.267037 C18.499145,102.370815 20.6453028,101.55454 23.0355421,100.83549 C24.0440666,100.532194 25.0610727,101.286585 25.0610727,102.339716 L25.0610727,109.438183 L25.0609157,109.438183 Z M25.0609157,92.6512211 C25.0609157,93.3559788 24.5905012,93.9713657 23.9124448,94.1637723 C21.7245073,94.7851277 19.7267774,95.4859588 17.9545952,96.2535432 C16.913872,96.7043243 15.7517364,95.9500905 15.7517364,94.8160698 L15.7517364,87.8983863 C15.7517364,87.2925805 16.1016807,86.7439469 16.647173,86.479918 C18.499145,85.583539 20.6453028,84.767421 23.0355421,84.0483702 C24.0440666,83.7449176 25.0610727,84.4996225 25.0610727,85.5525969 L25.0610727,92.6512211 L25.0609157,92.6512211 Z M25.0609157,75.8641018 C25.0609157,76.5688596 24.5903442,77.1842464 23.9124448,77.3768101 C21.7245073,77.9981655 19.7267774,78.6986824 17.9545952,79.4665809 C16.913872,79.917362 15.7517364,79.1631283 15.7517364,78.0291076 L15.7517364,71.1115811 C15.7517364,70.5057753 16.1016807,69.9571418 16.647173,69.6931128 C18.499145,68.7967339 20.6453028,67.9806159 23.0355421,67.2615651 C24.0440666,66.9581124 25.0610727,67.7128174 25.0610727,68.7657917 L25.0610727,75.8641018 L25.0609157,75.8641018 Z M25.0609157,59.0769825 C25.0609157,59.7817403 24.5903442,60.3971271 23.9124448,60.5895337 C21.7245073,61.2108891 19.7267774,61.9115631 17.9545952,62.6793046 C16.913872,63.1299286 15.7517364,62.375852 15.7517364,61.2418312 L15.7517364,54.3243048 C15.7517364,53.7183419 16.1016807,53.1698654 16.647173,52.9058365 C18.499145,52.0094575 20.6453028,51.1931825 23.0355421,50.4741317 C24.0440666,50.1708361 25.0610727,50.9253839 25.0610727,51.9783583 L25.0610727,59.0769825 L25.0609157,59.0769825 Z M25.0609157,42.2900203 C25.0609157,42.9947781 24.5903442,43.6101649 23.9124448,43.8027286 C21.7245073,44.424084 19.7267774,45.1246009 17.9545952,45.8923424 C16.913872,46.3431235 15.7517364,45.5890468 15.7517364,44.454869 L15.7517364,37.5373426 C15.7517364,36.9313797 16.1016807,36.3829032 16.647173,36.1188743 C18.499145,35.2224953 20.6453028,34.4062203 23.0355421,33.6871694 C24.0440666,33.3838739 25.0610727,34.1384217 25.0610727,35.1913961 L25.0610727,42.2900203 L25.0609157,42.2900203 Z M25.0609157,25.502901 C25.0609157,26.2076588 24.5903442,26.8230456 23.9124448,27.0154522 C21.7245073,27.6368076 19.7267774,28.3374816 17.9545952,29.105066 C16.913872,29.5560042 15.7517364,28.8017705 15.7517364,27.6675927 L15.7517364,20.7500662 C15.7517364,20.1441034 16.1016807,19.5956268 16.647173,19.3315979 C18.499145,18.4352189 20.6453028,17.6189439 23.0355421,16.8998931 C24.0440666,16.5965975 25.0610727,17.3511454 25.0610727,18.4041198 L25.0610727,25.502901 L25.0609157,25.502901 Z M29.0287317,107.816314 L29.0287317,100.637271 C29.0287317,99.8827236 29.5643287,99.2323109 30.3059971,99.0939352 C34.886844,98.2396501 39.9966911,97.6892888 45.4183154,97.5190286 C46.3038568,97.4912278 47.0368866,98.203996 47.0368866,99.0898515 L47.0368866,106.318998 C47.0368866,107.1681 46.3611861,107.86202 45.5125554,107.887936 C40.2811387,108.04783 35.3382534,108.561595 30.878976,109.360907 C29.9147443,109.533994 29.0287317,108.795781 29.0287317,107.816314 Z M57.0501953,134.761243 L57.0501953,142.74855 L40.9912367,142.74855 L40.9912367,134.761243 L40.9912367,126.111586 C40.9912367,125.395677 44.5861767,124.815316 49.0206375,124.815316 C53.4550983,124.815316 57.0501953,125.395677 57.0501953,126.111586 L57.0501953,134.761243 Z M69.0127004,107.816314 C69.0127004,108.795781 68.1270019,109.534151 67.1626131,109.361378 C62.7033358,108.561752 57.7604504,108.048144 52.5290338,107.888407 C51.6802459,107.862491 51.0047026,107.168571 51.0047026,106.319469 L51.0047026,99.0901656 C51.0047026,98.204153 51.7378894,97.491542 52.6235878,97.5193427 C58.044898,97.6894459 63.1547451,98.2398072 67.7357491,99.0942494 C68.4772604,99.232625 69.0128575,99.8828807 69.0128575,100.637586 L69.0128575,107.816314 L69.0127004,107.816314 Z M69.0127004,91.0293516 C69.0127004,92.0088188 68.1270019,92.7471888 67.1626131,92.5744155 C62.7033358,91.7747896 57.7604504,91.2611818 52.5290338,91.1014451 C51.6802459,91.0755291 51.0047026,90.381609 51.0047026,89.532507 L51.0047026,82.3033605 C51.0047026,81.4173479 51.7378894,80.7047368 52.6235878,80.7325376 C58.044898,80.9026407 63.1547451,81.453002 67.7357491,82.3074442 C68.4772604,82.4458199 69.0128575,83.0960755 69.0128575,83.8507805 L69.0128575,91.0293516 L69.0127004,91.0293516 Z M69.0127004,74.2420752 C69.0127004,75.2216995 68.1270019,75.9600695 67.1626131,75.7872962 C62.7033358,74.9876703 57.7604504,74.4740625 52.5290338,74.3141688 C51.6805601,74.2884098 51.0047026,73.5943326 51.0047026,72.7453877 L51.0047026,65.5160841 C51.0047026,64.6302286 51.7378894,63.9174605 52.6235878,63.9452612 C58.044898,64.1153644 63.1547451,64.6658827 67.7357491,65.5201679 C68.4772604,65.6585435 69.0128575,66.3087992 69.0128575,67.0635041 L69.0128575,74.2420752 L69.0127004,74.2420752 Z M69.0127004,57.4549559 C69.0127004,58.4345802 68.1270019,59.1727931 67.1626131,58.9998628 C62.7033358,58.200551 57.7604504,57.6867862 52.5290338,57.5270495 C51.6805601,57.5011335 51.0047026,56.8072133 51.0047026,55.9581114 L51.0047026,48.7289649 C51.0047026,47.8429523 51.7378894,47.1303412 52.6235878,47.158142 C58.044898,47.3282451 63.1547451,47.8786064 67.7357491,48.7330486 C68.4772604,48.8714242 69.0128575,49.521837 69.0128575,50.2763848 L69.0128575,57.4549559 L69.0127004,57.4549559 Z M69.0127004,40.6679937 C69.0127004,41.647618 68.1270019,42.385988 67.1626131,42.2130577 C62.7033358,41.4135888 57.7604504,40.899824 52.5290338,40.7400873 C51.6805601,40.7141713 51.0047026,40.0202511 51.0047026,39.1711492 L51.0047026,31.9420026 C51.0047026,31.05599 51.7378894,30.343379 52.6235878,30.3711797 C58.044898,30.5412829 63.1547451,31.0916442 67.7357491,31.9460864 C68.4772604,32.084462 69.0128575,32.7348747 69.0128575,33.4894226 L69.0128575,40.6679937 L69.0127004,40.6679937 Z M69.0127004,23.8808744 C69.0127004,24.8604987 68.1270019,25.5987116 67.1626131,25.4259384 C62.7033358,24.6264695 57.7604504,24.1127047 52.5290338,23.952968 C51.6802459,23.927052 51.0047026,23.2331318 51.0047026,22.3840299 L51.0047026,15.1548834 C51.0047026,14.2690278 51.7378894,13.5562597 52.6235878,13.5840605 C58.044898,13.7541636 63.1547451,14.3045249 67.7357491,15.1589671 C68.4772604,15.2973427 69.0128575,15.9477555 69.0128575,16.7023033 L69.0128575,23.8808744 L69.0127004,23.8808744 Z M82.2896957,111.603032 C82.2896957,112.737367 81.127403,113.491286 80.0868369,113.040505 C78.3146546,112.272764 76.3169248,111.571933 74.1289873,110.950892 C73.4510879,110.758171 72.9805164,110.142784 72.9805164,109.438183 L72.9805164,102.339559 C72.9805164,101.286428 73.9972084,100.532037 75.00589,100.835332 C77.3962863,101.554383 79.5424441,102.370658 81.3944162,103.26688 C81.9399084,103.531066 82.2898528,104.079386 82.2898528,104.685349 L82.2898528,111.603032 L82.2896957,111.603032 Z M82.2896957,94.8159127 C82.2896957,95.9500905 81.127403,96.7041672 80.0868369,96.2533861 C78.3146546,95.4854876 76.3169248,94.7848135 74.1289873,94.1636152 C73.4510879,93.9710516 72.9805164,93.3556647 72.9805164,92.651064 L72.9805164,85.5524398 C72.9805164,84.4993084 73.9972084,83.7447605 75.00589,84.0482132 C77.3962863,84.767264 79.5424441,85.5833819 81.3944162,86.4797609 C81.9399084,86.7439469 82.2898528,87.2922664 82.2898528,87.8982292 L82.2898528,94.8159127 L82.2896957,94.8159127 Z M82.2896957,78.0287934 C82.2896957,79.1629712 81.127403,79.9170479 80.0868369,79.4662668 C78.3146546,78.6983683 76.3169248,77.9978513 74.1289873,77.3764959 C73.4510879,77.1839323 72.9805164,76.5685454 72.9805164,75.8637877 L72.9805164,68.7653205 C72.9805164,67.7121891 73.9972084,66.9574842 75.00589,67.2610939 C77.3962863,67.9801447 79.5424441,68.7962627 81.3944162,69.6926416 C81.9399084,69.9568276 82.2898528,70.50499 82.2898528,71.1111099 L82.2898528,78.0287934 L82.2896957,78.0287934 Z M82.2896957,61.2418312 C82.2896957,62.376009 81.127403,63.1300857 80.0868369,62.6793046 C78.3146546,61.9114061 76.3169248,61.210732 74.1289873,60.5895337 C73.4510879,60.3969701 72.9805164,59.7815832 72.9805164,59.0769825 L72.9805164,51.9782013 C72.9805164,50.9250698 73.9972084,50.170522 75.00589,50.4739746 C77.3962863,51.1930254 79.5424441,52.0093004 81.3944162,52.9056794 C81.9399084,53.1697083 82.2898528,53.7180278 82.2898528,54.3241477 L82.2898528,61.2418312 L82.2896957,61.2418312 Z M82.2896957,44.4547119 C82.2896957,45.5888897 81.127403,46.3429664 80.0868369,45.8921853 C78.3146546,45.1244439 76.3169248,44.4239269 74.1289873,43.8025715 C73.4510879,43.6100079 72.9805164,42.994621 72.9805164,42.2898632 L72.9805164,35.191239 C72.9805164,34.1381076 73.9972084,33.3835597 75.00589,33.6870124 C77.3962863,34.4060632 79.5424441,35.2223382 81.3944162,36.1187172 C81.9399084,36.3827461 82.2898528,36.9310656 82.2898528,37.5371855 L82.2898528,44.4547119 L82.2896957,44.4547119 Z M82.2896957,27.6677497 C82.2896957,28.8019275 81.127403,29.5560042 80.0868369,29.1052231 C78.3146546,28.3374816 76.3169248,27.6368076 74.1289873,27.0156093 C73.4510879,26.8230456 72.9805164,26.2076588 72.9805164,25.5030581 L72.9805164,18.4044339 C72.9805164,17.3513024 73.9972084,16.5967546 75.00589,16.9002072 C77.3962863,17.619258 79.5424441,18.4355331 81.3944162,19.3319121 C81.9399084,19.595941 82.2898528,20.1442604 82.2898528,20.7503804 L82.2898528,27.6677497 L82.2896957,27.6677497 Z" id="Shape"></path>
        </g>
    </g>
</svg>