<?xml version="1.0" encoding="UTF-8"?>
<svg width="141px" height="151px" viewBox="0 0 141 151" version="1.1" xmlns="http://www.w3.org/2000/svg" xmlns:xlink="http://www.w3.org/1999/xlink">
    <!-- Generator: Sketch 50 (54983) - http://www.bohemiancoding.com/sketch -->
    <title>node1</title>
    <desc>Created with Sketch.</desc>
    <defs></defs>
    <g id="Page-1" stroke="none" stroke-width="1" fill="none" fill-rule="evenodd">
        <g id="leaf" transform="translate(0.000000, -112.000000)" fill="#FFFFFF" fill-rule="nonzero">
            <g id="Group" transform="translate(122.500000, 131.800000) scale(-1, 1) rotate(-180.000000) translate(-122.500000, -131.800000) translate(0.000000, 0.800000)">
                <path d="M126.666205,149.572684 C126.666205,148.541014 118.699416,141.032746 114.85931,138.510885 C112.681339,137.078009 108.955862,135.071983 106.605946,134.097628 C104.25603,133.065957 101.791484,132.034287 101.161019,131.747712 C99.4415681,131.002616 92.6210801,129.168535 86.5456875,127.792975 C57.3150248,121.259062 50.838427,119.367666 40.0058873,113.980054 C33.9304947,110.999673 30.7781683,108.707072 26.0210213,103.949925 C18.455438,96.3843413 14.0994961,88.3029228 11.7495801,77.5850131 C10.6605946,72.541291 10.7752247,63.428202 11.9788402,58.0979047 C12.6666205,55.0028934 14.7872764,49.2713909 15.5896868,48.3543505 C15.8762619,48.0677754 17.2518225,48.9848158 19.0859033,50.7042665 C28.2563072,59.5307803 41.0375578,67.1536786 59.8942009,75.005837 C76.286298,81.826325 80.5849249,83.7177208 86.5456875,86.8127321 C89.8699589,88.5321829 93.1942304,90.4235787 93.9966407,91.054044 C94.7990511,91.6845093 96.977022,93.346645 98.9257329,94.7795206 C103.052415,97.7599019 108.955862,103.949925 112.624024,108.936332 C115.77635,113.234959 115.89098,112.948383 113.082544,108.133921 C109.127807,101.256118 104.94381,95.8685061 99.326938,90.4235787 C90.9016294,82.2275302 83.8518813,77.6423282 62.7599522,66.6951584 C45.5081297,57.7540146 36.1084656,51.6786219 27.797787,44.2276687 C24.7600907,41.4765475 21.6077644,38.7254263 20.805354,38.094961 C16.3347821,34.6560595 0,12.704405 0,10.1252289 C0,8.40577818 2.52186109,4.90956166 5.04372219,3.13279589 C7.79484338,1.2987151 11.4056899,-0.248790574 12.3227303,0.1524146 C12.7239355,0.267044649 14.2714412,2.84622077 15.7616318,5.76928703 C19.1432183,12.4751449 26.0783363,22.9637945 29.2306627,26.1734359 C30.5489082,27.4916814 31.7525238,28.5806669 31.8671538,28.5806669 C32.0390989,28.5806669 34.0451247,27.6636265 36.4523558,26.517326 C56.1687243,17.174977 86.0871673,20.3846184 106.720576,34.1402243 C112.050874,37.6364408 120.992017,46.5775847 124.889439,52.2517722 C136.123184,68.7011843 141.625426,90.0796886 139.848661,110.655782 C139.50477,114.839779 139.103565,118.393311 138.93162,118.679886 C138.759675,118.909146 138.35847,120.743227 138.071895,122.691938 C136.868279,130.200206 129.016121,150.08852 127.239355,150.08852 C126.895465,150.08852 126.666205,149.859259 126.666205,149.572684 Z" id="node1"></path>
            </g>
        </g>
    </g>
</svg>