<svg xmlns="http://www.w3.org/2000/svg" id="Layer_1" width="163.5" height="182.3" viewBox="0 0 163.5 182.3"><style>.st0{fill:#485e88}</style><path d="M45.8 62.6h111.4c-.2-7-1.2-14.2-3.8-21.4-2.1-5.5-5-10.9-8.4-15.9-2.6-3.1-5.1-6.1-8.7-9.3-2.6-2.4-6.1-4.7-9.6-7-3.7-2.1-7.7-4-12.1-5.7-2.9-.8-6-1.7-9.3-2.3-1.8-.3-4.6-.8-7.2-.9h-3.8c-1.5.2-3.1.2-4.6.3-.9.2-2 .2-2.9.5-.2 0-.6.3 0 .5 2.9.3 5.7.9 8.4 1.7 3.4 1.1 6.6 2.3 9.8 3.7 2.1 1.2 4.4 2.4 6.6 3.8 2.9 1.8 5.7 4 8.1 6.1 2.8 2.6 5.2 5.4 7.3 8 2.3 2.9 4.4 6 5.8 9.2 1.2 2.3 2.4 4.6 3.2 7 .8 1.8 1.4 3.7 1.8 5.5l.3 1.5c0 .2.2.6-.3.6l-20.4 3.1-71.6 11zM45.5 115.3c1.4.9 2.8 1.7 4.3 2.4l2.9 1.4c1.1.5 2.1.9 3.2 1.2 1.7.8 3.5 1.4 5.4 1.8 2.1.6 4.4 1.1 6.6 1.4 1.8.3 3.5.5 5.4.6 1.8.3 3.8.3 5.8.3 2.4-.2 4.9-.3 7.5-.6 2.4-.5 4.7-.9 7-1.5 3.4-.9 6-2 9.8-3.5 3.5-1.7 6.9-3.4 10-5.4 2.9-2.1 5.7-4.4 8.1-6.9 2.4-2.3 4.4-4.7 6.3-7.2 2.8-3.8 4.9-7.5 6.9-11.5l2.5-6.3c.6-1.8 1.1-3.7 1.5-5.5h17c0 .3 0 .8-.2 1.1-.3 1.5-.8 3.1-1.4 4.6-.5 1.5-1.1 3.1-1.7 4.6-1.1 2.4-2.1 4.7-3.4 7-.9 1.4-1.7 2.8-2.4 4-1.2 1.5-2.3 3.1-3.5 4.6-1.7 2-3.4 4-5.4 5.8-1.4 1.4-2.9 2.8-4.6 4-1.2 1.1-2.6 2-4 2.9l-1.1.8-.2.3h.2c.3.3.8.5 1.4.5 1.5.2 3.1.3 4.3.5 1.7.3 3.4.6 5.1.8 2.3.5 4.4.8 6.6 1.2 2.5.5 4.6 1.2 6.7 1.8 1.1.5 2.1.9 3.2 1.4.6.5 1.2.9 1.7 1.4.2.3.3.6.3.9v1.1c-.2.2-.3.5-.5.8-.6.6-1.2 1.1-2 1.5-1.4.8-2.9 1.4-4.4 1.8-2.1.6-4.1 1.2-6.4 1.5-2.1.5-4.4.9-6.7 1.2-2.3.5-4.6.8-6.9.9l-12.7 1.2c-5.5.5-11 .9-16.5 1.1l-9.8.2-14.5.2-17.6-.5c-5.4-.2-10.7-.3-15.9-.9-4.6-.3-9.2-.9-13.6-1.4-2.9-.3-5.7-.6-8.4-1.2-3.2-.6-6.6-1.4-10.3-2.4l-2.1-.7c-1.1-.5-2.3-1.1-3.1-1.7-.5-.3-.8-.6-1.1-1.1-.2-.2-.2-.6-.2-.9 0-.3.2-.6.3-.9.2-.5.3-.8.8-1.1.5-.5 1.1-.8 1.7-1.1 1.2-.6 2.5-1.1 3.8-1.5 2-.6 4-1.1 6-1.5 3.2-.8 6.4-1.2 9.5-1.7l7.2-.8 5.5-.6 6.1-.4zM62.3 171.3v-6.4c.5 0 .8 0 1.1-.2 1.1-.2 1.8-.5 2.5-1.1.6-.5 1.1-1.1 1.2-1.7.3-.8.5-1.5.5-2.4 0-1.1-.3-1.8-.8-2.6-.6-.6-1.2-1.1-1.8-1.4-.9-.3-1.7-.6-2.6-.6v-6.3h.6c2.1 0 4 .2 5.5.5 1.4.5 2.8.9 3.8 1.7 1.4.9 2.4 2 3.2 3.4.6 1.5 1.1 3.1 1.1 5.1 0 1.5-.3 3.1-.9 4.4-.5 1.5-1.2 2.8-2.1 3.7-1.4 1.4-2.9 2.3-4.6 3.1-1.7.6-3.7.9-6.1.9h-.6v-.1zm53.6 11H91.4v-33.7h24.5v6.4h-15.8v5.8h14.5v6.6h-14.5v8.4h15.8v6.5zm47.6 0h-10.7l-10.1-13.5-2 2.4v11H132v-33.7h8.7v15.2l11.9-15.2h10.3l-13.3 15.6 13.9 18.2zm-128.6 0H26l-2.5-6.7h-6.3v-6.3h4.1l-4.1-12.1v-8.6h5.2l12.5 33.7zm27.4-33.7v6.3h-5V165h2.6c.9 0 1.8 0 2.5-.2v6.4h-5.1v11h-8.7v-33.7h13.7zm-45 27H11l-2.3 6.7H0l12.4-33.7h4.9v8.6l-4.1 12.1h4.1v6.3z" class="st0"/></svg>