<?xml version="1.0" encoding="UTF-8"?>
<svg width="887px" height="136px" viewBox="0 0 887 136" version="1.1" xmlns="http://www.w3.org/2000/svg" xmlns:xlink="http://www.w3.org/1999/xlink">
    <!-- Generator: Sketch 48.2 (47327) - http://www.bohemiancoding.com/sketch -->
    <title>Group 2</title>
    <desc>Created with Sketch.</desc>
    <defs>
        <linearGradient x1="38.9489809%" y1="115.303%" x2="75.556721%" y2="0%" id="linearGradient-1">
            <stop stop-color="#FD8835" offset="0%"></stop>
            <stop stop-color="#FC6120" offset="100%"></stop>
        </linearGradient>
    </defs>
    <g id="Artboard" stroke="none" stroke-width="1" fill="none" fill-rule="evenodd" transform="translate(-275.000000, -363.000000)">
        <g id="og" transform="translate(150.000000, 116.000000)">
            <g id="Group-2" transform="translate(125.000000, 247.000000)">
                <polygon id="Shape" fill="#D5EBF1" fill-rule="nonzero" points="215 0 219 0 219 136 215 136"></polygon>
                <text id="PolskiKośzykRoku.pl" font-family="Roboto-Medium, Roboto" font-size="64" font-weight="400" letter-spacing="1.06666672" fill="#000000">
                    <tspan x="276.147916" y="88">PolskiKośzykRoku.</tspan>
                    <tspan x="839.28125" y="88" font-family="Roboto-Regular, Roboto" font-weight="normal">pl</tspan>
                </text>
                <g id="Group" transform="translate(0.000000, 36.000000)"></g>
                <path d="M52.0878913,70.93368 C51.7672174,70.99848 51.4400652,71.03088 51.1161522,71.03088 L25.060587,70.77168 C23.4995733,70.818812 22.0377658,70.008306 21.2505075,68.6591637 C20.4632492,67.3100213 20.4765942,65.6382647 21.2852903,64.3018692 C22.0939863,62.9654736 23.5685465,62.1784202 25.1286087,62.25048 L51.1841739,62.50968 C53.4072748,62.4353175 55.3110347,64.0895041 55.5483614,66.3017443 C55.7856881,68.5139845 54.2761506,70.5345425 52.0878913,70.93368 Z M60.8335435,85.51368 C60.5128696,85.57848 60.1857174,85.61088 59.8618043,85.61088 L4.65406522,85.35168 C3.08445212,85.413084 1.60827173,84.6060406 0.812407114,83.2514048 C0.0165425008,81.896769 0.0299798644,80.2140875 0.84737693,78.8723416 C1.66477399,77.5305958 3.15365479,76.7472431 4.72208696,76.83372 L59.9298261,77.09292 C62.1596079,77.0061844 64.0755581,78.6617696 64.3137354,80.8810851 C64.5519127,83.1004005 63.0309245,85.1250366 60.8335435,85.51368 Z M66.6639783,100.09368 C66.3433043,100.15848 66.0161522,100.19088 65.6922391,100.19088 L39.6366739,99.93168 C38.0670608,99.993084 36.5908804,99.1860406 35.7950158,97.8314048 C34.9991512,96.476769 35.0125886,94.7940875 35.8299856,93.4523416 C36.6473827,92.1105958 38.1362635,91.3272431 39.7046957,91.41372 L65.7602609,91.67292 C67.9900427,91.5861844 69.9059929,93.2417696 70.1441702,95.4610851 C70.3823475,97.6804005 68.8613593,99.7050366 66.6639783,100.09368 Z" id="Shape" fill="#FEE8D6" fill-rule="nonzero"></path>
                <path d="M140.023804,90.25704 L91.2943261,101.87244 C89.5829804,102.243227 87.8369722,101.412585 87.044587,99.85068 L72.4685,70.59672 C72.2069981,70.2452983 72.0096172,69.8504307 71.8854565,69.43032 L60.3379565,46.27728 L51.4983696,48.15972 C49.4464582,48.6112316 47.4141116,47.3244079 46.9441522,45.27612 C46.7347365,44.2926272 46.9269975,43.2662066 47.4781538,42.4252547 C48.0293101,41.5843028 48.8936361,40.9985872 49.8788043,40.79844 L61.6465652,38.29392 C63.3579109,37.9231333 65.1039191,38.7537747 65.8963043,40.31568 L70.5282609,49.61124 L133.956913,36.10692 C136.008495,35.657282 138.039619,36.9433316 138.51113,38.99052 L145.21613,69.48216 C145.425546,70.4656528 145.233285,71.4920734 144.682129,72.3330253 C144.130973,73.1739772 143.266646,73.7596928 142.281478,73.95984 L88.385587,85.42944 L92.5964565,93.88584 L138.394522,82.89576 C140.444891,82.44216 142.475826,83.73168 142.948739,85.77936 C143.159297,86.7615433 142.968726,87.7871655 142.419418,88.6280822 C141.87011,89.4689989 141.00762,90.0554707 140.023804,90.25704 Z M131.819087,44.28144 L73.9941304,56.59344 L77.7158913,64.04544 L133.555261,52.15788 L131.819087,44.28144 Z M136.907761,67.41504 L135.174826,59.50944 L81.1914783,71.00496 L84.9132391,78.45696 L136.907761,67.41504 Z M103.86863,103.05504 C107.093853,102.34772 110.286572,104.371715 111.02387,107.59104 C111.352758,109.136368 111.050392,110.749082 110.184077,112.070203 C109.317762,113.391323 107.959397,114.311202 106.411348,114.62508 C103.186125,115.3324 99.9934064,113.308405 99.2561087,110.08908 C98.9253595,108.542336 99.2272296,106.927521 100.094384,105.604831 C100.961539,104.282141 102.321843,103.361606 103.87187,103.04856 L103.86863,103.05504 Z M131.981043,96.44544 C135.206266,95.7381201 138.398985,97.7621154 139.136283,100.98144 C139.465229,102.527162 139.162951,104.140279 138.296696,105.461915 C137.430442,106.783551 136.072062,107.704084 134.523761,108.01872 C131.298538,108.72604 128.105819,106.702045 127.368522,103.48272 C127.039575,101.936998 127.341854,100.323881 128.208108,99.0022452 C129.074362,97.6806093 130.432742,96.7600763 131.981043,96.44544 Z" id="Shape" fill="url(#linearGradient-1)" fill-rule="nonzero"></path>
            </g>
        </g>
    </g>
</svg>