<svg xmlns="http://www.w3.org/2000/svg" xmlns:xlink="http://www.w3.org/1999/xlink" width="16" height="16" viewBox="0 0 16 16"><defs><path id="a" d="M1523 5349.97V5340h3v9.97zm15.01-5.66v5.67h-3v-5.44c0-1.12-.32-2.24-1.64-2.24a2.38 2.38 0 0 0-2.36 2.27v5.41H1528v-10.01h3.01v1.38a4.5 4.5 0 0 1 3.68-1.7c1.45 0 3.32.73 3.32 4.66zm-11.59-7.6c0 .97-.87 1.76-1.95 1.76-1.09 0-1.96-.79-1.96-1.76s.87-1.76 1.96-1.76c1.08 0 1.95.79 1.95 1.76z"/></defs><desc>Generated with Avocode.</desc><g transform="translate(-1522 -5334)"><use fill="#fff" xlink:href="#a"/></g></svg>