<?xml version="1.0" encoding="UTF-8"?>
<svg width="121px" height="18px" viewBox="0 0 121 18" version="1.1" xmlns="http://www.w3.org/2000/svg" xmlns:xlink="http://www.w3.org/1999/xlink">
    <!-- Generator: Sketch 48.2 (47327) - http://www.bohemiancoding.com/sketch -->
    <title>Logo</title>
    <desc>Created with Sketch.</desc>
    <defs></defs>
    <g id="Desktop-HD-Copy-2" stroke="none" stroke-width="1" fill="none" fill-rule="evenodd" transform="translate(-161.000000, -52.000000)">
        <g id="Header" transform="translate(4.000000, 0.000000)">
            <g id="Logo" transform="translate(157.000000, 49.000000)">
                <path d="M3.81944444,10.5930233 L6.875,10.5930233 C6.875,12.649231 8.22590917,14.4474968 10.1750113,15.0601949 L9.24981061,17.941528 C6.04094289,16.9328241 3.81944444,13.9756714 3.81944444,10.5930233 Z" id="Oval-4" fill="#FF4C4C" fill-rule="nonzero"></path>
                <path d="M14.1372436,17.8876932 L13.1469914,15.0276061 C15.0454963,14.3841073 16.3472222,12.6114366 16.3472222,10.5930233 L19.4027778,10.5930233 C19.4027778,13.913296 17.2620184,16.8285498 14.1372436,17.8876932 Z" id="Path" fill="#0D2B65" fill-rule="nonzero"></path>
                <polygon id="Rectangle" fill="#FF4C4C" fill-rule="nonzero" points="6.875 8.77906977 3.81944444 8.77906977 3.81944444 5 6.875 5"></polygon>
                <polygon id="Path" fill="#0D2B65" fill-rule="nonzero" points="16.3472222 5 19.4027778 5 19.4027778 8.77906977 16.3472222 8.77906977"></polygon>
                <polygon id="Line" fill="#0D2B65" fill-rule="nonzero" points="11.6111111 11.1976744 11.6111111 8.1744186 23.2227839 8.1744186 23.2227839 11.1976744"></polygon>
                <polygon id="Line-Copy" fill="#FF4C4C" fill-rule="nonzero" points="0 11.1976744 0 8.1744186 11.6111111 8.1744186 11.6111111 11.1976744"></polygon>
                <text id="BETA" font-family="Roboto-Black, Roboto" font-size="10" font-weight="700" fill="#FF4C4C">
                    <tspan x="96" y="11">BETA</tspan>
                </text>
                <text id="uTip’em" font-family="Roboto-Black, Roboto" font-size="18" font-weight="700" fill="#0D2B65">
                    <tspan x="31" y="17">uTip’em</tspan>
                </text>
            </g>
        </g>
    </g>
</svg>