<?xml version="1.0" encoding="UTF-8"?>
<svg width="591px" height="486px" viewBox="0 0 591 486" version="1.1" xmlns="http://www.w3.org/2000/svg" xmlns:xlink="http://www.w3.org/1999/xlink">
    <!-- Generator: Sketch 49.1 (51147) - http://www.bohemiancoding.com/sketch -->
    <title>002-piggy-bank-3</title>
    <desc>Created with Sketch.</desc>
    <defs>
        <filter x="-11.5%" y="-7.3%" width="124.0%" height="129.4%" filterUnits="objectBoundingBox" id="filter-1">
            <feOffset dx="0" dy="32" in="SourceAlpha" result="shadowOffsetOuter1"></feOffset>
            <feGaussianBlur stdDeviation="15" in="shadowOffsetOuter1" result="shadowBlurOuter1"></feGaussianBlur>
            <feColorMatrix values="0 0 0 0 0.91372549   0 0 0 0 0.549019608   0 0 0 0 0.643137255  0 0 0 0.292176178 0" type="matrix" in="shadowBlurOuter1" result="shadowMatrixOuter1"></feColorMatrix>
            <feMerge>
                <feMergeNode in="shadowMatrixOuter1"></feMergeNode>
                <feMergeNode in="SourceGraphic"></feMergeNode>
            </feMerge>
        </filter>
        <polygon id="path-2" points="0.74747862 0.908998543 442 0.908998543 442 380 0.74747862 380"></polygon>
        <polygon id="path-4" points="0.06 0.284 478.735 0.284 478.735 356.915 0.06 356.915"></polygon>
    </defs>
    <g id="Page-1" stroke="none" stroke-width="1" fill="none" fill-rule="evenodd">
        <g id="Desktop-HD" transform="translate(-82.000000, -87.000000)">
            <g id="002-piggy-bank-3" filter="url(#filter-1)" transform="translate(112.000000, 87.000000)">
                <path d="M259.5,0 C294.017861,0 322,27.9823187 322,62.5004014 C322,97.0176813 294.017861,125 259.5,125 C224.982139,125 197,97.0176813 197,62.5004014 C197,27.9823187 224.982139,0 259.5,0" id="Fill-1" fill="#FBD866"></path>
                <path d="M198.416112,48.4308989 C197.496121,52.6878843 197,57.101082 197,61.6320397 C197,96.0764509 224.981863,124 259.5,124 C294.018137,124 322,96.0764509 322,61.6320397 C322,57.1058885 321.504682,52.6966962 320.587099,48.4445174 C301.107528,43.5474621 280.543395,41 259.5,41 C238.432521,41 217.903711,43.5266338 198.416112,48.4308989" id="Fill-2" fill="#F8C356"></path>
                <path d="M259.000802,98 C239.15005,98 223,81.8505723 223,62.0004012 C223,42.1494277 239.15005,26 259.000802,26 C278.850752,26 295,42.1494277 295,62.0004012 C295,81.8505723 278.850752,98 259.000802,98" id="Fill-3" fill="#F7C150"></path>
                <path d="M478,223 C504.666667,223.666667 518,214.666667 518,196 C518,168 490,174 490,191 C490,208 508,230 529,236" id="Path-2" stroke="#E4688E" stroke-width="10" stroke-linecap="round" stroke-linejoin="round"></path>
                <g id="Group-14" transform="translate(70.000000, 45.000000)">
                    <mask id="mask-3" fill="white">
                        <use xlink:href="#path-2"></use>
                    </mask>
                    <g id="Clip-10"></g>
                    <path d="M18.232,0.989 C9.012,0.071 0.922,7.167 0.771,16.432 C0.53,31.289 2.025,55.597 10.684,86.189 L63.638,79.976 L85.682,36.562 C85.682,36.562 71.224,6.272 18.232,0.989" id="Fill-9" fill="#E4688E" mask="url(#mask-3)"></path>
                    <path d="M52.089,289.502 L39.803,351.263 C38.551,357.554 42.116,363.807 48.166,365.935 L86.058,379.268 C92.049,381.376 98.681,378.805 101.687,373.212 L131.417,317.903 L52.089,289.502" id="Fill-11" fill="#E4688E" mask="url(#mask-3)"></path>
                    <path d="M326.315,289.502 L338.601,351.263 C339.852,357.554 336.288,363.807 330.238,365.935 L292.346,379.268 C286.355,381.376 279.723,378.805 276.717,373.212 L246.987,317.903 L326.315,289.502" id="Fill-12" fill="#E4688E" mask="url(#mask-3)"></path>
                </g>
                <path d="M396.316,334.502 L316.987,362.903 L341.141,407.84 C364.144,401.538 385.845,392.559 405.59,381.124 L396.316,334.502" id="Fill-15" fill="#E25E83"></path>
                <path d="M112.819,381.105 C132.709,392.609 154.367,401.576 177.255,407.857 L201.419,362.903 L122.09,334.502 L112.819,381.105" id="Fill-16" fill="#E25E83"></path>
                <g id="Group-20" transform="translate(0.000000, 36.000000)">
                    <mask id="mask-5" fill="white">
                        <use xlink:href="#path-4"></use>
                    </mask>
                    <g id="Clip-18"></g>
                    <path d="M228.338415,5.80563304 C224.957071,11.2249111 223,17.6021184 223,24.4233988 C223,44.0395361 239.15005,60 259.000802,60 C278.850752,60 295,44.0395361 295,24.4233988 C295,17.6092553 293.048546,11.2391849 289.673621,5.82228579 C279.612237,4.62170237 269.365496,4 259.000802,4 C248.628887,4 238.389368,4.61218652 228.338415,5.80563304" id="Fill-17" fill="#DDAD47" mask="url(#mask-5)"></path>
                    <path d="M47.107,148.664 L16.77,142.466 C10.393,141.162 4.194,145.421 3.162,151.847 C1.676,161.108 0,175.166 0,191.478 C0,207.788 1.676,221.847 3.163,231.107 C4.194,237.534 10.393,241.792 16.771,240.488 L47.108,234.29 C72.145,304.904 157.607,356.915 259.203,356.915 C380.448,356.915 478.735,282.846 478.735,191.476 C478.735,100.107 380.447,26.039 259.202,26.039 C157.606,26.039 72.145,78.05 47.107,148.664 Z" id="Fill-19" fill="#E98CA4" mask="url(#mask-5)"></path>
                </g>
                <path d="M28.062,198.841 C33.921,198.841 38.67,207.712 38.67,218.655 C38.67,229.598 33.921,238.47 28.062,238.47 C22.204,238.47 17.454,229.598 17.454,218.655 C17.454,207.712 22.204,198.841 28.062,198.841" id="Fill-21" fill="#E25079"></path>
                <path d="M80.684,188.162 C80.684,180.413 86.966,174.131 94.715,174.131 C102.464,174.131 108.746,180.413 108.746,188.162" id="Fill-22" stroke="#E25079" stroke-width="6" stroke-linecap="round" stroke-linejoin="round"></path>
                <text id="3%-cashback" font-family="Calibre-Semibold, Calibre" font-size="78" font-weight="500" fill="#FFFFFF">
                    <tspan x="227.084" y="206">3</tspan>
                    <tspan x="264.056" y="206" font-size="58">%</tspan>
                    <tspan x="302.916" y="206"> </tspan>
                    <tspan x="154.394" y="284" font-size="58">cashback</tspan>
                </text>
            </g>
        </g>
    </g>
</svg>