<svg xmlns="http://www.w3.org/2000/svg" xmlns:xlink="http://www.w3.org/1999/xlink" width="17" height="13" viewBox="0 0 17 13"><defs><path id="a" d="M1479.56 5338.56c-.27.15-1.08.45-1.83.52a3.53 3.53 0 0 0 1.38-1.79c-.47.3-1.54.73-2.06.73a3.3 3.3 0 0 0-5.6 3.02h-.01a9.56 9.56 0 0 1-6.99-3.43 3.3 3.3 0 0 0 1 4.36c-.38.03-1.1-.04-1.44-.37-.02 1.15.53 2.67 2.55 3.23-.39.21-1.08.15-1.38.1.11.97 1.47 2.24 2.95 2.24a5.42 5.42 0 0 1-4.57 1.37 9.87 9.87 0 0 0 5.17 1.46 9.16 9.16 0 0 0 9.23-9.64v-.02-.04-.05a5.46 5.46 0 0 0 1.6-1.69z"/></defs><desc>Generated with Avocode.</desc><g transform="translate(-1463 -5337)"><use fill="#fff" xlink:href="#a"/></g></svg>