<svg xmlns="http://www.w3.org/2000/svg" id="Layer_1" width="270" height="54.1" viewBox="0 0 270 54.1"><style>.st0{fill:#00abd7}.st1{fill:#f47927}</style><g id="Logo_claim_2_"><g id="XMLID_5_"><g id="XMLID_6_"><path id="XMLID_19_" d="M95.2 46.5c0 2.1-1.7 3.8-3.8 3.8-2.1 0-3.8-1.7-3.8-3.8V30.8H69v15.7c0 2.1-1.7 3.8-3.8 3.8-2.1 0-3.8-1.7-3.8-3.8V9.2c0-2.1 1.7-3.8 3.8-3.8 2.1 0 3.8 1.7 3.8 3.8v14.7h18.6V9.2c0-2.1 1.7-3.8 3.8-3.8 2.1 0 3.8 1.7 3.8 3.8v37.3z" class="st0"/><path id="XMLID_16_" d="M115.2 19.3c11 0 13 8.5 13 13 0 2.4 0 5.2-4 5.2h-16.1c0 4.7 3.3 6.8 7.6 6.8 2.9 0 4.9-1 6.5-2 .7-.5 1.2-.7 2.1-.7 1.7 0 3.1 1.4 3.1 3.1 0 1-.5 1.9-1.1 2.4-1.1 1-4.6 3.6-10.5 3.6-9.1 0-14.7-4.9-14.7-15.8 0-10 5.2-15.6 14.1-15.6m-6.9 12.3h12.9c0-3.2-1.8-6.3-6.1-6.3-3.7 0-6.4 2.1-6.8 6.3" class="st0"/><path id="XMLID_15_" d="M139.8 23.2v15.2c0 3 1 5.9 5.9 5.9 4.8 0 5.8-2.9 5.8-5.9V23.2c0-2 1.6-3.5 3.5-3.5 2 0 3.5 1.6 3.5 3.5v15.2c0 6.4-2.4 12.3-12.8 12.3-10.5 0-12.9-5.9-12.9-12.3V23.2c0-2 1.6-3.5 3.5-3.5 2 0 3.5 1.5 3.5 3.5" class="st0"/><path id="XMLID_14_" d="M171.8 23.5c1.2-2.5 4.3-4.2 7-4.2 1.8 0 3.3 1.5 3.3 3.3 0 1.8-1.5 3.3-3.3 3.3-4.5 0-7 2.9-7 7.2v13.6c0 2-1.6 3.5-3.5 3.5-2 0-3.5-1.6-3.5-3.5V23.2c0-2 1.6-3.5 3.5-3.5 2 0 3.5 1.6 3.5 3.5v.3z" class="st0"/><path id="XMLID_11_" d="M198 19.3c11 0 13 8.5 13 13 0 2.4 0 5.2-4 5.2h-16.1c0 4.7 3.3 6.8 7.6 6.8 2.9 0 4.9-1 6.5-2 .7-.5 1.2-.7 2.1-.7 1.7 0 3.1 1.4 3.1 3.1 0 1-.5 1.9-1.1 2.4-1.1 1-4.6 3.6-10.5 3.6-9.1 0-14.7-4.9-14.7-15.8 0-10 5.2-15.6 14.1-15.6m-6.9 12.3H204c0-3.2-1.8-6.3-6.1-6.3-3.7 0-6.5 2.1-6.8 6.3" class="st0"/><path id="XMLID_10_" d="M235.1 48.9l-9.7-13-2.1 1.6v9.4c0 2-1.6 3.4-3.5 3.4-2 0-3.5-1.4-3.5-3.4V6.8c0-2 1.5-3.4 3.5-3.4s3.5 1.4 3.5 3.4v23l11.8-9.3c.8-.7 1.5-.8 2.3-.8 1.9 0 3.4 1.5 3.4 3.4 0 1-.5 2-1.3 2.7l-8.5 6.5 9.6 12.6c.5.7.7 1.4.7 2.1 0 1.9-1.5 3.4-3.4 3.4-1.3-.1-2.3-.7-2.8-1.5" class="st0"/><path id="XMLID_7_" d="M250.6 28c-.7.5-1.2.7-2 .7-1.7 0-3.1-1.4-3.1-3.1 0-.7.3-1.5.8-2.2 1.8-2 5.1-4.2 10.7-4.2 8.1 0 12.9 4 12.9 10.9v16.7c0 1.9-1.6 3.5-3.5 3.5s-3.5-1.6-3.5-3.5c-1.8 2.8-4.6 3.8-8.5 3.8-6.4 0-10.6-4-10.6-9.8 0-6.1 4.9-9.2 10.6-9.2h8.5v-1.2c0-2.9-2.2-4.9-5.9-4.9-2.8 0-4.8 1.3-6.4 2.5M263 38.9v-1.8h-7.6c-2.9 0-4.4 1.4-4.4 3.7 0 2.5 1.8 4 5.4 4 3.4 0 6.6-2.3 6.6-5.9" class="st0"/></g></g><path id="XMLID_2_" d="M49.1 47.3l-8.7-8.7c3.7-4.1 5.9-9.5 5.9-15.4C46.3 10.4 35.9 0 23.1 0 10.4 0 0 10.4 0 23.1c0 12.8 10.4 23.1 23.1 23.1 3.9 0 7.6-1 10.9-2.7l9.4 9.4c1.6 1.6 4.1 1.6 5.7 0 1.5-1.5 1.5-4.1 0-5.6zM6.5 23.1C6.5 14 14 6.5 23.1 6.5c3.4 0 6.5 1 9.1 2.7l-9.6 15.4-3.9-5.2c-.6-.8-1.5-1.2-2.5-1.2-.7 0-1.3.2-1.9.6-1.4 1-1.6 3-.6 4.3l6.7 8.8c.6.8 1.5 1.2 2.5 1.2h.1c1 0 1.9-.6 2.5-1.5l11.2-18c1.9 2.7 3 6 3 9.5 0 9.2-7.5 16.6-16.6 16.6-9.1.1-16.6-7.4-16.6-16.6z" class="st1"/></g></svg>