<svg xmlns="http://www.w3.org/2000/svg" viewBox="0 0 55.15 82.25"><defs><style>.cls-1{fill:#172131}.cls-2{fill:#b49f5e}</style></defs><path d="M19.33 59.3V26.46l4.4.07c7.57 0 11.69 2.9 11.69 9.12s-3.09 9-10.52 9c0 0 1.51 3.85 2.06 5.11 2.32 5.32 6.46 12.43 10.52 16.23 5.5 5.11 12.17 5.73 17.19 5.46l.48-4.76c-3.78-.9-6.74-3.25-10.11-7.18a68.41 68.41 0 0 1-7.56-11.81 14.14 14.14 0 0 0 8.67-12.91c0-10.15-8.12-13.81-17.81-13.81H3.65a18.86 18.86 0 0 0-.28 3.66l1.23.42 2.62 1A5.27 5.27 0 0 1 9.7 30.8v28.94c0 9.67-2 12.36-9.7 17.12l3 5.39c7.94-3.58 16.33-8.69 16.33-22.95z" class="cls-1"/><path d="M31.08 15c1.84 0 7.57-6.26 7.57-7.5 0-1.44-6.14-7.5-7.57-7.5s-7.43 5.86-7.43 7.51S29.45 15 31.08 15zM13.4 15c1.84 0 7.57-6.26 7.57-7.5 0-1.44-6-7.5-7.57-7.5S5.94 5.85 5.94 7.5 11.76 15 13.4 15z" class="cls-2"/></svg>