<svg xmlns="http://www.w3.org/2000/svg" width="667" height="94" viewBox="0 0 667 94"><g fill="#424B52" fill-rule="nonzero"><path d="M595 76.8h-1.1c-7.2-.3-9.8-3.5-9.8-10.1V50c0-6.9 2.9-10.1 10.9-10.1h13.8V24.7H595c-21.8 0-30.8 8.1-30.8 27.4v12.6c0 19.2 9 27.5 30.8 27.5h13.8V76.8H595zM592.1 76.8h1.1-1.1zM615.3 24.7h50.8v15.2l-27.9 36.9h28.7V92h-51.8V76.8l27.8-36.9h-27.6z"/><circle cx="549.7" cy="81.8" r="11.6"/><path d="M73.1 66.2V50.6c0-13.8 6.5-27.2 30.4-27.2s30.4 13.4 30.4 27.2v15.6c0 13.8-6.5 27.2-30.4 27.2S73.1 80 73.1 66.2zm40.9.5V50c0-6.4-3.3-9.9-10.5-9.9S93 43.7 93 50v16.7c0 6.4 3.3 9.9 10.5 9.9s10.5-3.5 10.5-9.9zM270.3 24.7h19.9V92h-19.9zM381.3 22.7c-7.1 0-16 .5-22.4 1.9-.2 1-.4 2.6-.6 3.8-.1.7-.2 1.5-.3 2.2-.4 4.1-.8 8.7-.9 10.7.4-.1 3-.6 4.3-.8 5.7-1 11.1-1.6 16.5-1.6 10.6 0 11.9 3.1 11.9 10.1v1.6h-14.5c-13.8 0-20 7.9-20 21.4 0 11.5 5.1 21.4 17.5 21.4 4.1 0 10.2-1.1 17-4.5V92h19.9V49c0-18.6-5.1-26.3-28.4-26.3zm8.5 52.9c-3 1.4-5.9 2.3-10.1 2.3-3.9 0-5.4-2.5-5.4-6.2s1.7-6.4 5.9-6.4h9.5v10.3h.1zM441 77c-.9.1-1.8.1-2.5.1-2.5 0-4.1-1-4.1-3.7V40.8h12.4c.9-4.1 1.5-12.1 1.7-16h-14.1V14.6c-8.9 1.1-15.3 2.2-19.9 3.2v58.3c0 12.4 7.5 17.3 20.3 17.3 4 0 8.6-.7 12.6-1.9l1.8-.6-2.3-15.1c-2 .7-4.1 1-5.9 1.2zM248.5 23.3c-6.8 0-16 1.9-23.8 5.1v-3.7c-1.7.2-3.3.4-4.9.6-6.1.7-11.1 1.5-15 2.2V92h19.9V47.5c4.3-2.3 10.9-4.8 14.5-4.8 3.5 0 4.8 1.8 4.8 4.8V92h19.9V44.9c0-13-4-21.6-15.4-21.6zM503.9 74.5c-5.8 1.6-13.4 2.5-19.2 2.5-9.1 0-12.2-2.1-12.2-9.8v-1.9H508.7v-14c0-14.6-4.8-27.9-27.2-27.9s-28.9 12.4-28.9 26.9V66c0 16.6 8.3 27.4 30.1 27.4 7.5 0 15.2-1.3 21.1-3l.9-.3c.1 0 .1 0 .2-.1.4-.1 1.2-.4 2.1-.7.9-4.8 1.5-13.3 1.6-16.3-1.8.7-4.3 1.4-4.7 1.5zm-31.3-27c0-4.7 2.2-8.6 9.1-8.6 6.9 0 8.3 3.9 8.3 8.6v2.9h-17.4v-2.9zM37.6 0H0v92h20.7V18.4h15.7c8.7 0 11.1 3 11.1 9.7v8c0 6.6-1.9 10.1-11.1 10.1H25.7v18h10.8c22.4 0 31.8-8.7 31.8-26v-12C68.2 8.8 60 0 37.6 0zM270.3 18.1h19.9V0h-.7c-5.1.2-14.4 1.7-19.2 2.5v15.6zM513.7 92h19.9V0c-5.7.3-15.7 1.9-19.9 2.6V92zM178.6 25.3c-4.6-1.1-11.6-1.9-17.1-1.9-15.8 0-22.7 9-22.7 24.9v20.3c0 16.4 7.6 24.9 21.3 24.9 6.3 0 13.6-2.8 18.5-5.5v4h19.9V0c-5.5.3-15.5 1.9-19.9 2.6v22.7zm0 40.6v5c-2.9 2.5-8.2 5.2-12.7 5.2-5.2 0-7.2-2.9-7.2-7.6V48.2c0-4.4 1.9-7.6 7.2-7.6 4.1 0 9.3.8 12.7 1.7v23.6zM335.5 58.2l17.6-33.3c-11.6 1.4-18.4 2.4-22.9 3.6L316.4 55V0c-5.5.3-15.5 1.9-19.9 2.6V92h19.9V61.3L332.7 92h22.8c-1.9-2.4-3.9-4.9-5.5-7.5l-14.5-26.3z"/></g></svg>