<svg xmlns="http://www.w3.org/2000/svg" width="131" height="34" viewBox="0 0 131 34"><g fill="#424B52" fill-rule="nonzero"><path d="M9.6 33.7h13.3v-7.9H9.6v7.9zM8.5.4H0v33.3h8.5V.4zM33.6 22.5V.4h-8.5v22.1c0 4.7 1 7.7 3 9.3 1.8 1.4 5.3 2.1 10.6 2.2v-7.6c-3.3 0-4.2-.5-4.4-.6-.2-.2-.7-.7-.7-3.3zm11.2-.3c0 2.9-.6 3.4-.7 3.5-.1.1-1 .6-4.4.6V34c5.3 0 8.8-.8 10.6-2.4 2-1.7 2.9-4.8 2.9-9.5V.4h-8.5v21.8h.1zM81.9 3C80.2 1.3 77.1.4 72.6.4h-5.7V8h4.8c3.1 0 3.6.5 3.6.5s.5.6.5 3.9c0 2.7-.5 3.2-.6 3.3-.1.1-.9.6-4.2.6h-4.3v7.6h5.8c4.6 0 7.6-.8 9.3-2.4 1.7-1.6 2.5-4.6 2.5-9.1.2-4.7-.6-7.7-2.4-9.4zM57.4 33.7h8.5V.4h-8.5v33.3zM108 11.8h-3.8v-3h2.8l-2.5-7.5-.3-.9H93.5l-.3.9L83 32l-.6 1.8h9l.3-.9.4-1.2 4-12.3 2.9-8.8 3.4 10.4h-5.7l-2.3 7h10.2l1.7 5 .3.9h8.9l-.6-1.8zM125.8 8.9l5-6.1.1-.2V.1h-9.3V3h4.8l-4.9 6-.1.2v2.5h9.6V8.9zM117.2 7.5v.4c0 .6-.1.8-.2.8 0 0-.3.2-1.6.2s-1.6-.2-1.6-.2c0-.1-.2-.6-.2-3.2 0-1.9.2-2.2.2-2.3 0 0 .3-.2 1.7-.2 1.1 0 1.4.2 1.4.2s.1.1.1.8v.9h3.3v-.8c0-1.5-.3-2.6-1-3.1-.6-.7-1.7-1-3.3-1-2.2 0-3.7.3-4.4 1-.8.7-1.2 1.9-1.2 3.9 0 4.1.5 5.3.8 5.8.6.9 2 1.3 4.3 1.3 2 0 3.2-.2 3.9-.8.7-.6 1-1.6 1-3.3v-1h-3.3l.1.6z"/></g></svg>