<svg xmlns="http://www.w3.org/2000/svg" width="439" height="85" viewBox="0 0 439 85"><path fill="#424B52" fill-rule="evenodd" d="M260.277 49.439c-3.47-4.337-6.073-6.939-6.941-6.939v24.286H241.19V0h12.146v42.5c.868-1.735 3.47-3.47 6.94-7.806 2.603-3.47 6.941-8.674 11.28-14.745h25.16c1.735 5.204 4.337 11.275 6.073 17.347 2.602 6.071 4.337 12.143 6.073 18.214 1.735-6.071 4.338-12.143 6.073-18.214 1.735-6.072 3.47-11.276 5.205-17.347h12.147c-1.736 5.204-3.47 10.408-5.206 16.48-1.735 5.204-4.338 11.275-6.073 16.48-2.603 6.07-4.338 11.275-6.94 16.479L306.257 85h-13.013c1.735-2.602 2.603-4.337 4.338-7.806 1.735-2.602 2.603-5.204 3.47-7.806-.867-4.337-1.735-8.674-3.47-13.01-1.735-4.337-2.603-8.674-4.338-13.01-.868-4.337-2.603-7.807-4.338-12.144-.867-3.469-2.603-6.938-4.338-10.408-4.338 6.072-7.808 10.408-10.41 13.878-3.471 3.47-6.074 5.204-6.942 6.939.868 0 3.47 2.602 6.941 6.938 3.47 4.337 7.808 10.409 13.014 18.215H273.29c-5.206-7.806-9.544-13.01-13.014-17.347zm-219.5 17.347C36.439 58.98 31.233 51.173 26.895 42.5c-5.205-7.806-9.543-16.48-14.749-24.286v48.572H0V2.602h15.617c5.205 6.939 9.543 14.745 14.749 22.551 4.338 7.806 8.676 15.612 13.013 24.286V2.602h12.147v64.184h-14.75zm38.174.867c-2.603-.867-5.206-2.602-6.941-4.337-1.735-1.734-2.603-4.336-4.338-7.806-.868-3.47-.868-7.806-.868-12.143 0-5.204 0-8.673.868-12.143 1.735-3.469 2.603-6.07 4.338-7.806 2.603-1.734 4.338-3.469 7.808-3.469 2.603-.867 6.073-1.735 9.544-1.735 3.47 0 6.94.868 10.41 1.735 2.603 0 5.206 1.735 6.941 3.47 1.736 1.734 3.47 4.336 4.338 7.805.868 3.47.868 6.94.868 12.143 0 4.337 0 8.674-.868 12.143-.867 3.47-2.602 6.072-4.338 7.806-1.735 1.735-4.338 3.47-6.94 4.337-3.47 0-6.941.867-10.411.867-3.47 0-6.941-.867-10.411-.867zm59.863-12.143c1.735-6.071 4.338-12.143 6.073-18.214 2.603-5.204 4.338-11.276 6.073-17.347h11.28l-7.81 23.418c-2.602 7.806-6.072 15.613-9.543 23.419h-13.881c-2.603-7.806-5.206-16.48-7.808-24.286-2.603-7.806-5.206-15.612-8.676-22.551h12.146c2.603 5.204 4.338 11.275 6.073 17.347 2.603 6.071 4.338 12.143 6.073 18.214 1.735 6.072 0 0 0 0zm50.32 11.276V22.55c1.736-.867 3.47-.867 5.206-1.735 1.735 0 3.47-.867 5.205-.867 2.603-.867 4.338-.867 6.074-.867 2.602-.868 4.338-.868 6.073-.868 3.47 0 6.073.868 8.676.868 2.602.867 4.338 2.602 6.073 4.336 1.735 1.735 2.602 3.47 3.47 6.94.868 2.601 1.735 6.07 1.735 10.407v26.02H219.5V35.562c-.868-1.734-.868-3.47-1.735-4.337-.868-.867-1.735-1.734-3.47-1.734-.868-.868-2.603-.868-5.206-.868s-5.206.868-8.676 1.735v36.429h-11.279zm201.281 0c-.868.867-2.603.867-3.47.867-1.736 0-2.603.867-4.338.867h-3.47c-3.471 0-6.941-.867-9.544-.867-3.47-.867-6.073-2.602-7.808-4.337-1.736-1.734-3.47-4.336-5.206-7.806-.868-3.47-.868-7.806-.868-12.143 0-5.204 0-8.673.868-12.143 1.735-3.469 3.47-6.07 5.206-7.806 1.735-1.734 4.338-3.469 7.808-3.469 2.603-.867 6.073-1.735 9.543-1.735h3.47c1.736.868 2.603.868 4.339.868.867 0 2.602 0 3.47.867.868 0 2.603 0 3.47.867l-2.602 9.541c-1.736 0-3.47-.867-5.206-1.735h-12.146c-.868.868-2.603 1.735-3.47 2.602-.868.868-1.736 2.603-2.603 4.337 0 1.735-.868 4.337-.868 7.806 0 3.47.868 6.072.868 7.806.867 1.735 1.735 3.47 2.602 4.337.868.868 2.603 1.735 3.47 2.602h12.147c1.735-.867 3.47-1.734 5.206-1.734l2.602 9.54c-.867.868-2.602.868-3.47.868zM89.362 27.756c-1.736 0-3.47 0-5.206.866-.867 0-2.603.868-3.47 1.735-.868.867-.868 2.602-1.735 5.204v15.612c.867 2.603.867 4.337 1.735 5.205.867.867 2.603 1.734 3.47 2.602H94.567c1.735-.868 2.603-1.735 3.47-2.602.868-.868 1.736-2.602 1.736-5.205 0-1.734.867-4.336.867-7.806 0-3.469-.867-6.071-.867-7.806 0-2.602-.868-4.337-1.735-5.204-.868-.867-1.736-1.735-3.47-1.735-1.736-.867-3.471-.867-5.206-.867zm77.215-7.807h12.146v46.837h-12.146V19.949zm172.65 33.827h3.47c.868.867 1.736.867 2.603.867.868.867.868 1.735.868 2.602.868.867.868 1.735.868 3.47 0 .867 0 2.601-.868 3.469 0 .867 0 1.734-.868 1.734-.867.868-1.735.868-2.602 1.735H335.757c-.868-.867-1.735-.867-1.735-1.735-.868 0-.868-.867-1.735-1.734v-6.94c.867-.866.867-1.734 1.735-2.601 0 0 .867 0 1.735-.867h3.47zM172.65 0h3.47c.868 0 1.736.867 1.736.867.867.868.867.868.867 1.735.868.867.868 1.735.868 3.47 0 2.601-.868 4.336-1.735 5.204-.868.867-2.603.867-5.206.867s-4.338 0-5.205-.867c-.868-.868-1.736-2.603-1.736-5.205 0-1.734.868-2.602.868-3.469s0-.867.868-1.735c.867 0 .867-.867 1.735-.867h3.47zM439 21.684c-1.735 3.47-3.47 6.071-5.206 9.54-2.602 3.47-5.205 6.072-6.94 9.541-2.603 3.47-4.338 6.072-6.941 8.674-1.735 3.47-3.47 6.071-5.205 7.806H439v9.54h-42.512v-1.734c2.603-3.47 4.338-6.071 6.94-9.54 2.604-3.47 5.206-6.072 6.942-9.542 2.602-3.469 4.338-6.071 6.073-8.673 2.602-3.47 3.47-5.204 5.205-7.806h-23.425v-9.541H439v1.735z"/></svg>