<svg xmlns="http://www.w3.org/2000/svg" id="Layer_1" width="376.9" height="76.1" viewBox="102.4 358 376.9 76.1"><style>.st0{fill:#db1a21}</style><g id="_x31_"><path d="M139.4 362.1c-2.1.3-4.2.7-6.4 1.2l-4.2.9c-1.3.3-2.6.6-3.8 1l-3.6 1.2c-2.3.9-4.5 2.2-6.3 3.7-1.2 1-2.2 2-3.1 3.3-.6.9-1.2 1.8-1.7 2.7-.5.9-.8 2-.8 3 0 3.1 1.9 5.6 4.1 7.5.7.6 1.5 1.2 2.3 1.7 2.3 1.6 4.9 3.1 7.5 4.3 2.7 1.3 5.4 2.5 8.1 3.7 2.6 1.1 5.2 2 7.9 2.9.8.3 1.5.5 2.3.8 2.4.8 4.9 1.5 7.2 2.4 1.5.5 3.1 1 4.6 1.7s3.1 1.4 4.5 2.4c.9.7 1.7 1.5 2.3 2.5s.9 2 1 3.2c0 1.1-.3 2.1-.8 3-1.5 2.3-4.1 3.9-6.6 5-3.7 1.6-7.6 3-11.5 4.1-2.2.7-4.4 1.3-6.7 1.9-2.2.6-4.5 1.2-6.8 1.8-2.3.6-4.5 1.1-6.8 1.6-1.3.3-2.6.6-3.9.8-.8.2-1.5.3-2.3.5-1.6.4-3.3.7-4.9 1.1-1.9.4-3.7.8-5.6 1.2-.5.1-1.1.3-1.6.4s-2.3.5-.9.5c1.9-.1 6.8-.5 17.4-2 3.8-.6 7.7-1.2 11.5-1.8 4.8-.8 9.6-1.7 14.3-2.8 1.4-.3 2.7-.7 4-1 .9-.2 1.8-.5 2.6-.8 3.7-1.2 9.7-3.2 11.1-3.8 5.4-2.4 8.8-4.2 10.5-8.4.6-1.5.9-3.2.7-4.8-.2-1.5-.7-3-1.5-4.3-.7-1.2-1.8-2.3-2.8-3.3-2-1.8-4.2-3.3-6.5-4.5-.7-.3-1.3-.7-2-1-.9-.4-1.7-.8-2.6-1.1-1.2-.5-2.4-1-3.7-1.4-3.2-1.1-6.5-2.1-9.8-3.2-1.8-.6-3.7-1.3-5.4-2-.8-.3-1.5-.7-2.2-1-.9-.4-1.7-.9-2.5-1.4-1-.6-2.7-1.7-2.2-3.1.3-1 1.4-1.4 2.4-1.8.8-.3 1.7-.6 2.6-.8 2.7-.7 5.4-1.2 8.1-1.7.8-.2 1.6-.3 2.4-.5 2.1-.5 4.3-.9 6.3-1.7 1.7-.7 4-1.8 4.6-3.7.9-2.8-.1-5.8-1.6-8.1-.5-.8-1.1-1.7-1.7-2.5-.8-1.1-1.7-2.2-2.5-3.2-.4-.5-.9-.4-1.3-.3-.7.1-2.1 1.8-13.7 4z" class="st0"/><path d="M301.2 400.6l.3.1c1.2.3 1.8 1.2.9 2.2-.3.3-.5.7-.8 1.1l-.2.3c-.2.3-.3.6-.4 1v.2c.1.5.5 1.1.8 1.6.6 1 1.1 1.8 1.8 2.7.1.1 1.5-2.2 1.6-2.3.5-.7 1.1-1.3 1.6-2 .7-.9 1.4-1.7 2.3-2.2.9-.6 2-.8 3.1-.9s2.2-.2 3.2-.2c2.2-.1 4.4-.4 6.6-.6.8-.1 2.1-.3 2.9.1.7.4 1.3 1.1 1.9 1.7.7.7 1.4 1.5 2 2.2.8.9 1.5 1.9 2.3 2.7.5.5 1.1 1 1.7 1.4l.3.2c1.1.5 1.8-.2 2.1-1.3.3-1.6-.6-3.2-1.3-4.6-.4-.7-.8-1.5-1.1-2.3-.3-.6-.6-1.6-.1-2.2.4-.5 1.3-.5 1.8-.6.7-.2 1.3-.4 2-.5 1.3-.3 2.7-.6 4-.8.8-.1 2-.7 2.7 0 .9.9 0 2.5-.3 3.4-.5 1.5-1.1 3.2-1.3 4.8-.2 1.5.2 3.1 1.2 4.3.7.9 1.9 1.6 3 1 .9-.5 1.5-1.6 1.9-2.5.7-1.7 1.2-3.5 1.8-5.3.5-1.6 1.1-3.2 1.7-4.8.4-1.2.9-2.3 1.4-3.4.3-.7.7-1.4 1-2.2.2-.6.3-1.4.9-1.8.7-.5 1.7.9 2 1.4.7.9 1.3 1.8 1.9 2.7.7 1 1.3 2.3 2.4 2.9 1.9 1 3.6-1.3 4.7-2.6.7-.8 1.5-1.7 2.3-2.6s1.7-1.8 2.5-2.7c.5-.6 1.2-1.7 2.1-1.7.8 0 .9.8 1 1.4.3 2.8.5 5.7.9 8.6.2 1.1.4 2.1.6 3.2l.3 1.5c.1.7.3 1.4.4 2.1.3 1.5.7 2.9 1.1 4.3.4 1.2.9 2.5 1.9 3.4 1.2 1 3.4.7 4.1-.7.2-.3.2-.7.3-1 .1-.7.1-1.4 0-2.1-.2-2.5-.9-4.9-.9-7.5 0-1 .1-2.1.2-3.1.2-2.4.5-4.8.6-7.2.2-3 .4-6.1-.4-9-.2-.8-.6-1.6-1-2.4-.4-.7-.9-1.3-1.4-1.8-.6-.6-1.2-1.1-1.9-1.5-.7-.4-1.5-.6-2.3-.7-1.8-.1-3.7.9-5.1 2-1.2.9-2.3 1.9-3.3 3-1.8 2-3.7 4-5.3 6.1-.5.6-1 1.8-2 1.6-1.1-.1-1.7-1.8-2.1-2.7-.3-.9-.7-1.7-1.1-2.5-.5-1-1-2.1-1.5-3.1-.4-.9-.8-1.8-1.5-2.5-.7-.8-1.7-1.2-2.7-1.6-.7-.2-1.8-.5-2.5-.1-1 .6-.8 2-.8 2.9-.1.8-.1 1.6-.2 2.5-.2 2-.3 4.1-.8 6-.2.9-.5 2-1.2 2.5-.6.4-1.3.4-2 .4h-1.7c-1.3 0-2.5-.1-3.8 0-1.1 0-2.2.1-3.2.1s-1.9.1-2.9.1c-1.1.1-2.4.2-3.4-.2-.8-.4-1.2-1.3-1.6-2-.5-1.1-1.2-2.1-1.8-3.2-.6-.9-1.1-1.9-1.7-2.8-.8-1.3-1.6-2.7-2.4-4-.5-.9-1.1-1.7-1.7-2.6-.5-.7-1.1-1.6-1.9-1.9s-1.5.2-1.7 1c-.1.5 0 1-.1 1.5s-.3 1-.5 1.5c-.4 1-1 1.9-1.6 2.8-1.9 3-3.4 6.3-5.1 9.4-.3.6-.7 1.1-1 1.7-.4.8-.7 1.5-1.7 1.7-.9.2-1.8.1-2.7.3-1.1.3-1.4 1.2-1.6 2.2-.2.9-.2 1.7-.3 2.6-.2.5-.3 1.2-.2 1.9zm14.1-10.6l.2-.4.2-.3.2-.3.2-.2.1-.2.1-.2.1-.2.1-.1.3-.5.2-.3.2-.3.4-.7.3-.4.3-.4.1-.1h.1l.2.1.1.1.1.2.3.4.3.5.3.7.3.8.4 1 .1.2.1.3.2.4.2.5v.2l.1.2v.8l-.1.2-.1.1-.2.1-.3.1h-.8l-2.2.2h-2.9l-.1-.1-.1-.1-.1-.2v-.4l.1-.2.2-.3.1-.2.1-.2.1-.2.1-.2.1-.1.3-.3zm-131.8 28.1c-.9 0-1.8.2-2.6.1-1-.1-1.7-.7-2.1-1.6-.4-1.1-.7-2.3-1-3.5-.2-1.1-.4-2.1-.3-3.3.1-.6.2-1 .7-1.5.8-.6 1.8-.2 2.7-.7.7-.4 1-1.3 1-2.1.1-1.3 0-2.7-.1-4-.2-3.4 0-6.8-.4-10.1-.1-.8-.3-1.7-1.2-1.9-1.7-.5-1.7-2.1-1.8-3.6-.1-.9-.1-2 .3-2.8.5-1.2 1.8-1.8 2.9-2.1 1.1-.3 2.2-.7 3.4-1 1.1-.3 2.3-.5 3.5-.7l3.6-.6c1.2-.2 2.4-.3 3.6-.5 1.1-.1 2.2-.3 3.4-.3 1.3-.1 2.6-.2 3.9-.2h3.5c1.2 0 2.3.1 3.5.1s2.4.1 3.6.3c1.7.2 3.4.5 4.8 1.5 1.5 1 2.6 3.1 1 4.6-1.5 1.6-4 1.3-6 1.3-1.6 0-3.3 0-4.9.1-1.6 0-3.1.2-4.7.3-1.5.1-2.9.2-4.4.3-1.5.1-3 .3-4.5.4-1.2.1-2.4.2-3.6.5-1 .2-2.2.4-2.9 1.1-.6.5-.6 1.5-.4 2.2.5 1.4 2.5 1 3.6 1 2.5-.1 5-.5 7.4-.7 1.1-.1 2.3-.1 3.4-.2 1.4-.1 2.7-.1 4.1-.1 1.2.1 2.4.2 3.6.4 1.5.3 2.8.9 4.1 1.5 1.7.6 1.4 2.8 1.2 4.1-.1.7-.4 1.4-1 1.8-1.5.9-3.6.7-5.3.7-1.6 0-3.3.2-4.9.3-2.6.2-5.2.5-7.7.8-1.6.2-3.2.5-4.7.6-1.1.1-2.5 0-3.3.8l-.2.1-.1.1-.1.2-.1.2c-.1.7-.8 2.8-.1 3.4l.1.1h.2c.9 0 1.7 0 2.6-.1 1.3-.1 2.6-.1 3.9-.2 2.5-.2 5-.4 7.6-.6 1.6-.1 3.3-.2 5-.4 2.5-.2 5-.4 7.5-.5 1.5-.1 3 0 4.4-.7 1.6-.7 3-2 4.6-2.9 2-1 4.1-2 6.2-3 2.5-1.2 5-2.6 7.5-3.7 2-.9 4-1.7 5.9-2.6 1-.4 1.9-.8 2.8-1.3.6-.4 2.3-1.2 1.8-2.2-.2-.5-.9-.6-1.4-.6-1.9-.2-6.6.1-9.5.6-4.7.8-5.4 1.4-6.7.1-1-1.1-.7-2.6-.6-3.9.1-1.4.8-3.4 1.3-3.9 1.4-1.8 5.8-2 7.9-2.1 1.1-.1 2.2-.1 3.3-.1 1.5 0 3 .1 4.6.1 1.3.1 2.6.1 3.9.3 1.5.1 3.1.2 4.6.7.5.2.9.3 1.4.5 1.5.7 2.9 1.6 3.9 2.9.6.8 1 1.7 1.2 2.6.1.5.2.9.1 1.4 0 .3-.1 1-.4 1.3l-.1.1c-.2.5-.6.9-1 1.2-1.8 1.6-4.4 2.1-6.5 3-1.1.4-2.1.9-3.2 1.4-2.9 1.3-5.8 2.7-8.8 3.9-2.5 1-4.9 2-7.3 3.3-.6.3-1.6.8-2 1.5s.5.7 1 .7c.6 0 1.2 0 1.8-.1 1.8-.1 3.6-.3 5.5-.5s3.7-.4 5.6-.6c1.8-.2 3.5-.5 5.2-.6 1.9-.2 3.8-.3 5.7-.3 1.9 0 3.8 0 5.7.3h.8c.8 0 1.6-.1 2-.9.7-1.3 1-2.9 1.5-4.2.6-1.8 1.3-3.6 1.9-5.3.1-.2.2-.5.3-.7.7-2 1.4-4 2.2-6l.9-2.4c.2-.6.3-1.2.6-1.8.5-.9 1.4-1.6 2.3-.9.8.6 1.3 1.5 1.8 2.4s.9 1.8 1.1 2.7c.2 1 0 1.9-.3 2.8-.3 1-.7 1.9-1 2.9-.6 2.1 1.5 3.8 3.1 4.8 1.5.9 3.1 1.5 4.7 2.1 1.2.5 2.3 1 3.6 1.3.7.1 1.7.3 2.3-.2 1.1-.8 1.4-2.3 1.7-3.5.4-1.5.8-3 1.1-4.4.3-1.2.5-2.5.6-3.7l.3-3c.1-1.3 0-2.5-.1-3.8 0-.8.1-1.9.7-2.6.7-.9 2-.4 2.7.4l.2.3c.4.6.7 1.4.9 2.1.4 1.3.6 2.6.7 4 .1 1.1.2 2.2.2 3.3.1 3.8-.1 7.6-.6 11.4-.3 2-.7 4-1.2 6-.2 1.1-.4 2.2-.9 3.3-.3.7-.8 1.3-1.3 1.9-.2.3-.5.5-.8.7-1 .7-2.4.6-3.6.5-1.6-.2-3.2-.6-4.8-1.1-1-.4-1.9-.7-2.9-1.2s-1.9-.9-2.8-1.4-1.8-1.1-2.7-1.7c-.8-.6-1.6-1.2-2.3-2-.6-.6-1.1-1.5-1.7-2.1-.6-.7-1.1-1-1.5 0-.2.6-.4 1.3-.5 2-.2 1.2-.6 2.3-1 3.5-.3 1.1-1.9 4.3-3.5 2.8-.5-.5-.9-1.1-1.7-1.1-.8 0-1.6.3-2.4.5s-1.7.3-2.5.5c-1.6.3-3.2.7-4.8 1-1.1.2-2.1.4-3.2.5-1 .2-2 .3-3.1.5s-2.1.3-3.2.5c-1.7.2-3.3.4-5 .6-1.3.2-2.6.3-4 .5l-3.3.3c-1.8.2-3.7.3-5.5.4-2.8.1-5.7.3-8.4-.3-.6-.1-1.5-.2-2-.7-.3-.3-.1-.9-.3-1.3v-.1l-.1-.1-.1-.1h-.5l-.1.1-.2.2-.1.2-.1.2-.1.2c-.6 1.9-2.6 2.7-4.5 2.9l-29.2 3.9zm275-15c-3.9.3-7.5.9-11.4.6-1.3-.1-3.4-.2-4.5-.9-3.1-2.1 7.8-5.7 9.2-6.2 3.8-1.4 11.5-3.6 11.5-3.6s7.2-1.8 7.4-5.7c.3-4.7-4.6-6.8-8.3-8-1.5-.3-3.1-.6-4.6-.8-1.1-.1-2.1-.2-3.2-.2-2-.1-3.9.1-5.9.4-2 .2-6.4.4-7 2.9-.3 1.3-1.8 4-.6 5.2 1.3 1.3 3.4.7 5.1.6 2.2-.2 4.4-.6 6.6-.9 1.6-.2 3.8-.5 5.1.7 1.7 1.5-2.7 2.9-3.6 3.3-3.3 1.4-6.8 2.4-10.1 3.8-3.1 1.3-6.2 2.5-9.3 4-1.4.7-2.7 1.5-4 2.3l-.6-.4-3.8.4-3.8.3c-2.6.2-5.2.3-7.7.4-1.3 0-3.3.1-4.3-.9-2.2-2.1-1-5 .5-7 1.6-2.2 3.8-3.8 6.2-5.2 1.6-.9 3.3-1.7 5-2.2 1.2-.4 2.4-.7 3.6-.8.2.3.4.7.6 1 .1.2 3-1 3.2-1.2.9-.5 2.1-1.4 2.1-2.5 0-1.3-1.1-2.7-2.2-3.4-1.2-.8-2.5-1-3.9-1-1.5 0-3 .1-4.5.3-1 .1-2.1.4-3.1.7-1.7.5-3.3 1.2-4.8 2-2 1.1-4 2.7-5.6 4.4-.8.8-1.5 1.7-2 2.7-.7 1.2-1.3 2.6-1.7 3.9-1.2 3.8-.8 8.4.9 12 1.2 2.4 3 4.5 5.3 6 2.9 1.8 6.6 2.4 9.9 1.7 1.4-.3 2.6-.6 3.9-1.1 1.4-.6 2.7-1 4-1.7.2-.1 3-1.7 3.1-1.5.4.6.7 1.2 1.1 1.8.4.5 1 1 1.5 1.4 1.1.8 2.4 1.2 3.8 1.3 3.4.4 6.9.6 10.4.7 2.8 0 5.5-.2 8.3-.4 1.8-.2 3.6-.4 5.3-.6 4.5-.6 8.2-1.6 13.1-3.7 2.3-1.1 3.7-2.5 4.6-3.5-.5-.3-1.1-.6-1.7-.8-3.5-1.4-7.6-1.5-11.3-1-1.7.2-3.5.4-5.2.5-1-.2-1.8-.1-2.6-.1zm-60 4.1c0-.7 0-1.3-.2-1.8-.5-1.3-1.9-2.7-3.3-2.9-1.3-.2-2.8 0-3.8.8-.6.4-1.2 1.1-1.5 1.8-.6 1.4-.6 3.6.4 4.9 1.6 2.2 4.9 2.2 6.8.4.9-.9 1.6-2 1.6-3.2z"/></g></svg>