<svg xmlns="http://www.w3.org/2000/svg" xmlns:xlink="http://www.w3.org/1999/xlink" width="2181" height="950" viewBox="0 0 2181 950"><defs><path id="a" d="M1681 651c-166.41-12.68-190.25-135.45-381-111-190.75 24.45-225.06 190.68-532 113s-410.25-5.49-546 34c-94.13 27.38-178.88-5.33-222-27.96V-30h1920v645.74c-60.8 20.46-149.35 42.09-239 35.26z"/><path id="c" d="M-61 706s173.8-161.57 441-34 477.67-86.57 777-90c299.33-3.43 308.88 136.75 550 2 217.37-121.47 422 355 422 355l-2166-1z"/><linearGradient id="b" x1="960" x2="960" y1="697.42" y2="-30" gradientUnits="userSpaceOnUse"><stop offset="0" stop-color="#e4e0ff"/><stop offset=".31" stop-color="#fff"/><stop offset="1" stop-color="#fff"/></linearGradient><linearGradient id="d" x1="1034" x2="1034" y1="564.18" y2="939" gradientUnits="userSpaceOnUse"><stop offset="0" stop-color="#7b00ff"/><stop offset=".51" stop-color="#fff" stop-opacity=".49"/><stop offset="1" stop-color="#fff" stop-opacity="0"/></linearGradient></defs><desc>Generated with Avocode.</desc><g transform="translate(61 30)"><use fill="#9b3eff" xlink:href="#a"/><use fill="url(#b)" xlink:href="#a"/></g><g opacity=".07" transform="translate(61 30)"><use xlink:href="#c"/><use fill="url(#d)" xlink:href="#c"/></g></svg>